<svg id="showreel-triger-object" xmlns="http://www.w3.org/2000/svg" xmlns:xlink="http://www.w3.org/1999/xlink" 
	shape-rendering="geometricPrecision" text-rendering="geometricPrecision" width="110px" height="110px" viewBox="0 0 110 110" 
	style="enable-background:new 0 0 110 110;" xml:space="preserve">

	<style type="text/css">
		#rotation-group {
				animation: rotateInfinite 9000ms linear infinite normal forwards
			}
			@keyframes rotateInfinite {
				0% {
					transform: translate(55px,55px) rotate(0deg);
					}
				100% {
					transform: translate(55px,55px) rotate(360deg);
					}
			}
	</style>

	<path fill="#ffffff" d="M55,2c29.2,0,53,23.8,53,53s-23.8,53-53,53S2,84.2,2,55S25.8,2,55,2 M55,0C24.6,0,0,24.6,0,55s24.6,55,55,55
		s55-24.6,55-55S85.4,0,55,0L55,0z"/>
	<path fill="#ffffff" d="M46.4,44.5c0.2-0.9,0.7-1.5,1.7-1.5h9.2c0.4,0,0.7,0.1,1,0.4c0.3,0.3,0.4,0.6,0.4,1c0,0.2,0,0.4-0.1,0.5
		l-2.5,6.7h7.6c0.6,0,1.1,0.2,1.4,0.6c0.4,0.4,0.6,0.8,0.6,1.4c0,0.4-0.1,0.8-0.3,1.1L55,70.2c-0.3,0.5-0.8,0.8-1.4,0.8h-0.2
		c-0.4,0-0.8-0.1-1.1-0.4c-0.3-0.3-0.4-0.7-0.4-1.1c0-0.1,0-0.3,0.1-0.4l2.6-10.3h-7.9c-0.5,0-0.9-0.2-1.3-0.5s-0.5-0.7-0.5-1.3
		L46.4,44.5z"/>
	<g id="rotation-group" transform="translate(55,55) rotate(360)">
		<path fill="#ffffff" transform="translate(-55,-55)" d="M64.5,13.9l0.2-0.6l1,0.3l0.8,0.4l0.1-0.1L66,13.1l-0.5-0.9l0.6-0.3l0.5,0.9l0.3,0.8l0.1,0l0.1-0.9l0.3-1
			l0.6,0.2l-0.3,1l-0.4,0.8l0.1,0.1l0.7-0.5l0.9-0.5l0.3,0.6l-0.9,0.5l-0.8,0.3l0,0.1l0.9,0.1l1,0.3l-0.2,0.6l-1-0.3l-0.8-0.3
			l-0.1,0.1l0.5,0.7l0.5,0.9l-0.6,0.3l-0.5-0.9l-0.3-0.8l-0.2,0L67,16l-0.3,1L66,16.8l0.3-1l0.4-0.8l-0.1-0.1l-0.7,0.5l-0.9,0.5
			l-0.3-0.6l0.9-0.5l0.8-0.3l0-0.1l-0.9-0.1L64.5,13.9z M74.6,24.6c-0.5-0.3-0.9-0.7-1.2-1.2c-0.3-0.5-0.4-1-0.4-1.5s0.2-1.1,0.6-1.7
			l0.1-0.2l0.9,0.6l-0.1,0.2C74,21.4,73.9,22,74,22.5s0.5,1,1.1,1.3c0.6,0.4,1.1,0.5,1.6,0.5c0.5-0.1,0.8-0.3,1.1-0.7
			c0.2-0.3,0.2-0.5,0.2-0.8s-0.1-0.5-0.3-0.8s-0.4-0.5-0.7-0.8l-0.5-0.5c-0.4-0.4-0.6-0.8-0.9-1.1c-0.2-0.4-0.3-0.8-0.4-1.1
			s0.1-0.8,0.4-1.2c0.3-0.4,0.6-0.7,1-0.9s0.8-0.2,1.3-0.1c0.5,0.1,1,0.3,1.5,0.6c0.5,0.3,0.9,0.7,1.2,1.1c0.3,0.4,0.4,0.9,0.4,1.4
			c0,0.5-0.1,1-0.5,1.5l-0.3,0.4l-0.9-0.6l0.3-0.4c0.2-0.4,0.3-0.7,0.3-1c0-0.3-0.1-0.6-0.3-0.9c-0.2-0.3-0.5-0.5-0.8-0.7
			c-0.5-0.3-0.9-0.5-1.4-0.4c-0.4,0-0.8,0.2-1,0.6c-0.2,0.3-0.2,0.5-0.2,0.8c0,0.2,0.1,0.5,0.3,0.7c0.2,0.3,0.4,0.5,0.7,0.8l0.5,0.5
			c0.4,0.4,0.7,0.7,0.9,1.1s0.4,0.8,0.4,1.2c0,0.4-0.1,0.8-0.4,1.3s-0.6,0.7-1.1,0.9c-0.4,0.2-0.9,0.2-1.4,0.2
			C75.7,25.2,75.2,25,74.6,24.6z M78.5,27.1l6.2-6.2l0.7,0.7l-2.7,2.8l2.9,2.9l2.7-2.8l0.7,0.7l-6.2,6.2l-0.7-0.7l2.8-2.8L82,25.1
			l-2.8,2.8L78.5,27.1z M85.6,35.7C85,34.8,84.9,34,85,33.1c0.2-0.8,0.8-1.6,1.7-2.2l1.7-1.1c1-0.6,1.9-0.8,2.7-0.6
			c0.8,0.2,1.5,0.7,2.1,1.6c0.6,0.9,0.8,1.8,0.6,2.6c-0.2,0.8-0.8,1.6-1.7,2.2l-1.7,1.1c-1,0.6-1.9,0.8-2.7,0.6S86.2,36.6,85.6,35.7z
			M86.4,35.2c0.4,0.6,0.9,1,1.5,1.1c0.6,0.1,1.3-0.1,1.9-0.5l1.8-1.1c0.7-0.4,1.1-0.9,1.3-1.5s0-1.2-0.4-1.9c-0.4-0.6-0.9-1-1.5-1.1
			c-0.6-0.1-1.3,0.1-1.9,0.5l-1.8,1.1c-0.7,0.4-1.1,0.9-1.3,1.5S86,34.6,86.4,35.2z M88.6,40.6l7.9-4l0.3,1l-7.3,3.6l0.1,0.2l8.2-0.9
			l0.6,1.8l-7.2,4l0.1,0.2l8.1-1.3l0.3,1l-8.8,1.3l-0.6-1.8l7.3-4l-0.1-0.2l-8.2,0.9L88.6,40.6z M91.2,50.1l8.7-0.5l0.2,3.5
			c0,0.5,0,1-0.2,1.4s-0.4,0.8-0.7,1c-0.3,0.3-0.7,0.4-1.2,0.4l-0.1,0c-0.6,0-1-0.1-1.4-0.3c-0.3-0.3-0.6-0.6-0.7-0.9l-0.2,0
			c0,0.3-0.1,0.6-0.3,0.8c-0.2,0.2-0.5,0.3-0.8,0.3L91.5,56l-0.1-1l2.8-0.2c0.2,0,0.4-0.1,0.6-0.2c0.1-0.1,0.2-0.4,0.2-0.6l-0.2-3
			l-3.6,0.2L91.2,50.1z M95.8,50.9l0.1,2.4c0,0.6,0.2,1,0.5,1.3c0.3,0.3,0.7,0.4,1.2,0.4l0.1,0c0.5,0,0.9-0.2,1.1-0.5
			c0.3-0.3,0.4-0.8,0.3-1.4L99,50.7L95.8,50.9z M91.4,57.8L100,59l-0.8,5.3l-0.9-0.1l0.6-4.3l-2.9-0.4l-0.6,3.9l-0.9-0.1l0.6-3.9
			L92.2,59l-0.6,4.4l-0.9-0.1L91.4,57.8z M90.2,64.6l8.3,2.9l-1.8,5.1l-0.9-0.3l1.4-4.1l-2.8-1L93.2,71l-0.9-0.3l1.3-3.8l-2.8-1
			l-1.4,4.2l-0.9-0.3L90.2,64.6z M87.8,71.1l7.6,4.4l-0.5,0.9l-6.8-3.9l-2.2,3.8l-0.8-0.5L87.8,71.1z M86.7,83l0.5,0.5l-0.8,0.8
			l-0.7,0.5l0.1,0.1l0.9-0.1l1.1,0l0,0.7l-1.1,0l-0.9-0.1l-0.1,0.1l0.7,0.5l0.8,0.8l-0.5,0.5L86,86.4l-0.5-0.7l-0.1,0.1l0.1,0.9l0,1.1
			l-0.7,0l0-1.1l0.1-0.9l-0.1-0.1l-0.5,0.7l-0.8,0.8L83,86.7l0.8-0.8l0.7-0.5l0-0.1l-0.9,0.1l-1.1,0l0-0.7l1.1,0l0.9,0.1l0.1-0.1
			l-0.7-0.5L83,83.4l0.5-0.5l0.8,0.8l0.5,0.7l0.1-0.1l-0.1-0.9l0-1.1l0.7,0l0,1.1l-0.1,0.9l0.1,0l0.5-0.7L86.7,83z M72.4,86.8
			c0.6-0.3,1.1-0.5,1.7-0.5s1.1,0.1,1.5,0.3c0.5,0.3,0.9,0.7,1.2,1.3l0.1,0.2L76,88.6l-0.1-0.2c-0.4-0.6-0.8-1-1.3-1.1
			c-0.5-0.1-1.1,0-1.7,0.3c-0.6,0.3-1,0.7-1.1,1.2c-0.2,0.4-0.1,0.9,0.1,1.3c0.2,0.3,0.4,0.5,0.6,0.6c0.2,0.1,0.5,0.1,0.8,0.1
			c0.3,0,0.7-0.1,1.1-0.2l0.6-0.2c0.5-0.1,1-0.2,1.4-0.2c0.4,0,0.8,0.1,1.2,0.2c0.3,0.2,0.6,0.5,0.9,0.9c0.2,0.4,0.3,0.9,0.3,1.3
			c0,0.4-0.2,0.8-0.5,1.2c-0.3,0.4-0.7,0.7-1.2,1c-0.5,0.3-1,0.5-1.5,0.5c-0.5,0-1,0-1.4-0.2c-0.4-0.2-0.8-0.6-1.1-1.1l-0.3-0.5
			l0.9-0.5l0.3,0.5c0.2,0.4,0.5,0.6,0.7,0.8c0.3,0.1,0.6,0.2,0.9,0.1s0.7-0.2,1-0.4c0.5-0.3,0.8-0.6,1-1s0.2-0.8-0.1-1.2
			c-0.1-0.3-0.3-0.5-0.6-0.5c-0.2-0.1-0.5-0.1-0.8-0.1c-0.3,0-0.6,0.1-1,0.2l-0.6,0.2c-0.5,0.2-1,0.2-1.4,0.3c-0.4,0-0.8,0-1.2-0.2
			c-0.4-0.2-0.7-0.5-0.9-0.9s-0.4-0.9-0.3-1.4c0-0.5,0.2-0.9,0.5-1.3C71.5,87.5,71.9,87.1,72.4,86.8z M68.4,89.1l2.5,8.4l-1,0.3
			L68.8,94l-3.9,1.2l1.1,3.7l-1,0.3l-2.5-8.4l1-0.3l1.1,3.7l3.9-1.2l-1.1-3.7L68.4,89.1z M57.5,91.2c1-0.1,1.9,0.2,2.5,0.7
			c0.7,0.6,1,1.4,1.1,2.6l0.1,2c0.1,1.2-0.2,2.1-0.7,2.7c-0.6,0.6-1.4,1-2.4,1.1c-1,0.1-1.9-0.2-2.6-0.7c-0.7-0.6-1-1.4-1.1-2.6
			l-0.1-2c-0.1-1.2,0.2-2.1,0.7-2.7C55.7,91.6,56.5,91.3,57.5,91.2z M57.6,92.2c-0.8,0.1-1.3,0.3-1.7,0.8c-0.4,0.5-0.5,1.1-0.5,1.9
			l0.1,2.1c0.1,0.8,0.3,1.4,0.8,1.8c0.4,0.4,1,0.6,1.8,0.6c0.7-0.1,1.3-0.3,1.7-0.8s0.5-1.1,0.5-1.9l-0.1-2.1
			c-0.1-0.8-0.3-1.4-0.8-1.8S58.3,92.1,57.6,92.2z M51.8,91.5l-0.2,8.9l-1-0.2l0.3-8.2l-0.2,0l-3.1,7.6l-1.8-0.3L45.6,91l-0.2,0
			l-2.7,7.7l-1-0.2l3-8.3l1.8,0.3l0.1,8.3l0.2,0l3.1-7.7L51.8,91.5z M42.2,89.3l-3.7,7.9l-3.2-1.5c-0.5-0.2-0.9-0.5-1.2-0.9
			s-0.5-0.7-0.5-1.1s0-0.8,0.2-1.3l0.1-0.1c0.2-0.5,0.6-0.9,1-1.1c0.4-0.2,0.8-0.3,1.2-0.2l0.1-0.2c-0.3-0.1-0.5-0.3-0.5-0.6
			s-0.1-0.5,0.1-0.9l1.2-2.7l0.9,0.4l-1.2,2.5c-0.1,0.2-0.1,0.4-0.1,0.6c0.1,0.2,0.2,0.3,0.5,0.4l2.7,1.3l1.5-3.2L42.2,89.3z M39.4,93
			l-2.2-1c-0.5-0.2-1-0.3-1.4-0.2s-0.7,0.4-0.9,0.9l0,0.1c-0.2,0.5-0.2,0.9-0.1,1.3c0.2,0.4,0.5,0.7,1,0.9l2.2,1L39.4,93z M35.3,85.8
			l-5.2,7l-4.3-3.2l0.6-0.8l3.5,2.6l1.7-2.3l-3.2-2.4l0.6-0.8l3.2,2.4l1.8-2.4l-3.5-2.6l0.6-0.8L35.3,85.8z M29.9,81.5l-6.4,5.9
			l-3.6-4l0.7-0.6l2.9,3.2l2.2-2l-2.7-2.9l0.7-0.6l2.7,2.9l2.2-2l-3-3.2l0.7-0.6L29.9,81.5z M25.3,76.3l-7.4,4.6L17.3,80l6.6-4.1
			l-2.3-3.8l0.8-0.5L25.3,76.3z M15.4,69.7l-0.6,0.2l-0.3-1L14.3,68l-0.1,0l-0.3,0.8l-0.5,0.9l-0.6-0.3l0.5-0.9l0.5-0.7l-0.1-0.1
			l-0.8,0.4l-1,0.3l-0.2-0.6l1-0.3l0.9-0.1l0-0.1l-0.8-0.3l-0.9-0.5l0.3-0.6l0.9,0.5l0.7,0.5l0.1-0.1l-0.4-0.8l-0.3-1l0.6-0.2l0.3,1
			l0.2,0.9l0.1,0l0.3-0.8l0.5-0.9l0.6,0.3L15.4,66l-0.5,0.7l0.1,0.1l0.8-0.4l1-0.3l0.2,0.6l-1,0.3l-0.9,0.1l0,0.2l0.8,0.3l0.9,0.5
			l-0.3,0.6l-0.9-0.5l-0.7-0.5l-0.1,0.1l0.3,0.8L15.4,69.7z M18.8,55.4c0,0.6-0.1,1.2-0.3,1.7c-0.2,0.5-0.5,0.9-1,1.2
			c-0.4,0.3-1,0.4-1.7,0.5l-0.3,0l0-1l0.3,0c0.7,0,1.3-0.2,1.6-0.7c0.3-0.4,0.5-1,0.5-1.6c0-0.7-0.2-1.2-0.5-1.6
			c-0.3-0.4-0.7-0.5-1.2-0.5c-0.3,0-0.6,0.1-0.8,0.3s-0.3,0.4-0.5,0.7c-0.1,0.3-0.2,0.6-0.3,1l-0.2,0.7c-0.1,0.5-0.3,1-0.5,1.4
			c-0.2,0.4-0.4,0.7-0.7,0.9c-0.3,0.2-0.7,0.3-1.2,0.4c-0.5,0-0.9-0.1-1.3-0.3c-0.4-0.2-0.6-0.6-0.8-1c-0.2-0.4-0.3-1-0.3-1.5
			c0-0.6,0.1-1.1,0.3-1.6s0.5-0.8,0.9-1.1s0.9-0.4,1.5-0.4l0.5,0l0,1l-0.5,0c-0.4,0-0.8,0.1-1,0.3c-0.3,0.2-0.4,0.4-0.6,0.7
			s-0.2,0.7-0.2,1.1c0,0.6,0.1,1,0.4,1.4s0.6,0.5,1.1,0.5c0.3,0,0.6-0.1,0.7-0.2s0.3-0.4,0.5-0.6c0.1-0.3,0.2-0.6,0.3-1l0.2-0.7
			c0.1-0.5,0.2-1,0.4-1.4s0.4-0.7,0.7-1c0.3-0.2,0.7-0.4,1.3-0.4s1,0.1,1.4,0.4c0.4,0.3,0.7,0.6,0.9,1.1
			C18.7,54.2,18.8,54.7,18.8,55.4z M18.7,50.8L10.2,49l0.2-1l3.8,0.8l0.8-4L11.2,44l0.2-1l8.6,1.8l-0.2,1l-3.8-0.8l-0.8,4l3.8,0.8
			L18.7,50.8z M22,40.1c-0.4,0.9-1,1.6-1.9,1.9c-0.8,0.3-1.7,0.2-2.8-0.2l-1.8-0.8c-1.1-0.5-1.7-1.1-2-1.9c-0.3-0.8-0.2-1.7,0.2-2.6
			c0.4-1,1.1-1.6,1.9-1.9c0.8-0.3,1.7-0.2,2.8,0.2l1.8,0.8c1.1,0.5,1.7,1.1,2,1.9S22.5,39.2,22,40.1z M21.2,39.7
			c0.3-0.7,0.4-1.3,0.1-1.9c-0.2-0.6-0.7-1-1.5-1.4l-1.9-0.9c-0.7-0.3-1.4-0.4-2-0.2c-0.6,0.2-1,0.6-1.3,1.3c-0.3,0.7-0.3,1.3-0.1,1.9
			s0.7,1,1.5,1.4l1.9,0.9c0.7,0.3,1.4,0.4,2,0.2C20.4,40.8,20.9,40.4,21.2,39.7z M24.5,34.9l-7.7-4.4l0.7-0.8l7,4.1l0.1-0.1l-5.2-6.3
			l1.2-1.5l7.3,3.9l0.1-0.1l-5.5-6.1l0.7-0.8l5.9,6.6l-1.2,1.5l-7.3-3.9l-0.1,0.1l5.3,6.4L24.5,34.9z M31,27.6l-5.2-7l2.8-2.1
			c0.4-0.3,0.9-0.5,1.3-0.6c0.4-0.1,0.9-0.1,1.3,0.1c0.4,0.1,0.7,0.4,1,0.8l0.1,0.1c0.3,0.5,0.5,0.9,0.5,1.3c0,0.4-0.1,0.8-0.4,1.1
			l0.1,0.1c0.2-0.2,0.5-0.2,0.8-0.2c0.3,0,0.5,0.2,0.7,0.5l1.8,2.4l-0.8,0.6l-1.7-2.3c-0.1-0.2-0.3-0.3-0.5-0.3c-0.2,0-0.4,0-0.6,0.2
			l-2.4,1.8l2.1,2.9L31,27.6z M29.1,23.3l1.9-1.4c0.5-0.3,0.7-0.7,0.8-1.1c0.1-0.4,0-0.8-0.3-1.2l-0.1-0.1c-0.3-0.4-0.7-0.6-1.1-0.7
			c-0.4,0-0.9,0.1-1.3,0.5l-1.9,1.4L29.1,23.3z M37.3,23.2l-3.7-7.9l4.9-2.3l0.4,0.9L35,15.6l1.2,2.7l3.6-1.7l0.4,0.9l-3.6,1.7
			l1.3,2.7l4-1.9l0.4,0.9L37.3,23.2z M43.7,20.4l-2.1-8.5l5.2-1.3l0.2,0.9l-4.2,1.1l0.7,2.8l3.9-1l0.2,0.9l-3.9,1l0.7,2.9l4.3-1.1
			l0.2,0.9L43.7,20.4z M50.5,18.9L50,10.2l1-0.1l0.5,7.8l4.4-0.3l0.1,0.9L50.5,18.9z"/>
	</g>

</svg>
