<svg id="cv-object" xmlns="http://www.w3.org/2000/svg" xmlns:xlink="http://www.w3.org/1999/xlink" 
	shape-rendering="geometricPrecision" text-rendering="geometricPrecision" width="110px" height="110px" viewBox="0 0 110 110" 
	style="enable-background:new 0 0 110 110;" xml:space="preserve">

	<style type="text/css">
		#rotation-group {
			animation: rotateInfinite 9000ms linear infinite normal forwards
		}
		@keyframes rotateInfinite {
			0% {
				transform: translate(55px,55px) rotate(0deg);
				}
			100% {
				transform: translate(55px,55px) rotate(360deg);
				}
		}
	</style>

	<path fill="#FFFFFF" d="M55,0C24.6,0,0,24.6,0,55s24.6,55,55,55s55-24.6,55-55S85.4,0,55,0L55,0z"/>
	<path fill="#807DF2" d="M50.7,53.9h-4.6l-4.7-10.8c-0.2-0.6-0.2-1.1-0.1-1.7c0.2-0.5,0.6-0.9,1.1-1.1c0.6-0.2,1.1-0.2,1.7-0.1
		c0.5,0.2,0.9,0.6,1.1,1.1L50.7,53.9z M47,56.1h4.6h1.7c0.8,0,1.4,0.3,1.9,0.8S56,58,56,58.8c0,0.8-0.3,1.4-0.8,1.9s-1.1,0.8-1.9,0.8
		h-3.7c-0.7,0-1,0.4-1.1,1.1c0,0.7,0.4,1,1.1,1.1h3.7c1.4,0,2.5-0.5,3.4-1.4s1.3-2,1.4-3.4v-0.1c0.6,0.4,1.3,0.6,2.1,0.6
		c0.9,0,1.7-0.2,2.4-0.7c0.3,0.8,0.8,1.5,1.5,2.1c0.7,0.5,1.5,0.8,2.5,0.8c0.8,0,1.5-0.2,2.1-0.6v0.6c-0.1,3-1.1,5.5-3.1,7.5
		s-4.5,3-7.5,3.1H54c-2.9,0-5.4-1.1-7.5-3.1l-0.7-0.7c-1.6-1.7-2.5-3.7-2.5-6v-1.8c0-1.1,0.4-2.1,1.1-2.9C45.1,56.7,46,56.3,47,56.1
		L47,56.1z M55.5,38.6c0.4,0.4,0.6,0.9,0.6,1.5v13.8h-4.2V40.1c0-0.6,0.2-1.1,0.6-1.5S53.4,38,54,38C54.5,38,55.1,38.2,55.5,38.6z
		M61.8,49.2c0.4,0.4,0.6,0.9,0.6,1.5V55c0,0.6-0.2,1.1-0.6,1.5s-0.9,0.6-1.5,0.6s-1.1-0.2-1.5-0.6s-0.6-0.9-0.6-1.5v-4.2
		c0-0.6,0.2-1.1,0.6-1.5s0.9-0.6,1.5-0.6C60.9,48.6,61.4,48.8,61.8,49.2z M65.2,51.3c0.4-0.4,0.9-0.6,1.5-0.6s1.1,0.2,1.5,0.6
		s0.6,0.9,0.6,1.5V57c0,0.6-0.2,1.1-0.6,1.5s-0.9,0.6-1.5,0.6s-1.1-0.2-1.5-0.6s-0.6-0.9-0.6-1.5v-4.2C64.6,52.3,64.8,51.7,65.2,51.3
		z"/>

	<g id="rotation-group" transform="translate(55,55) rotate(360)">
		<path fill="#212121" transform="translate(-55,-55)" d="M59.2,18.5l0.1-0.8l1,0.2l1.1-5.5l-1-0.2l0.1-0.8l2.7,0.5c0.9,0.2,1.6,0.5,2,1.1s0.5,1.3,0.3,2.3l-0.3,1.3
			c-0.2,1-0.6,1.6-1.2,2s-1.1,0.6-2,0.4L59.2,18.5z M61.2,18.1l0.9,0.2c0.7,0.1,1.2,0.1,1.6-0.2c0.4-0.3,0.7-0.8,0.8-1.5l0.3-1.4
			c0.1-0.7,0.1-1.3-0.2-1.7c-0.3-0.4-0.8-0.7-1.4-0.8l-0.9-0.2L61.2,18.1z M68.2,20.9c-0.8-0.3-1.3-0.8-1.6-1.4
			c-0.3-0.6-0.3-1.4,0.1-2.3l0.6-1.5c0.3-0.9,0.8-1.5,1.5-1.7s1.4-0.3,2.2,0c0.8,0.3,1.3,0.8,1.6,1.4c0.3,0.6,0.3,1.4-0.1,2.3
			l-0.6,1.5c-0.3,0.9-0.8,1.5-1.5,1.7S69,21.2,68.2,20.9z M68.5,20.2c0.6,0.2,1.1,0.2,1.5,0c0.5-0.2,0.8-0.6,1-1.3l0.6-1.6
			c0.2-0.6,0.3-1.2,0.1-1.6c-0.2-0.5-0.6-0.8-1.1-1c-0.6-0.2-1.1-0.2-1.5,0c-0.5,0.2-0.8,0.6-1,1.3l-0.6,1.6c-0.2,0.6-0.3,1.2-0.1,1.6
			S67.9,20,68.5,20.2z M72.5,22.6l2.9-6.6l0.7,0.5l-2.7,6.1l0.1,0.1l4.7-4.8l1.3,0.8L77,24.8l0.1,0.1l4.4-5l0.7,0.5l-4.8,5.4L76.1,25
			l2.5-6.3l-0.1-0.1l-4.7,4.9L72.5,22.6z M78.9,27l5-5.1l1.2,1.2l-2.8,6.5l0.1,0.1L87,25l0.6,0.6l-5,5.1l-1.2-1.2l2.9-6.5l-0.1-0.1
			l-4.6,4.7L78.9,27z M83.4,31.7l5.8-4.2l0.5,0.7L84.6,32l2.1,2.9l-0.6,0.5L83.4,31.7z M87.5,38.2c-0.4-0.8-0.5-1.5-0.3-2.1
			c0.2-0.7,0.7-1.2,1.6-1.7l1.4-0.8c0.8-0.4,1.6-0.5,2.3-0.3c0.7,0.2,1.2,0.7,1.6,1.5s0.5,1.5,0.3,2.2s-0.7,1.2-1.6,1.7l-1.4,0.8
			c-0.8,0.4-1.6,0.5-2.3,0.3C88.4,39.5,87.9,39,87.5,38.2z M88.2,37.8c0.3,0.5,0.7,0.9,1.2,1s1,0,1.6-0.3l1.5-0.8
			c0.6-0.3,1-0.7,1.1-1.2c0.2-0.5,0.1-1-0.2-1.5c-0.3-0.5-0.7-0.9-1.2-1s-1,0-1.6,0.3l-1.5,0.8c-0.6,0.3-1,0.7-1.1,1.2
			C87.8,36.8,87.9,37.3,88.2,37.8z M89.1,41.1l7.5-0.1l0.5,1.4L91,46.7l-0.3-0.8l1.6-1.1l-0.9-2.9h-1.9L89.1,41.1z M92.1,41.8l0.8,2.5
			l3.5-2.4v-0.1H92.1z M91,47.1l0.8-0.1l0.1,1l5.6-0.8l-0.1-1l0.8-0.1l0.4,2.8c0.1,0.9,0,1.7-0.4,2.3s-1.1,0.9-2.1,1.1l-1.3,0.2
			c-1,0.1-1.7,0-2.3-0.5c-0.5-0.4-0.9-1.1-1-2.1L91,47.1z M92,48.9l0.1,0.9c0.1,0.7,0.3,1.2,0.7,1.5s0.9,0.4,1.6,0.3l1.4-0.2
			c0.7-0.1,1.2-0.3,1.5-0.7s0.4-0.9,0.3-1.6l-0.1-0.9L92,48.9z M91.3,58.9c0.1-0.8,0.4-1.5,0.9-1.9s1.3-0.6,2.2-0.5l1.6,0.2
			c0.9,0.1,1.6,0.4,2.1,1c0.4,0.6,0.6,1.3,0.5,2.1s-0.4,1.5-0.9,1.9s-1.2,0.6-2,0.5h-0.1l0.1-0.8h0.1c0.5,0.1,1,0,1.4-0.3
			s0.6-0.7,0.7-1.3s-0.1-1.1-0.4-1.5s-0.8-0.6-1.5-0.7l-1.7-0.2c-0.7-0.1-1.2,0-1.6,0.3s-0.6,0.7-0.7,1.4c-0.1,0.6,0.1,1.1,0.4,1.4
			s0.7,0.5,1.3,0.6h0.2l-0.1,0.8h-0.1c-0.8-0.1-1.4-0.4-1.8-0.9C91.4,60.4,91.2,59.8,91.3,58.9z M90.6,64.1l7.5-0.2l-0.2,0.9L91,64.9
			V65l5.9,3.7l-0.2,0.9l-6.3-4L90.6,64.1z M92.6,72.4l0.5,0.3l-0.4,0.8L92.2,74l0.1,0.1l0.6-0.3l0.8-0.2l0.2,0.5l-0.8,0.3l-0.7,0.1
			v0.1l0.7,0.2l0.8,0.4l-0.3,0.5l-0.8-0.4l-0.6-0.4l0,0.1l0.3,0.7l0.3,0.8l-0.5,0.2L92,75.9l-0.1-0.7h-0.1l-0.2,0.7L91,76.5l-0.5-0.3
			l0.4-0.8l0.4-0.6l-0.1-0.1L90.5,75l-0.8,0.3l-0.2-0.5l0.8-0.3l0.7-0.1v-0.1l-0.7-0.2l-0.8-0.4l0.3-0.5l0.8,0.4l0.6,0.4l0.1-0.1
			L91,73.2l-0.3-0.8l0.5-0.2l0.3,0.8l0.1,0.7h0.1L92,73L92.6,72.4z M84.7,76.7l0.6,0.5L84.6,78l4.2,3.7l0.7-0.8l0.6,0.5l-1.8,2.1
			c-0.6,0.7-1.3,1.1-2,1.2s-1.4-0.2-2.2-0.9l-1-0.9c-0.8-0.7-1.1-1.3-1.2-2s0.3-1.4,0.9-2.1L84.7,76.7z M84,78.6l-0.6,0.7
			c-0.5,0.5-0.7,1-0.6,1.5s0.3,1,0.8,1.4l1.1,0.9c0.5,0.5,1.1,0.7,1.5,0.6s1-0.3,1.4-0.9l0.6-0.7L84,78.6z M78,83.3
			c0.7-0.5,1.3-0.8,2-0.7c0.7,0.1,1.4,0.5,1.9,1.2l1,1.3c0.6,0.7,0.8,1.5,0.8,2.2c-0.1,0.7-0.5,1.3-1.1,1.9c-0.7,0.5-1.4,0.8-2.1,0.7
			s-1.4-0.5-1.9-1.2l-1-1.3c-0.6-0.7-0.8-1.5-0.8-2.2C77,84.4,77.4,83.8,78,83.3z M78.5,83.9c-0.5,0.4-0.7,0.8-0.8,1.3
			c0,0.5,0.2,1,0.6,1.5l1.1,1.3c0.4,0.5,0.9,0.8,1.4,0.9s1-0.1,1.5-0.5s0.7-0.8,0.8-1.3c0-0.5-0.2-1-0.6-1.5l-1.1-1.3
			c-0.4-0.5-0.9-0.8-1.4-0.9S79,83.5,78.5,83.9z M74.5,86.1l4.3,5.8L78,92.3l-3.9-5.4L74,87l1.9,6.5l-1.4,0.7l-4.2-5.3L70.2,89
			l2.1,6.3l-0.8,0.4l-2.2-6.9l1.4-0.7l4.2,5.3l0.1-0.1l-1.9-6.5L74.5,86.1z M67.4,89.5l1.9,6.9l-1.6,0.4l-4.2-5.7h-0.1l1.8,6.4
			l-0.8,0.2l-1.9-6.9l1.6-0.4l4.2,5.7h0.1l-1.8-6.4L67.4,89.5z M61.1,91.1l0.8,7.1L61,98.3L60.3,92l-3.6,0.4l-0.1-0.8L61.1,91.1z
			M53.5,91.3c0.8,0,1.5,0.3,2,0.8s0.7,1.2,0.7,2.2L56.1,96c0,0.9-0.3,1.7-0.9,2.1c-0.5,0.5-1.2,0.7-2.1,0.6c-0.9,0-1.5-0.3-2-0.8
			s-0.7-1.2-0.7-2.2l0.1-1.6c0-0.9,0.3-1.7,0.9-2.1C51.9,91.5,52.6,91.3,53.5,91.3z M53.4,92.1c-0.6,0-1.1,0.1-1.5,0.5
			s-0.5,0.9-0.6,1.5l-0.1,1.7c0,0.7,0.1,1.2,0.4,1.6c0.3,0.4,0.8,0.6,1.4,0.6c0.6,0,1.1-0.1,1.5-0.5s0.5-0.9,0.6-1.5l0.1-1.7
			c0-0.7-0.1-1.2-0.4-1.6C54.5,92.3,54.1,92.1,53.4,92.1z M50.2,91.3l-3.7,6.5L45,97.5l-0.6-7.4l0.9,0.2l0.2,1.9l3,0.6l0.9-1.6
			L50.2,91.3z M48.1,93.5l-2.5-0.6l0.3,4.2H46L48.1,93.5z M44,89.9l-0.3,0.7l-0.9-0.4l-2.1,5.2l0.9,0.4l-0.3,0.7l-2.6-1.1
			c-0.9-0.4-1.5-0.8-1.7-1.5c-0.3-0.6-0.3-1.4,0.1-2.3l0.5-1.2c0.4-0.9,0.9-1.5,1.5-1.7c0.7-0.2,1.4-0.2,2.3,0.2L44,89.9z M42,89.9
			l-0.9-0.4c-0.6-0.3-1.2-0.3-1.6-0.1c-0.5,0.2-0.8,0.6-1.1,1.3L37.9,92c-0.3,0.7-0.3,1.2-0.1,1.7c0.2,0.4,0.6,0.8,1.3,1.1l0.9,0.4
			L42,89.9z M33.6,84.4c0.7,0.5,1.1,1.1,1.2,1.8c0.1,0.7-0.1,1.4-0.7,2.2l-1,1.3c-0.6,0.8-1.2,1.2-1.9,1.3c-0.7,0.1-1.4-0.1-2.1-0.6
			s-1.1-1.1-1.2-1.7s0.1-1.3,0.6-2l0,0l0.7,0.5v0.1c-0.3,0.4-0.5,0.9-0.4,1.3c0,0.4,0.3,0.8,0.8,1.2c0.5,0.4,1,0.5,1.5,0.4
			s0.9-0.4,1.3-1l1-1.4c0.4-0.5,0.6-1.1,0.5-1.6s-0.3-0.9-0.8-1.3s-1-0.5-1.4-0.4s-0.8,0.4-1.1,0.8l-0.1,0.1L29.9,85l0.1-0.1
			c0.5-0.7,1-1,1.7-1.2C32.3,83.7,32.9,83.9,33.6,84.4z M29.5,81.1L26,87.6L25.3,87l3.4-6l-0.1-0.1l-6.1,3.2l-0.6-0.6l6.6-3.5
			L29.5,81.1z M21.3,78.7L20.8,79l-0.5-0.7L20,77.7h-0.1l-0.1,0.7l-0.2,0.8l-0.5-0.1l0.2-0.8l0.2-0.7l-0.1-0.1L19,77.9l-0.7,0.5
			L18,77.9l0.7-0.5l0.6-0.3V77h-0.7l-0.8-0.2l0.1-0.5l0.9,0.2l0.7,0.3l0.1-0.1L19,76.1l-0.5-0.7L19,75l0.5,0.7l0.3,0.6h0.1l0.1-0.7
			l0.2-0.8l0.5,0.1l-0.2,0.8l-0.3,0.7l0.1,0.1l0.5-0.5l0.7-0.5l0.3,0.5l-0.7,0.5l-0.6,0.3v0.1l0.7,0.1l0.8,0.2v0.6l-0.8-0.2l-0.7-0.2
			l-0.1,0.1l0.4,0.6L21.3,78.7z M21.5,69.7L20.8,70l-0.3-1l-5.3,1.8l0.3,0.9L14.8,72l-0.9-2.6c-0.3-0.9-0.3-1.7,0-2.3
			c0.3-0.6,0.9-1.1,1.8-1.4l1.3-0.4c0.9-0.3,1.7-0.3,2.3,0c0.6,0.3,1.1,0.9,1.4,1.8L21.5,69.7z M20.2,68.2l-0.3-0.9
			c-0.2-0.7-0.6-1.1-1-1.3c-0.4-0.2-1-0.2-1.7,0l-1.3,0.5c-0.7,0.2-1.1,0.6-1.3,1s-0.2,1,0,1.6l0.3,0.9L20.2,68.2z M19.1,60.7
			c0.1,0.8,0,1.5-0.4,2.1s-1.1,0.9-2,1.1l-1.6,0.3c-0.9,0.1-1.7,0-2.2-0.4c-0.6-0.4-0.9-1.1-1-1.9c-0.1-0.8,0-1.6,0.4-2.1
			s1.1-0.9,2-1.1l1.6-0.3c0.9-0.1,1.7,0,2.2,0.4S19,59.8,19.1,60.7z M18.4,60.8c-0.1-0.6-0.4-1.1-0.8-1.3s-1-0.4-1.6-0.3l-1.7,0.3
			c-0.7,0.1-1.1,0.4-1.4,0.7s-0.4,0.9-0.3,1.5c0.1,0.6,0.4,1,0.8,1.3s1,0.4,1.6,0.3l1.7-0.3c0.7-0.1,1.1-0.4,1.4-0.7
			C18.4,61.9,18.5,61.4,18.4,60.8z M18.4,56.2L11.3,57v-0.9l6.6-0.7v-0.1l-6.5-1.6l0.1-1.5l6.6-1v-0.1l-6.5-1.3v-0.9l7.1,1.5l-0.1,1.5
			l-6.7,1V53l6.6,1.6L18.4,56.2z M19,48.4l-6.9-1.8l0.4-1.6l7-0.8v-0.1l-6.4-1.6l0.2-0.8l6.9,1.8L19.9,45l-7,0.8v0.1l6.4,1.6L19,48.4z
			M20.8,42.1l-6.5-2.9l0.3-0.8l5.8,2.5l1.4-3.3l0.7,0.3L20.8,42.1z M24.4,35.4c-0.5,0.7-1,1.2-1.7,1.3c-0.7,0.2-1.4,0-2.2-0.5
			l-1.4-0.9c-0.8-0.5-1.3-1.1-1.4-1.8s0-1.4,0.5-2.1c0.5-0.7,1-1.2,1.7-1.3c0.7-0.2,1.4,0,2.2,0.5l1.4,0.9c0.8,0.5,1.3,1.1,1.4,1.8
			S24.8,34.7,24.4,35.4z M23.7,35c0.3-0.5,0.4-1,0.3-1.5s-0.5-0.9-1-1.3l-1.4-0.9c-0.6-0.4-1.1-0.5-1.6-0.4s-0.9,0.4-1.2,0.9
			c-0.3,0.5-0.4,1-0.3,1.5s0.5,0.9,1,1.3l1.4,0.9c0.6,0.4,1.1,0.5,1.6,0.4C23,35.8,23.4,35.5,23.7,35z M26.1,32.5l-3.8-6.4l1-1.1
			l6.8,3.2l-0.6,0.7L27.7,28l-2,2.2l1,1.6L26.1,32.5z M25.3,29.6l1.7-1.9l-3.8-1.8L23.1,26L25.3,29.6z M30.4,27.9l-0.5-0.6l0.8-0.6
			l-3.4-4.4l-0.8,0.6L26,22.2l2.2-1.7c0.7-0.6,1.5-0.8,2.2-0.8c0.7,0.1,1.3,0.5,2,1.3l0.8,1c0.6,0.8,0.9,1.5,0.7,2.2s-0.5,1.3-1.3,1.9
			L30.4,27.9z M31.3,26.1l0.7-0.6c0.5-0.4,0.9-0.9,0.9-1.4c0.1-0.5-0.1-1-0.6-1.6l-0.9-1.1c-0.4-0.6-0.9-0.9-1.4-0.9s-1,0.1-1.5,0.6
			l-0.7,0.6L31.3,26.1z M40.4,21.6c-0.8,0.3-1.5,0.4-2.2,0.2c-0.7-0.2-1.2-0.8-1.6-1.7L36,18.6c-0.4-0.9-0.5-1.6-0.2-2.3
			c0.3-0.7,0.8-1.2,1.6-1.5s1.5-0.4,2.1-0.2s1.1,0.7,1.4,1.5l0,0L40,16.6v-0.1c-0.2-0.5-0.5-0.8-0.9-1s-0.9-0.2-1.4,0.1
			c-0.6,0.2-0.9,0.6-1.1,1.1c-0.2,0.5-0.1,1,0.2,1.6l0.7,1.5c0.3,0.6,0.6,1,1.1,1.2s1,0.2,1.5-0.1c0.6-0.2,0.9-0.6,1-1
			s0.1-0.9-0.1-1.4l-0.1-0.1l0.8-0.3l0.1,0.1c0.3,0.7,0.4,1.4,0.2,2C41.6,20.8,41.1,21.3,40.4,21.6z M45.2,19.7l-3.9-6.4l0.9-0.2
			l3.5,5.9h0.1l0.2-6.9l0.9-0.2l-0.3,7.5L45.2,19.7z M51.4,13.8v-0.6h0.9l0.7,0.1v-0.1l-0.6-0.4l-0.6-0.6l0.4-0.4l0.6,0.6l0.5,0.5
			l0.1-0.1l-0.1-0.7v-0.9h0.6v0.9l-0.1,0.7h0.1l0.4-0.6l0.6-0.6l0.4,0.4l-0.6,0.6L54.1,13l0.1,0.1l0.7-0.1h0.9v0.6h-0.9l-0.7-0.1v0.1
			l0.6,0.4l0.6,0.6L55,15.1l-0.6-0.6L53.9,14h-0.1l0.1,0.7v0.9h-0.6v-0.9l0.1-0.7h-0.1l-0.4,0.6l-0.6,0.6l-0.4-0.4l0.6-0.6l0.6-0.5
			L53,13.6l-0.7,0.1L51.4,13.8z"/>
	</g>
</svg>
