<svg id="notify-object" xmlns="http://www.w3.org/2000/svg" xmlns:xlink="http://www.w3.org/1999/xlink" 
	shape-rendering="geometricPrecision" text-rendering="geometricPrecision" width="110px" height="110px" viewBox="0 0 110 110" 
	style="enable-background:new 0 0 110 110;" xml:space="preserve">

	<style type="text/css">
		#rotation-group {
			animation: rotateInfinite 9000ms linear infinite normal forwards
		}
		@keyframes rotateInfinite {
			0% {
				transform: translate(55px,55px) rotate(0deg);
				}
			100% {
				transform: translate(55px,55px) rotate(360deg);
				}
		}
	</style>

	<path fill="#FFFFFF" d="M55,0C24.6,0,0,24.6,0,55s24.6,55,55,55s55-24.6,55-55S85.4,0,55,0L55,0z"/>
	<path fill="#807DF2" d="M69,42.2l-3.7,24.4c-0.1,0.6-0.4,1-0.9,1.3c-0.5,0.3-1.1,0.3-1.6,0.1l-7-2.9l-4,4.3c-0.6,0.6-1.3,0.7-2.1,0.5
		c-0.7-0.4-1.1-0.9-1.2-1.8v-4.9c0-0.2,0.1-0.4,0.2-0.6l9.8-10.7c0.3-0.4,0.3-0.9-0.1-1.3c-0.4-0.4-0.8-0.4-1.3-0.1L45.2,61.1
		l-5.2-2.6c-0.7-0.4-1-0.9-1.1-1.6c0-0.7,0.3-1.3,0.9-1.7l26.2-15c0.7-0.4,1.4-0.3,2,0.1C68.8,40.8,69.1,41.4,69,42.2z"/>

	<g id="rotation-group" transform="translate(55,55) rotate(360)">
		<path fill="#212121" transform="translate(-55,-55)" class="st1" d="M59.4,18.9l1.9-9l2.1,0.5l1.4,9l0.2,0l1.8-8.4l1.1,0.2l-1.9,9l-2.1-0.5l-1.3-9l-0.2,0l-1.8,8.4L59.4,18.9z
			M70.5,22.4c-1-0.5-1.6-1.1-2-2s-0.2-1.8,0.3-2.9l0.9-1.9c0.5-1.1,1.2-1.8,2.1-2.1c0.9-0.3,1.8-0.2,2.8,0.3c1,0.5,1.7,1.1,2,2
			s0.2,1.8-0.3,2.9l-0.9,1.9c-0.5,1.1-1.2,1.8-2.1,2.1S71.5,22.9,70.5,22.4z M71,21.6c0.7,0.3,1.4,0.4,2,0.2c0.6-0.2,1.1-0.7,1.5-1.5
			l0.9-2c0.4-0.8,0.5-1.5,0.3-2.1c-0.2-0.6-0.6-1.1-1.4-1.5c-0.7-0.3-1.4-0.4-2-0.1c-0.6,0.2-1.1,0.7-1.5,1.5l-0.9,2
			c-0.4,0.8-0.5,1.5-0.3,2.1S70.2,21.2,71,21.6z M76.6,25.9l5-6.5l-2.4-1.8l0.6-0.8l5.6,4.3l-0.6,0.8l-2.4-1.8l-5,6.5L76.6,25.9z
			M80.7,29.4l6.6-6.4l0.8,0.8l-6.6,6.4L80.7,29.4z M82.8,31.6l7.5-5.5l3.3,4.5l-0.8,0.6l-2.6-3.6l-2.5,1.8l2.4,3.3l-0.8,0.6l-2.4-3.3
			l-3.3,2.4L82.8,31.6z M87.7,39.4l3.2-1.5l3.8-5.4l0.5,1.2l-3,4.1l0.1,0.2l5.1,0.4l0.5,1.2L91.4,39l-3.2,1.5L87.7,39.4z M90.7,47.3
			l9.2-0.8l0.2,2.1l-8.3,3.1l0,0.2l8.7,1.7l0.2,2.1l-9.2,0.8l-0.1-1.1l8.5-0.7l0-0.2l-8.7-1.7L91,51l8.3-3.1l0-0.2l-8.5,0.7L90.7,47.3
			z M91.2,58.3l9.1,1.5l-0.9,5.6l-1-0.2l0.7-4.5l-3-0.5l-0.7,4.2l-1-0.2l0.7-4.2L92,59.6l-0.8,4.6l-1-0.2L91.2,58.3z M94.4,70.8
			l0.6,0.3l-0.5,1L94,72.9l0.1,0.1l0.8-0.4l1.1-0.4l0.2,0.7l-1.1,0.4l-0.9,0.2l0,0.2l0.9,0.3l1,0.5L95.9,75l-1-0.5L94.1,74L94,74.1
			l0.4,0.8l0.4,1.1l-0.7,0.2l-0.4-1.1l-0.2-0.9l-0.2,0l-0.3,0.9l-0.5,1l-0.6-0.3l0.5-1l0.5-0.8L92.8,74L92,74.4l-1.1,0.4l-0.2-0.7
			l1.1-0.4l0.9-0.2l0-0.2l-0.9-0.3l-1-0.5l0.3-0.6l1,0.5l0.8,0.5l0.1-0.1L92.6,72l-0.4-1.1l0.7-0.2l0.4,1.1l0.2,0.9l0.1,0l0.3-0.9
			L94.4,70.8z M83.8,77.2l6.8,6.3l-1.5,1.6l-8.5-3.4l-0.1,0.1l6.3,5.8l-0.7,0.8l-6.8-6.3l1.5-1.6l8.5,3.5l0.1-0.1L83.1,78L83.8,77.2z
			M75.1,85c0.9-0.6,1.8-0.8,2.7-0.7c0.9,0.2,1.7,0.8,2.4,1.8l1.2,1.8c0.7,1,0.9,2,0.7,2.9c-0.2,0.9-0.7,1.6-1.7,2.3
			c-0.9,0.6-1.8,0.8-2.7,0.7c-0.9-0.2-1.7-0.8-2.4-1.8l-1.2-1.8c-0.7-1-0.9-2-0.7-2.9C73.6,86.3,74.2,85.6,75.1,85z M75.6,85.8
			c-0.7,0.4-1,1-1.1,1.6c-0.1,0.6,0.1,1.3,0.6,2l1.2,1.8c0.5,0.7,1,1.1,1.7,1.3s1.3,0,1.9-0.4c0.7-0.4,1-1,1.1-1.6
			c0.1-0.6-0.1-1.3-0.6-2l-1.2-1.8c-0.5-0.7-1-1.1-1.7-1.3C76.9,85.2,76.3,85.3,75.6,85.8z M69,88.4l3.1,7.6l2.8-1.1l0.4,0.9l-6.5,2.6
			l-0.4-0.9l2.8-1.1L68,88.9L69,88.4z M63.9,90.1l2.1,9L65,99.4l-2.1-9L63.9,90.1z M60.9,90.8l0.9,9.2l-5.6,0.5l-0.1-1l4.5-0.4
			l-0.3-3.1l-4.1,0.4l-0.1-1l4.1-0.4L59.8,91L60.9,90.8z M51.7,91.1l-0.4,3.5l2.7,6l-1.3-0.1l-2-4.7l-0.2,0l-2.9,4.2l-1.3-0.1l3.9-5.3
			l0.4-3.5L51.7,91.1z M43.4,89.7l-4,8.3L37.4,97l1.5-8.8l-0.2-0.1l-5.9,6.6L31,93.9l4-8.3l1,0.5l-3.7,7.7l0.2,0.1l5.9-6.6L40,88
			l-1.5,8.7l0.2,0.1l3.7-7.7L43.4,89.7z M33.7,84.4l-6,7.1l-4.3-3.7L24,87l3.5,3l2-2.4l-3.2-2.7l0.6-0.8l3.2,2.7l2-2.4l-3.6-3l0.6-0.8
			L33.7,84.4z M21.3,80.8l-0.6,0.4l-0.6-0.9l-0.4-0.8l-0.2,0l-0.1,0.9l-0.2,1.1l-0.7-0.1l0.2-1.1l0.3-0.9L19,79.3l-0.7,0.6l-0.9,0.6
			L17,79.9l0.9-0.6l0.8-0.4l0-0.2l-0.9-0.1l-1.1-0.2l0.1-0.7l1.1,0.2l0.9,0.3l0.1-0.1l-0.6-0.7l-0.6-0.9l0.6-0.4l0.6,0.9l0.4,0.8
			l0.1,0l0.1-0.9l0.2-1.1l0.7,0.1l-0.2,1.1L19.9,78L20,78l0.7-0.6l0.9-0.6l0.4,0.6L21.1,78l-0.8,0.4l0,0.2l0.9,0.1l1.1,0.2l-0.1,0.7
			l-1.1-0.2l-0.9-0.3l-0.1,0.1l0.6,0.7L21.3,80.8z M21.2,68.5l-8.9,2.6L11.7,69l7.3-5.5l0-0.2l-8.2,2.4l-0.3-1.1l8.9-2.6l0.6,2.1
			l-7.3,5.5l0.1,0.2l8.2-2.4L21.2,68.5z M19,57c0.1,1.1-0.2,2-0.8,2.7c-0.6,0.7-1.5,1.1-2.7,1.1l-2.1,0.1c-1.2,0.1-2.2-0.2-2.8-0.8
			c-0.7-0.6-1-1.5-1.1-2.6c-0.1-1.1,0.2-2,0.8-2.7c0.6-0.7,1.5-1.1,2.7-1.1l2.1-0.1c1.2-0.1,2.2,0.2,2.8,0.8C18.6,55,18.9,55.9,19,57z
			M18,57.1c0-0.8-0.3-1.4-0.8-1.8s-1.2-0.6-2-0.5L13,54.8c-0.9,0-1.5,0.3-2,0.8c-0.5,0.5-0.7,1.1-0.6,1.9c0,0.8,0.3,1.4,0.8,1.8
			s1.2,0.6,2,0.5l2.2-0.1c0.9,0,1.5-0.3,2-0.8C17.8,58.5,18,57.9,18,57.1z M19.1,50l-8.1-1.3l-0.5,2.9l-1-0.2l1.1-7l1,0.2l-0.5,2.9
			l8.1,1.3L19.1,50z M20.2,44.8L11.4,42l0.3-1.1l8.8,2.7L20.2,44.8z M21.1,41.9l-8.4-3.9l2.4-5.1l0.9,0.4l-1.9,4l2.8,1.3l1.8-3.7
			l0.9,0.4l-1.8,3.7l3.7,1.8L21.1,41.9z M25.6,33.8l-2.8-2.1l-6.5-0.8l0.8-1l5,0.7l0.1-0.1l-2.1-4.6l0.8-1l2.6,6.1l2.8,2.1L25.6,33.8z
			M31.1,27.3L26,19.6l1.8-1.2l6.8,5.8l0.1-0.1L32,15.7l1.8-1.2l5.1,7.7L38,22.8l-4.7-7.1l-0.2,0.1l2.7,8.4l-1.6,1.1l-6.7-5.7
			l-0.2,0.1l4.7,7.1L31.1,27.3z M40.5,21.6l-3-8.7l5.4-1.9l0.3,0.9l-4.3,1.5l1,2.9l4-1.4l0.3,0.9l-4,1.4l1,3l4.4-1.5l0.3,0.9
			L40.5,21.6z M50,12.9l0-0.7l1.1-0.1l0.9,0.1L52,12l-0.8-0.5l-0.8-0.8l0.5-0.5l0.8,0.7l0.6,0.7l0.1-0.1l-0.2-0.9l-0.1-1.1l0.7,0
			l0.1,1.1l-0.1,0.9l0.1,0.1l0.5-0.8l0.7-0.8l0.5,0.5l-0.7,0.8L53.4,12l0.1,0.1l0.9-0.2l1.1-0.1l0,0.7l-1.1,0.1l-0.9-0.1l-0.1,0.1
			l0.8,0.5l0.8,0.8l-0.5,0.5l-0.8-0.7l-0.6-0.7L53,13.1l0.2,0.9l0.1,1.1l-0.7,0l-0.1-1.1l0.1-0.9l-0.1-0.1l-0.5,0.8l-0.8,0.8l-0.5-0.5
			l0.7-0.8l0.7-0.6L52,12.7l-0.9,0.2L50,12.9z"/>
	</g>
</svg>
