<svg id="cv-object" xmlns="http://www.w3.org/2000/svg" xmlns:xlink="http://www.w3.org/1999/xlink" 
	shape-rendering="geometricPrecision" text-rendering="geometricPrecision" width="210px" height="210px" viewBox="0 0 210 210" 
	style="enable-background:new 0 0 210 210;" xml:space="preserve">

	<style type="text/css">
		#rotation-group {
			animation: rotateInfinite 9000ms linear infinite normal forwards
		}
		@keyframes rotateInfinite {
			0% {
				transform: translate(105px,105px) rotate(0deg);
				}
			100% {
				transform: translate(105px,105px) rotate(360deg);
				}
		}
	</style>

	<path fill="#ffffff" d="M105,2c56.8,0,103,46.2,103,103s-46.2,103-103,103S2,161.8,2,105S48.2,2,105,2 M105,0C47,0,0,47,0,105
		s47,105,105,105s105-47,105-105S163,0,105,0L105,0z"/>
	<path fill="#ffffff" d="M96.5,102.9h-9.3l-9.4-21.6c-0.4-1.1-0.5-2.3-0.1-3.3c0.4-1.1,1.2-1.8,2.3-2.3c1.1-0.4,2.3-0.5,3.3-0.1
		c1.1,0.4,1.8,1.2,2.3,2.3L96.5,102.9z M89,107.1h9.3h3.5c1.5,0,2.7,0.5,3.7,1.6c1.1,1,1.6,2.2,1.6,3.7s-0.5,2.7-1.6,3.7
		c-1,1.1-2.2,1.6-3.7,1.6h-7.4c-1.3,0.1-2,0.8-2.1,2.1c0.1,1.3,0.8,2,2.1,2.1h7.4c2.7-0.1,5-1,6.8-2.8s2.7-4,2.8-6.8v-0.1
		c1.2,0.8,2.7,1.2,4.2,1.2c1.8,0,3.4-0.5,4.8-1.5c0.5,1.7,1.5,3.1,3.1,4.1c1.4,1.1,3.1,1.6,4.9,1.6c1.6,0,3-0.4,4.2-1.2v1.2
		c-0.2,6-2.3,11-6.2,15s-9,6.1-15,6.2h-8.2c-5.8-0.1-10.8-2.2-15-6.2l-1.5-1.5c-3.3-3.4-5-7.4-5-12.1v-3.6c0.1-2.2,0.8-4.1,2.1-5.7
		c1.4-1.5,3.2-2.4,5.3-2.7v0.1H89z M105.9,72.2c0.8,0.8,1.2,1.8,1.2,3.1v27.6h-8.5V75.2c0-1.2,0.4-2.3,1.2-3.1s1.8-1.2,3.1-1.2
		C104.1,71,105.1,71.4,105.9,72.2z M118.7,93.4c0.8,0.8,1.2,1.8,1.2,3.1v8.5c0,1.2-0.4,2.3-1.2,3.1s-1.8,1.2-3.1,1.2
		c-1.2,0-2.3-0.4-3.1-1.2s-1.2-1.8-1.2-3.1v-8.5c0-1.2,0.4-2.3,1.2-3.1s1.8-1.2,3.1-1.2C116.8,92.2,117.9,92.6,118.7,93.4z
		M125.3,97.7c0.8-0.8,1.8-1.2,3.1-1.2c1.2,0,2.3,0.4,3.1,1.2s1.2,1.8,1.2,3.1v8.5c0,1.2-0.4,2.3-1.2,3.1s-1.8,1.2-3.1,1.2
		c-1.2,0-2.3-0.4-3.1-1.2s-1.2-1.8-1.2-3.1v-8.5C124.1,99.5,124.5,98.5,125.3,97.7z"/>
	
	<g id="rotation-group" transform="translate(105,105) rotate(360)">
		<path fill="#ffffff" transform="translate(-105,-105)" d="M113.4,26.3l0.2-1.2l1.5,0.3l1.4-8.6l-1.5-0.3l0.2-1.2l4.3,0.7c1.4,0.2,2.5,0.8,3.2,1.6
			c0.7,0.9,0.9,2.1,0.6,3.6l-0.3,2c-0.2,1.5-0.8,2.6-1.7,3.2c-0.9,0.6-2.1,0.8-3.5,0.5L113.4,26.3z M116.4,25.6l1.4,0.2
			c1.1,0.2,1.9,0,2.5-0.4s1-1.2,1.2-2.3l0.4-2.2c0.2-1.1,0-2-0.4-2.6c-0.5-0.6-1.2-1-2.3-1.2l-1.4-0.2L116.4,25.6z M127.9,29.6
			c-1.3-0.4-2.2-1.1-2.7-2s-0.6-2.2-0.2-3.6l0.7-2.4c0.4-1.4,1.1-2.4,2.1-2.9s2.1-0.6,3.4-0.2c1.3,0.4,2.2,1.1,2.7,2s0.6,2.2,0.2,3.6
			l-0.7,2.4c-0.4,1.4-1.1,2.4-2.1,2.9C130.3,30,129.2,30,127.9,29.6z M128.3,28.5c0.9,0.3,1.7,0.2,2.4-0.2c0.7-0.4,1.2-1.1,1.5-2.1
			l0.8-2.5c0.3-1,0.3-1.8-0.1-2.5c-0.3-0.7-1-1.2-1.9-1.5s-1.7-0.2-2.4,0.2c-0.7,0.4-1.2,1.1-1.5,2.1l-0.8,2.5c-0.3,1-0.3,1.8,0.1,2.5
			C126.7,27.7,127.4,28.2,128.3,28.5z M135,31.8l3.2-10.8l1.2,0.6l-3,9.9l0.2,0.1l6.3-8.4l2.2,1l-2.6,10.1l0.2,0.1l5.9-8.6l1.2,0.6
			l-6.5,9.2l-2.2-1l2.6-10.2l-0.2-0.1l-6.3,8.4L135,31.8z M146.2,37.5l6.3-9.2l2.1,1.5L152,40.4l0.2,0.1L158,32l1.1,0.7l-6.3,9.2
			l-2.1-1.5l2.6-10.7l-0.2-0.1l-5.8,8.5L146.2,37.5z M154.7,43.6l7.3-8.4l1,0.9l-6.5,7.5l4.2,3.7l-0.8,0.9L154.7,43.6z M163.5,52.2
			c-0.9-1-1.3-2-1.3-3.1s0.6-2.1,1.7-3.1l1.9-1.7c1.1-1,2.2-1.4,3.3-1.4s2.1,0.6,3,1.6s1.3,2,1.3,3.1s-0.6,2.1-1.7,3.1l-1.9,1.7
			c-1.1,1-2.2,1.4-3.3,1.4C165.3,53.7,164.3,53.2,163.5,52.2z M164.3,51.4c0.6,0.7,1.4,1.1,2.1,1.1s1.6-0.3,2.3-1l2-1.8
			c0.8-0.7,1.2-1.4,1.3-2.2s-0.2-1.5-0.9-2.2c-0.6-0.7-1.4-1.1-2.1-1.1s-1.6,0.3-2.3,1l-2,1.8c-0.8,0.7-1.2,1.4-1.3,2.2
			S163.7,50.7,164.3,51.4z M167.2,56.1l11.1-3.5l1.3,1.9l-7.2,9.2l-0.8-1.1l1.8-2.3l-2.7-3.9l-2.8,0.9L167.2,56.1z M172,55.9l2.3,3.3
			l4.1-5.2l-0.1-0.2L172,55.9z M173,64.6l1.1-0.6l0.7,1.4l7.8-4l-0.7-1.4l1.1-0.5l2,3.9c0.7,1.3,0.9,2.5,0.6,3.5
			c-0.3,1.1-1.1,1.9-2.5,2.6l-1.8,1c-1.4,0.7-2.6,0.9-3.6,0.5s-1.9-1.2-2.5-2.5L173,64.6z M175.4,66.6l0.7,1.3c0.5,1,1.1,1.6,1.8,1.8
			s1.6,0.1,2.6-0.4l1.9-1c1-0.5,1.6-1.1,1.8-1.9c0.2-0.7,0.1-1.6-0.4-2.5l-0.7-1.3L175.4,66.6z M180.4,82.1c-0.4-1.3-0.3-2.4,0.2-3.4
			s1.5-1.7,2.9-2.1l2.4-0.7c1.4-0.4,2.6-0.4,3.6,0.1s1.6,1.4,2,2.7c0.4,1.3,0.3,2.3-0.2,3.2c-0.5,0.9-1.3,1.5-2.6,1.9h-0.1l-0.4-1.3
			h0.1c0.8-0.2,1.4-0.7,1.8-1.2c0.4-0.6,0.4-1.3,0.2-2.2s-0.8-1.5-1.5-1.9s-1.6-0.4-2.6-0.1l-2.5,0.8c-1,0.3-1.7,0.8-2.1,1.5
			s-0.5,1.5-0.2,2.4s0.7,1.5,1.4,1.8s1.4,0.3,2.2,0l0.2-0.1l0.4,1.3l-0.2,0.1c-1.2,0.4-2.3,0.3-3.2-0.1
			C181.4,84.3,180.8,83.4,180.4,82.1z M182.6,90.3l10.4-5.2l0.2,1.4l-9.6,4.8v0.2l10.7,1.2l0.2,1.4L183,92.6L182.6,90.3z M191.2,100.8
			h0.9v1.4l-0.1,1.1l0.2,0.1l0.7-0.9l1-1l0.6,0.6l-0.9,1l-0.9,0.7l0.1,0.2l1.1-0.2h1.4v0.9h-1.4l-1.1-0.1l-0.1,0.2l0.9,0.7l1,0.9
			L194,107l-1-0.9l-0.7-0.9l-0.2,0.1l0.2,1.1v1.4h-0.9v-1.4l0.1-1.1l-0.2-0.1l-0.7,0.9l-0.9,1l-0.6-0.6l0.9-1l0.9-0.7l-0.1-0.2
			l-1.1,0.2h-1.4v-0.9h1.4l1.1,0.1l0.1-0.2L190,103l-1-0.9l0.6-0.6l1,0.9l0.7,0.9l0.2-0.1l-0.1-1.1L191.2,100.8z M183.7,113.2l1.2,0.2
			l-0.2,1.5l8.6,1.4l0.2-1.5l1.2,0.2l-0.7,4.3c-0.2,1.4-0.8,2.5-1.6,3.2c-0.9,0.7-2,0.9-3.6,0.6l-2-0.3c-1.5-0.2-2.6-0.8-3.2-1.7
			c-0.6-0.9-0.8-2.1-0.5-3.5L183.7,113.2z M184.4,116.3l-0.2,1.4c-0.2,1.1,0,1.9,0.4,2.5s1.2,1,2.3,1.2l2.2,0.3c1.1,0.2,2,0,2.6-0.4
			s1-1.2,1.2-2.3l0.2-1.4L184.4,116.3z M180.4,127.8c0.4-1.3,1.1-2.2,2-2.7c1-0.5,2.2-0.6,3.6-0.2l2.4,0.7c1.4,0.4,2.4,1.1,2.9,2.1
			c0.5,1,0.6,2.1,0.2,3.4c-0.4,1.3-1.1,2.2-2,2.7s-2.2,0.6-3.6,0.2l-2.4-0.7c-1.4-0.4-2.4-1.1-2.9-2.1
			C180.1,130.2,180,129.1,180.4,127.8z M181.6,128.1c-0.3,0.9-0.2,1.7,0.2,2.4s1.1,1.2,2.1,1.5l2.5,0.8c1,0.3,1.8,0.3,2.5-0.1
			s1.2-1,1.5-1.9s0.2-1.7-0.2-2.4s-1.1-1.2-2.1-1.5l-2.5-0.8c-1-0.3-1.8-0.3-2.5,0.1S181.8,127.2,181.6,128.1z M178.3,134.9l10.8,3.2
			l-0.6,1.2l-9.9-3l-0.1,0.2l8.4,6.3l-1,2.2l-10.1-2.6l-0.1,0.2l8.6,5.8l-0.6,1.2l-9.3-6.4l1-2.2l10.2,2.6l0.1-0.2l-8.4-6.3
			L178.3,134.9z M172.6,146.1l9.2,6.3l-1.5,2.1l-10.7-2.6l-0.1,0.2l8.5,5.8l-0.7,1.1l-9.2-6.3l1.5-2.1l10.7,2.6l0.1-0.2l-8.5-5.8
			L172.6,146.1z M166.5,154.6l8.4,7.3l-0.9,1l-7.5-6.5l-3.7,4.2l-0.9-0.8L166.5,154.6z M157.9,163.4c1-0.9,2-1.3,3.1-1.3
			s2.1,0.6,3.1,1.7l1.7,1.9c1,1.1,1.5,2.2,1.4,3.3s-0.6,2.1-1.6,3s-2,1.3-3.1,1.3s-2.1-0.6-3.1-1.7l-1.7-1.9c-1-1.1-1.5-2.2-1.4-3.3
			C156.4,165.3,156.9,164.3,157.9,163.4z M158.7,164.2c-0.7,0.6-1.1,1.4-1.1,2.1c0,0.8,0.3,1.6,1,2.3l1.8,2c0.7,0.8,1.4,1.2,2.2,1.3
			s1.5-0.2,2.2-0.9c0.7-0.6,1.1-1.4,1.1-2.1c0-0.8-0.3-1.6-1-2.3l-1.8-2c-0.7-0.8-1.4-1.2-2.2-1.2
			C160.1,163.3,159.4,163.6,158.7,164.2z M154,167.1l3.6,11.1l-1.9,1.3l-9.2-7.2l1.1-0.8l2.3,1.8l3.9-2.7l-0.9-2.8L154,167.1z
			M154.2,171.9l-3.3,2.3l5.2,4.1l0.2-0.1L154.2,171.9z M145.5,172.9l0.6,1.1l-1.4,0.7l4.1,7.8l1.4-0.7l0.6,1.1l-3.8,2
			c-1.3,0.7-2.5,0.9-3.5,0.6c-1.1-0.3-1.9-1.1-2.6-2.5l-1-1.8c-0.7-1.4-0.9-2.6-0.5-3.6s1.2-1.9,2.5-2.6L145.5,172.9z M143.5,175.4
			l-1.3,0.7c-1,0.5-1.6,1.1-1.8,1.8s-0.1,1.6,0.4,2.6l1,1.9c0.5,1,1.2,1.6,1.9,1.8s1.6,0.1,2.5-0.4l1.3-0.7L143.5,175.4z M128,180.3
			c1.3-0.4,2.4-0.3,3.4,0.2s1.7,1.5,2.1,2.9l0.7,2.4c0.4,1.4,0.4,2.6-0.1,3.6s-1.4,1.6-2.7,2s-2.3,0.3-3.2-0.2
			c-0.9-0.5-1.5-1.3-1.9-2.6v-0.1l1.3-0.4v0.1c0.2,0.8,0.7,1.4,1.3,1.8c0.6,0.4,1.3,0.4,2.2,0.2s1.5-0.8,1.9-1.5
			c0.3-0.7,0.4-1.6,0-2.6l-0.8-2.5c-0.3-1-0.8-1.7-1.5-2.1s-1.5-0.5-2.4-0.2s-1.5,0.7-1.8,1.4c-0.3,0.6-0.3,1.4,0,2.2l0.1,0.2
			l-1.3,0.4l-0.1-0.2c-0.4-1.2-0.3-2.3,0.1-3.2C125.9,181.4,126.8,180.7,128,180.3z M119.9,182.6l5.2,10.4l-1.4,0.2l-4.8-9.6h-0.2
			l-1.2,10.7l-1.4,0.2l1.4-11.5L119.9,182.6z M109.3,191.2v0.9h-1.4l-1.1-0.1l-0.1,0.2l0.9,0.7l1,1l-0.6,0.6l-1-0.9l-0.7-0.9l-0.2,0.1
			l0.2,1.1v1.4h-0.9v-1.4l0.1-1.1l-0.2-0.1l-0.7,0.9l-0.9,1l-0.6-0.6l0.9-1l0.9-0.7l0.1-0.3l-1.1,0.2h-1.4v-0.9h1.4l1.1,0.1l0.1-0.2
			l-0.9-0.7l-1-0.9l0.6-0.6l1,0.9l0.7,0.9l0.2-0.1l-0.2-1.1v-1.4h0.9v1.4l-0.1,1.1l0.2,0.1l0.7-0.9l0.9-1l0.6,0.6l-0.9,1l-0.9,0.7
			l0.1,0.2l1.1-0.1L109.3,191.2z M96.9,183.7l-0.2,1.2l-1.5-0.2l-1.4,8.6l1.5,0.2l-0.2,1.2l-4.3-0.7c-1.4-0.2-2.5-0.8-3.2-1.6
			c-0.7-0.9-0.9-2-0.6-3.6l0.3-2c0.2-1.5,0.8-2.6,1.7-3.2s2.1-0.8,3.5-0.6L96.9,183.7z M93.9,184.4l-1.4-0.2c-1.1-0.2-1.9,0-2.5,0.4
			s-1,1.2-1.2,2.3l-0.3,2.2c-0.2,1.1,0,2,0.4,2.6c0.5,0.6,1.2,1,2.3,1.2l1.4,0.2L93.9,184.4z M82.3,180.5c1.3,0.4,2.2,1.1,2.7,2
			s0.6,2.2,0.2,3.6l-0.7,2.4c-0.4,1.4-1.1,2.4-2.1,2.9s-2.1,0.6-3.4,0.2c-1.3-0.4-2.2-1.1-2.7-2c-0.5-1-0.6-2.2-0.2-3.6l0.7-2.4
			c0.4-1.4,1.1-2.4,2.1-2.9C79.9,180.1,81.1,180.1,82.3,180.5z M82,181.6c-0.9-0.3-1.7-0.2-2.4,0.2c-0.7,0.4-1.2,1.1-1.5,2.1l-0.8,2.5
			c-0.3,1-0.3,1.8,0.1,2.5c0.3,0.7,1,1.2,1.9,1.5s1.7,0.2,2.4-0.2c0.7-0.4,1.2-1.1,1.5-2.1l0.8-2.5c0.3-1,0.3-1.8-0.1-2.5
			C83.5,182.4,82.9,181.9,82,181.6z M75.2,178.3l-3.1,10.8l-1.2-0.6l3-10l-0.2-0.1l-6.3,8.4l-2.2-1l2.6-10.2l-0.2-0.1l-5.8,8.6
			l-1.2-0.6l6.4-9.3l2.2,1l-2.6,10.2l0.2,0.1l6.3-8.5L75.2,178.3z M64,172.6l-6.3,9.2l-2.1-1.5l2.6-10.7l-0.2-0.1l-5.8,8.5l-1.1-0.7
			l6.3-9.2l2.1,1.5l-2.6,10.7l0.2,0.1l5.8-8.5L64,172.6z M55.5,166.6l-7.3,8.4l-1-0.9l6.5-7.5l-4.2-3.7l0.8-0.9L55.5,166.6z M46.7,158
			c0.9,1,1.3,2,1.3,3.1s-0.6,2.1-1.7,3.1l-1.9,1.7c-1.1,1-2.2,1.5-3.3,1.4s-2.1-0.6-3-1.6s-1.3-2-1.3-3.1s0.6-2.1,1.7-3.1l1.9-1.7
			c1.1-1,2.2-1.5,3.3-1.4S45.8,157,46.7,158z M45.9,158.8c-0.6-0.7-1.4-1.1-2.2-1.1s-1.6,0.3-2.3,1l-2,1.8c-0.8,0.7-1.2,1.4-1.2,2.2
			c-0.1,0.8,0.2,1.5,0.9,2.2c0.6,0.7,1.4,1.1,2.1,1.1s1.6-0.3,2.3-1l2-1.8c0.8-0.7,1.2-1.4,1.2-2.2S46.5,159.5,45.9,158.8z
			M42.9,154.1l-11.1,3.6l-1.4-1.9l7.1-9.2l0.8,1.1l-1.8,2.3l2.7,3.9L42,153L42.9,154.1z M38.2,154.3l-2.3-3.3l-4.1,5.2l0.1,0.2
			L38.2,154.3z M37.1,145.7l-1.1,0.6l-0.7-1.4l-7.7,4.1l0.7,1.4l-1.1,0.6l-2-3.8c-0.7-1.3-0.9-2.5-0.6-3.5c0.3-1.1,1.1-1.9,2.5-2.7
			l1.8-1c1.4-0.7,2.6-0.9,3.6-0.5c1,0.4,1.9,1.2,2.6,2.5L37.1,145.7z M34.7,143.7l-0.7-1.3c-0.5-1-1.1-1.6-1.8-1.8s-1.6-0.1-2.6,0.4
			l-1.9,1c-1,0.5-1.6,1.2-1.8,1.9c-0.2,0.7-0.1,1.6,0.4,2.5l0.7,1.3L34.7,143.7z M29.7,128.1c0.4,1.3,0.3,2.4-0.2,3.4
			s-1.5,1.7-2.9,2.1l-2.4,0.8c-1.4,0.4-2.6,0.4-3.6-0.1s-1.6-1.4-2-2.7s-0.3-2.3,0.2-3.2c0.5-0.9,1.3-1.5,2.6-1.9h0.1l0.4,1.3h-0.1
			c-0.8,0.2-1.4,0.7-1.8,1.3c-0.4,0.6-0.4,1.3-0.1,2.2s0.8,1.5,1.5,1.9c0.7,0.3,1.6,0.3,2.6,0l2.5-0.8c1-0.3,1.7-0.8,2.1-1.5
			s0.5-1.5,0.2-2.4c-0.3-0.9-0.7-1.5-1.4-1.8c-0.6-0.3-1.4-0.3-2.2,0l-0.2,0.1l-0.4-1.3l0.2-0.1c1.2-0.4,2.3-0.3,3.2,0.1
			C28.6,126,29.3,126.9,29.7,128.1z M27.4,120L17,125.2l-0.2-1.4l9.6-4.8v-0.2l-10.7-1.2l-0.2-1.4l11.5,1.4L27.4,120z M18.8,109.5
			h-0.9v-1.4L18,107l-0.2-0.1l-0.7,0.9l-1,1l-0.6-0.6l0.9-1l0.9-0.7l-0.1-0.2l-1.1,0.2h-1.4v-0.9h1.4l1.1,0.1l0.1-0.2l-0.9-0.7l-1-0.9
			l0.6-0.6l1,0.9l0.7,0.9l0.2-0.1l-0.2-1.1v-1.4h0.9v1.4l-0.1,1.1l0.2,0.1l0.7-0.9l0.9-1l0.6,0.6l-0.9,1l-0.9,0.7l0.1,0.2l1.1-0.2h1.4
			v0.9h-1.4l-1.1-0.1l-0.1,0.2l0.9,0.7l1,0.9l-0.6,0.6l-1-0.9l-0.7-0.9l-0.2,0.1l0.1,1.1L18.8,109.5z M26.3,97l-1.2-0.2l0.2-1.5
			L16.7,94l-0.2,1.5l-1.2-0.2L16,91c0.2-1.4,0.8-2.5,1.6-3.2c0.9-0.7,2-0.9,3.6-0.7l2,0.3c1.5,0.2,2.6,0.8,3.2,1.7
			c0.6,0.9,0.8,2.1,0.6,3.5L26.3,97z M25.5,94l0.2-1.4c0.2-1.1,0-1.9-0.4-2.5s-1.2-1-2.3-1.2l-2.2-0.3c-1.1-0.2-2,0-2.6,0.4
			c-0.6,0.5-1,1.2-1.2,2.3l-0.2,1.4L25.5,94z M29.5,82.5c-0.4,1.3-1,2.2-2,2.7s-2.1,0.6-3.6,0.2l-2.4-0.7c-1.4-0.4-2.4-1.1-2.9-2.1
			s-0.6-2.1-0.2-3.4s1.1-2.2,2-2.7c1-0.5,2.1-0.6,3.6-0.2l2.4,0.7c1.4,0.4,2.4,1.1,2.9,2.1S29.9,81.2,29.5,82.5z M28.4,82.1
			c0.3-0.9,0.2-1.7-0.2-2.4c-0.4-0.7-1.1-1.2-2.1-1.4l-2.5-0.8c-1-0.3-1.8-0.3-2.5,0.1s-1.2,1-1.5,1.9s-0.2,1.7,0.2,2.4
			c0.4,0.7,1.1,1.2,2.1,1.4l2.5,0.8c1,0.3,1.8,0.3,2.5-0.1S28.1,83.1,28.4,82.1z M31.6,75.4l-10.8-3.1l0.6-1.2l10,3l0.1-0.2L23,67.5
			l1-2.2l10.2,2.6l0.1-0.2l-8.6-5.8l0.6-1.2l9.3,6.4l-1,2.2l-10.2-2.6l-0.1,0.2l8.5,6.3L31.6,75.4z M37.3,64.1l-9.2-6.2l1.5-2.1
			l10.7,2.5l0.1-0.2l-8.5-5.8l0.7-1.1l9.2,6.2l-1.5,2.1l-10.7-2.6l-0.1,0.2L38,63L37.3,64.1z M43.3,55.6l-8.4-7.3l0.9-1l7.5,6.5
			l3.7-4.3l0.9,0.8L43.3,55.6z M51.9,46.8c-1,0.9-2,1.3-3.1,1.3s-2.1-0.6-3.1-1.7L44,44.5c-1-1.1-1.5-2.2-1.4-3.3s0.6-2.1,1.6-3
			s2-1.3,3.1-1.3s2.1,0.6,3.1,1.7l1.7,1.9c1,1.1,1.5,2.2,1.4,3.3C53.4,44.9,52.9,45.9,51.9,46.8z M51.1,45.9c0.7-0.7,1.1-1.4,1.1-2.2
			s-0.3-1.6-1-2.3l-1.8-1.9c-0.7-0.8-1.4-1.2-2.2-1.2c-0.8-0.1-1.5,0.2-2.2,0.9c-0.7,0.6-1.1,1.4-1.1,2.1s0.3,1.6,1,2.3l1.8,1.9
			c0.7,0.8,1.4,1.2,2.2,1.2S50.4,46.6,51.1,45.9z M55.8,43l-3.6-11l1.9-1.4l9.2,7.1l-1.1,0.8l-2.3-1.8L56,39.4l0.9,2.8L55.8,43z
			M55.6,38.3l3.3-2.3l-5.2-4h-0.2L55.6,38.3z M64.2,37.2l-0.6-1.1l1.4-0.7l-4-7.7l-1.4,0.7L59,27.3l3.8-2c1.3-0.7,2.5-0.9,3.5-0.6
			c1.1,0.3,1.9,1.1,2.7,2.5l1,1.8c0.7,1.4,0.9,2.6,0.5,3.6s-1.2,1.9-2.5,2.6L64.2,37.2z M66.2,34.8l1.3-0.7c1-0.5,1.6-1.1,1.8-1.8
			c0.2-0.7,0.1-1.6-0.4-2.6l-1-1.9c-0.5-1-1.2-1.6-1.9-1.8s-1.6-0.1-2.5,0.5l-1.3,0.7L66.2,34.8z M81.7,29.7c-1.3,0.4-2.4,0.3-3.4-0.2
			s-1.7-1.5-2.1-2.9l-0.8-2.4c-0.4-1.4-0.4-2.6,0.1-3.6s1.4-1.6,2.7-2c1.3-0.4,2.3-0.3,3.2,0.1c0.9,0.5,1.5,1.3,1.9,2.6v0.1L82,21.8
			v-0.1c-0.2-0.8-0.7-1.4-1.3-1.8c-0.6-0.4-1.3-0.4-2.2-0.1c-0.9,0.3-1.5,0.8-1.9,1.5c-0.3,0.7-0.3,1.6,0,2.6l0.8,2.5
			c0.3,1,0.8,1.7,1.5,2.1s1.5,0.5,2.4,0.2s1.5-0.7,1.8-1.4c0.3-0.6,0.3-1.4,0-2.2L83,24.9l1.3-0.4l0.1,0.2c0.4,1.2,0.3,2.3-0.1,3.2
			C83.8,28.7,83,29.3,81.7,29.7z M89.9,27.4L84.6,17l1.4-0.2l4.8,9.6H91l1.2-10.7l1.4-0.2L92.2,27L89.9,27.4z M100.4,18.8v-0.9h1.4
			l1.1,0.1l0.1-0.2l-0.9-0.7l-1-1l0.6-0.6l1,0.9l0.7,0.9l0.2-0.1l-0.2-1.1v-1.4h0.9v1.4l-0.1,1.1l0.2,0.1l0.7-0.9l0.9-1l0.6,0.6
			l-0.9,1l-0.9,0.7l0.1,0.2l1.1-0.2h1.4v0.9H106l-1.1-0.1l-0.1,0.2l0.9,0.7l1,0.9l-0.6,0.6l-1-0.9l-0.7-0.9l-0.2,0.1l0.2,1.1v1.4h-0.9
			v-1.4l0.1-1.1l-0.2-0.1l-0.7,0.9l-0.9,1l-0.6-0.6l0.9-1l0.9-0.7l-0.1-0.2l-1.1,0.1L100.4,18.8z"/>
	</g>
</svg>
