<svg id="notify-object" xmlns="http://www.w3.org/2000/svg" xmlns:xlink="http://www.w3.org/1999/xlink" 
	shape-rendering="geometricPrecision" text-rendering="geometricPrecision" width="210px" height="210px" viewBox="0 0 210 210" 
	style="enable-background:new 0 0 210 210;" xml:space="preserve">

	<style type="text/css">
		#rotation-group {
			animation: rotateInfinite 9000ms linear infinite normal forwards
		}
		@keyframes rotateInfinite {
			0% {
				transform: translate(105px,105px) rotate(0deg);
				}
			100% {
				transform: translate(105px,105px) rotate(360deg);
				}
		}
	</style>

	<path fill="#ffffff" d="M210,105c0,58-47,105-105,105S0,163,0,105S47,0,105,0S210,47,210,105z"/>
	<path fill="#807DF2" d="M134,80.2l-7.2,47.1c-0.2,1.1-0.8,2-1.8,2.6c-1.1,0.5-2.1,0.6-3.2,0.1l-13.6-5.5l-7.7,8.4
		c-1.2,1.1-2.6,1.4-4.1,0.9c-1.4-0.7-2.2-1.8-2.3-3.4v-9.5c0-0.5,0.2-0.8,0.5-1.1l19-20.7c0.6-0.8,0.6-1.7-0.1-2.5
		c-0.8-0.7-1.6-0.7-2.5-0.1l-23,20.5l-10-5c-1.3-0.7-2-1.7-2-3.2c0-1.4,0.6-2.5,1.8-3.3l50.7-29c1.4-0.7,2.6-0.6,3.8,0.2
		C133.6,77.5,134.1,78.7,134,80.2z"/>
	
	<g id="rotation-group" transform="translate(105,105) rotate(360)">
		<path fill="#212121" transform="translate(-105,-105)" d="M113.1,26.3l1.8-11.6l2.7,0.4l2.4,11.4l0.2,0l1.7-10.7l1.4,0.2l-1.8,11.6l-2.7-0.4l-2.4-11.4l-0.2,0l-1.7,10.8
			L113.1,26.3z M127.9,29.6c-1.3-0.4-2.3-1.1-2.9-2.1c-0.6-1-0.6-2.3-0.2-3.8l0.8-2.6c0.5-1.5,1.2-2.5,2.2-3c1-0.5,2.2-0.6,3.6-0.2
			c1.4,0.4,2.3,1.1,2.9,2.1c0.6,1,0.6,2.3,0.2,3.8l-0.8,2.6c-0.5,1.5-1.2,2.5-2.2,3C130.5,30,129.3,30.1,127.9,29.6z M128.3,28.4
			c1,0.3,1.8,0.2,2.5-0.2c0.7-0.4,1.2-1.2,1.5-2.2l0.8-2.7c0.3-1,0.3-1.9-0.1-2.7c-0.4-0.7-1-1.3-2-1.6c-1-0.3-1.8-0.2-2.5,0.2
			c-0.7,0.4-1.2,1.2-1.5,2.2l-0.8,2.7c-0.3,1-0.3,1.9,0.1,2.7S127.4,28.1,128.3,28.4z M136.6,32.6l4.3-9.6l-3.4-1.5l0.5-1.2l8.2,3.7
			l-0.5,1.2l-3.4-1.5l-4.3,9.6L136.6,32.6z M142.9,35.7l5.7-10.3l1.2,0.7l-5.7,10.3L142.9,35.7z M146.4,37.7l6.6-9.8l5.9,4l-0.7,1.1
			l-4.7-3.2l-2.2,3.3l4.3,2.9l-0.7,1.1l-4.3-2.9l-2.9,4.4L146.4,37.7z M156.1,44.8l2.9-3.4l1.6-8.2l1.2,1.1l-1.3,6.3l0.2,0.2l6.1-2.2
			l1.2,1.1l-7.9,2.8l-2.9,3.4L156.1,44.8z M164.2,52.4l9.3-7.1l1.6,2.1l-6.7,9.1l0.1,0.2l10.5-4.1l1.6,2.1l-9.3,7.1l-0.8-1.1l8.6-6.6
			l-0.1-0.2L168.5,58l-1.5-1.9l6.7-9l-0.1-0.2l-8.6,6.6L164.2,52.4z M172.6,64l10.3-5.7l3.5,6.3l-1.1,0.6l-2.8-5.1L179,62l2.6,4.7
			l-1.1,0.6l-2.6-4.7l-3.5,1.9l2.9,5.2l-1.1,0.6L172.6,64z M185.8,73.2l0.9-0.3l0.5,1.3l0.2,1.1l0.2,0l0.4-1.1l0.6-1.3l0.8,0.4
			l-0.6,1.3l-0.6,1l0.1,0.1l1-0.5l1.3-0.5l0.3,0.9l-1.3,0.5l-1.1,0.2l0,0.2l1.1,0.4l1.3,0.6l-0.4,0.8l-1.3-0.6l-1-0.7l-0.1,0.1l0.5,1
			l0.5,1.3l-0.9,0.3l-0.5-1.3l-0.3-1.1l-0.2,0l-0.4,1.1l-0.6,1.3l-0.8-0.4l0.6-1.3l0.7-1l-0.1-0.1l-1,0.5l-1.3,0.5l-0.3-0.9l1.3-0.5
			l1.1-0.2l0-0.2l-1.1-0.4l-1.3-0.6l0.4-0.8l1.3,0.6l1,0.7l0.1-0.1l-0.5-1.1L185.8,73.2z M182.4,88.7l11.6-1.8l0.4,2.7l-10.1,5.7
			l0,0.2l10.7-1.7l0.2,1.4L183.7,97l-0.4-2.7l10.1-5.7l0-0.2L182.6,90L182.4,88.7z M183.7,103.8c0-1.4,0.4-2.5,1.2-3.4
			c0.8-0.8,2-1.3,3.5-1.3l2.7,0c1.6,0,2.7,0.4,3.6,1.2c0.8,0.8,1.2,1.9,1.3,3.3c0,1.4-0.4,2.5-1.2,3.4c-0.8,0.8-2,1.3-3.5,1.3l-2.7,0
			c-1.6,0-2.7-0.4-3.6-1.2C184.2,106.3,183.8,105.2,183.7,103.8z M185,103.8c0,1,0.3,1.8,1,2.4s1.5,0.8,2.6,0.8l2.8,0
			c1.1,0,1.9-0.3,2.5-0.9c0.6-0.6,0.9-1.4,0.9-2.4c0-1-0.3-1.8-1-2.3s-1.5-0.8-2.6-0.8l-2.8,0c-1.1,0-1.9,0.3-2.5,0.9
			C185.3,102,185,102.8,185,103.8z M183.6,113l10.4,1.1l0.4-3.8l1.3,0.1l-1,8.9l-1.3-0.1l0.4-3.8l-10.4-1.1L183.6,113z M182.6,119.9
			l11.5,2.3l-0.3,1.4l-11.5-2.3L182.6,119.9z M181.8,123.9l11.3,3.3l-2,6.8l-1.2-0.4l1.6-5.5l-3.8-1.1l-1.5,5l-1.2-0.4l1.5-5l-5.1-1.5
			L181.8,123.9z M178,135.2l4.1,1.8l8.3-1l-0.6,1.5l-6.4,0.7l-0.1,0.2l4,5.1l-0.6,1.5l-5.1-6.7l-4.1-1.8L178,135.2z M173.2,145.3
			l9.6,6.7l-1.5,2.2l-10.7-3.7l-0.1,0.2l7.1,8.8l-1.5,2.2l-9.6-6.7l0.8-1.1l8.9,6.2l0.1-0.2l-7.1-8.7l1.4-2l10.7,3.6l0.1-0.2l-8.9-6.2
			L173.2,145.3z M164.7,156.8l8.5,8.1l-5,5.3l-0.9-0.9l4-4.2l-2.9-2.7l-3.7,3.9l-0.9-0.9l3.7-3.9l-2.9-2.7l-4.1,4.3l-0.9-0.9
			L164.7,156.8z M160,172.2l0.5,0.7l-1.1,0.9l-1,0.6l0,0.2l1.2,0l1.4,0.2l-0.1,0.9l-1.4-0.2l-1.1-0.3l-0.1,0.2l0.8,0.8l0.9,1.1
			l-0.7,0.5l-0.9-1.1l-0.6-1l-0.2,0l0,1.2l-0.2,1.4l-0.9-0.1l0.2-1.4l0.3-1.1l-0.2-0.1l-0.8,0.8l-1.1,0.9l-0.5-0.7l1.1-0.9l1-0.6
			l0-0.2l-1.2,0l-1.4-0.2l0.1-0.9l1.4,0.2l1.1,0.3l0.1-0.2l-0.8-0.8l-0.9-1.1l0.7-0.5l0.9,1.1l0.6,1l0.2,0l0-1.2l0.2-1.4l0.9,0.1
			l-0.2,1.4l-0.3,1.1l0.2,0.1l0.8-0.8L160,172.2z M144.2,173.7l5.3,10.5l-2.4,1.2l-8.5-7.9l-0.2,0.1l4.9,9.7L142,188l-5.3-10.5
			l2.4-1.2l8.5,7.9l0.2-0.1l-4.9-9.7L144.2,173.7z M130.2,179.6c1.3-0.4,2.5-0.4,3.6,0.1c1.1,0.5,1.8,1.5,2.3,3l0.9,2.5
			c0.5,1.5,0.5,2.7,0,3.8c-0.5,1-1.5,1.8-2.8,2.2c-1.3,0.5-2.5,0.4-3.6-0.1c-1-0.5-1.8-1.5-2.3-3l-0.9-2.5c-0.5-1.5-0.5-2.7,0-3.8
			C128,180.8,128.9,180.1,130.2,179.6z M130.6,180.8c-1,0.3-1.6,0.9-2,1.6c-0.3,0.8-0.3,1.7,0,2.7l0.9,2.6c0.3,1,0.9,1.7,1.6,2.1
			c0.7,0.4,1.6,0.4,2.5,0.1c1-0.3,1.6-0.9,1.9-1.6c0.3-0.8,0.3-1.7,0-2.7l-0.9-2.6c-0.3-1-0.9-1.7-1.6-2.1
			C132.4,180.5,131.6,180.5,130.6,180.8z M121.5,182.3l2.1,10.3l3.7-0.8l0.3,1.3l-8.8,1.8l-0.3-1.3l3.7-0.8l-2.1-10.3L121.5,182.3z
			M114.6,183.4l1.3,11.7l-1.4,0.2l-1.3-11.7L114.6,183.4z M110.6,183.9l0.3,11.8l-7.1,0.2l0-1.3l5.7-0.2l-0.1-3.9l-5.2,0.2l0-1.3
			l5.2-0.2l-0.2-5.3L110.6,183.9z M98.6,183.7l-0.4,4.5l3.5,7.6l-1.6-0.1l-2.6-5.9l-0.2,0l-3.6,5.3l-1.6-0.1l4.8-6.9l0.4-4.5
			L98.6,183.7z M87.5,182.3l-3.4,11.2l-2.6-0.8l0.2-11.3l-0.2-0.1l-6.2,9.5l-2.6-0.8l3.4-11.2l1.3,0.4l-3.2,10.4l0.2,0.1l6.1-9.5
			l2.3,0.7l-0.2,11.3l0.2,0.1l3.2-10.4L87.5,182.3z M74,177.7l-5.1,10.6l-6.5-3.1l0.6-1.2l5.3,2.5l1.7-3.5l-4.8-2.3l0.6-1.2l4.8,2.3
			l1.7-3.6l-5.3-2.6l0.6-1.2L74,177.7z M57.9,177.9l-0.5,0.7l-1.2-0.8l-0.9-0.8l-0.2,0.1l0.4,1.1l0.2,1.4l-0.9,0.1l-0.2-1.4l-0.1-1.2
			l-0.2,0l-0.5,1l-0.8,1.2l-0.7-0.5l0.8-1.2l0.8-0.9l-0.1-0.2l-1.1,0.3l-1.4,0.2l-0.2-0.9l1.4-0.3l1.2,0l0-0.2l-1-0.5l-1.2-0.8
			l0.5-0.7l1.2,0.8l0.9,0.8l0.2-0.1l-0.4-1.1l-0.2-1.4l0.9-0.2l0.2,1.4l0,1.2l0.2,0l0.5-1l0.8-1.2l0.7,0.5l-0.8,1.2l-0.8,0.9l0.1,0.2
			l1.1-0.4l1.4-0.2l0.2,0.9l-1.4,0.2l-1.2,0l0,0.2l1,0.6L57.9,177.9z M51.6,163.4l-8.4,8.2l-1.9-2l4.9-10.5L46,159l-7.8,7.6l-1-1
			l8.4-8.2l1.9,2l-4.9,10.5l0.2,0.2l7.8-7.6L51.6,163.4z M41.7,151.8c0.8,1.1,1.2,2.3,1,3.4c-0.2,1.2-0.9,2.2-2.1,3.1l-2.2,1.6
			c-1.3,0.9-2.5,1.3-3.6,1.1c-1.1-0.2-2.1-0.8-3-2c-0.8-1.1-1.2-2.3-1-3.4c0.2-1.2,0.9-2.2,2.1-3.1l2.2-1.6c1.3-0.9,2.5-1.3,3.6-1.1
			C39.9,150,40.8,150.7,41.7,151.8z M40.7,152.6c-0.6-0.8-1.3-1.3-2.1-1.4s-1.7,0.2-2.5,0.8l-2.2,1.7c-0.9,0.6-1.4,1.4-1.5,2.2
			s0.1,1.6,0.7,2.4c0.6,0.8,1.3,1.3,2.1,1.3c0.8,0.1,1.7-0.2,2.5-0.8l2.2-1.7c0.9-0.6,1.4-1.4,1.5-2.2S41.3,153.4,40.7,152.6z
			M36.5,144.3l-9.1,5.1l1.9,3.3l-1.1,0.6l-4.4-7.8l1.1-0.6l1.9,3.3l9.1-5.1L36.5,144.3z M33.3,138.2L22.6,143l-0.6-1.3l10.7-4.8
			L33.3,138.2z M31.6,134.4l-11.1,3.9l-2.4-6.7l1.2-0.4l1.9,5.4l3.7-1.3l-1.8-4.9l1.2-0.4l1.8,4.9l5-1.8L31.6,134.4z M28.1,123l-4.4,1
			l-6.2,5.7l-0.4-1.6l4.8-4.3l-0.1-0.2l-6.2-1.9l-0.4-1.6l8,2.5l4.4-1L28.1,123z M26.1,112l-11.8,0.2l0-2.7l10.8-3.3l0-0.2l-10.9-2.9
			l0-2.7l11.8-0.2l0,1.4l-10.8,0.2l0,0.2l10.9,2.9l0,2.4l-10.8,3.3l0,0.2l10.8-0.2L26.1,112z M26.3,97.7l-11.7-1.6l1-7.2l1.3,0.2
			l-0.8,5.8l3.9,0.5l0.7-5.3l1.3,0.2l-0.7,5.3l4,0.5l0.8-5.9l1.3,0.2L26.3,97.7z M21.2,82.4l-0.9-0.3l0.4-1.4l0.5-1.1l-0.2-0.1l-1,0.7
			L18.8,81l-0.4-0.8l1.3-0.7l1.1-0.4l0-0.2l-1.2-0.2l-1.4-0.4l0.3-0.9l1.4,0.4l1.1,0.5l0.1-0.2l-0.7-1l-0.7-1.3l0.8-0.4l0.7,1.3
			l0.4,1.1l0.2,0l0.2-1.2l0.4-1.4l0.9,0.3L22.9,77L22.4,78l0.1,0.1l1-0.7l1.3-0.7l0.4,0.8l-1.3,0.7l-1.1,0.4l0,0.2l1.2,0.2l1.4,0.4
			l-0.3,0.9L23.7,80l-1.1-0.5l-0.1,0.2l0.7,1l0.7,1.3l-0.8,0.4L22.4,81L22,79.9l-0.2,0l-0.2,1.1L21.2,82.4z M33.1,72l-10.4-5.5
			l1.3-2.4l11.5,1.4l0.1-0.2L26,60.3l0.6-1.2L37,64.5L35.7,67l-11.5-1.5l-0.1,0.2l9.6,5.1L33.1,72z M41,59.1c-0.8,1.1-1.8,1.8-2.9,2
			s-2.4-0.1-3.6-1.1l-2.2-1.6c-1.3-0.9-2-1.9-2.2-3.1s0.2-2.3,1-3.4c0.8-1.1,1.8-1.8,3-2s2.4,0.1,3.6,1.1l2.2,1.6
			c1.3,0.9,2,1.9,2.2,3.1S41.8,57.9,41,59.1z M40,58.3c0.6-0.8,0.8-1.6,0.6-2.5c-0.2-0.8-0.7-1.5-1.6-2.2l-2.3-1.6
			c-0.9-0.6-1.7-0.9-2.6-0.8c-0.8,0.1-1.5,0.6-2.1,1.4c-0.6,0.8-0.8,1.6-0.6,2.4c0.2,0.8,0.7,1.5,1.6,2.2l2.3,1.6
			c0.9,0.6,1.7,0.9,2.6,0.8C38.7,59.6,39.4,59.2,40,58.3z M46.6,51.8l-7.7-7.1l-2.6,2.8l-0.9-0.9l6.1-6.6l0.9,0.9l-2.6,2.8l7.7,7.1
			L46.6,51.8z M51.5,46.9l-7.9-8.7l1-0.9l7.9,8.7L51.5,46.9z M54.5,44.1l-7.1-9.3l5.6-4.3l0.8,1L49.3,35l2.4,3.1l4.2-3.2l0.8,1
			l-4.2,3.2l3.2,4.2L54.5,44.1z M64.4,37.3l-2.3-3.9l-7.3-4.1l1.4-0.8l5.6,3.3l0.2-0.1l-0.1-6.5l1.4-0.8l0.1,8.4l2.3,3.9L64.4,37.3z
			M74.2,32l-3.8-11.1L73,20l6.4,9.3l0.2-0.1l-0.5-11.3l2.5-0.9l3.8,11.1l-1.3,0.4l-3.5-10.3l-0.2,0.1l0.5,11.3l-2.3,0.8l-6.4-9.3
			L72,21.3l3.5,10.3L74.2,32z M87.8,27.8l-2-11.6l7.1-1.3l0.2,1.3l-5.7,1l0.7,3.9l5.3-0.9l0.2,1.3l-5.3,0.9l0.7,3.9l5.8-1l0.2,1.3
			L87.8,27.8z M100.8,18.3l0-0.9l1.4,0l1.2,0.1l0.1-0.2l-1-0.7l-1-1l0.6-0.6l1,1l0.7,0.9l0.2-0.1l-0.2-1.2l0-1.4l0.9,0l0,1.4l-0.1,1.2
			l0.2,0.1l0.7-0.9l1-1l0.6,0.6l-1,1l-0.9,0.7l0.1,0.2l1.2-0.2l1.4,0l0,0.9l-1.4,0l-1.2-0.1l-0.1,0.2l1,0.7l1,1l-0.6,0.6l-1-1
			l-0.7-0.9l-0.2,0.1l0.2,1.2l0,1.4l-0.9,0l0-1.4l0.1-1.2l-0.2-0.1l-0.7,1l-1,1l-0.6-0.6l1-1l0.9-0.7l-0.1-0.2l-1.2,0.2L100.8,18.3z"
			/>
	</g>
</svg>
