<svg id="hello-object" xmlns="http://www.w3.org/2000/svg" xmlns:xlink="http://www.w3.org/1999/xlink" 
	shape-rendering="geometricPrecision" text-rendering="geometricPrecision" width="50px" height="50px" viewBox="0 0 50 50" 
	style="enable-background:new 0 0 50 50;" xml:space="preserve">

	<style type="text/css">
		#rotation-group {
			animation: rotateInfinite 9000ms linear infinite normal forwards
		}
		@keyframes rotateInfinite {
			0% {
				transform: translate(25px,25px) rotate(0deg);
				}
			100% {
				transform: translate(25px,25px) rotate(360deg);
				}
		}
	</style>

	<path fill="#ffffff" d="M25,1c13.2,0,24,10.8,24,24S38.2,49,25,49S1,38.2,1,25S11.8,1,25,1 M25,0C11.2,0,0,11.2,0,25s11.2,25,25,25
		s25-11.2,25-25S38.8,0,25,0L25,0z"/>
	<path fill="#ffffff" d="M23,24.5h-2.2l-2.2-5.1c-0.1-0.3-0.1-0.5,0-0.8c0.1-0.2,0.3-0.4,0.5-0.5c0.3-0.1,0.5-0.1,0.8,0
		c0.2,0.1,0.4,0.3,0.5,0.5L23,24.5z M21.2,25.5h2.2h0.8c0.4,0,0.6,0.1,0.9,0.4c0.2,0.2,0.4,0.5,0.4,0.9c0,0.4-0.1,0.6-0.4,0.9
		c-0.2,0.2-0.5,0.4-0.9,0.4h-1.8c-0.3,0-0.5,0.2-0.5,0.5c0,0.3,0.2,0.5,0.5,0.5h1.8c0.6,0,1.2-0.2,1.6-0.7c0.4-0.4,0.6-0.9,0.7-1.6v0
		c0.3,0.2,0.6,0.3,1,0.3c0.4,0,0.8-0.1,1.1-0.3c0.1,0.4,0.4,0.7,0.7,1c0.3,0.2,0.7,0.4,1.2,0.4c0.4,0,0.7-0.1,1-0.3V28
		c0,1.4-0.5,2.6-1.5,3.5S27.9,33,26.5,33h-1.9c-1.4,0-2.6-0.5-3.5-1.5l-0.3-0.3c-0.8-0.8-1.2-1.7-1.2-2.8v-0.8c0-0.5,0.2-1,0.5-1.3
		C20.3,25.8,20.7,25.6,21.2,25.5L21.2,25.5z M25.2,17.3c0.2,0.2,0.3,0.4,0.3,0.7v6.5h-2V18c0-0.3,0.1-0.5,0.3-0.7s0.4-0.3,0.7-0.3
		C24.8,17,25,17.1,25.2,17.3z M28.2,22.3c0.2,0.2,0.3,0.4,0.3,0.7v2c0,0.3-0.1,0.5-0.3,0.7S27.8,26,27.5,26c-0.3,0-0.5-0.1-0.7-0.3
		s-0.3-0.4-0.3-0.7v-2c0-0.3,0.1-0.5,0.3-0.7s0.4-0.3,0.7-0.3C27.8,22,28,22.1,28.2,22.3z M29.8,23.3c0.2-0.2,0.4-0.3,0.7-0.3
		c0.3,0,0.5,0.1,0.7,0.3s0.3,0.4,0.3,0.7v2c0,0.3-0.1,0.5-0.3,0.7S30.8,27,30.5,27c-0.3,0-0.5-0.1-0.7-0.3s-0.3-0.4-0.3-0.7v-2
		C29.5,23.7,29.6,23.5,29.8,23.3z"/>

	<g id="rotation-group" transform="translate(25,25) rotate(360)">
		<path fill="#ffffff" transform="translate(-25,-25)" d="M27.7,9.2l1.8-5.7l1,0.3l-0.7,2.4L32,6.9l0.7-2.4l1,0.3l-1.8,5.7l-1-0.3l0.7-2.4l-2.2-0.7l-0.7,2.4L27.7,9.2z
			M32.6,10.9L36,6l3.1,2.1l-0.5,0.8l-2.3-1.6l-0.9,1.3l2.1,1.4L37,10.8l-2.1-1.4L34,10.7l2.3,1.6l-0.5,0.8L32.6,10.9z M36.1,13.5
			l4.5-3.8l0.7,0.8l-3.8,3.2l1.8,2.1l-0.7,0.6L36.1,13.5z M38.8,16.8l5.4-2.5l0.4,0.9l-4.6,2.1l1.2,2.5l-0.8,0.4L38.8,16.8z
			M40.7,22.7c-0.1-0.7,0-1.3,0.4-1.8c0.3-0.5,0.9-0.8,1.7-0.9l1.4-0.2c0.8-0.1,1.4,0,1.8,0.4c0.5,0.4,0.8,0.9,0.9,1.7
			c0.1,0.7,0,1.3-0.4,1.8c-0.3,0.5-0.9,0.8-1.7,0.9l-1.4,0.2c-0.8,0.1-1.4,0-1.8-0.4C41.1,24,40.8,23.5,40.7,22.7z M41.6,22.6
			c0.1,0.4,0.2,0.8,0.5,1s0.7,0.3,1.1,0.2l1.5-0.2c0.4-0.1,0.8-0.2,1-0.5c0.2-0.3,0.3-0.6,0.2-1.1c-0.1-0.4-0.2-0.8-0.5-1
			s-0.7-0.3-1.1-0.2L42.8,21c-0.4,0.1-0.8,0.2-1,0.5S41.6,22.2,41.6,22.6z M44.5,28.6l0.6,0.2l-0.2,0.6l-0.3,0.6l0.1,0.1l0.5-0.4
			l0.6-0.3l0.3,0.5l-0.6,0.3l-0.6,0.2l0,0.1l0.6,0.1l0.7,0.2l-0.2,0.6l-0.7-0.2l-0.6-0.3l-0.1,0.1l0.4,0.5l0.3,0.6L45,32.3l-0.3-0.6
			l-0.2-0.6l-0.1,0l-0.1,0.6l-0.2,0.6l-0.6-0.2l0.2-0.6L44,31l-0.1-0.1l-0.5,0.4l-0.6,0.3l-0.3-0.5l0.6-0.3l0.6-0.2l0-0.1l-0.6-0.1
			l-0.7-0.2l0.2-0.6l0.7,0.2l0.6,0.3l0.1-0.1l-0.4-0.5L43.1,29l0.5-0.3l0.3,0.6l0.2,0.6l0.1,0l0.1-0.6L44.5,28.6z M39,33.1l3.6,5
			l-1.1,1.4L35.9,37l0.7-0.8l1.3,0.6l1.4-1.7l-0.8-1.1L39,33.1z M39.8,35.8l-1.1,1.4l2.8,1.3l0.1-0.1L39.8,35.8z M35.6,37.2l3.2,5
			l-1.6,1.1l-4-3.7L33,39.7l2.8,4.4L35,44.7l-3.2-5l1.6-1.1l4,3.7l0.1-0.1l-2.8-4.4L35.6,37.2z M31.3,39.9l0.2,0.9L30.7,41l1,4
			l0.8-0.2l0.2,0.9l-2.4,0.6c-0.8,0.2-1.4,0.1-1.9-0.1c-0.5-0.3-0.9-0.8-1-1.6l-0.3-1.1C27,42.6,27,42,27.3,41.5
			c0.3-0.5,0.9-0.8,1.6-1L31.3,39.9z M29.7,41.2l-0.6,0.1c-0.5,0.1-0.8,0.3-1,0.6s-0.2,0.7-0.1,1.1l0.3,1.1c0.1,0.5,0.3,0.8,0.6,1
			c0.3,0.2,0.7,0.2,1.1,0.1l0.6-0.1L29.7,41.2z M23.5,44.8l-0.1,0.6l-0.7-0.1L22.2,45l-0.1,0.1l0.4,0.4l0.4,0.6l-0.5,0.3l-0.4-0.6
			l-0.3-0.6l-0.1,0l0,0.6l-0.1,0.7L21,46.5l0.1-0.7l0.2-0.6l-0.1-0.1l-0.4,0.4L20.2,46l-0.3-0.5l0.6-0.4l0.6-0.3l0-0.1l-0.6,0
			l-0.7-0.1l0.1-0.6l0.7,0.1l0.6,0.2l0.1-0.1l-0.4-0.4l-0.4-0.6l0.5-0.3l0.4,0.6l0.3,0.6l0.1,0l0-0.6l0.1-0.7l0.6,0.1l-0.1,0.7
			l-0.2,0.6l0.1,0.1l0.4-0.4l0.6-0.4l0.3,0.5l-0.6,0.4l-0.6,0.3l0,0.1l0.6,0L23.5,44.8z M17.6,39.3l-3,5.2L13.9,44l2.7-4.6l-0.1-0.1
			L12.6,43l-1.4-1.1l2.5-4.7l-0.1-0.1l-3.7,3.8l-0.8-0.6l4.3-4.2l1.4,1.1l-2.6,4.8l0.1,0.1l3.9-3.7L17.6,39.3z M12.6,35.1l-5,3.2
			l-2-3.2l0.8-0.5l1.5,2.3l1.3-0.8L7.8,34l0.8-0.5l1.4,2.1l1.4-0.9l-1.5-2.4l0.8-0.5L12.6,35.1z M10.4,31.3l-5.7,1.7l-0.3-1l4.8-1.5
			L8.4,28l0.9-0.3L10.4,31.3z M9.3,25.2c0,0.7-0.2,1.3-0.6,1.7c-0.4,0.4-1,0.7-1.8,0.7l-1.4,0c-0.8,0-1.4-0.2-1.8-0.6
			c-0.4-0.4-0.6-1-0.6-1.7c0-0.7,0.2-1.3,0.6-1.7S4.6,23,5.3,23l0.1,0l0,1l-0.1,0c-0.4,0-0.7,0.1-0.9,0.3c-0.2,0.2-0.4,0.5-0.3,1
			c0,0.4,0.1,0.7,0.4,1c0.3,0.2,0.6,0.4,1.1,0.3l1.4,0c0.4,0,0.8-0.1,1.1-0.4c0.3-0.2,0.4-0.6,0.4-1c0-0.4-0.1-0.7-0.4-1
			C7.8,24.1,7.5,24,7.1,24L7,24l0-1l0.1,0c0.7,0,1.2,0.2,1.6,0.6C9.1,23.9,9.3,24.5,9.3,25.2z M10.1,20.3c-0.2,0.7-0.6,1.2-1.1,1.5
			c-0.5,0.3-1.2,0.3-1.9,0.1l-1.3-0.4c-0.7-0.2-1.2-0.6-1.5-1.2c-0.3-0.5-0.3-1.2-0.1-1.9c0.2-0.7,0.6-1.2,1.1-1.5
			c0.5-0.3,1.2-0.3,1.9-0.1l1.3,0.4c0.7,0.2,1.2,0.6,1.5,1.2C10.3,18.9,10.3,19.6,10.1,20.3z M9.2,20c0.1-0.4,0.1-0.8-0.1-1.1
			c-0.2-0.3-0.5-0.5-0.9-0.7l-1.4-0.4c-0.4-0.1-0.8-0.1-1.1,0S5.2,18.3,5,18.7c-0.1,0.4-0.1,0.8,0.1,1.1s0.5,0.5,0.9,0.7l1.4,0.4
			c0.4,0.1,0.8,0.1,1.1,0C8.8,20.7,9,20.4,9.2,20z M10.8,17.4l-4.6-3.8l1.2-1.5l4.8,2.5l0.1-0.1L9,10.2l1.2-1.5l4.6,3.8l-0.6,0.8
			l-4-3.3l-0.1,0.1l3.3,4.2l-1.1,1.3l-4.8-2.4l-0.1,0.1l4,3.3L10.8,17.4z M15.5,12.2l-3-5.1l3.3-1.9L16.3,6l-2.4,1.4l0.8,1.3l2.2-1.3
			l0.5,0.8l-2.2,1.3l0.8,1.4l2.4-1.4l0.5,0.8L15.5,12.2z M20.5,5.8l-0.1-0.6l0.7-0.1l0.6,0l0-0.1l-0.5-0.3l-0.5-0.4L21,3.9l0.5,0.4
			L22,4.8l0.1-0.1l-0.2-0.6l-0.1-0.7l0.6-0.1L22.5,4l0,0.6l0.1,0l0.3-0.5l0.4-0.5L23.8,4l-0.4,0.5l-0.4,0.4L23,5l0.6-0.2l0.7-0.1
			l0.1,0.6l-0.7,0.1l-0.6,0l0,0.1l0.5,0.3l0.5,0.4l-0.4,0.5l-0.5-0.4l-0.4-0.4l-0.1,0.1l0.2,0.6l0.1,0.7l-0.6,0.1l-0.1-0.7l0-0.6
			l-0.1,0l-0.3,0.5L21.5,7L21,6.6l0.4-0.5l0.4-0.4l-0.1-0.1l-0.6,0.2L20.5,5.8z"/>
	</g>
</svg>
