<svg id="hello-object" xmlns="http://www.w3.org/2000/svg" xmlns:xlink="http://www.w3.org/1999/xlink" 
	shape-rendering="geometricPrecision" text-rendering="geometricPrecision" width="80px" height="80px" viewBox="0 0 80 80" 
	style="enable-background:new 0 0 80 80;" xml:space="preserve">

	<style type="text/css">
		#rotation-group {
			animation: rotateInfinite 9000ms linear infinite normal forwards
		}
		@keyframes rotateInfinite {
			0% {
				transform: translate(40px,40px) rotate(0deg);
				}
			100% {
				transform: translate(40px,40px) rotate(360deg);
				}
		}
	</style>

	<path fill="#ffffff" d="M40,2c21,0,38,17,38,38S61,78,40,78S2,61,2,40S19,2,40,2 M40,0C17.9,0,0,17.9,0,40s17.9,40,40,40s40-17.9,40-40
		S62.1,0,40,0L40,0z"/>
	<path fill="#ffffff" d="M36.9,39.1H33l-3.9-8.9c-0.2-0.5-0.2-0.9-0.1-1.4c0.2-0.4,0.5-0.7,0.9-0.9c0.5-0.2,0.9-0.2,1.4-0.1
		c0.4,0.2,0.7,0.5,0.9,0.9L36.9,39.1z M33.8,40.9h3.8H39c0.6,0,1.1,0.2,1.5,0.7c0.4,0.4,0.7,0.9,0.7,1.5c0,0.6-0.2,1.1-0.7,1.5
		c-0.4,0.4-0.9,0.7-1.5,0.7H36c-0.5,0-0.8,0.3-0.9,0.9c0,0.5,0.3,0.8,0.9,0.9H39c1.1,0,2.1-0.4,2.8-1.1c0.7-0.7,1.1-1.7,1.1-2.8V43
		c0.5,0.3,1.1,0.5,1.8,0.5c0.7,0,1.4-0.2,2-0.6c0.2,0.7,0.6,1.3,1.3,1.7c0.6,0.4,1.3,0.7,2,0.7c0.7,0,1.2-0.2,1.8-0.5v0.5
		c-0.1,2.5-0.9,4.5-2.6,6.2S45.5,53.9,43,54h-3.4c-2.4,0-4.5-0.9-6.2-2.6l-0.6-0.6c-1.3-1.4-2-3-2.1-5v-1.5c0-0.9,0.3-1.7,0.9-2.4
		C32.2,41.4,32.9,41,33.8,40.9L33.8,40.9z M40.7,26.5c0.3,0.3,0.5,0.7,0.5,1.3v11.4h-3.5V27.8c0-0.5,0.2-0.9,0.5-1.3S39,26,39.5,26
		C40,26,40.4,26.2,40.7,26.5z M46,35.2c0.3,0.3,0.5,0.7,0.5,1.3V40c0,0.5-0.2,0.9-0.5,1.3s-0.7,0.5-1.3,0.5c-0.5,0-0.9-0.2-1.3-0.5
		S43,40.5,43,40v-3.5c0-0.5,0.2-0.9,0.5-1.3s0.7-0.5,1.3-0.5C45.2,34.8,45.7,34.9,46,35.2z M48.7,37c0.3-0.3,0.7-0.5,1.3-0.5
		c0.5,0,0.9,0.2,1.3,0.5s0.5,0.7,0.5,1.3v3.5c0,0.5-0.2,0.9-0.5,1.3s-0.7,0.5-1.3,0.5c-0.5,0-0.9-0.2-1.3-0.5s-0.5-0.7-0.5-1.3v-3.5
		C48.2,37.7,48.4,37.3,48.7,37z"/>

	<g id="rotation-group" transform="translate(40,40) rotate(360)">
		<path fill="#ffffff" transform="translate(-40,-40)" d="M43.3,12.6l1.3-6.3l1.1,0.2l-0.6,2.6l2.5,0.5L48.2,7l1.1,0.2L48,13.6l-1.1-0.2l0.6-2.7L45,10.1l-0.6,2.7
			L43.3,12.6z M49,13.9L51.5,8l3.8,1.6l-0.4,0.9l-2.7-1.2l-0.7,1.6L54,12l-0.4,0.9l-2.5-1.1l-0.7,1.6l2.8,1.2l-0.4,0.9L49,13.9z
			M53.5,16l3.5-5.4l0.9,0.6l-3,4.5l2.5,1.7l-0.6,0.8L53.5,16z M57.5,18.7l4.4-4.7l0.8,0.8l-3.7,4l2.2,2.1l-0.7,0.7L57.5,18.7z
			M62.1,24c-0.5-0.6-0.7-1.3-0.6-1.9c0.1-0.6,0.5-1.2,1.1-1.7l1.2-0.9c0.7-0.5,1.3-0.7,2-0.5c0.6,0.1,1.2,0.5,1.7,1.2
			c0.5,0.7,0.7,1.3,0.6,1.9c-0.1,0.6-0.5,1.2-1.1,1.7l-1.2,0.9c-0.7,0.5-1.3,0.7-2,0.6C63.2,25,62.6,24.6,62.1,24z M62.9,23.4
			c0.3,0.4,0.6,0.6,1,0.7c0.4,0.1,0.8-0.1,1.2-0.3l1.3-0.9c0.4-0.3,0.6-0.6,0.7-1c0.1-0.4,0-0.8-0.3-1.2c-0.3-0.4-0.6-0.6-1-0.7
			c-0.4-0.1-0.8,0.1-1.2,0.3l-1.3,0.9c-0.4,0.3-0.6,0.6-0.7,1C62.6,22.6,62.7,23,62.9,23.4z M69,27.3l0.6-0.2l0.2,0.7l0.1,0.7l0.1,0
			l0.2-0.6l0.3-0.7l0.6,0.3l-0.3,0.7l-0.4,0.5l0.1,0.1l0.6-0.3l0.7-0.2l0.2,0.6L71.3,29l-0.7,0.1l0,0.1l0.6,0.2l0.7,0.3l-0.3,0.6
			L71,30l-0.5-0.4l-0.1,0.1l0.3,0.6l0.2,0.7l-0.6,0.2l-0.2-0.7L70,29.9l-0.1,0l-0.2,0.6l-0.3,0.7l-0.6-0.3l0.3-0.7l0.4-0.5l-0.1-0.1
			l-0.6,0.3l-0.7,0.2l-0.2-0.6l0.7-0.2l0.7-0.1l0-0.1l-0.6-0.2L68,28.6l0.3-0.6l0.7,0.3l0.5,0.4l0.1-0.1L69.2,28L69,27.3z M67.3,36.1
			l6.4-1.1l0,1.1L68.1,37l0,0.2l5.7,0.7l0.1,1.9l-5.6,1.1l0,0.2l5.7,0.5l0,1.1l-6.5-0.7L67.5,40l5.8-1.1l0-0.2L67.4,38L67.3,36.1z
			M67.3,43.5l6.3,1.3l-0.8,4l-1-0.2l0.6-2.9l-1.7-0.3L70.2,48l-1-0.2l0.5-2.7l-1.7-0.3l-0.6,3l-1-0.2L67.3,43.5z M66.2,48.3l6,2.4
			l-0.4,1l-5.1-2l-1.1,2.8l-0.9-0.4L66.2,48.3z M63.1,54.6c0.4-0.7,0.9-1.1,1.6-1.2c0.6-0.2,1.3,0,2,0.4l1.3,0.8
			c0.7,0.4,1.1,1,1.3,1.6c0.1,0.6,0,1.3-0.4,1.9c-0.4,0.7-0.9,1.1-1.5,1.2c-0.6,0.1-1.2,0-1.8-0.4l0,0L66,58l0.1,0
			c0.3,0.2,0.7,0.3,1,0.2c0.3-0.1,0.6-0.3,0.9-0.7c0.2-0.4,0.3-0.8,0.2-1.1c-0.1-0.4-0.4-0.7-0.8-0.9l-1.3-0.8
			c-0.4-0.3-0.8-0.3-1.2-0.3c-0.4,0.1-0.7,0.3-0.9,0.7c-0.2,0.4-0.3,0.8-0.2,1.1c0.1,0.3,0.3,0.6,0.7,0.8l0.1,0.1L64,58L63.8,58
			c-0.6-0.4-1-0.9-1.2-1.5C62.5,55.9,62.7,55.3,63.1,54.6z M59.6,59.1c0.6-0.6,1.2-0.9,1.8-0.9c0.6,0,1.3,0.2,1.9,0.8l1.1,1.1
			c0.6,0.6,0.9,1.2,0.9,1.8c0,0.7-0.3,1.3-0.9,1.8c-0.6,0.6-1.2,0.9-1.8,0.9c-0.6,0-1.3-0.2-1.9-0.8l-1.1-1.1
			c-0.6-0.6-0.9-1.2-0.9-1.8C58.7,60.3,59,59.7,59.6,59.1z M60.3,59.8c-0.3,0.3-0.5,0.7-0.5,1.1c0,0.4,0.2,0.7,0.5,1.1l1.1,1.1
			c0.3,0.3,0.7,0.5,1.1,0.5c0.4,0,0.7-0.2,1.1-0.5c0.3-0.3,0.5-0.7,0.5-1.1c0-0.4-0.2-0.7-0.5-1.1l-1.1-1.1c-0.3-0.3-0.7-0.5-1.1-0.5
			C61,59.3,60.6,59.4,60.3,59.8z M57.2,61.7l3.4,5.5l-1.8,1.1L54.8,64l-0.1,0.1l1.9,5.5l-1.8,1.1l-3.4-5.5l0.9-0.6l3,4.8l0.1-0.1
			l-1.9-5.5l1.6-1l4,4.1l0.1-0.1l-3-4.8L57.2,61.7z M50.5,65.5l2,6.1l-3.9,1.3l-0.3-1l2.8-0.9l-0.5-1.6L48,70.3l-0.3-1l2.6-0.9
			l-0.5-1.6l-2.9,1l-0.3-1L50.5,65.5z M43.9,71.4l0,0.6l-0.7,0L42.5,72l0,0.1l0.6,0.4l0.5,0.5l-0.4,0.5L42.6,73l-0.4-0.5l-0.1,0.1
			l0.1,0.6l0,0.7l-0.6,0l0-0.7l0.1-0.7l-0.1,0l-0.3,0.6l-0.5,0.5l-0.5-0.4l0.5-0.6l0.5-0.4l-0.1-0.1l-0.7,0.1l-0.7,0l0-0.6l0.7,0
			l0.7,0.1l0-0.1l-0.6-0.3l-0.6-0.5l0.4-0.5l0.6,0.5l0.4,0.5l0.1-0.1l-0.1-0.6l0-0.7l0.6,0l0,0.7L42,71.2l0.1,0l0.3-0.6l0.5-0.5
			l0.5,0.4L43,71.1l-0.5,0.4l0.1,0.1l0.7-0.2L43.9,71.4z M36.4,67.4L35,73.7l-1.1-0.2l0.6-2.6L32,70.3l-0.6,2.6l-1.1-0.2l1.4-6.3
			l1.1,0.2l-0.6,2.7l2.5,0.5l0.6-2.7L36.4,67.4z M30.7,66l-2.6,5.9l-3.8-1.6l0.4-0.9l2.7,1.2l0.7-1.6l-2.5-1.1l0.4-0.9l2.5,1.1
			l0.7-1.6l-2.8-1.2l0.4-0.9L30.7,66z M26.2,64l-3.6,5.4l-0.9-0.6l3-4.5l-2.5-1.7l0.6-0.8L26.2,64z M22.2,61.2l-4.5,4.7L17,65.1
			l3.8-3.9l-2.2-2.1l0.7-0.7L22.2,61.2z M17.6,55.9c0.5,0.6,0.7,1.3,0.6,1.9S17.7,59,17,59.5l-1.2,0.9c-0.7,0.5-1.3,0.7-2,0.5
			c-0.6-0.1-1.2-0.5-1.7-1.2c-0.5-0.7-0.7-1.3-0.6-1.9s0.5-1.2,1.1-1.7l1.2-0.9c0.7-0.5,1.3-0.7,2-0.5C16.6,54.9,17.1,55.2,17.6,55.9z
			M16.8,56.5c-0.3-0.4-0.6-0.6-1-0.7s-0.8,0.1-1.2,0.3l-1.3,0.9c-0.4,0.3-0.6,0.6-0.7,1c-0.1,0.4,0,0.8,0.3,1.2
			c0.3,0.4,0.6,0.6,1,0.7c0.4,0.1,0.8-0.1,1.2-0.3l1.3-0.9c0.4-0.3,0.6-0.6,0.7-1C17.2,57.2,17.1,56.9,16.8,56.5z M10.8,52.5l-0.6,0.2
			L10,52l-0.1-0.7l-0.1,0L9.5,52l-0.3,0.7l-0.6-0.3L9,51.7l0.4-0.5l-0.1-0.1l-0.6,0.3L8,51.6L7.8,51l0.7-0.2l0.7-0.1l0-0.1l-0.6-0.2
			l-0.7-0.3l0.3-0.6l0.7,0.3l0.5,0.4l0.1-0.1l-0.3-0.6l-0.2-0.7l0.6-0.2l0.2,0.7L9.8,50l0.1,0l0.2-0.6l0.3-0.7l0.6,0.3l-0.3,0.7
			l-0.4,0.5l0.1,0.1l0.6-0.3l0.7-0.2l0.2,0.6l-0.7,0.2l-0.7,0.1l0,0.1l0.6,0.2l0.7,0.3l-0.3,0.6l-0.7-0.3l-0.5-0.4l-0.1,0.1l0.3,0.6
			L10.8,52.5z M12.5,43.7l-6.4,1.1l0-1.1l5.7-0.9l0-0.2L6,41.9L5.9,40l5.6-1.1l0-0.2l-5.7-0.5l0-1.1l6.5,0.7l0.1,1.9l-5.8,1.1l0,0.2
			l5.8,0.8L12.5,43.7z M12.6,36.3L6.3,35l0.8-4l1,0.2l-0.6,2.9l1.7,0.3l0.5-2.7l1,0.2l-0.5,2.7l1.7,0.4l0.6-3l1,0.2L12.6,36.3z
			M13.7,31.5l-6-2.4l0.4-1l5,2l1.1-2.8l0.9,0.4L13.7,31.5z M16.8,25.3c-0.4,0.7-0.9,1.1-1.6,1.2c-0.6,0.2-1.3,0-2-0.4L12,25.2
			c-0.7-0.4-1.1-1-1.2-1.6s0-1.3,0.4-1.9c0.4-0.7,0.9-1.1,1.5-1.2c0.6-0.1,1.2,0,1.8,0.4l0,0L14,21.8l-0.1,0c-0.3-0.2-0.7-0.3-1-0.3
			c-0.3,0-0.6,0.3-0.9,0.7c-0.2,0.4-0.3,0.8-0.2,1.1s0.4,0.7,0.8,0.9l1.3,0.8c0.4,0.3,0.8,0.4,1.2,0.3c0.4-0.1,0.7-0.3,0.9-0.7
			c0.2-0.4,0.3-0.8,0.2-1.1s-0.3-0.6-0.7-0.8l-0.1-0.1l0.6-0.9l0.1,0.1c0.6,0.4,1,0.9,1.1,1.5S17.2,24.6,16.8,25.3z M20.4,20.8
			c-0.6,0.6-1.2,0.9-1.8,0.9c-0.7,0-1.3-0.3-1.9-0.8l-1.1-1.1c-0.6-0.6-0.9-1.2-0.9-1.9c0-0.7,0.3-1.3,0.9-1.8
			c0.6-0.6,1.2-0.9,1.8-0.9c0.6,0,1.3,0.3,1.9,0.8l1.1,1.1c0.6,0.6,0.9,1.2,0.9,1.8C21.2,19.6,20.9,20.2,20.4,20.8z M19.7,20.1
			c0.3-0.3,0.5-0.7,0.5-1.1c0-0.4-0.2-0.7-0.5-1.1l-1.1-1.1c-0.3-0.3-0.7-0.5-1.1-0.5c-0.4,0-0.7,0.2-1.1,0.5
			c-0.3,0.3-0.5,0.7-0.5,1.1c0,0.4,0.2,0.7,0.5,1.1l1.1,1.1c0.3,0.3,0.7,0.5,1.1,0.5C19,20.6,19.3,20.4,19.7,20.1z M22.7,18.2
			l-3.3-5.5l1.8-1.1l4,4.2l0.1-0.1l-1.9-5.5l1.8-1.1l3.3,5.5l-0.9,0.6l-2.9-4.8l-0.1,0.1l1.9,5.5l-1.6,1l-4-4.2l-0.1,0.1l2.9,4.8
			L22.7,18.2z M29.5,14.4l-2-6.1L31.4,7l0.3,1l-2.8,0.9l0.5,1.6L32,9.7l0.3,1l-2.6,0.8l0.5,1.7l2.9-0.9l0.3,1L29.5,14.4z M36.2,8.6
			l0-0.6l0.7,0L37.5,8l0-0.1L37,7.5L36.4,7l0.4-0.5L37.4,7l0.4,0.5l0.1-0.1l-0.1-0.6l0-0.7l0.6,0l0,0.7l-0.1,0.7l0.1,0l0.3-0.6
			l0.5-0.5l0.5,0.4l-0.5,0.6l-0.5,0.4l0.1,0.1l0.7-0.1l0.7,0l0,0.6l-0.7,0l-0.7-0.1l0,0.1l0.6,0.3l0.6,0.5l-0.4,0.5l-0.6-0.5l-0.4-0.5
			l-0.1,0.1l0.1,0.6l0,0.7l-0.6,0l0-0.7L38,8.8l-0.1,0l-0.3,0.6L37,9.9l-0.5-0.4l0.5-0.6l0.5-0.4l-0.1-0.1l-0.7,0.1L36.2,8.6z"/>
	</g>
</svg>
