<svg width="1920px" height="1080px" viewBox="0 0 1920 1080" xmlns="http://www.w3.org/2000/svg" fill="none">

	<style type="text/css">
		.st1{opacity:0.7;fill:#8412C9;}
		.st2{opacity:0.8;fill:#16CEF9;}
		.st3{fill:#DEB4F9;}
	</style>

	<g filter="url(#blur)">
		<path class="st1" d="M709.7,438.5c0,152.3-158.6,331.1-310.8,331.1S86.7,632.3,86.7,480s108.8-271,261.1-271
			S709.7,286.2,709.7,438.5z"/>
		<path class="st1" d="M1096.7,413.6c0,152.3-145,263.5-297.3,263.5S519.7,568.6,519.7,416.3s130.2-250,282.4-250
			S1096.7,261.4,1096.7,413.6z"/>
		<path class="st2" d="M786.2,442.4c0,118.9-159.5,163.5-243.2,163.5s-162.5-74.3-162.5-158.1S489.2,266.8,573,266.8
			S786.2,315.4,786.2,442.4z"/>
		<path class="st3" d="M529.7,376.5c0,87.3-78.9,158.1-166.2,158.1s-171.6-70.8-171.6-158.1s84.3-158.1,171.6-158.1
			S529.7,289.2,529.7,376.5z"/>
	</g>

	<defs>
		<filter id="blur" x="0" y="0" width="3000" height="1350" filterUnits="userSpaceOnUse" color-interpolation-filters="sRGB">
			<feFlood flood-opacity="0" result="BackgroundImageFix"/>
			<feBlend mode="normal" in="SourceGraphic" in2="BackgroundImageFix" result="shape"/>
			<feGaussianBlur stdDeviation="140" result="effect1_foregroundBlur"/>
		</filter>
	</defs>

</svg>
