<svg id="ackley-object" xmlns="http://www.w3.org/2000/svg" xmlns:xlink="http://www.w3.org/1999/xlink" 
	shape-rendering="geometricPrecision" text-rendering="geometricPrecision" width="160px" height="160px" viewBox="0 0 160 160" 
	style="enable-background:new 0 0 160 160;" xml:space="preserve">

	<style type="text/css">
		#rotation-group {
				animation: rotateInfinite 9000ms linear infinite normal forwards
			}
			@keyframes rotateInfinite {
				0% {
					transform: translate(80px,80px) rotate(0deg);
					}
				100% {
					transform: translate(80px,80px) rotate(360deg);
					}
			}
	</style>

	<path fill="#ffffff" d="M80,2.1c43,0,78,35,78,78s-35,78-78,78s-78-35-78-78S37,2.1,80,2.1 M80,0.1c-44.2,0-80,35.8-80,80
		s35.8,80,80,80s80-35.8,80-80S124.2,0.1,80,0.1L80,0.1z"/>

	<g id="rotation-group" transform="translate(80,80) rotate(360)">
		<path fill="#ffffff" transform="translate(-80,-80)" d="M86.3,22.7l5.5-10.3l2.3,0.4l1.3,11.7l-1.4-0.3l-0.3-2.9l-4.7-0.9L87.7,23L86.3,22.7z M89.6,19.2l4,0.8
			l-0.7-6.6l-0.2,0L89.6,19.2z M100.4,26.5c-1.2-0.5-2.1-1.2-2.6-2.2c-0.5-1-0.4-2.2,0.1-3.6l0.9-2.4c0.5-1.4,1.3-2.3,2.3-2.7
			c1-0.4,2.1-0.4,3.4,0c1.2,0.5,2.1,1.2,2.5,2.1c0.4,0.9,0.4,2-0.1,3.2l0,0.1l-1.2-0.5l0-0.1c0.3-0.8,0.3-1.5,0.1-2.2
			c-0.2-0.7-0.8-1.2-1.7-1.5c-0.9-0.3-1.7-0.3-2.4,0s-1.2,1-1.6,2l-0.9,2.5c-0.4,1-0.4,1.8-0.1,2.6s0.9,1.3,1.8,1.6
			c0.9,0.3,1.6,0.3,2.3,0s1.1-0.9,1.4-1.7l0.1-0.2l1.2,0.5l-0.1,0.2c-0.5,1.2-1.1,2-2.1,2.5C102.7,27,101.6,27,100.4,26.5z M106,28.6
			l5.7-9.7l1.2,0.7l-2.5,4.2l0.2,0.1l6.6-1.8l1.5,0.9l-7.5,2l2,7.7l-1.6-0.9l-1.7-6.8l-0.2-0.1l-2.5,4.3L106,28.6z M114.1,33.7
			l7.1-8.6l1,0.9l-6.3,7.7l4.4,3.6l-0.8,0.9L114.1,33.7z M120.6,39.2l8.3-7.5l4.6,5.1l-0.9,0.8l-3.7-4.1l-2.8,2.5l3.4,3.8l-0.9,0.8
			l-3.4-3.8l-2.8,2.5l3.8,4.2l-0.9,0.8L120.6,39.2z M127.9,48.3l3.6-2.3l3.7-7.1l0.8,1.3l-2.9,5.4l0.1,0.2l6.1-0.4l0.8,1.3l-8,0.4
			l-3.6,2.3L127.9,48.3z M139.7,54.6l0.8-0.3l0.5,1.3l0.2,1.1l0.2,0l0.3-1.1l0.6-1.2l0.8,0.4l-0.6,1.2l-0.6,0.9l0.1,0.1l1-0.5l1.3-0.5
			l0.3,0.8l-1.3,0.5l-1.1,0.2l0,0.2l1.1,0.3l1.2,0.6l-0.3,0.8l-1.2-0.6l-0.9-0.6l-0.1,0.1l0.5,1l0.5,1.3L142,61l-0.5-1.3l-0.3-1.1
			l-0.2,0l-0.3,1.1l-0.6,1.2l-0.8-0.4l0.6-1.2l0.6-1l-0.1-0.1l-1,0.5l-1.3,0.5l-0.3-0.8l1.3-0.5l1.1-0.2l0-0.2l-1.1-0.3l-1.2-0.6
			l0.4-0.8l1.2,0.6l1,0.6l0.1-0.1l-0.5-1L139.7,54.6z M136.4,68.2l11.5,2l0.3,2.4l-10.7,4.8l-0.2-1.4l2.7-1.2l-0.6-4.7l-2.9-0.5
			L136.4,68.2z M140.7,70.3l0.5,4l6.1-2.7l0-0.2L140.7,70.3z M137.1,82.8c0.1-1.3,0.5-2.4,1.3-3.1c0.8-0.8,2-1.1,3.4-1l2.6,0.1
			c1.5,0.1,2.6,0.5,3.3,1.3c0.7,0.8,1.1,1.9,1,3.2c-0.1,1.3-0.5,2.3-1.2,3c-0.8,0.7-1.8,1-3.1,0.9l-0.1,0l0.1-1.3l0.1,0
			c0.8,0,1.5-0.2,2.1-0.6c0.6-0.4,0.9-1.1,0.9-2.1c0-0.9-0.2-1.7-0.8-2.3c-0.6-0.6-1.4-0.9-2.4-0.9l-2.6-0.1c-1,0-1.9,0.2-2.5,0.7
			s-0.9,1.2-1,2.2c0,0.9,0.2,1.7,0.7,2.1c0.5,0.5,1.2,0.7,2,0.8l0.3,0l-0.1,1.3l-0.2,0c-1.3-0.1-2.3-0.5-3-1.2
			C137.4,85.1,137.1,84.1,137.1,82.8z M136.9,88.7l10.9,2.4l-0.3,1.3l-4.8-1l0,0.2l3.8,5.7l-0.4,1.8l-4.2-6.5l-6.7,4.3l0.4-1.8
			l5.9-3.7l0-0.2l-4.9-1.1L136.9,88.7z M134.6,98l10.4,4.1l-0.5,1.3l-9.3-3.6l-2.1,5.3l-1.1-0.4L134.6,98z M131.4,105.9l9.7,5.6
			l-3.5,6l-1.1-0.6l2.8-4.8l-3.2-1.9l-2.6,4.4l-1.1-0.6l2.6-4.4l-3.3-1.9l-2.8,4.9l-1.1-0.6L131.4,105.9z M125,115.7l3.3,2.7l7.9,1.3
			l-1,1.2l-6.1-1.1L129,120l2.3,5.7l-1,1.2l-2.9-7.5l-3.3-2.7L125,115.7z M122.7,128.8l0.5,0.7l-1.1,0.8l-1,0.6l0,0.2l1.1,0l1.4,0.2
			l-0.1,0.8l-1.3-0.2l-1.1-0.3l-0.1,0.2l0.8,0.8l0.8,1.1l-0.7,0.5l-0.8-1.1l-0.6-1l-0.2,0l0,1.1l-0.2,1.3l-0.8-0.1l0.2-1.4l0.3-1.1
			l-0.2-0.1l-0.8,0.8l-1.1,0.8l-0.5-0.7l1.1-0.8l0.9-0.6l0-0.2l-1.1,0l-1.3-0.2l0.1-0.9l1.3,0.2l1.1,0.3l0.1-0.2l-0.8-0.8l-0.8-1.1
			l0.7-0.5l0.8,1.1l0.6,1l0.2,0l0-1.1l0.2-1.3l0.9,0.1l-0.2,1.3l-0.3,1.1l0.2,0.1l0.8-0.8L122.7,128.8z M108.7,130l1.7,11.6l-2.1,1
			l-7.9-8.7l1.3-0.6l2,2.2l4.3-2l-0.4-2.9L108.7,130z M108.1,134.7l-3.7,1.7l4.4,4.9l0.2-0.1L108.1,134.7z M95.1,135.2
			c1.3-0.4,2.4-0.3,3.4,0.3c1,0.5,1.6,1.5,2,2.9l0.7,2.5c0.4,1.4,0.3,2.6-0.2,3.6s-1.5,1.6-2.8,2c-1.3,0.4-2.4,0.3-3.2-0.3
			s-1.5-1.4-1.8-2.6l0-0.1l1.3-0.4l0,0.1c0.2,0.8,0.6,1.4,1.2,1.8c0.6,0.4,1.3,0.5,2.2,0.2c0.9-0.3,1.6-0.7,1.9-1.4
			c0.4-0.7,0.4-1.6,0.1-2.6l-0.7-2.5c-0.3-1-0.8-1.7-1.4-2.1s-1.5-0.5-2.4-0.2s-1.5,0.7-1.8,1.3c-0.3,0.6-0.3,1.4-0.1,2.2l0.1,0.2
			l-1.3,0.4l-0.1-0.2c-0.3-1.2-0.3-2.3,0.2-3.2C92.9,136.1,93.8,135.5,95.1,135.2z M89.3,136.8l1.1,11.1l-1.3,0.1l-0.5-4.9l-0.2,0
			l-4.2,5.3l-1.8,0.2l4.9-6l-6.2-5.1l1.8-0.2l5.3,4.5l0.2,0l-0.5-5L89.3,136.8z M79.8,137.5l-0.6,11.2l-1.3-0.1l0.6-10l-5.7-0.3
			l0.1-1.2L79.8,137.5z M71.3,136.8l-2.3,11l-6.7-1.4l0.2-1.2l5.4,1.1l0.8-3.7l-5-1l0.2-1.2l5,1l0.8-3.7l-5.5-1.2l0.2-1.2L71.3,136.8z
			M60,133.8l-1.5,4l1.2,7.9l-1.4-0.6l-0.9-6.1l-0.2-0.1l-4.7,3.9l-1.4-0.6l6.2-5l1.5-4L60,133.8z M46.8,135.7l-0.5,0.7l-1.1-0.8
			l-0.8-0.7l-0.2,0.1l0.4,1.1l0.3,1.3l-0.8,0.2l-0.3-1.3l-0.1-1.1l-0.2,0l-0.5,1l-0.8,1.1l-0.7-0.5l0.8-1.1l0.7-0.8l-0.1-0.2l-1.1,0.3
			l-1.3,0.3l-0.2-0.8l1.3-0.3l1.1-0.1l0-0.2l-1-0.5l-1.1-0.8l0.5-0.7l1.1,0.8l0.8,0.7l0.2-0.1l-0.4-1.1l-0.3-1.3l0.8-0.2l0.3,1.3
			l0.1,1.1l0.2,0l0.5-1l0.8-1.1l0.7,0.5l-0.8,1.1l-0.7,0.8l0.1,0.2l1.1-0.4l1.3-0.3l0.2,0.8l-1.3,0.3l-1.1,0.1l0,0.2l1,0.5L46.8,135.7
			z M41.4,122.8l-10.5,5.2l-1.6-1.7L35,116l1,1l-1.5,2.6l3.3,3.5l2.7-1.3L41.4,122.8z M36.7,123.6l-2.8-3l-3.3,5.7l0.2,0.2L36.7,123.6
			z M32.2,111.4c0.7,1.1,1,2.2,0.8,3.3c-0.2,1.1-0.9,2-2.2,2.9l-2.1,1.4c-1.2,0.8-2.4,1.1-3.5,0.9c-1.1-0.2-2-0.9-2.7-2
			c-0.7-1.1-1-2.2-0.8-3.1c0.2-1,0.9-1.9,1.9-2.6l0.1,0l0.7,1.1l-0.1,0.1c-0.7,0.5-1.2,1-1.3,1.7s0,1.4,0.5,2.2s1.2,1.2,2,1.4
			c0.8,0.1,1.6-0.1,2.5-0.7l2.2-1.5c0.9-0.6,1.4-1.3,1.6-2c0.2-0.8,0-1.5-0.5-2.3c-0.5-0.8-1.1-1.2-1.8-1.3c-0.7-0.1-1.4,0.1-2.1,0.6
			l-0.2,0.1l-0.7-1.1l0.2-0.1c1.1-0.7,2.1-1,3.1-0.8C30.6,109.7,31.5,110.3,32.2,111.4z M28.9,106.5L18.7,111l-0.5-1.2l4.5-2l-0.1-0.2
			l-6.4-2.4l-0.7-1.6l7.3,2.8l2.9-7.5l0.7,1.7l-2.6,6.5l0.1,0.2l4.6-2L28.9,106.5z M25.3,97.7l-10.8,2.9l-0.3-1.3l9.7-2.5l-1.4-5.5
			l1.2-0.3L25.3,97.7z M23.3,89.4l-11.1,1.2l-0.7-6.9l1.2-0.1l0.6,5.5l3.7-0.4l-0.5-5.1l1.2-0.1l0.5,5.1l3.8-0.4l-0.6-5.6l1.2-0.1
			L23.3,89.4z M22.6,77.7l-4.3-0.2l-7.1,3.6l0.1-1.5l5.5-2.7l0-0.2l-5.2-3.3l0.1-1.5l6.7,4.3l4.3,0.2L22.6,77.7z M16.7,65.7l-0.8-0.2
			l0.4-1.3l0.4-1L16.5,63l-0.9,0.7l-1.2,0.7L14,63.6l1.2-0.7l1-0.4l0-0.2l-1.1-0.2l-1.3-0.4L14,61l1.3,0.4l1,0.4l0.1-0.1l-0.7-0.9
			l-0.7-1.2l0.7-0.4l0.7,1.2l0.4,1l0.2,0l0.2-1.1l0.4-1.3l0.8,0.2l-0.4,1.3l-0.4,1l0.1,0.1l0.9-0.7l1.2-0.7l0.4,0.7l-1.2,0.7l-1,0.4
			l0,0.2l1.1,0.2l1.3,0.4l-0.2,0.8l-1.3-0.4l-1-0.4L17.9,63l0.7,0.9l0.7,1.2l-0.7,0.4l-0.7-1.2l-0.4-1l-0.2,0l-0.2,1.1L16.7,65.7z
			M27.3,56.6l-8.2-8.4l1.1-2.1l11.5,2.3l-0.7,1.2l-2.9-0.6l-2.3,4.2l2.1,2.1L27.3,56.6z M25,52.4l2-3.6l-6.5-1.4l-0.1,0.2L25,52.4z
			M35.3,44.4c-0.8,1-1.8,1.6-2.9,1.8c-1.1,0.1-2.2-0.3-3.4-1.2l-2-1.6c-1.2-0.9-1.8-1.9-1.9-3s0.2-2.2,1.1-3.2c0.8-1,1.7-1.6,2.8-1.7
			c1-0.1,2,0.2,3,1l0.1,0l-0.8,1l-0.1-0.1c-0.7-0.5-1.3-0.8-2-0.8s-1.4,0.4-1.9,1.1c-0.6,0.7-0.8,1.5-0.7,2.3c0.1,0.8,0.6,1.5,1.4,2.1
			l2.1,1.6c0.8,0.6,1.6,0.9,2.4,0.9c0.8-0.1,1.5-0.5,2.1-1.2s0.8-1.5,0.7-2.2c-0.1-0.7-0.5-1.3-1.2-1.8l-0.2-0.2l0.8-1l0.2,0.1
			c1,0.8,1.6,1.7,1.7,2.7C36.4,42.3,36.1,43.3,35.3,44.4z M39,39.7l-7.5-8.3l1-0.9l3.3,3.6l0.2-0.1l0.3-6.8l1.3-1.2l-0.4,7.8l8,0.4
			l-1.4,1.2l-7-0.4l-0.2,0.1l3.3,3.7L39,39.7z M46.2,33.4L40.1,24l1.1-0.7l5.4,8.4l4.8-3.1l0.7,1L46.2,33.4z M53.5,28.9l-4.6-10.2
			l6.3-2.8l0.5,1.1l-5.1,2.3l1.5,3.4l4.7-2.1l0.5,1.1l-4.7,2.1l1.6,3.5l5.1-2.3l0.5,1.1L53.5,28.9z M64.4,24.7l-1.1-4.1l-5.6-5.7
			l1.5-0.4l4.3,4.4l0.2-0.1l1.5-6l1.5-0.4l-2,7.7l1.1,4.1L64.4,24.7z M73.9,15.4l0-0.9l1.4-0.1l1.1,0.1l0.1-0.2l-0.9-0.6l-1-0.9
			l0.6-0.6l1,0.9l0.7,0.9l0.2-0.1l-0.2-1.1l-0.1-1.4l0.9,0l0.1,1.4l-0.1,1.1l0.2,0.1l0.7-0.9l0.9-1l0.6,0.6l-0.9,1l-0.9,0.7l0.1,0.2
			l1.1-0.2l1.4-0.1l0,0.9l-1.4,0.1l-1.1-0.1l-0.1,0.2l0.9,0.7l1,0.9l-0.6,0.6l-1-0.9l-0.7-0.9l-0.2,0.1l0.2,1.1l0.1,1.4l-0.9,0
			L77,16.9l0.1-1.1l-0.2-0.1l-0.7,0.9l-0.9,1l-0.6-0.6l0.9-1l0.9-0.7l-0.1-0.2l-1.1,0.2L73.9,15.4z"/>
	</g>
</svg>
