<svg id="ackley-object" xmlns="http://www.w3.org/2000/svg" xmlns:xlink="http://www.w3.org/1999/xlink" 
	shape-rendering="geometricPrecision" text-rendering="geometricPrecision" width="210px" height="210px" viewBox="0 0 210 210" 
	style="enable-background:new 0 0 210 210;" xml:space="preserve">

	<style type="text/css">
		#rotation-group {
			animation: rotateInfinite 9000ms linear infinite normal forwards
		}
		@keyframes rotateInfinite {
			0% {
				transform: translate(105px,105px) rotate(0deg);
				}
			100% {
				transform: translate(105px,105px) rotate(360deg);
				}
		}
	</style>

	<path fill="#ffffff" d="M105,2c56.8,0,103,46.2,103,103s-46.2,103-103,103S2,161.8,2,105S48.2,2,105,2 M105,0C47,0,0,47,0,105
	s47,105,105,105s105-47,105-105S163,0,105,0L105,0z"/>

	<g id="rotation-group" transform="translate(105,105) rotate(360)">
		<path fill="#ffffff" transform="translate(-105,-105)" d="M113.5,26.3l6.1-11.9l2.7,0.5l1.7,13.2l-1.6-0.3l-0.4-3.3l-5.3-0.9l-1.5,3L113.5,26.3z M117.2,22.3l4.6,0.8
			l-0.9-7.5l-0.3,0L117.2,22.3z M129.7,30.2c-1.4-0.5-2.5-1.3-3-2.4c-0.6-1.1-0.6-2.5-0.1-4.1l0.9-2.8c0.5-1.6,1.3-2.7,2.5-3.2
			c1.1-0.6,2.4-0.6,3.9-0.1c1.4,0.5,2.4,1.2,2.9,2.3c0.5,1,0.5,2.3,0.1,3.6l0,0.1l-1.4-0.5l0-0.1c0.3-0.9,0.3-1.7,0-2.5
			c-0.3-0.7-1-1.3-2-1.6c-1-0.3-1.9-0.3-2.7,0.2c-0.8,0.4-1.4,1.2-1.7,2.4l-0.9,2.8c-0.4,1.1-0.4,2.1,0,2.9c0.4,0.8,1.1,1.4,2.1,1.7
			c1,0.3,1.9,0.3,2.6-0.1s1.2-1.1,1.5-2l0.1-0.3l1.4,0.5l-0.1,0.2c-0.5,1.4-1.2,2.3-2.2,2.9C132.3,30.6,131.1,30.7,129.7,30.2z
			M136.2,32.3l5.6-11.4l1.4,0.7l-2.5,5l0.2,0.1l7.3-2.6l1.8,0.9l-8.4,2.9l2.9,8.6l-1.9-0.9l-2.5-7.5l-0.2-0.1l-2.5,5.1L136.2,32.3z
			M145.9,37.3l7.1-10.6l1.3,0.9L148,37l5.4,3.6l-0.8,1.1L145.9,37.3z M154,42.9l8.3-9.6l5.9,5.1l-0.9,1l-4.8-4.1l-2.8,3.2l4.4,3.8
			l-0.9,1l-4.4-3.8l-2.8,3.3l4.8,4.2l-0.9,1L154,42.9z M163.7,52.1l3.6-3.2l2.9-8.6l1.2,1.3l-2.3,6.6l0.2,0.2l6.8-1.5l1.2,1.3
			l-8.9,1.8l-3.6,3.2L163.7,52.1z M178,56.8l0.8-0.5l0.8,1.3l0.5,1.2l0.2,0l0.1-1.3l0.4-1.5l0.9,0.2l-0.4,1.5L181,59l0.2,0.1l1-0.8
			l1.3-0.8l0.5,0.8l-1.3,0.8l-1.2,0.5l0,0.2l1.3,0.2l1.5,0.4l-0.2,0.9l-1.5-0.4l-1.2-0.5l-0.1,0.2l0.8,1l0.8,1.3l-0.8,0.5l-0.8-1.3
			l-0.5-1.2l-0.2,0l-0.1,1.3l-0.4,1.5l-0.9-0.2l0.4-1.5l0.5-1.2l-0.2-0.1l-1,0.8l-1.3,0.8l-0.5-0.8l1.3-0.8l1.2-0.5l0-0.2l-1.3-0.1
			l-1.5-0.4l0.2-0.9l1.5,0.4l1.2,0.5l0.1-0.2l-0.8-1L178,56.8z M177.4,72.8l13.3-0.7l0.9,2.5L181,82.7l-0.5-1.5l2.7-2l-1.9-5.1
			l-3.4,0.2L177.4,72.8z M182.7,74l1.6,4.4l6-4.5l-0.1-0.2L182.7,74z M182.1,88.8c-0.3-1.5-0.1-2.8,0.5-3.8c0.7-1.1,1.8-1.8,3.5-2.1
			l2.8-0.6c1.6-0.3,3-0.2,4,0.5c1,0.7,1.7,1.8,2,3.3c0.3,1.5,0.1,2.7-0.5,3.7c-0.7,1-1.7,1.6-3.1,1.9l-0.1,0l-0.3-1.5l0.1,0
			c0.9-0.2,1.7-0.6,2.1-1.2c0.5-0.6,0.6-1.5,0.4-2.5c-0.2-1.1-0.7-1.8-1.5-2.3c-0.8-0.5-1.7-0.6-2.9-0.3l-2.9,0.6
			c-1.2,0.2-2,0.7-2.5,1.5c-0.5,0.7-0.7,1.6-0.4,2.7s0.7,1.8,1.4,2.2c0.7,0.4,1.5,0.5,2.5,0.3l0.3-0.1l0.3,1.5l-0.2,0
			c-1.4,0.3-2.6,0.1-3.6-0.5C183,91.3,182.4,90.3,182.1,88.8z M183.5,95.5l12.7-0.9l0.1,1.5l-5.5,0.4l0,0.3l5.9,5l0.1,2l-6.7-5.8
			l-6,6.8l-0.1-2.1l5.3-5.9l0-0.3l-5.6,0.4L183.5,95.5z M184,106.4l12.7,0.8l-0.1,1.5l-11.3-0.7l-0.4,6.4l-1.4-0.1L184,106.4z
			M183.3,116.2l12.5,2.4l-1.5,7.7L193,126l1.2-6.2L190,119l-1.1,5.7l-1.4-0.3l1.1-5.7l-4.3-0.8l-1.2,6.3l-1.4-0.3L183.3,116.2z
			M180.2,129.2l4.6,1.5l8.9-1.8l-0.6,1.7l-6.9,1.3l-0.1,0.2l4.7,5.2l-0.6,1.7l-6-6.8l-4.6-1.5L180.2,129.2z M183.3,143.9l0.9,0.5
			l-0.8,1.4l-0.8,1l0.1,0.2l1.2-0.5l1.5-0.4l0.3,0.9l-1.5,0.4l-1.3,0.2l0,0.2l1.2,0.5l1.4,0.8l-0.5,0.9l-1.4-0.8l-1-0.8l-0.2,0.1
			l0.5,1.2l0.4,1.5l-0.9,0.3L182,150l-0.2-1.3l-0.2,0l-0.5,1.2l-0.8,1.4l-0.9-0.5l0.8-1.4l0.7-1l-0.1-0.2l-1.2,0.5l-1.5,0.4l-0.3-0.9
			l1.5-0.4l1.3-0.2l0-0.2l-1.2-0.5l-1.4-0.8l0.5-0.9l1.4,0.8l1,0.8l0.2-0.1l-0.5-1.2l-0.4-1.5l0.9-0.3l0.4,1.5l0.2,1.3l0.2,0l0.5-1.2
			L183.3,143.9z M169.1,151.4l7.3,11.2l-1.7,2.1l-12.3-5.1l1-1.2l3.1,1.3l3.5-4.2l-1.8-2.8L169.1,151.4z M170.8,156.6l-3,3.6l6.9,2.9
			l0.2-0.2L170.8,156.6z M157.7,163.5c1.1-1,2.3-1.5,3.6-1.5c1.3,0,2.5,0.7,3.6,1.9l2,2.2c1.1,1.2,1.7,2.5,1.6,3.8
			c-0.1,1.3-0.7,2.4-1.8,3.4c-1.1,1-2.3,1.5-3.4,1.4c-1.2-0.1-2.2-0.7-3.2-1.7l-0.1-0.1l1.1-1l0.1,0.1c0.6,0.7,1.4,1.1,2.2,1.2
			c0.8,0.1,1.6-0.2,2.4-0.9c0.8-0.7,1.2-1.5,1.2-2.4c0-0.9-0.4-1.8-1.2-2.7l-2-2.2c-0.8-0.9-1.6-1.4-2.5-1.4c-0.9-0.1-1.7,0.2-2.5,1
			c-0.8,0.7-1.2,1.5-1.2,2.3c0,0.8,0.4,1.6,1,2.3l0.2,0.2l-1.1,1l-0.2-0.2c-1-1.1-1.4-2.2-1.4-3.4C156,165.6,156.6,164.5,157.7,163.5z
			M152.6,168.1l7.1,10.5l-1.3,0.9l-3.1-4.6l-0.2,0.1l-1.3,7.6l-1.7,1.1l1.6-8.7l-8.9-1.7l1.7-1.2l7.8,1.6l0.2-0.1l-3.2-4.7
			L152.6,168.1z M143.5,174.1l5.7,11.4l-1.4,0.7l-5.1-10.2l-5.8,2.9l-0.6-1.2L143.5,174.1z M134.6,178.3l4.2,12l-7.4,2.6l-0.5-1.3
			l6-2.1l-1.4-4l-5.5,1.9l-0.5-1.3l5.5-1.9l-1.4-4.1l-6,2.1l-0.5-1.3L134.6,178.3z M121.8,182.2l1,4.8l6,6.8l-1.7,0.4l-4.6-5.3
			l-0.2,0.1l-2.1,6.7l-1.7,0.4l2.8-8.6l-1-4.8L121.8,182.2z M110.6,192.3l0,1l-1.5,0l-1.3-0.1l-0.1,0.2l1,0.7l1.1,1.1l-0.7,0.7
			l-1.1-1.1l-0.8-1l-0.2,0.1l0.2,1.3l0,1.5l-1,0l0-1.5l0.1-1.3l-0.2-0.1l-0.8,1l-1.1,1.1l-0.7-0.7l1.1-1.1l1-0.8l-0.1-0.2l-1.3,0.2
			l-1.5,0l0-1l1.5,0l1.3,0.1l0.1-0.2l-1-0.8l-1.1-1.1l0.7-0.7l1.1,1.1l0.8,1l0.2-0.1l-0.2-1.3l0-1.5l1,0l0,1.5l-0.1,1.3l0.2,0.1l0.8-1
			l1.1-1.1l0.7,0.7l-1.1,1.1l-1,0.8l0.1,0.2l1.3-0.2L110.6,192.3z M97.1,183.8l-6,11.9l-2.7-0.4L86.7,182l1.6,0.3l0.4,3.3l5.3,0.9
			l1.5-3L97.1,183.8z M93.4,187.8l-4.6-0.8l1,7.5l0.3,0L93.4,187.8z M80.9,180c1.4,0.5,2.5,1.2,3.1,2.4c0.6,1.1,0.6,2.5,0.1,4.1
			l-0.9,2.8c-0.5,1.6-1.3,2.7-2.5,3.3c-1.1,0.6-2.4,0.6-3.9,0.2c-1.4-0.5-2.4-1.2-2.9-2.2c-0.5-1-0.6-2.3-0.1-3.6l0-0.1l1.4,0.5l0,0.1
			c-0.3,0.9-0.3,1.7,0,2.5c0.3,0.7,1,1.3,2,1.6s1.9,0.3,2.7-0.2c0.8-0.4,1.3-1.2,1.7-2.4l0.9-2.8c0.4-1.1,0.4-2.1,0-2.9
			c-0.4-0.8-1.1-1.4-2.1-1.7s-1.9-0.3-2.6,0.1c-0.7,0.4-1.2,1.1-1.5,2l-0.1,0.3l-1.4-0.5L75,183c0.4-1.4,1.2-2.4,2.2-2.9
			C78.2,179.6,79.4,179.5,80.9,180z M74.3,177.9l-5.6,11.5l-1.4-0.7l2.4-5l-0.2-0.1l-7.3,2.6l-1.8-0.9l8.3-3l-3-8.6l1.9,0.9l2.5,7.5
			l0.2,0.1l2.5-5.1L74.3,177.9z M64.6,173l-7,10.6l-1.3-0.8l6.2-9.5l-5.4-3.5l0.8-1.2L64.6,173z M56.5,167.4l-8.3,9.7l-6-5.1l0.9-1.1
			l4.8,4.1l2.8-3.2l-4.4-3.8l0.9-1.1l4.4,3.8l2.8-3.3l-4.9-4.2l0.9-1.1L56.5,167.4z M46.7,158.3l-3.6,3.2l-2.8,8.6l-1.2-1.3l2.3-6.6
			l-0.2-0.2l-6.8,1.5l-1.2-1.3l8.9-1.9l3.6-3.2L46.7,158.3z M32.4,153.7l-0.8,0.5l-0.8-1.3l-0.5-1.2l-0.2,0l-0.1,1.3l-0.4,1.5
			l-0.9-0.2l0.4-1.5l0.4-1.2l-0.2-0.1l-1,0.8l-1.3,0.8l-0.5-0.8l1.3-0.8l1.2-0.5l0-0.2l-1.3-0.1l-1.5-0.4l0.2-0.9l1.5,0.4l1.2,0.5
			l0.1-0.2l-0.8-1l-0.8-1.3l0.8-0.5l0.8,1.3l0.5,1.1l0.2,0l0.1-1.3l0.4-1.5l1,0.2l-0.4,1.5l-0.5,1.2l0.2,0.1l1-0.8l1.3-0.8l0.5,0.8
			l-1.3,0.8l-1.2,0.5l0,0.2l1.3,0.1l1.5,0.4l-0.2,1l-1.5-0.4l-1.2-0.5l-0.1,0.2l0.8,1L32.4,153.7z M32.9,137.7l-13.3,0.8l-0.9-2.5
			l10.5-8.2l0.6,1.5l-2.7,2.1l1.9,5.1l3.4-0.2L32.9,137.7z M27.5,136.5l-1.6-4.3l-6,4.6L20,137L27.5,136.5z M28.1,121.8
			c0.3,1.5,0.2,2.8-0.5,3.8c-0.7,1.1-1.8,1.8-3.5,2.1l-2.8,0.6c-1.6,0.4-3,0.2-4-0.5s-1.7-1.8-2.1-3.3c-0.3-1.5-0.2-2.7,0.5-3.7
			s1.7-1.6,3.1-1.9l0.1,0l0.3,1.5l-0.1,0c-0.9,0.2-1.6,0.6-2.1,1.3c-0.5,0.6-0.6,1.5-0.4,2.5c0.2,1.1,0.7,1.8,1.5,2.3
			c0.8,0.5,1.7,0.5,2.9,0.3l2.9-0.6c1.2-0.3,2-0.8,2.5-1.5s0.7-1.6,0.4-2.7c-0.2-1.1-0.7-1.8-1.4-2.1c-0.7-0.4-1.5-0.5-2.5-0.2
			l-0.3,0.1l-0.3-1.5l0.2-0.1c1.4-0.3,2.6-0.2,3.6,0.4C27.1,119.3,27.7,120.3,28.1,121.8z M26.5,115.1l-12.7,1l-0.1-1.5l5.5-0.4l0-0.3
			l-5.9-5l-0.2-2l6.7,5.7l5.9-6.9l0.2,2.1l-5.2,6l0,0.3l5.6-0.4L26.5,115.1z M25.9,104.2l-12.7-0.7l0.1-1.5l11.3,0.6l0.3-6.4l1.4,0.1
			L25.9,104.2z M26.6,94.4l-12.5-2.3l1.4-7.7l1.4,0.2l-1.1,6.2l4.2,0.8l1-5.7l1.4,0.2l-1,5.7l4.3,0.8l1.1-6.3l1.4,0.2L26.6,94.4z
			M29.6,81.3L25,79.8l-8.9,1.9l0.5-1.7l6.9-1.4l0.1-0.2l-4.8-5.1l0.5-1.7l6.1,6.7l4.6,1.5L29.6,81.3z M26.4,66.6l-0.9-0.5l0.7-1.4
			l0.7-1l-0.1-0.2l-1.2,0.5l-1.5,0.4L24,63.6l1.5-0.4l1.3-0.2l0-0.2l-1.2-0.5l-1.4-0.7l0.5-0.9l1.4,0.7l1,0.7l0.2-0.1l-0.5-1.2
			l-0.4-1.5l0.9-0.3l0.5,1.5l0.2,1.3l0.2,0l0.5-1.2l0.7-1.4l0.9,0.5l-0.7,1.4l-0.7,1l0.1,0.2l1.2-0.5l1.5-0.4l0.3,0.9l-1.5,0.4L29,63
			l0,0.2l1.2,0.5l1.4,0.7L31,65.3l-1.4-0.7l-1-0.7l-0.2,0.1l0.5,1.2l0.4,1.5l-0.9,0.3L28,65.4l-0.2-1.3l-0.2,0l-0.5,1.2L26.4,66.6z
			M40.5,59.1L33.2,48l1.7-2.1l12.3,5l-1,1.2l-3.1-1.3L39.6,55l1.9,2.8L40.5,59.1z M38.8,53.9l2.9-3.6l-7-2.9l-0.2,0.2L38.8,53.9z
			M51.9,46.9c-1.1,1-2.3,1.5-3.6,1.5c-1.3,0-2.5-0.7-3.6-1.9l-2-2.1c-1.1-1.2-1.7-2.5-1.6-3.7c0.1-1.3,0.7-2.4,1.8-3.4
			c1.1-1,2.2-1.5,3.4-1.4c1.2,0.1,2.2,0.6,3.2,1.7l0.1,0.1l-1.1,1l-0.1-0.1c-0.6-0.7-1.4-1.1-2.2-1.2c-0.8-0.1-1.6,0.2-2.4,0.9
			s-1.2,1.5-1.2,2.4s0.4,1.8,1.2,2.7l2,2.2c0.8,0.9,1.7,1.4,2.5,1.4c0.9,0.1,1.7-0.3,2.5-1s1.2-1.5,1.1-2.3s-0.4-1.6-1-2.3l-0.2-0.2
			l1.1-1l0.2,0.2c1,1.1,1.5,2.2,1.4,3.4C53.5,44.8,53,45.9,51.9,46.9z M56.9,42.2l-7.2-10.5l1.3-0.9l3.1,4.6l0.2-0.1l1.3-7.6l1.7-1.2
			l-1.5,8.7l8.9,1.7L62.9,38l-7.8-1.5l-0.2,0.1l3.2,4.7L56.9,42.2z M66,36.2l-5.8-11.4l1.4-0.7l5.2,10.1l5.7-2.9l0.6,1.2L66,36.2z
			M74.8,31.9l-4.3-12l7.4-2.7l0.5,1.3l-5.9,2.1l1.4,4l5.5-2l0.5,1.3l-5.5,2l1.5,4.1l6-2.2l0.5,1.3L74.8,31.9z M87.6,27.9l-1-4.8
			l-6.1-6.8l1.7-0.4l4.6,5.3l0.2-0.1l2.1-6.7l1.7-0.4l-2.8,8.7l1,4.8L87.6,27.9z M98.7,17.8l0-1l1.5,0l1.3,0.1l0.1-0.2l-1-0.7
			l-1.1-1.1l0.7-0.7l1.1,1.1l0.8,1l0.2-0.1l-0.2-1.3l0-1.5l1,0l0,1.5l-0.1,1.3l0.2,0.1l0.8-1l1.1-1.1l0.7,0.7l-1.1,1.1l-1,0.8l0.1,0.2
			l1.3-0.2l1.5,0l0,1l-1.5,0l-1.3-0.1l-0.1,0.2l1,0.8l1.1,1.1l-0.7,0.7l-1.1-1.1l-0.8-1l-0.2,0.1l0.2,1.3l0,1.5l-1,0l0-1.5l0.1-1.3
			l-0.2-0.1l-0.8,1l-1.1,1.1l-0.7-0.7l1.1-1.1l1-0.8l-0.1-0.2l-1.3,0.2L98.7,17.8z"/>
	</g>
</svg>
