<svg id="coming-soon-object" xmlns="http://www.w3.org/2000/svg" xmlns:xlink="http://www.w3.org/1999/xlink" 
	shape-rendering="geometricPrecision" text-rendering="geometricPrecision" width="110px" height="110px" viewBox="0 0 110 110" 
	style="enable-background:new 0 0 110 110;" xml:space="preserve">

	<style type="text/css">
		#rotation-group {
			animation: rotateInfinite 9000ms linear infinite normal forwards
		}
		@keyframes rotateInfinite {
			0% {
				transform: translate(55px,55px) rotate(0deg);
				}
			100% {
				transform: translate(55px,55px) rotate(360deg);
				}
		}
	</style>

	<path fill="#FFFFFF" d="M55,0C24.6,0,0,24.6,0,55s24.6,55,55,55s55-24.6,55-55S85.4,0,55,0L55,0z"/>
	<path fill="#807DF2" d="M51,54h-4.4l-4.4-10.2c-0.2-0.5-0.2-1.1-0.1-1.6c0.2-0.5,0.6-0.9,1.1-1.1c0.5-0.2,1.1-0.2,1.6-0.1
		c0.5,0.2,0.9,0.6,1.1,1.1L51,54z M47.5,56h4.4h1.6c0.7,0,1.3,0.2,1.8,0.8c0.5,0.5,0.8,1,0.8,1.8c0,0.7-0.2,1.3-0.8,1.8
		c-0.5,0.5-1,0.8-1.8,0.8H50c-0.6,0-1,0.4-1,1c0,0.6,0.4,1,1,1h3.5c1.3,0,2.4-0.5,3.2-1.3c0.8-0.8,1.3-1.9,1.3-3.2v-0.1
		c0.6,0.4,1.2,0.6,2,0.6c0.8,0,1.6-0.2,2.2-0.7c0.2,0.8,0.7,1.4,1.4,1.9c0.7,0.5,1.4,0.8,2.3,0.8c0.8,0,1.4-0.2,2-0.6V61
		c-0.1,2.8-1.1,5.2-2.9,7.1S60.8,70.9,58,71h-3.9c-2.8,0-5.1-1-7.1-2.9l-0.7-0.7c-1.5-1.6-2.3-3.5-2.4-5.7V60c0-1,0.4-1.9,1-2.7
		C45.7,56.6,46.5,56.2,47.5,56L47.5,56z M55.4,39.6c0.4,0.4,0.6,0.9,0.6,1.4v13h-4V41c0-0.6,0.2-1.1,0.6-1.4S53.4,39,54,39
		C54.6,39,55.1,39.2,55.4,39.6z M61.4,49.6c0.4,0.4,0.6,0.9,0.6,1.4v4c0,0.6-0.2,1.1-0.6,1.4S60.6,57,60,57c-0.6,0-1.1-0.2-1.4-0.6
		S58,55.6,58,55v-4c0-0.6,0.2-1.1,0.6-1.4S59.4,49,60,49C60.6,49,61.1,49.2,61.4,49.6z M64.6,51.6c0.4-0.4,0.9-0.6,1.4-0.6
		c0.6,0,1.1,0.2,1.4,0.6S68,52.4,68,53v4c0,0.6-0.2,1.1-0.6,1.4S66.6,59,66,59c-0.6,0-1.1-0.2-1.4-0.6S64,57.6,64,57v-4
		C64,52.4,64.2,51.9,64.6,51.6z"/>
	
	<g id="rotation-group" transform="translate(55,55) rotate(360)">
		<path fill="#212121" transform="translate(-55,-55)" d="M62.5,19.4c-1-0.2-1.7-0.7-2.2-1.4s-0.6-1.6-0.4-2.7l0.4-1.9c0.2-1.1,0.7-1.9,1.4-2.4s1.6-0.6,2.6-0.4
			c1,0.2,1.7,0.6,2.1,1.3c0.4,0.7,0.5,1.5,0.3,2.4l0,0.1l-1-0.2l0-0.1c0.1-0.6,0.1-1.2-0.2-1.7c-0.3-0.5-0.7-0.8-1.5-0.9
			c-0.7-0.1-1.3,0-1.8,0.3c-0.5,0.4-0.8,0.9-1,1.7l-0.4,2c-0.2,0.8-0.1,1.4,0.2,2c0.3,0.5,0.8,0.9,1.5,1s1.3,0.1,1.7-0.3
			s0.7-0.8,0.8-1.5l0-0.2l1,0.2l0,0.2c-0.2,1-0.6,1.7-1.3,2.1C64.3,19.4,63.5,19.6,62.5,19.4z M69.7,21.7c-0.9-0.4-1.6-1-1.9-1.8
			c-0.3-0.8-0.2-1.7,0.2-2.8l0.8-1.8c0.5-1,1.1-1.7,1.9-2s1.7-0.2,2.6,0.2c0.9,0.4,1.6,1,1.9,1.8c0.3,0.8,0.2,1.7-0.2,2.8l-0.8,1.8
			c-0.5,1-1.1,1.7-1.9,2S70.6,22.1,69.7,21.7z M70.1,20.8c0.7,0.3,1.3,0.3,1.9,0.1c0.6-0.2,1-0.7,1.3-1.5l0.8-1.9
			c0.3-0.7,0.4-1.4,0.2-2c-0.2-0.6-0.6-1-1.3-1.3c-0.7-0.3-1.3-0.3-1.8-0.1c-0.6,0.2-1,0.7-1.3,1.5L69,17.6c-0.3,0.7-0.4,1.4-0.2,2
			S69.4,20.5,70.1,20.8z M74.1,23.5l5.3-6.8L81,18l-3.1,7.7l0.1,0.1l6.7-4.9l1.5,1.2L81,28.9l-0.8-0.6l4.9-6.2l-0.1-0.1l-6.7,4.8
			l-1.4-1.1l3.1-7.6l-0.1-0.1l-4.9,6.2L74.1,23.5z M82,30.3l6.4-5.7l0.7,0.8l-6.4,5.7L82,30.3z M84,32.4l7.2-4.7l1.1,1.7l-5,6.9
			l0.1,0.1l6.7-4.4l0.6,0.9l-7.2,4.7l-1.1-1.7l5-6.9l-0.1-0.1l-6.7,4.4L84,32.4z M89,42c-0.2-0.6-0.3-1.2-0.2-1.7
			c0.1-0.6,0.3-1,0.7-1.5c0.4-0.4,0.9-0.8,1.6-1.1l1.8-0.7c1.1-0.4,2-0.4,2.8-0.1s1.3,1,1.7,2c0.4,1,0.4,1.8,0,2.5
			c-0.3,0.7-0.9,1.2-1.8,1.5l-0.1,0l-0.4-1l0.1,0c0.4-0.1,0.7-0.3,0.9-0.6c0.2-0.3,0.4-0.6,0.5-0.9c0.1-0.4,0-0.8-0.2-1.2
			c-0.3-0.7-0.7-1.1-1.2-1.4c-0.6-0.2-1.2-0.2-2,0.1l-1.9,0.7c-0.8,0.3-1.3,0.7-1.5,1.2c-0.3,0.5-0.3,1.2,0,1.8
			c0.3,0.7,0.6,1.1,1.1,1.3c0.5,0.2,1.1,0.1,1.7-0.1l0.2-0.1L92,40.5l0.8-0.3l1.3,3.4L90.3,45L90,44.1l0.9-0.3l-0.1-0.2
			c-0.2,0-0.4-0.1-0.6-0.2c-0.2-0.1-0.4-0.2-0.6-0.5C89.4,42.8,89.2,42.4,89,42z M91.3,52.5c0-0.6,0-1.2,0.2-1.7
			c0.2-0.5,0.5-0.9,0.9-1.2c0.4-0.3,1-0.5,1.6-0.5l0.3,0l0.1,1l-0.3,0c-0.7,0-1.2,0.3-1.5,0.7s-0.5,1-0.4,1.6c0,0.7,0.2,1.2,0.6,1.5
			s0.7,0.5,1.2,0.4c0.3,0,0.6-0.1,0.7-0.3c0.2-0.2,0.3-0.4,0.4-0.7c0.1-0.3,0.2-0.6,0.2-1l0.1-0.6c0.1-0.5,0.2-1,0.4-1.4
			c0.2-0.4,0.4-0.7,0.7-1c0.3-0.2,0.7-0.4,1.2-0.4s0.9,0.1,1.3,0.3c0.4,0.2,0.7,0.5,0.9,1c0.2,0.4,0.3,0.9,0.4,1.5
			c0,0.6,0,1.1-0.2,1.6s-0.4,0.9-0.8,1.2s-0.8,0.5-1.4,0.5l-0.5,0l-0.1-1l0.5,0c0.4,0,0.7-0.1,1-0.3c0.2-0.2,0.4-0.4,0.5-0.8
			c0.1-0.3,0.1-0.7,0.1-1.1c0-0.6-0.2-1-0.5-1.3S98.2,50,97.8,50c-0.3,0-0.5,0.1-0.7,0.3c-0.2,0.2-0.3,0.4-0.4,0.7
			c-0.1,0.3-0.2,0.6-0.2,1l-0.1,0.6c-0.1,0.5-0.2,1-0.3,1.4c-0.2,0.4-0.4,0.7-0.7,1c-0.3,0.3-0.7,0.4-1.2,0.4c-0.5,0-1-0.1-1.4-0.3
			c-0.4-0.2-0.7-0.6-1-1C91.5,53.7,91.4,53.1,91.3,52.5z M91.1,60c0.1-1,0.5-1.8,1.2-2.3c0.7-0.5,1.6-0.7,2.7-0.6l2,0.3
			c1.1,0.2,1.9,0.6,2.5,1.3c0.5,0.7,0.7,1.5,0.5,2.6c-0.1,1-0.5,1.8-1.2,2.3c-0.7,0.5-1.6,0.7-2.7,0.6l-2-0.3
			c-1.1-0.2-1.9-0.6-2.5-1.3C91.1,61.9,90.9,61,91.1,60z M92,60.1c-0.1,0.7,0,1.3,0.4,1.8c0.4,0.5,1,0.8,1.8,0.9l2,0.3
			c0.8,0.1,1.4,0,1.9-0.4c0.5-0.3,0.8-0.9,0.9-1.6c0.1-0.7,0-1.3-0.4-1.8c-0.4-0.5-1-0.8-1.8-0.9l-2-0.3c-0.8-0.1-1.4,0-1.9,0.4
			C92.4,58.9,92.1,59.4,92,60.1z M89.1,67.6c0.4-1,0.9-1.6,1.7-2c0.8-0.4,1.7-0.4,2.8,0l1.8,0.7c1.1,0.4,1.8,1,2.1,1.8
			c0.3,0.8,0.3,1.6,0,2.6c-0.4,1-0.9,1.6-1.7,2c-0.8,0.4-1.7,0.4-2.8,0L91.2,72c-1.1-0.4-1.8-1-2.1-1.8S88.8,68.6,89.1,67.6z M90,68
			c-0.3,0.7-0.3,1.3,0,1.9c0.3,0.5,0.8,0.9,1.5,1.2l1.9,0.7c0.7,0.3,1.4,0.3,2,0.1c0.6-0.2,1-0.7,1.2-1.4c0.3-0.7,0.2-1.3,0-1.8
			c-0.3-0.5-0.8-0.9-1.5-1.2l-1.9-0.7c-0.7-0.3-1.4-0.3-2-0.1C90.7,66.8,90.3,67.3,90,68z M87.4,72.2l7.2,4.7l-1.1,1.7l-8.3-1.8
			l-0.1,0.1l6.7,4.3L91.3,82l-7.2-4.7l1.1-1.7l8.3,1.8l0.1-0.1L86.9,73L87.4,72.2z M84.8,85l0.4,0.5l-0.8,0.7l-0.7,0.5l0,0.1l0.9-0.1
			l1,0.1l0,0.7l-1-0.1l-0.8-0.2l-0.1,0.1l0.6,0.6l0.7,0.8l-0.5,0.4l-0.7-0.8l-0.5-0.7l-0.1,0l0,0.9l-0.1,1l-0.7,0l0.1-1.1l0.2-0.8
			l-0.1-0.1l-0.6,0.6L81.4,89l-0.4-0.5l0.8-0.7l0.7-0.5l0-0.1l-0.9,0.1l-1-0.1l0-0.7l1,0.1l0.9,0.2l0.1-0.1L81.8,86l-0.7-0.8l0.5-0.4
			l0.7,0.8l0.5,0.7l0.1,0l-0.1-0.9l0.1-1l0.7,0l-0.1,1l-0.2,0.9l0.1,0.1l0.6-0.6L84.8,85z M70.6,87.9c0.6-0.3,1.1-0.4,1.7-0.4
			c0.5,0,1,0.2,1.4,0.5c0.4,0.3,0.8,0.7,1.1,1.3l2.5,5.2l-0.9,0.4l-2.5-5.2c-0.3-0.6-0.7-1-1.2-1.2c-0.5-0.2-1-0.1-1.7,0.2
			c-0.6,0.3-1,0.7-1.2,1.2s-0.1,1,0.2,1.7l2.5,5.2l-0.9,0.4L69,92c-0.3-0.6-0.4-1.2-0.4-1.7c0-0.5,0.2-1,0.6-1.4
			C69.5,88.5,70,88.2,70.6,87.9z M66.3,90l1.9,8.4l-2,0.4l-4.7-7.1l-0.2,0l1.8,7.8l-1,0.2l-1.9-8.4l2-0.4l4.7,7.1l0.2,0l-1.8-7.8
			L66.3,90z M58.9,91.5l0,0.9l-1.2,0l0.1,6.8l1.2,0l0,0.9l-3.4,0.1c-1.1,0-2-0.3-2.6-0.8c-0.6-0.6-1-1.4-1-2.6l0-1.6
			c0-1.2,0.3-2.1,0.9-2.7s1.5-0.9,2.6-0.9L58.9,91.5z M56.7,92.5l-1.1,0c-0.8,0-1.5,0.2-1.9,0.6c-0.4,0.4-0.6,1.1-0.6,1.9l0,1.7
			c0,0.9,0.2,1.5,0.7,1.9c0.4,0.4,1.1,0.6,1.9,0.6l1.1,0L56.7,92.5z M50.6,91.4L49,99.9l-5.2-1L44,98l4.2,0.8l0.5-2.8l-3.9-0.7
			l0.2-0.9l3.9,0.7l0.5-2.9l-4.3-0.8l0.2-0.9L50.6,91.4z M44,90l-3.2,8l-3.2-1.3c-0.5-0.2-0.9-0.5-1.2-0.8c-0.3-0.3-0.5-0.7-0.6-1.1
			c-0.1-0.4,0-0.8,0.1-1.3l0.1-0.1c0.2-0.5,0.5-0.9,0.9-1.1s0.8-0.3,1.1-0.3l0.1-0.2c-0.3-0.1-0.5-0.3-0.6-0.5s-0.1-0.5,0-0.9l1.1-2.7
			l0.9,0.4l-1,2.6c-0.1,0.2-0.1,0.4,0,0.6s0.2,0.3,0.5,0.4l2.8,1.1l1.3-3.3L44,90z M41.4,93.8l-2.2-0.9c-0.5-0.2-1-0.2-1.4-0.1
			c-0.4,0.1-0.7,0.4-0.9,0.9l0,0.1c-0.2,0.5-0.2,0.9,0,1.2c0.2,0.4,0.5,0.7,1.1,0.9l2.2,0.9L41.4,93.8z M32.2,83.3
			c0.8,0.6,1.3,1.4,1.4,2.2c0.1,0.8-0.2,1.7-0.9,2.6l-1.2,1.5c-0.7,0.9-1.5,1.4-2.3,1.5s-1.7-0.2-2.5-0.8c-0.8-0.6-1.2-1.3-1.3-2.1
			c-0.1-0.8,0.2-1.6,0.8-2.3l0,0l0.8,0.6l-0.1,0.1c-0.4,0.5-0.6,1-0.6,1.6c0,0.5,0.3,1,0.9,1.5c0.6,0.5,1.2,0.6,1.8,0.5
			c0.6-0.1,1.1-0.5,1.7-1.1l1.3-1.6c0.5-0.6,0.7-1.2,0.7-1.8c0-0.6-0.3-1.1-0.9-1.6s-1.1-0.6-1.7-0.5s-1,0.4-1.4,0.9l-0.1,0.2L27.6,84
			l0.1-0.1c0.6-0.8,1.3-1.2,2.1-1.3C30.6,82.4,31.4,82.7,32.2,83.3z M26.8,78c0.6,0.8,0.9,1.6,0.9,2.5c-0.1,0.8-0.6,1.6-1.4,2.4
			l-1.5,1.2c-0.9,0.7-1.7,1-2.6,0.9c-0.8-0.1-1.6-0.5-2.2-1.3c-0.7-0.8-0.9-1.6-0.9-2.5c0.1-0.8,0.6-1.6,1.4-2.4l1.5-1.2
			c0.9-0.7,1.7-1,2.6-0.9S26.1,77.2,26.8,78z M26.1,78.6c-0.5-0.6-1-0.9-1.6-0.9c-0.6,0-1.2,0.2-1.8,0.7L21,79.6
			c-0.6,0.5-1,1.1-1.1,1.7c-0.1,0.6,0.1,1.2,0.6,1.8c0.5,0.6,1,0.9,1.6,0.9c0.6,0,1.2-0.2,1.8-0.7l1.6-1.3c0.6-0.5,1-1.1,1.1-1.7
			C26.7,79.7,26.5,79.1,26.1,78.6z M23.7,74.2l-7.7,3.9l-0.9-1.8l5.7-6.3l-0.1-0.1l-7.1,3.6l-0.5-0.9l7.7-3.9l0.9,1.8l-5.8,6.3
			l0.1,0.2l7.1-3.6L23.7,74.2z M19.8,64.3c0.2,0.6,0.2,1.2,0.1,1.7c-0.1,0.5-0.3,1-0.7,1.4c-0.4,0.4-0.9,0.7-1.5,0.8l-0.2,0.1l-0.3-1
			l0.2-0.1c0.7-0.2,1.1-0.5,1.4-1c0.2-0.5,0.3-1.1,0.1-1.7c-0.2-0.6-0.4-1.1-0.8-1.4c-0.4-0.3-0.8-0.3-1.2-0.2
			c-0.3,0.1-0.5,0.2-0.7,0.4c-0.1,0.2-0.2,0.5-0.3,0.8c0,0.3-0.1,0.7,0,1.1l0,0.7c0,0.5,0,1-0.1,1.4c-0.1,0.4-0.2,0.8-0.5,1.1
			s-0.6,0.5-1.1,0.6c-0.5,0.1-0.9,0.1-1.3,0c-0.4-0.1-0.8-0.4-1-0.8c-0.3-0.4-0.5-0.8-0.7-1.4c-0.1-0.6-0.2-1.1-0.1-1.6
			c0.1-0.5,0.3-0.9,0.6-1.3c0.3-0.4,0.7-0.6,1.3-0.8l0.5-0.1l0.3,1L13.2,64c-0.4,0.1-0.7,0.3-0.9,0.5c-0.2,0.2-0.3,0.5-0.4,0.8
			c0,0.3,0,0.7,0.1,1.1c0.1,0.5,0.4,1,0.7,1.2c0.3,0.3,0.7,0.3,1.2,0.2c0.3-0.1,0.5-0.2,0.7-0.4c0.1-0.2,0.2-0.4,0.3-0.7
			c0-0.3,0.1-0.6,0.1-1l0-0.7c0-0.5,0-1,0.1-1.4c0.1-0.4,0.2-0.8,0.5-1.1c0.2-0.3,0.6-0.5,1.1-0.7c0.5-0.1,1-0.1,1.4,0
			c0.4,0.1,0.8,0.4,1.1,0.8C19.4,63.2,19.6,63.7,19.8,64.3z M18.6,58.2l-7.7,0.6l0.2,2.8l-0.9,0.1L9.7,55l0.9-0.1l0.2,2.8l7.7-0.6
			L18.6,58.2z M18.3,53.3l-8.5-1.1l0.4-3.5c0.1-0.5,0.2-1,0.4-1.4c0.2-0.4,0.5-0.7,0.9-0.8c0.4-0.2,0.8-0.2,1.3-0.2l0.1,0
			c0.6,0.1,1,0.3,1.3,0.6c0.3,0.3,0.5,0.7,0.5,1l0.2,0c0-0.3,0.2-0.5,0.4-0.7c0.2-0.2,0.5-0.2,0.9-0.2l2.9,0.4l-0.1,1l-2.7-0.3
			c-0.2,0-0.4,0-0.6,0.1c-0.1,0.1-0.2,0.3-0.3,0.6l-0.4,3l3.5,0.4L18.3,53.3z M14,51.8l0.3-2.3c0.1-0.6,0-1-0.2-1.4
			c-0.2-0.3-0.6-0.5-1.1-0.6l-0.1,0c-0.5-0.1-0.9,0-1.2,0.3c-0.3,0.3-0.5,0.7-0.6,1.3l-0.3,2.3L14,51.8z M20.6,43
			c-0.2,0.6-0.5,1.1-0.9,1.5c-0.4,0.4-0.8,0.6-1.3,0.7c-0.5,0.1-1.1,0-1.7-0.2l-5.4-1.9l0.3-1l5.4,1.9c0.7,0.2,1.2,0.2,1.7,0
			s0.8-0.7,1-1.3c0.2-0.6,0.2-1.2,0-1.7c-0.2-0.5-0.6-0.8-1.3-1.1L13,38.1l0.3-1l5.4,1.9c0.6,0.2,1.1,0.5,1.5,0.9
			c0.3,0.4,0.5,0.9,0.6,1.4S20.8,42.4,20.6,43z M24,36c-0.5,0.9-1.2,1.4-2,1.6s-1.7,0-2.7-0.6l-1.7-1c-1-0.6-1.6-1.3-1.7-2.1
			c-0.2-0.8,0-1.7,0.5-2.6c0.5-0.9,1.2-1.4,1.9-1.6c0.8-0.2,1.6,0,2.4,0.5l0.1,0l-0.5,0.9l-0.1-0.1c-0.6-0.3-1.1-0.5-1.6-0.4
			c-0.5,0.1-1,0.4-1.4,1.1c-0.4,0.6-0.5,1.2-0.3,1.8c0.2,0.6,0.6,1.1,1.3,1.5l1.7,1c0.7,0.4,1.3,0.6,1.9,0.5c0.6-0.1,1.1-0.5,1.5-1.1
			s0.5-1.2,0.3-1.7c-0.2-0.5-0.5-0.9-1.1-1.3l-0.2-0.1l0.5-0.9l0.1,0.1c0.8,0.5,1.4,1.1,1.6,1.9C24.7,34.3,24.5,35.1,24,36z
			M27.7,30.7L22,25.5l-1.9,2l-0.7-0.6l4.4-4.8l0.7,0.6l-1.9,2l5.7,5.2L27.7,30.7z M31.3,27.2l-5.5-6.6l0.8-0.7l5.5,6.6L31.3,27.2z
			M36.2,23.8c-0.9,0.5-1.7,0.7-2.6,0.5c-0.8-0.2-1.5-0.8-2.1-1.8l-1-1.7c-0.6-1-0.8-1.9-0.6-2.7c0.2-0.8,0.8-1.5,1.6-2
			c0.9-0.5,1.7-0.7,2.6-0.5c0.8,0.2,1.5,0.8,2.1,1.8l1,1.7c0.6,1,0.8,1.9,0.6,2.7C37.6,22.6,37,23.3,36.2,23.8z M35.7,23.1
			c0.6-0.4,1-0.9,1.1-1.5c0.1-0.6,0-1.2-0.4-1.9l-1.1-1.7c-0.4-0.7-0.9-1.1-1.5-1.3c-0.6-0.2-1.2-0.1-1.8,0.3c-0.6,0.4-1,0.9-1.1,1.5
			c-0.1,0.6,0,1.2,0.4,1.9l1.1,1.7c0.4,0.7,0.9,1.1,1.5,1.3C34.4,23.5,35.1,23.4,35.7,23.1z M40.3,21.4l-2.8-8.2l1.9-0.6l5.4,6.6
			l0.2-0.1l-2.6-7.5l1-0.3l2.8,8.2L44.3,20l-5.4-6.6l-0.2,0.1l2.6,7.5L40.3,21.4z M50.3,12.9l0-0.7l1-0.1l0.9,0.1l0.1-0.1l-0.7-0.5
			L50.7,11l0.4-0.5l0.8,0.7l0.6,0.7l0.1-0.1l-0.2-0.8l-0.1-1l0.7,0l0.1,1l-0.1,0.9l0.1,0.1l0.5-0.7l0.7-0.8l0.5,0.4l-0.7,0.8l-0.7,0.5
			l0.1,0.1l0.8-0.2l1-0.1l0,0.7l-1,0.1l-0.9-0.1l-0.1,0.1l0.7,0.5l0.8,0.7l-0.4,0.5l-0.8-0.7l-0.6-0.7l-0.1,0.1l0.2,0.8l0.1,1l-0.7,0
			l-0.1-1l0.1-0.9l-0.1-0.1l-0.5,0.7l-0.7,0.8l-0.5-0.4l0.7-0.8l0.7-0.6l-0.1-0.1l-0.8,0.1L50.3,12.9z"/>
	</g>
</svg>
