<svg id="quote-object" xmlns="http://www.w3.org/2000/svg" xmlns:xlink="http://www.w3.org/1999/xlink" 
	shape-rendering="geometricPrecision" text-rendering="geometricPrecision" width="110px" height="110px" viewBox="0 0 110 110" 
	style="enable-background:new 0 0 110 110;" xml:space="preserve">

	<style type="text/css">
		#rotation-group {
				animation: rotateInfinite 9000ms linear infinite normal forwards
			}
			@keyframes rotateInfinite {
				0% {
					transform: translate(55px,55px) rotate(0deg);
					}
				100% {
					transform: translate(55px,55px) rotate(360deg);
					}
			}
	</style>

	<path fill="#ffffff" d="M55,2c29.2,0,53,23.8,53,53s-23.8,53-53,53S2,84.2,2,55S25.8,2,55,2 M55,0C24.6,0,0,24.6,0,55s24.6,55,55,55
		s55-24.6,55-55S85.4,0,55,0L55,0z"/>
	<path fill="#ffffff" d="M67.1,41c1.2,0,2.1,0.4,2.9,1.2c0.7,0.8,1.1,1.7,1.1,2.8v18c0,1.1-0.4,2.1-1.2,2.8S68.2,67,67.1,67h-9l-7.9,5.9
		c-0.3,0.2-0.5,0.2-0.8,0.1c-0.3-0.1-0.4-0.4-0.4-0.7V67h-6c-1.1,0-2.1-0.4-2.8-1.1S39,64.1,38.9,63V45c0-1.1,0.4-2,1.2-2.8
		s1.7-1.2,2.8-1.2H67.1z M68.1,63.1V45c0-0.6-0.4-1-1-1H43c-0.6,0-1,0.4-1,1v18.1c0,0.6,0.4,1,1,1h9v3.8l5-3.8h10.1
		C67.8,64.1,68.1,63.7,68.1,63.1z"/>

	<g id="rotation-group" transform="translate(55,55) rotate(360)">
		<path fill="#ffffff" transform="translate(-55,-55)" d="M62.5,19.5c-0.9-0.2-1.6-0.6-2.1-1.3s-0.6-1.5-0.3-2.5l0.4-1.8c0.2-1,0.7-1.8,1.3-2.2c0.7-0.4,1.5-0.5,2.4-0.3
			c0.9,0.2,1.6,0.6,2.1,1.3s0.6,1.5,0.3,2.5L66.2,17c-0.2,1-0.7,1.8-1.3,2.2C64.2,19.6,63.4,19.7,62.5,19.5z M62.7,18.7
			c0.7,0.1,1.2,0.1,1.7-0.3s0.8-0.9,0.9-1.6l0.4-1.9c0.2-0.7,0.1-1.3-0.2-1.8c-0.3-0.5-0.8-0.8-1.4-0.9c-0.7-0.1-1.2,0-1.7,0.3
			c-0.5,0.3-0.8,0.9-0.9,1.6L61,15.9c-0.2,0.7-0.1,1.3,0.2,1.8C61.5,18.2,62,18.5,62.7,18.7z M62.6,21.2c-0.3-0.1-0.5-0.2-0.6-0.4
			c-0.1-0.2-0.2-0.4-0.1-0.7l0.2-0.9l0.9,0.2l-0.1,0.7c0,0.2,0,0.4,0.2,0.4l0.7,0.2l-0.2,0.8L62.6,21.2z M69.4,21.7
			c-0.5-0.2-1-0.5-1.3-0.9c-0.3-0.4-0.5-0.8-0.6-1.3c-0.1-0.5,0-1,0.3-1.6l2.1-4.9l0.9,0.4l-2.1,4.9c-0.3,0.6-0.3,1.1-0.1,1.6
			s0.6,0.8,1.2,1c0.6,0.3,1.1,0.3,1.5,0.1c0.5-0.2,0.8-0.5,1.1-1.1l2.1-4.9l0.9,0.4l-2.1,4.9c-0.2,0.6-0.6,1-1,1.3S71.5,22,71,22
			C70.5,22,70,21.9,69.4,21.7z M75.8,25.2c-0.8-0.5-1.2-1.2-1.4-2c-0.1-0.8,0.1-1.6,0.7-2.5l1-1.5c0.6-0.9,1.3-1.4,2.1-1.5
			c0.8-0.1,1.6,0.1,2.3,0.6c0.8,0.5,1.2,1.2,1.4,2c0.1,0.8-0.1,1.6-0.7,2.5l-1,1.5c-0.6,0.9-1.3,1.4-2.1,1.5
			C77.3,26,76.6,25.8,75.8,25.2z M76.3,24.5c0.6,0.4,1.1,0.5,1.7,0.4s1-0.5,1.5-1.1l1.1-1.6c0.4-0.6,0.6-1.2,0.5-1.7
			c-0.1-0.6-0.4-1-1-1.4c-0.6-0.4-1.1-0.5-1.7-0.4s-1,0.5-1.5,1.1l-1.1,1.6c-0.4,0.6-0.6,1.2-0.5,1.7C75.4,23.7,75.7,24.2,76.3,24.5z
			M80.5,29l5.1-5l-1.8-1.8l0.6-0.6l4.3,4.3l-0.6,0.6l-1.8-1.8l-5.1,5L80.5,29z M83.6,32.3l6.5-4.6l2.8,4l-0.7,0.5L90,29l-2.2,1.5
			l2.1,3L89.2,34l-2.1-3l-2.2,1.6l2.3,3.3l-0.7,0.5L83.6,32.3z M93.1,37.9l0.6-0.2l0.3,0.9l0.2,0.8l0.1,0l0.2-0.8l0.4-0.9l0.5,0.3
			l-0.4,0.9l-0.4,0.7l0.1,0.1l0.7-0.4l0.9-0.3l0.2,0.6l-0.9,0.3L94.9,40l0,0.1l0.8,0.2l0.9,0.4l-0.2,0.6l-0.9-0.4l-0.7-0.4l-0.1,0.1
			l0.4,0.7l0.3,0.9l-0.6,0.2l-0.3-0.9l-0.2-0.8l-0.1,0l-0.2,0.8l-0.4,0.9L93,42.1l0.4-0.9l0.4-0.7l-0.1-0.1L93,40.8l-0.9,0.3l-0.2-0.6
			l0.9-0.3l0.8-0.2l0-0.1l-0.8-0.2l-0.9-0.4l0.2-0.6l0.9,0.4l0.7,0.4l0.1-0.1l-0.4-0.7L93.1,37.9z M89.5,51.8c0-0.3,0-0.5,0.2-0.7
			c0.2-0.2,0.4-0.3,0.7-0.3l0.9-0.1l0.1,0.9l-0.7,0.1c-0.2,0-0.3,0.1-0.3,0.4l0.1,0.7l-0.8,0.1L89.5,51.8z M91.1,51.1
			c-0.1-0.9,0.1-1.7,0.6-2.3c0.5-0.6,1.3-1,2.3-1.1l1.8-0.2c1.1-0.1,1.9,0.1,2.5,0.6s1,1.2,1.1,2.2c0.1,1-0.1,1.7-0.6,2.4
			c-0.5,0.6-1.3,1-2.3,1.1l-1.8,0.2c-1.1,0.1-1.9-0.1-2.5-0.6C91.5,52.8,91.2,52.1,91.1,51.1z M91.9,51.1c0.1,0.7,0.3,1.2,0.8,1.5
			s1,0.5,1.8,0.4l1.9-0.2c0.7-0.1,1.3-0.3,1.7-0.7s0.5-1,0.4-1.7c-0.1-0.7-0.3-1.2-0.8-1.5c-0.5-0.3-1-0.5-1.8-0.4L94,48.7
			c-0.7,0.1-1.3,0.3-1.7,0.7S91.9,50.4,91.9,51.1z M91.1,58.4c0.1-0.6,0.2-1.1,0.5-1.5s0.6-0.7,1-0.9c0.4-0.2,1-0.3,1.6-0.2l5.3,0.5
			l-0.1,0.9l-5.3-0.5c-0.7-0.1-1.2,0.1-1.5,0.4c-0.4,0.3-0.6,0.8-0.6,1.4c-0.1,0.6,0.1,1.1,0.4,1.5c0.3,0.4,0.8,0.6,1.4,0.7l5.3,0.5
			l-0.1,1l-5.3-0.5c-0.6-0.1-1.1-0.2-1.5-0.5s-0.7-0.7-0.9-1.1C91.1,59.5,91.1,59,91.1,58.4z M89.7,65.6c0.3-0.9,0.8-1.6,1.5-1.9
			c0.7-0.4,1.5-0.4,2.6-0.1l1.7,0.5c1,0.3,1.7,0.8,2.1,1.5s0.4,1.5,0.1,2.4c-0.3,0.9-0.8,1.6-1.5,1.9c-0.7,0.4-1.5,0.4-2.6,0.1
			l-1.7-0.5c-1-0.3-1.7-0.8-2.1-1.5S89.4,66.5,89.7,65.6z M90.5,65.8c-0.2,0.7-0.2,1.2,0.1,1.7c0.3,0.5,0.8,0.8,1.5,1l1.8,0.6
			c0.7,0.2,1.3,0.2,1.8,0c0.5-0.2,0.9-0.7,1.1-1.4c0.2-0.7,0.2-1.2-0.1-1.7c-0.3-0.5-0.8-0.8-1.5-1l-1.8-0.6c-0.7-0.2-1.3-0.2-1.8,0
			S90.7,65.2,90.5,65.8z M87.6,71.3l6.3,3.3l1.2-2.3l0.8,0.4l-2.8,5.4l-0.8-0.4l1.2-2.3l-6.3-3.3L87.6,71.3z M85.4,75.2l6.4,4.8
			l-3,3.9l-0.7-0.5l2.4-3.1l-2.1-1.6l-2.2,2.9L85.5,81l2.2-2.9l-2.2-1.6l-2.4,3.2l-0.7-0.5L85.4,75.2z M83.1,85.9l0.4,0.5L82.7,87
			L82,87.4l0,0.1l0.8,0l1,0.1l-0.1,0.6l-1-0.1L82,88L82,88.1l0.6,0.5l0.6,0.8l-0.5,0.4L82.1,89l-0.4-0.7l-0.1,0l0,0.8l-0.1,1l-0.6-0.1
			l0.1-1l0.2-0.8L81,88.3l-0.5,0.6l-0.8,0.6L79.3,89l0.8-0.6l0.7-0.4l0-0.1l-0.8,0l-1-0.1l0.1-0.6l1,0.1l0.8,0.2l0.1-0.1l-0.6-0.5
			L79.6,86l0.5-0.4l0.6,0.8l0.4,0.7l0.1,0l0-0.8l0.1-1l0.6,0.1l-0.1,1L81.6,87l0.1,0.1l0.6-0.6L83.1,85.9z M68.7,86.8
			c0.3-0.1,0.5-0.1,0.7,0c0.2,0.1,0.4,0.3,0.5,0.5l0.4,0.8l-0.9,0.4l-0.3-0.7c-0.1-0.2-0.2-0.3-0.4-0.2l-0.7,0.3l-0.3-0.7L68.7,86.8z
			M69.8,88.1c0.9-0.4,1.7-0.4,2.4-0.2c0.7,0.3,1.3,0.9,1.8,1.9l0.7,1.7c0.4,1,0.5,1.8,0.2,2.5c-0.3,0.7-0.9,1.3-1.7,1.7
			c-0.9,0.4-1.7,0.5-2.4,0.2S69.5,95,69,94l-0.7-1.7c-0.4-1-0.5-1.8-0.2-2.5S69,88.5,69.8,88.1z M70.2,88.9c-0.6,0.3-1,0.7-1.2,1.2
			c-0.2,0.5-0.1,1.1,0.2,1.8l0.8,1.7c0.3,0.7,0.7,1.1,1.2,1.3c0.5,0.2,1.1,0.2,1.7-0.1c0.6-0.3,1-0.7,1.2-1.2c0.2-0.5,0.1-1.1-0.2-1.8
			l-0.8-1.7c-0.3-0.7-0.7-1.1-1.2-1.3C71.4,88.6,70.8,88.6,70.2,88.9z M62.9,90.4c0.6-0.1,1.1-0.1,1.6,0c0.5,0.1,0.9,0.3,1.2,0.7
			c0.3,0.4,0.6,0.8,0.7,1.4l1.2,5.2l-0.9,0.2l-1.2-5.2c-0.1-0.6-0.4-1.1-0.8-1.3c-0.4-0.2-0.9-0.3-1.5-0.2c-0.6,0.1-1.1,0.4-1.3,0.8
			c-0.3,0.4-0.3,0.9-0.2,1.5l1.2,5.2L61.8,99l-1.2-5.2c-0.1-0.6-0.1-1.1,0-1.6c0.1-0.5,0.4-0.8,0.8-1.2C61.9,90.8,62.3,90.5,62.9,90.4
			z M55.7,91.3c1,0,1.7,0.2,2.3,0.8c0.6,0.5,0.9,1.3,0.9,2.4l0,1.8c0,1.1-0.2,1.9-0.8,2.4c-0.6,0.6-1.3,0.9-2.3,0.9
			c-1,0-1.7-0.2-2.3-0.8s-0.9-1.3-0.9-2.4l0-1.8c0-1.1,0.2-1.9,0.8-2.4C54,91.6,54.7,91.3,55.7,91.3z M55.7,92.1
			c-0.7,0-1.2,0.2-1.6,0.7c-0.4,0.4-0.6,1-0.5,1.7l0,1.9c0,0.7,0.2,1.3,0.6,1.7c0.4,0.4,0.9,0.6,1.6,0.6c0.7,0,1.2-0.2,1.6-0.7
			s0.6-1,0.5-1.7l0-1.9c0-0.7-0.2-1.3-0.6-1.7C56.9,92.3,56.4,92.1,55.7,92.1z M49.6,91.1l-1.1,7l2.5,0.4l-0.1,0.9l-6-1l0.1-0.9
			l2.5,0.4l1.1-7L49.6,91.1z M45.2,90.2l-2.6,7.5l-4.6-1.6l0.3-0.8l3.7,1.3l0.9-2.5l-3.4-1.2l0.3-0.8l3.4,1.2l0.9-2.6l-3.8-1.3
			l0.3-0.8L45.2,90.2z M34.3,91.3l-0.3,0.5l-0.8-0.5l-0.6-0.5l-0.1,0.1l0.3,0.8l0.2,1l-0.6,0.1l-0.2-0.9L32,90.9l-0.1,0l-0.3,0.7
			L31,92.4l-0.5-0.3l0.5-0.8l0.5-0.6l-0.1-0.1l-0.8,0.3L29.8,91l-0.1-0.6l1-0.2l0.8-0.1l0-0.1l-0.7-0.3l-0.8-0.5l0.3-0.5l0.8,0.5
			l0.6,0.5l0.1-0.1l-0.3-0.8l-0.2-0.9l0.6-0.1l0.2,0.9l0.1,0.8l0.1,0l0.3-0.7l0.5-0.8l0.5,0.3l-0.5,0.8l-0.5,0.6l0.1,0.1l0.8-0.3
			l0.9-0.2l0.1,0.6l-0.9,0.2l-0.8,0.1l0,0.1l0.7,0.4L34.3,91.3z M28.1,79.3c0.6,0.7,0.9,1.5,0.9,2.2c0,0.8-0.4,1.5-1.2,2.2l-1.4,1.2
			c-0.8,0.7-1.6,1-2.4,1c-0.8,0-1.5-0.4-2.1-1.1c-0.6-0.7-0.9-1.5-0.9-2.2c0-0.8,0.4-1.5,1.2-2.2l1.4-1.2c0.8-0.7,1.6-1,2.4-1
			C26.7,78.2,27.4,78.6,28.1,79.3z M27.5,79.9c-0.5-0.5-1-0.8-1.5-0.8s-1.1,0.2-1.7,0.7l-1.4,1.3c-0.5,0.5-0.8,1-0.9,1.6
			c-0.1,0.6,0.2,1.1,0.6,1.6c0.5,0.5,1,0.8,1.5,0.8s1.1-0.2,1.7-0.7l1.4-1.3c0.5-0.5,0.8-1,0.9-1.6S27.9,80.4,27.5,79.9z M29,77.9
			c0.2,0.2,0.3,0.4,0.3,0.7c0,0.2-0.1,0.5-0.3,0.7l-0.7,0.6l-0.6-0.7l0.5-0.5c0.2-0.2,0.2-0.3,0-0.5l-0.5-0.6l0.6-0.5L29,77.9z
			M23.8,73.5c0.3,0.5,0.5,1,0.5,1.5c0,0.5-0.1,0.9-0.3,1.4c-0.2,0.4-0.6,0.8-1.2,1.1l-4.6,2.7l-0.5-0.8l4.6-2.7
			c0.6-0.3,0.9-0.7,1-1.2c0.1-0.5,0-1-0.3-1.5s-0.7-0.9-1.2-1c-0.5-0.1-1,0-1.5,0.3l-4.6,2.7l-0.5-0.8l4.6-2.7c0.5-0.3,1-0.5,1.5-0.5
			c0.5,0,0.9,0.1,1.3,0.4C23.1,72.6,23.5,73,23.8,73.5z M20.7,66.9c0.3,0.9,0.3,1.7,0,2.4c-0.3,0.7-1,1.2-2,1.6l-1.7,0.6
			c-1,0.3-1.9,0.3-2.6,0s-1.2-1-1.5-1.9c-0.3-0.9-0.3-1.7,0-2.4c0.3-0.7,1-1.2,2-1.6l1.7-0.6c1-0.3,1.9-0.3,2.6,0
			C19.9,65.3,20.4,66,20.7,66.9z M19.9,67.2c-0.2-0.7-0.6-1.1-1.1-1.3s-1.1-0.2-1.8,0l-1.8,0.6c-0.7,0.2-1.2,0.6-1.4,1.1
			c-0.3,0.5-0.3,1.1-0.1,1.7c0.2,0.6,0.6,1.1,1.1,1.3s1.1,0.2,1.8,0l1.8-0.6c0.7-0.2,1.2-0.6,1.4-1.1C20.1,68.4,20.1,67.8,19.9,67.2z
			M19,61l-7,1.1l0.4,2.5l-0.9,0.1l-0.9-6l0.9-0.1l0.4,2.5l7-1.1L19,61z M18.5,56.6l-8-0.2l0.1-4.9l0.9,0l-0.1,4l2.7,0.1l0.1-3.6
			l0.9,0L15,55.5l2.7,0.1l0.1-4l0.9,0L18.5,56.6z M14.1,46.5l-0.6-0.2l0.3-0.9l0.3-0.7L14,44.6l-0.6,0.5l-0.8,0.5L12.2,45l0.8-0.5
			l0.7-0.3l0-0.1L13,44L12,43.7l0.2-0.6l0.9,0.3l0.7,0.3l0.1-0.1L13.5,43L13,42.1l0.5-0.3l0.5,0.8l0.3,0.7l0.1,0l0.1-0.8l0.3-0.9
			l0.6,0.2l-0.3,0.9l-0.3,0.7l0.1,0.1l0.6-0.5l0.8-0.5l0.3,0.5l-0.8,0.5l-0.7,0.3l0,0.1l0.8,0.1l0.9,0.3L16.7,45l-0.9-0.3L15,44.4
			l-0.1,0.1l0.5,0.6l0.5,0.8l-0.5,0.3l-0.5-0.8l-0.3-0.7l-0.1,0l-0.1,0.8L14.1,46.5z M23.5,36.9c-0.5,0.8-1.1,1.3-1.9,1.6
			c-0.8,0.2-1.6,0.1-2.5-0.5l-1.6-0.9c-0.9-0.5-1.5-1.2-1.7-1.9c-0.2-0.8-0.1-1.6,0.4-2.4c0.5-0.8,1.1-1.4,1.9-1.6
			c0.8-0.2,1.6-0.1,2.5,0.5l1.6,0.9c0.9,0.5,1.5,1.2,1.7,1.9S24,36.1,23.5,36.9z M22.8,36.5c0.3-0.6,0.4-1.2,0.3-1.7
			c-0.2-0.5-0.6-1-1.2-1.4l-1.6-0.9c-0.6-0.4-1.2-0.5-1.8-0.4c-0.5,0.1-1,0.5-1.3,1.1c-0.3,0.6-0.4,1.2-0.3,1.7c0.2,0.5,0.6,1,1.2,1.4
			l1.6,0.9c0.6,0.4,1.2,0.5,1.8,0.4C22,37.4,22.4,37.1,22.8,36.5z M25.2,37.4c-0.1,0.2-0.3,0.4-0.6,0.5c-0.2,0.1-0.5,0-0.7-0.1
			l-0.8-0.4l0.5-0.8l0.6,0.4c0.2,0.1,0.3,0.1,0.5-0.1l0.4-0.7l0.7,0.4L25.2,37.4z M27.8,31c-0.4,0.4-0.8,0.8-1.3,1
			c-0.5,0.2-0.9,0.2-1.4,0.1c-0.5-0.1-0.9-0.3-1.4-0.8l-4-3.5l0.6-0.7l4,3.5c0.5,0.4,1,0.6,1.4,0.6c0.5,0,0.9-0.3,1.3-0.8
			c0.4-0.5,0.6-0.9,0.6-1.4c0-0.5-0.3-0.9-0.8-1.4l-4-3.5l0.6-0.7l4,3.5c0.5,0.4,0.8,0.8,0.9,1.3s0.2,0.9,0,1.4
			C28.4,30.1,28.2,30.6,27.8,31z M33.1,26.1c-0.8,0.6-1.5,0.8-2.3,0.7c-0.8-0.1-1.5-0.6-2.1-1.4l-1.1-1.5c-0.6-0.8-0.9-1.7-0.8-2.4
			c0.1-0.8,0.6-1.5,1.3-2c0.8-0.6,1.5-0.8,2.3-0.7c0.8,0.1,1.5,0.6,2.1,1.4l1.1,1.5c0.6,0.8,0.9,1.7,0.8,2.4S33.9,25.5,33.1,26.1z
			M32.6,25.4c0.6-0.4,0.9-0.9,0.9-1.5c0.1-0.6-0.1-1.1-0.6-1.7l-1.1-1.5c-0.4-0.6-0.9-0.9-1.5-1c-0.6-0.1-1.1,0.1-1.7,0.5
			c-0.5,0.4-0.8,0.9-0.9,1.5c-0.1,0.6,0.1,1.1,0.6,1.7l1.1,1.5c0.4,0.6,0.9,0.9,1.5,1C31.5,25.9,32,25.8,32.6,25.4z M38.2,22.7
			l-3.2-6.3l-2.3,1.2l-0.4-0.8l5.4-2.7l0.4,0.8l-2.3,1.2l3.2,6.3L38.2,22.7z M42.2,20.8l-2.3-7.6l4.7-1.4l0.3,0.8l-3.8,1.1l0.8,2.6
			l3.5-1.1l0.3,0.8l-3.5,1.1l0.8,2.6l3.8-1.2l0.3,0.8L42.2,20.8z M50.4,13.5l0-0.6l1,0l0.8,0.1l0.1-0.1l-0.7-0.4l-0.7-0.7l0.4-0.4
			l0.7,0.6l0.5,0.6l0.1-0.1l-0.1-0.8l0-1l0.6,0l0,1L53,12.4l0.1,0.1l0.5-0.7l0.6-0.7l0.5,0.4l-0.6,0.7l-0.6,0.5l0.1,0.1l0.8-0.1l1,0
			l0,0.6l-1,0l-0.8-0.1l-0.1,0.1l0.7,0.5l0.7,0.6l-0.4,0.5l-0.7-0.6l-0.5-0.6l-0.1,0.1l0.1,0.8l0,1l-0.6,0l0-1l0.1-0.8l-0.1-0.1
			l-0.5,0.7l-0.6,0.7L51,14.7l0.6-0.7l0.6-0.5l-0.1-0.1l-0.8,0.1L50.4,13.5z"/>
	</g>
</svg>
