<svg id="quote-object" xmlns="http://www.w3.org/2000/svg" xmlns:xlink="http://www.w3.org/1999/xlink" 
	shape-rendering="geometricPrecision" text-rendering="geometricPrecision" width="110px" height="110px" viewBox="0 0 110 110" 
	style="enable-background:new 0 0 110 110;" xml:space="preserve">

	<style type="text/css">
		#rotation-group {
			animation: rotateInfinite 9000ms linear infinite normal forwards
		}
		@keyframes rotateInfinite {
			0% {
				transform: translate(55px,55px) rotate(0deg);
				}
			100% {
				transform: translate(55px,55px) rotate(360deg);
				}
		}
	</style>

	<path fill="#ffffff" d="M110,55c0,30.4-24.6,55-55,55S0,85.4,0,55S24.6,0,55,0S110,24.6,110,55z"/>
	<path fill="#807DF2" d="M69.1,46.5v15.8c0,1-0.4,1.8-1.1,2.5c-0.7,0.7-1.5,1-2.5,1h-7.9L50.7,71c-0.3,0.2-0.4,0.2-0.7,0.1
		s-0.4-0.3-0.4-0.6v-4.6h-5.3c-1,0-1.8-0.4-2.5-1c-0.7-0.7-1.1-1.5-1.1-2.5V46.5c0-1,0.4-1.8,1.1-2.5c0.7-0.7,1.5-1.1,2.5-1.1h21.1
		c1.1,0,1.8,0.4,2.5,1.1C68.8,44.6,69,45.5,69.1,46.5z"/>

	<g id="rotation-group" transform="translate(55,55) rotate(360)">
		<path fill="#212121" d="M7.5-35.7c-0.9-0.2-1.6-0.6-2.1-1.3s-0.6-1.5-0.3-2.5l0.4-1.8c0.2-1,0.7-1.8,1.3-2.2c0.7-0.4,1.5-0.5,2.4-0.3
			c0.9,0.2,1.6,0.6,2.1,1.3s0.6,1.5,0.3,2.5l-0.4,1.8c-0.2,1-0.7,1.8-1.3,2.2C9.2-35.6,8.4-35.5,7.5-35.7z M7.7-36.5
			c0.7,0.1,1.2,0.1,1.7-0.3s0.8-0.9,0.9-1.6l0.4-1.9c0.2-0.7,0.1-1.3-0.2-1.8S9.7-42.8,9.1-43c-0.7-0.1-1.2,0-1.7,0.3
			s-0.8,0.9-0.9,1.6L6-39.2c-0.2,0.7-0.1,1.3,0.2,1.8C6.5-37,7-36.7,7.7-36.5z M7.6-34c-0.3-0.1-0.5-0.2-0.6-0.4s-0.2-0.4-0.1-0.7
			L7.1-36L8-35.8L7.9-35c0,0.2,0,0.4,0.2,0.4l0.7,0.2l-0.2,0.8L7.6-34z M14.4-33.5c-0.5-0.2-1-0.5-1.3-0.9s-0.5-0.8-0.6-1.3
			s0-1,0.3-1.6l2.1-4.9l0.9,0.4l-2.1,4.9c-0.3,0.6-0.3,1.1-0.1,1.6s0.6,0.8,1.2,1c0.6,0.3,1.1,0.3,1.5,0.1c0.5-0.2,0.8-0.5,1.1-1.1
			l2.1-4.9l0.9,0.4l-2.1,4.9c-0.2,0.6-0.6,1-1,1.3s-0.8,0.4-1.3,0.4S15-33.2,14.4-33.5z M20.8-30c-0.8-0.5-1.2-1.2-1.4-2
			c-0.1-0.8,0.1-1.6,0.7-2.5l1-1.5c0.6-0.9,1.3-1.4,2.1-1.5c0.8-0.1,1.6,0.1,2.3,0.6c0.8,0.5,1.2,1.2,1.4,2c0.1,0.8-0.1,1.6-0.7,2.5
			l-1,1.5c-0.6,0.9-1.3,1.4-2.1,1.5C22.3-29.2,21.6-29.4,20.8-30z M21.3-30.7c0.6,0.4,1.1,0.5,1.7,0.4s1-0.5,1.5-1.1l1.1-1.6
			c0.4-0.6,0.6-1.2,0.5-1.7c-0.1-0.6-0.4-1-1-1.4s-1.1-0.5-1.7-0.4s-1,0.5-1.5,1.1l-1.1,1.6c-0.4,0.6-0.6,1.2-0.5,1.7
			C20.4-31.5,20.7-31,21.3-30.7z M25.5-26.2l5.1-5L28.8-33l0.6-0.6l4.3,4.3l-0.6,0.6l-1.8-1.8l-5.1,5L25.5-26.2z M28.6-22.9l6.5-4.6
			l2.8,4L37.2-23L35-26.2l-2.2,1.5l2.1,3l-0.7,0.5l-2.1-3l-2.2,1.6l2.3,3.3l-0.7,0.5L28.6-22.9z M38.1-17.3l0.6-0.2l0.3,0.9l0.2,0.8
			h0.1l0.2-0.8l0.4-0.9l0.5,0.3L40-16.3l-0.4,0.7l0.1,0.1l0.7-0.4l0.9-0.3l0.2,0.6l-0.9,0.3l-0.7,0.1v0.1l0.8,0.2l0.9,0.4l-0.2,0.6
			l-0.9-0.4l-0.7-0.4l-0.1,0.1l0.4,0.7l0.3,0.9l-0.6,0.2l-0.3-0.9l-0.2-0.8h-0.1L39-13.7l-0.4,0.9L38-13.1l0.4-0.9l0.4-0.7l-0.1-0.1
			L38-14.4l-0.9,0.3l-0.2-0.6l0.9-0.3l0.8-0.2v-0.1l-0.8-0.2l-0.9-0.4l0.2-0.6l0.9,0.4l0.7,0.4l0.1-0.1l-0.4-0.7L38.1-17.3z
			M34.5-3.4c0-0.3,0-0.5,0.2-0.7c0.2-0.2,0.4-0.3,0.7-0.3l0.9-0.1l0.1,0.9l-0.7,0.1c-0.2,0-0.3,0.1-0.3,0.4l0.1,0.7l-0.8,0.1
			L34.5-3.4z M36.1-4.1C36-5,36.2-5.8,36.7-6.4s1.3-1,2.3-1.1l1.8-0.2c1.1-0.1,1.9,0.1,2.5,0.6s1,1.2,1.1,2.2s-0.1,1.7-0.6,2.4
			c-0.5,0.6-1.3,1-2.3,1.1l-1.8,0.2c-1.1,0.1-1.9-0.1-2.5-0.6C36.5-2.4,36.2-3.1,36.1-4.1z M36.9-4.1c0.1,0.7,0.3,1.2,0.8,1.5
			s1,0.5,1.8,0.4l1.9-0.2c0.7-0.1,1.3-0.3,1.7-0.7s0.5-1,0.4-1.7S43.2-6,42.7-6.3s-1-0.5-1.8-0.4L39-6.5c-0.7,0.1-1.3,0.3-1.7,0.7
			S36.9-4.8,36.9-4.1z M36.1,3.2c0.1-0.6,0.2-1.1,0.5-1.5c0.3-0.4,0.6-0.7,1-0.9s1-0.3,1.6-0.2l5.3,0.5L44.4,2l-5.3-0.5
			c-0.7-0.1-1.2,0.1-1.5,0.4C37.2,2.2,37,2.7,37,3.3c-0.1,0.6,0.1,1.1,0.4,1.5s0.8,0.6,1.4,0.7L44.1,6L44,7l-5.3-0.5
			c-0.6-0.1-1.1-0.2-1.5-0.5s-0.7-0.7-0.9-1.1C36.1,4.3,36.1,3.8,36.1,3.2z M34.7,10.4c0.3-0.9,0.8-1.6,1.5-1.9
			c0.7-0.4,1.5-0.4,2.6-0.1l1.7,0.5c1,0.3,1.7,0.8,2.1,1.5c0.4,0.7,0.4,1.5,0.1,2.4s-0.8,1.6-1.5,1.9c-0.7,0.4-1.5,0.4-2.6,0.1
			l-1.7-0.5c-1-0.3-1.7-0.8-2.1-1.5C34.4,12.1,34.4,11.3,34.7,10.4z M35.5,10.6c-0.2,0.7-0.2,1.2,0.1,1.7c0.3,0.5,0.8,0.8,1.5,1
			l1.8,0.6c0.7,0.2,1.3,0.2,1.8,0s0.9-0.7,1.1-1.4c0.2-0.7,0.2-1.2-0.1-1.7c-0.3-0.5-0.8-0.8-1.5-1l-1.8-0.6c-0.7-0.2-1.3-0.2-1.8,0
			S35.7,10,35.5,10.6z M32.6,16.1l6.3,3.3l1.2-2.3l0.8,0.4l-2.8,5.4l-0.8-0.4l1.2-2.3l-6.3-3.3L32.6,16.1z M30.4,20l6.4,4.8l-3,3.9
			l-0.7-0.5l2.4-3.1l-2.1-1.6l-2.2,2.9l-0.7-0.6l2.2-2.9l-2.2-1.6l-2.4,3.2L27.4,24L30.4,20z M28.1,30.7l0.4,0.5l-0.8,0.6L27,32.2
			v0.1h0.8l1,0.1L28.7,33l-1-0.1L27,32.8v0.1l0.6,0.5l0.6,0.8l-0.5,0.4l-0.6-0.8l-0.4-0.7h-0.1v0.8l-0.1,1l-0.6-0.1l0.1-1l0.2-0.8
			L26,33.1l-0.5,0.6l-0.8,0.6l-0.4-0.5l0.8-0.6l0.7-0.4v-0.1H25l-1-0.1l0.1-0.6l1,0.1l0.8,0.2l0.1-0.1l-0.6-0.5l-0.8-0.9l0.5-0.4
			l0.6,0.8l0.4,0.7h0.1v-0.8l0.1-1l0.6,0.1l-0.1,1l-0.2,0.6l0.1,0.1l0.6-0.6L28.1,30.7z M13.7,31.6c0.3-0.1,0.5-0.1,0.7,0
			s0.4,0.3,0.5,0.5l0.4,0.8l-0.9,0.4l-0.3-0.7c-0.1-0.2-0.2-0.3-0.4-0.2L13,32.8L12.7,32L13.7,31.6z M14.8,32.9
			c0.9-0.4,1.7-0.4,2.4-0.2c0.7,0.3,1.3,0.9,1.8,1.9l0.7,1.7c0.4,1,0.5,1.8,0.2,2.5s-0.9,1.3-1.7,1.7c-0.9,0.4-1.7,0.5-2.4,0.2
			s-1.3-0.9-1.8-1.9l-0.7-1.7c-0.4-1-0.5-1.8-0.2-2.5S14,33.3,14.8,32.9z M15.2,33.8c-0.6,0.3-1,0.7-1.2,1.2s-0.1,1.1,0.2,1.8
			l0.8,1.7c0.3,0.7,0.7,1.1,1.2,1.3c0.5,0.2,1.1,0.2,1.7-0.1s1-0.7,1.2-1.2s0.1-1.1-0.2-1.8L18.1,35c-0.3-0.7-0.7-1.1-1.2-1.3
			C16.4,33.4,15.8,33.4,15.2,33.8z M7.9,35.2c0.6-0.1,1.1-0.1,1.6,0s0.9,0.3,1.2,0.7s0.6,0.8,0.7,1.4l1.2,5.2l-0.9,0.2l-1.2-5.2
			c-0.1-0.6-0.4-1.1-0.8-1.3c-0.4-0.2-0.9-0.3-1.5-0.2s-1.1,0.4-1.3,0.8c-0.3,0.4-0.3,0.9-0.2,1.5l1.2,5.2l-1.1,0.3l-1.2-5.2
			c-0.1-0.6-0.1-1.1,0-1.6s0.4-0.8,0.8-1.2C6.9,35.6,7.3,35.3,7.9,35.2z M0.7,36.1c1,0,1.7,0.2,2.3,0.8c0.6,0.5,0.9,1.3,0.9,2.4v1.8
			c0,1.1-0.2,1.9-0.8,2.4c-0.6,0.6-1.3,0.9-2.3,0.9s-1.7-0.2-2.3-0.8s-0.9-1.3-0.9-2.4v-1.8c0-1.1,0.2-1.9,0.8-2.4
			C-1,36.4-0.3,36.1,0.7,36.1z M0.7,36.9c-0.7,0-1.2,0.2-1.6,0.7c-0.4,0.4-0.6,1-0.5,1.7v1.9c0,0.7,0.2,1.3,0.6,1.7s0.9,0.6,1.6,0.6
			s1.2-0.2,1.6-0.7s0.6-1,0.5-1.7v-1.9c0-0.7-0.2-1.3-0.6-1.7S1.4,36.9,0.7,36.9z M-5.4,35.9l-1.1,7l2.5,0.4l-0.1,0.9l-6-1l0.1-0.9
			l2.5,0.4l1.1-7L-5.4,35.9z M-9.8,35l-2.6,7.5L-17,41l0.3-0.8l3.7,1.3l0.9-2.5l-3.4-1.2l0.3-0.8l3.4,1.2l0.9-2.6l-3.8-1.3l0.3-0.8
			L-9.8,35z M-20.7,36.1l-0.3,0.5l-0.8-0.5l-0.6-0.5l-0.1,0.1l0.3,0.8l0.2,1l-0.6,0.1l-0.2-0.9l-0.2-1h-0.1l-0.3,0.7l-0.6,0.8
			l-0.5-0.3l0.5-0.8l0.5-0.6l-0.1-0.1l-0.8,0.3l-0.8,0.1l-0.1-0.6l1-0.2l0.8-0.1v-0.1l-0.7-0.3L-25,34l0.3-0.5l0.8,0.5l0.6,0.5
			l0.1-0.1l-0.3-0.8l-0.2-0.9l0.6-0.1l0.2,0.9l0.1,0.8h0.1l0.3-0.7l0.5-0.8l0.5,0.3l-0.5,0.8l-0.5,0.6l0.1,0.1l0.8-0.3l0.9-0.2
			l0.1,0.6l-0.9,0.2l-0.8,0.1v0.1l0.7,0.4L-20.7,36.1z M-26.9,24.1c0.6,0.7,0.9,1.5,0.9,2.2c0,0.8-0.4,1.5-1.2,2.2l-1.4,1.2
			c-0.8,0.7-1.6,1-2.4,1s-1.5-0.4-2.1-1.1s-0.9-1.5-0.9-2.2c0-0.8,0.4-1.5,1.2-2.2l1.4-1.2c0.8-0.7,1.6-1,2.4-1
			C-28.3,23-27.6,23.4-26.9,24.1z M-27.5,24.7c-0.5-0.5-1-0.8-1.5-0.8s-1.1,0.2-1.7,0.7l-1.4,1.3c-0.5,0.5-0.8,1-0.9,1.6
			c-0.1,0.6,0.2,1.1,0.6,1.6c0.5,0.5,1,0.8,1.5,0.8s1.1-0.2,1.7-0.7l1.4-1.3c0.5-0.5,0.8-1,0.9-1.6S-27.1,25.2-27.5,24.7z M-26,22.7
			c0.2,0.2,0.3,0.4,0.3,0.7c0,0.2-0.1,0.5-0.3,0.7l-0.7,0.6l-0.6-0.7l0.5-0.5c0.2-0.2,0.2-0.3,0-0.5l-0.5-0.6l0.6-0.5L-26,22.7z
			M-31.2,18.3c0.3,0.5,0.5,1,0.5,1.5s-0.1,0.9-0.3,1.4c-0.2,0.4-0.6,0.8-1.2,1.1l-4.6,2.7l-0.5-0.8l4.6-2.7c0.6-0.3,0.9-0.7,1-1.2
			s0-1-0.3-1.5c-0.3-0.5-0.7-0.9-1.2-1s-1,0-1.5,0.3l-4.6,2.7l-0.5-0.8l4.6-2.7c0.5-0.3,1-0.5,1.5-0.5s0.9,0.1,1.3,0.4
			C-31.9,17.4-31.5,17.8-31.2,18.3z M-34.3,11.7c0.3,0.9,0.3,1.7,0,2.4c-0.3,0.7-1,1.2-2,1.6l-1.7,0.6c-1,0.3-1.9,0.3-2.6,0
			s-1.2-1-1.5-1.9c-0.3-0.9-0.3-1.7,0-2.4c0.3-0.7,1-1.2,2-1.6l1.7-0.6c1-0.3,1.9-0.3,2.6,0S-34.6,10.8-34.3,11.7z M-35.1,12
			c-0.2-0.7-0.6-1.1-1.1-1.3s-1.1-0.2-1.8,0l-1.8,0.6c-0.7,0.2-1.2,0.6-1.4,1.1c-0.3,0.5-0.3,1.1-0.1,1.7c0.2,0.6,0.6,1.1,1.1,1.3
			s1.1,0.2,1.8,0l1.8-0.6c0.7-0.2,1.2-0.6,1.4-1.1C-34.9,13.2-34.9,12.6-35.1,12z M-36,5.8l-7,1.1l0.4,2.5l-0.9,0.1l-0.9-6l0.9-0.1
			l0.4,2.5l7-1.1L-36,5.8z M-36.5,1.4l-8-0.2l0.1-4.9h0.9l-0.1,4l2.7,0.1l0.1-3.6h0.9L-40,0.3l2.7,0.1l0.1-4h0.9L-36.5,1.4z
			M-40.9-8.7l-0.6-0.2l0.3-0.9l0.3-0.7l-0.1-0.1l-0.6,0.5l-0.8,0.5l-0.4-0.6l0.8-0.5l0.7-0.3v-0.1l-0.7-0.1l-1-0.3l0.2-0.6l0.9,0.3
			l0.7,0.3l0.1-0.1l-0.4-0.6l-0.5-0.9l0.5-0.3l0.5,0.8l0.3,0.7h0.1l0.1-0.8l0.3-0.9l0.6,0.2l-0.3,0.9l-0.3,0.7l0.1,0.1l0.6-0.5
			l0.8-0.5l0.3,0.5l-0.8,0.5l-0.7,0.3v0.1l0.8,0.1l0.9,0.3l-0.1,0.7l-0.9-0.3l-0.8-0.3l-0.1,0.1l0.5,0.6l0.5,0.8L-39.6-9l-0.5-0.8
			l-0.3-0.7h-0.1l-0.1,0.8L-40.9-8.7z M-31.5-18.3c-0.5,0.8-1.1,1.3-1.9,1.6c-0.8,0.2-1.6,0.1-2.5-0.5l-1.6-0.9
			c-0.9-0.5-1.5-1.2-1.7-1.9c-0.2-0.8-0.1-1.6,0.4-2.4s1.1-1.4,1.9-1.6c0.8-0.2,1.6-0.1,2.5,0.5l1.6,0.9c0.9,0.5,1.5,1.2,1.7,1.9
			S-31-19.1-31.5-18.3z M-32.2-18.7c0.3-0.6,0.4-1.2,0.3-1.7c-0.2-0.5-0.6-1-1.2-1.4l-1.6-0.9c-0.6-0.4-1.2-0.5-1.8-0.4
			c-0.5,0.1-1,0.5-1.3,1.1c-0.3,0.6-0.4,1.2-0.3,1.7c0.2,0.5,0.6,1,1.2,1.4l1.6,0.9c0.6,0.4,1.2,0.5,1.8,0.4
			C-33-17.8-32.6-18.1-32.2-18.7z M-29.8-17.8c-0.1,0.2-0.3,0.4-0.6,0.5c-0.2,0.1-0.5,0-0.7-0.1l-0.8-0.4l0.5-0.8l0.6,0.4
			c0.2,0.1,0.3,0.1,0.5-0.1l0.4-0.7l0.7,0.4L-29.8-17.8z M-27.2-24.2c-0.4,0.4-0.8,0.8-1.3,1s-0.9,0.2-1.4,0.1s-0.9-0.3-1.4-0.8
			l-4-3.5l0.6-0.7l4,3.5c0.5,0.4,1,0.6,1.4,0.6c0.5,0,0.9-0.3,1.3-0.8s0.6-0.9,0.6-1.4s-0.3-0.9-0.8-1.4l-4-3.5l0.6-0.7l4,3.5
			c0.5,0.4,0.8,0.8,0.9,1.3s0.2,0.9,0,1.4C-26.6-25.1-26.8-24.6-27.2-24.2z M-21.9-29.1c-0.8,0.6-1.5,0.8-2.3,0.7
			c-0.8-0.1-1.5-0.6-2.1-1.4l-1.1-1.5c-0.6-0.8-0.9-1.7-0.8-2.4c0.1-0.8,0.6-1.5,1.3-2c0.8-0.6,1.5-0.8,2.3-0.7s1.5,0.6,2.1,1.4
			l1.1,1.5c0.6,0.8,0.9,1.7,0.8,2.4S-21.1-29.7-21.9-29.1z M-22.4-29.8c0.6-0.4,0.9-0.9,0.9-1.5c0.1-0.6-0.1-1.1-0.6-1.7l-1.1-1.5
			c-0.4-0.6-0.9-0.9-1.5-1s-1.1,0.1-1.7,0.5c-0.5,0.4-0.8,0.9-0.9,1.5s0.1,1.1,0.6,1.7l1.1,1.5c0.4,0.6,0.9,0.9,1.5,1
			C-23.5-29.3-23-29.4-22.4-29.8z M-16.8-32.5l-3.2-6.3l-2.3,1.2l-0.4-0.8l5.4-2.7l0.4,0.8l-2.3,1.2l3.2,6.3L-16.8-32.5z M-12.8-34.4
			l-2.3-7.6l4.7-1.4l0.3,0.8l-3.8,1.1l0.8,2.6l3.5-1.1l0.3,0.8l-3.5,1.1l0.8,2.6l3.8-1.2l0.3,0.8L-12.8-34.4z M-4.6-41.7v-0.6h1
			l0.8,0.1l0.1-0.1l-0.7-0.4l-0.7-0.7l0.4-0.4l0.7,0.6l0.5,0.6l0.1-0.1l-0.1-0.8v-1h0.6v1L-2-42.8l0.1,0.1l0.5-0.7l0.6-0.7l0.5,0.4
			L-0.9-43l-0.6,0.5l0.1,0.1l0.8-0.1h1v0.6h-1L-1.4-42l-0.1,0.1l0.7,0.5l0.7,0.6l-0.4,0.5l-0.7-0.6l-0.5-0.6l-0.1,0.1l0.1,0.8v1h-0.6
			v-1l0.1-0.8l-0.1-0.1l-0.5,0.7L-3.4-40L-4-40.5l0.6-0.7l0.6-0.5l-0.1-0.1l-0.8,0.1H-4.6z"/>
	</g>
</svg>
