<?xml version="1.0" encoding="utf-8"?>
<!-- Generator: Adobe Illustrator 27.0.1, SVG Export Plug-In . SVG Version: 6.00 Build 0)  -->
<svg version="1.1" id="Layer_1" xmlns="http://www.w3.org/2000/svg" xmlns:xlink="http://www.w3.org/1999/xlink" x="0px" y="0px"
	 width="160px" height="160px" viewBox="0 0 160 160" style="enable-background:new 0 0 160 160;" xml:space="preserve">
<style type="text/css">
	.st0{fill:#FFFFFF;}
</style>
<path class="st0" d="M80,2c43,0,78,35,78,78s-35,78-78,78S2,123,2,80S37,2,80,2 M80,0C35.8,0,0,35.8,0,80s35.8,80,80,80
	s80-35.8,80-80S124.2,0,80,0L80,0z"/>
<path class="st0" d="M87.1,22.9l2-10.5l2.4,0.5l1.8,10.4l0.2,0l1.9-9.7l1.2,0.2l-2,10.5l-2.4-0.5l-1.8-10.4l-0.2,0l-1.9,9.7
	L87.1,22.9z M100.4,26.5c-1.2-0.5-2-1.2-2.5-2.1c-0.4-1-0.4-2.1,0.1-3.4l0.9-2.3c0.5-1.3,1.2-2.2,2.2-2.6c1-0.4,2.1-0.4,3.2,0.1
	c1.2,0.5,2,1.2,2.5,2.1c0.4,1,0.4,2.1-0.1,3.4l-0.9,2.3c-0.5,1.3-1.2,2.2-2.2,2.6C102.7,27,101.6,27,100.4,26.5z M100.8,25.5
	c0.9,0.3,1.6,0.3,2.3,0s1.2-1,1.5-1.9l0.9-2.4c0.4-0.9,0.4-1.7,0.1-2.4c-0.3-0.7-0.9-1.2-1.7-1.5c-0.9-0.3-1.6-0.3-2.3,0
	s-1.2,1-1.5,1.9l-0.9,2.4c-0.4,0.9-0.4,1.7-0.1,2.4C99.4,24.6,99.9,25.1,100.8,25.5z M108,29.8l4.8-8.3l-3-1.7l0.6-1l7.1,4.1l-0.6,1
	l-3-1.7l-4.8,8.3L108,29.8z M113.3,33.2l6.3-8.7l1,0.8l-6.3,8.7L113.3,33.2z M116.3,35.4l7.2-8l4.8,4.3l-0.8,0.9l-3.9-3.5l-2.4,2.7
	l3.5,3.2l-0.8,0.9l-3.5-3.2l-3.2,3.6L116.3,35.4z M124,43.1l3.2-2.6l2.7-7.2l0.9,1.1l-2.1,5.5l0.1,0.2l5.8-1l0.9,1.1l-7.5,1.3
	l-3.2,2.6L124,43.1z M129.9,51.1l9.7-4.5l1,2.2l-7.8,6.7l0.1,0.2l10.2-1.5l1,2.2l-9.7,4.5l-0.5-1.1l9-4.1l-0.1-0.2l-10.1,1.5l-0.9-2
	l7.8-6.7l-0.1-0.2l-9,4.1L129.9,51.1z M135,63.1l10.4-2.6l1.6,6.4l-1.1,0.3l-1.3-5.2l-3.5,0.9l1.2,4.7l-1.1,0.3l-1.2-4.7l-3.5,0.9
	l1.3,5.2l-1.1,0.3L135,63.1z M144.3,74.6l0.8,0l0,1.3l-0.1,1.1l0.2,0.1l0.6-0.9l0.9-0.9l0.6,0.6l-0.9,0.9l-0.8,0.7l0.1,0.2l1-0.2
	l1.3,0l0,0.8l-1.3,0l-1.1-0.1l-0.1,0.2l0.9,0.6l0.9,0.9l-0.5,0.6l-1-0.9l-0.7-0.8l-0.2,0.1l0.2,1.1l0,1.3l-0.8,0l0-1.3l0.1-1.1
	l-0.2-0.1l-0.6,0.9l-0.9,0.9l-0.6-0.6l0.9-0.9l0.8-0.7l-0.1-0.2l-1.1,0.2l-1.3,0l0-0.8l1.3,0l1.1,0.1l0.1-0.2l-0.9-0.6l-0.9-0.9
	l0.6-0.6l0.9,0.9l0.7,0.8l0.2-0.1l-0.2-1.1L144.3,74.6z M137.1,87l10.5,2l-0.5,2.4l-10.4,1.8l0,0.2l9.7,1.9l-0.2,1.2l-10.5-2
	l0.5-2.4l10.4-1.8l0-0.2l-9.7-1.9L137.1,87z M133.5,100.3c0.5-1.2,1.2-2,2.1-2.5c1-0.4,2.1-0.4,3.4,0.1l2.3,0.9
	c1.3,0.5,2.2,1.2,2.6,2.2c0.4,1,0.4,2.1,0,3.2c-0.5,1.2-1.2,2-2.1,2.5c-1,0.4-2.1,0.4-3.4-0.1l-2.3-0.9c-1.3-0.5-2.2-1.2-2.6-2.2
	C133,102.6,133,101.5,133.5,100.3z M134.6,100.7c-0.3,0.9-0.3,1.6,0,2.3c0.3,0.7,1,1.2,1.9,1.5l2.4,0.9c0.9,0.4,1.7,0.4,2.4,0.1
	c0.7-0.3,1.2-0.9,1.5-1.7c0.3-0.9,0.3-1.6,0-2.3c-0.3-0.7-1-1.2-1.9-1.5l-2.4-0.9c-0.9-0.4-1.7-0.4-2.4-0.1S134.9,99.9,134.6,100.7z
	 M130.2,107.9l8.3,4.7l1.7-3l1,0.6l-4.1,7.1l-1-0.6l1.7-3l-8.3-4.7L130.2,107.9z M126.8,113.2l8.7,6.3l-0.8,1l-8.7-6.3L126.8,113.2z
	 M124.6,116.2l8,7.2l-4.3,4.8l-0.9-0.8l3.5-3.9l-2.7-2.4l-3.2,3.5l-0.9-0.8l3.2-3.5l-3.6-3.2L124.6,116.2z M117,123.9l2.6,3.2
	l7.2,2.7l-1.1,0.9l-5.5-2.1l-0.2,0.1l1,5.8l-1.1,0.9l-1.3-7.5l-2.6-3.2L117,123.9z M108.9,129.9l4.5,9.7l-2.2,1l-6.7-7.8l-0.2,0.1
	l1.6,10.2l-2.2,1l-4.5-9.7l1.1-0.5l4.1,9l0.2-0.1l-1.6-10.1l2-0.9l6.7,7.8l0.2-0.1l-4.1-9L108.9,129.9z M97,134.9l2.6,10.4l-6.4,1.6
	l-0.3-1.1l5.2-1.3l-0.9-3.5l-4.7,1.2l-0.3-1.1l4.7-1.2l-0.9-3.5l-5.2,1.3l-0.3-1.1L97,134.9z M85.5,144.3l0,0.8l-1.3,0l-1.1-0.1
	l-0.1,0.2l0.9,0.6l1,0.9l-0.6,0.6l-0.9-0.9l-0.7-0.8l-0.2,0.1l0.2,1.1l0,1.3l-0.8,0l0-1.3l0.1-1.1l-0.2-0.1l-0.6,0.9l-0.9,0.9
	l-0.6-0.5l0.9-1l0.8-0.7l-0.1-0.2l-1,0.2l-1.3,0l0-0.8l1.3,0l1.1,0.1l0.1-0.2l-0.9-0.6l-0.9-0.9l0.6-0.6l1,0.9l0.7,0.8l0.2-0.1
	l-0.2-1l0-1.3l0.8,0l0,1.3l-0.1,1.1l0.2,0.1l0.6-0.9l0.9-1l0.6,0.6l-0.9,0.9l-0.8,0.7l0.1,0.1l1.1-0.2L85.5,144.3z M73,137.1
	l-2,10.5l-2.5-0.5l-1.8-10.4l-0.2,0l-1.8,9.7l-1.2-0.2l2-10.5l2.5,0.5l1.8,10.4l0.2,0l1.8-9.7L73,137.1z M59.8,133.5
	c1.2,0.5,2,1.2,2.5,2.1c0.4,1,0.4,2.1-0.1,3.4l-0.9,2.3c-0.5,1.3-1.2,2.2-2.2,2.6c-1,0.4-2.1,0.4-3.2,0c-1.2-0.5-2-1.2-2.5-2.1
	c-0.4-1-0.4-2.1,0.1-3.4l0.9-2.3c0.5-1.3,1.2-2.2,2.2-2.6C57.5,133,58.6,133.1,59.8,133.5z M59.4,134.6c-0.9-0.3-1.6-0.3-2.3,0
	c-0.7,0.3-1.2,1-1.5,1.9l-0.9,2.4c-0.3,0.9-0.4,1.7-0.1,2.4s0.9,1.2,1.7,1.5c0.9,0.3,1.6,0.3,2.3,0s1.2-1,1.5-1.9l0.9-2.4
	c0.3-0.9,0.4-1.7,0.1-2.4C60.8,135.4,60.2,134.9,59.4,134.6z M52.1,130.2l-4.7,8.3l3,1.7l-0.6,1l-7.1-4.1l0.6-1l3,1.7l4.7-8.3
	L52.1,130.2z M46.8,126.9l-6.3,8.7l-1-0.8l6.3-8.7L46.8,126.9z M43.8,124.7l-7.2,8l-4.8-4.3l0.8-0.9l3.9,3.5l2.4-2.7l-3.6-3.2
	l0.8-0.9l3.6,3.2l3.2-3.6L43.8,124.7z M36.1,117l-3.1,2.6l-2.7,7.2l-0.9-1.1l2.1-5.5l-0.1-0.2l-5.8,1.1l-0.9-1.1l7.5-1.3l3.1-2.6
	L36.1,117z M30.1,109l-9.7,4.5l-1-2.2l7.8-6.7l-0.1-0.2l-10.2,1.6l-1-2.2l9.7-4.5l0.5,1.1l-9,4.1l0.1,0.2l10.1-1.6l0.9,2l-7.8,6.7
	l0.1,0.2l9-4.1L30.1,109z M25.1,97l-10.4,2.6l-1.6-6.4l1.1-0.3l1.3,5.1l3.5-0.9l-1.2-4.7l1.1-0.3l1.2,4.7l3.5-0.9l-1.3-5.2l1.1-0.3
	L25.1,97z M15.7,85.6l-0.8,0l0-1.3l0.1-1.1l-0.2-0.1l-0.6,0.9l-0.9,1l-0.6-0.6l0.9-1l0.8-0.7l-0.1-0.2l-1,0.2l-1.3,0l0-0.8l1.3,0
	l1.1,0.1l0.1-0.2l-0.9-0.6l-1-0.9l0.5-0.6l1,0.9l0.7,0.8l0.2-0.1l-0.2-1l0-1.3l0.8,0l0,1.3l-0.1,1.1l0.2,0.1l0.6-0.9l0.9-1l0.6,0.6
	l-0.9,0.9L16,81.9l0.1,0.2l1-0.2l1.3,0l0,0.8l-1.3,0l-1.1-0.1L16,82.8l0.9,0.6l0.9,0.9l-0.6,0.6l-1-0.9l-0.7-0.8l-0.2,0.1l0.2,1.1
	L15.7,85.6z M22.9,73.1l-10.5-2l0.5-2.5l10.4-1.8l0-0.2l-9.7-1.8l0.2-1.2l10.5,2L23.8,68l-10.4,1.8l0,0.2l9.7,1.8L22.9,73.1z
	 M26.5,59.8c-0.5,1.2-1.2,2-2.1,2.5s-2.1,0.4-3.4-0.1l-2.3-0.9c-1.3-0.5-2.2-1.2-2.6-2.2c-0.4-1-0.4-2.1,0-3.2
	c0.5-1.2,1.2-2,2.1-2.5c1-0.4,2.1-0.4,3.4,0.1l2.3,0.9c1.3,0.5,2.2,1.2,2.6,2.2C26.9,57.5,26.9,58.6,26.5,59.8z M25.4,59.4
	c0.3-0.9,0.3-1.6,0-2.3c-0.3-0.7-1-1.2-1.9-1.5l-2.4-0.9c-0.9-0.3-1.7-0.4-2.4-0.1s-1.2,0.9-1.5,1.7c-0.3,0.9-0.3,1.6,0,2.3
	c0.3,0.7,1,1.2,1.9,1.5l2.4,0.9c0.9,0.3,1.7,0.4,2.4,0.1S25.1,60.3,25.4,59.4z M29.7,52.2l-8.3-4.7l-1.7,3l-1-0.6l4-7.1l1,0.6
	l-1.7,3l8.3,4.7L29.7,52.2z M33.1,46.9l-8.7-6.3l0.8-1l8.7,6.3L33.1,46.9z M35.3,43.9l-8-7.1l4.3-4.8l0.9,0.8L29,36.6l2.7,2.4
	l3.2-3.6l0.9,0.8l-3.2,3.6l3.6,3.2L35.3,43.9z M42.9,36.2L40.3,33l-7.2-2.7l1.1-0.9l5.5,2.1l0.2-0.1l-1.1-5.8l1.1-0.9l1.3,7.5
	l2.6,3.1L42.9,36.2z M51,30.2l-4.5-9.7l2.2-1l6.7,7.8l0.2-0.1L54,16.9l2.2-1l4.5,9.7l-1.1,0.5l-4.2-9l-0.2,0.1l1.6,10.1l-2,0.9
	l-6.7-7.8l-0.2,0.1l4.2,9L51,30.2z M62.9,25.1l-2.6-10.4l6.4-1.6l0.3,1.1l-5.1,1.3l0.9,3.5l4.7-1.2l0.3,1.1L63,20.1l0.9,3.5l5.2-1.3
	l0.3,1.1L62.9,25.1z M74.3,15.7l0-0.8l1.3,0l1.1,0.1l0.1-0.2l-0.9-0.6l-1-0.9l0.6-0.6l1,0.9l0.7,0.8l0.2-0.1l-0.2-1l0-1.3l0.8,0
	l0,1.3l-0.1,1.1l0.2,0.1l0.6-0.9l0.9-1l0.6,0.5l-0.9,1l-0.8,0.7l0.1,0.2l1-0.2l1.3,0l0,0.8l-1.3,0l-1.1-0.1l-0.1,0.2l0.9,0.6l1,0.9
	l-0.6,0.6l-1-0.9L78,16l-0.2,0.1l0.2,1l0,1.3l-0.8,0l0-1.3l0.1-1.1L77.1,16l-0.6,0.9l-0.9,1L75,17.3l0.9-1l0.8-0.7l-0.1-0.2
	l-1.1,0.2L74.3,15.7z"/>
<path class="st0" d="M102,60.3l-5.7,37.4c-0.2,0.9-0.7,1.6-1.4,2.1c-0.8,0.4-1.7,0.4-2.5,0.1l-10.8-4.4l-6.1,6.6
	c-1,0.9-2,1.1-3.2,0.7c-1.1-0.5-1.7-1.4-1.8-2.7v-7.5c0-0.4,0.1-0.7,0.4-0.9l15.1-16.4c0.5-0.7,0.4-1.3-0.1-2
	c-0.6-0.5-1.3-0.6-2-0.1L65.5,89.4l-7.9-4c-1-0.5-1.6-1.4-1.6-2.5c0-1.1,0.5-2,1.4-2.6l40.2-23c1.1-0.5,2.1-0.5,3.1,0.2
	C101.7,58.2,102.1,59.1,102,60.3z"/>
</svg>
