<svg id="showreel-object" xmlns="http://www.w3.org/2000/svg" xmlns:xlink="http://www.w3.org/1999/xlink" 
	shape-rendering="geometricPrecision" text-rendering="geometricPrecision" width="160px" height="160px" viewBox="0 0 160 160" 
	style="enable-background:new 0 0 160 160;" xml:space="preserve">

	<style type="text/css">
		#rotation-group {
				animation: rotateInfinite 9000ms linear infinite normal forwards
			}
			@keyframes rotateInfinite {
				0% {
					transform: translate(80px,80px) rotate(0deg);
					}
				100% {
					transform: translate(80px,80px) rotate(360deg);
					}
			}
	</style>

	<path fill="#FFFFFF" d="M80,0C35.8,0,0,35.8,0,80s35.8,80,80,80s80-35.8,80-80S124.2,0,80,0L80,0z"/>
	<path fill="#807DF2" d="M66.2,58.7c0.3-1.8,1.4-2.8,3.3-3h17.8c0.8,0,1.4,0.3,2,0.8c0.6,0.6,0.8,1.2,0.8,2c0,0.4-0.1,0.7-0.2,1.1
		l-4.9,13h14.7c1.1,0,2,0.4,2.7,1.2c0.8,0.7,1.2,1.6,1.2,2.7c0,0.8-0.2,1.5-0.6,2.1l-20.4,29.6c-0.6,1-1.5,1.5-2.6,1.5h-0.3
		c-0.8,0-1.6-0.3-2.2-0.8c-0.6-0.6-0.8-1.3-0.8-2.1c0-0.3,0-0.5,0.1-0.7l5-19.9H66.5c-1,0-1.8-0.3-2.4-0.9s-0.9-1.4-0.9-2.4
		L66.2,58.7z"/>

	<g id="rotation-group" transform="translate(80,80) rotate(360)">
		<path fill="#212121" transform="translate(-80,-80)" d="M90.8,23.8c-0.7-0.1-1.4-0.4-1.9-0.8c-0.5-0.4-0.9-0.9-1.2-1.5c-0.2-0.6-0.3-1.3-0.1-2.1l0.1-0.3l1.2,0.2
			l-0.1,0.3c-0.2,0.9,0,1.5,0.4,2.1c0.4,0.5,1,0.8,1.8,1c0.8,0.2,1.5,0.1,1.9-0.2c0.5-0.3,0.8-0.7,0.9-1.3c0.1-0.4,0-0.7-0.1-1
			c-0.1-0.3-0.4-0.5-0.7-0.7c-0.3-0.2-0.7-0.4-1.1-0.6l-0.7-0.3c-0.6-0.3-1.1-0.6-1.5-0.9s-0.7-0.7-0.9-1.1c-0.2-0.4-0.2-0.9-0.1-1.5
			c0.1-0.6,0.3-1.1,0.7-1.4c0.4-0.4,0.8-0.6,1.4-0.7s1.2-0.1,1.9,0c0.7,0.1,1.3,0.4,1.8,0.7c0.5,0.3,0.9,0.8,1.1,1.3s0.3,1.1,0.1,1.9
			l-0.1,0.6l-1.2-0.2l0.1-0.6c0.1-0.5,0.1-0.9-0.1-1.3c-0.2-0.3-0.4-0.6-0.7-0.8s-0.7-0.4-1.2-0.5c-0.7-0.1-1.3-0.1-1.7,0.1
			c-0.5,0.2-0.8,0.6-0.9,1.2c-0.1,0.4,0,0.7,0.1,0.9c0.1,0.3,0.4,0.5,0.6,0.7c0.3,0.2,0.7,0.4,1.1,0.6l0.7,0.3
			c0.6,0.2,1.1,0.5,1.5,0.8c0.4,0.3,0.8,0.7,1,1.1c0.2,0.4,0.3,1,0.1,1.6c-0.1,0.6-0.4,1.1-0.8,1.5c-0.4,0.4-0.9,0.7-1.5,0.8
			S91.5,23.9,90.8,23.8z M96.2,24.8l3.6-9.9l1.2,0.4l-1.6,4.4l4.6,1.7l1.6-4.4l1.2,0.4l-3.6,9.9l-1.2-0.4l1.6-4.4L99,20.8l-1.6,4.4
			L96.2,24.8z M108.4,30.3c-1.1-0.6-1.8-1.4-2.1-2.4c-0.3-1-0.1-2.1,0.6-3.3l1.2-2.1c0.7-1.2,1.5-1.9,2.5-2.2c1-0.3,2.1-0.1,3.1,0.5
			c1.1,0.6,1.8,1.4,2.1,2.4c0.3,1,0.1,2.1-0.6,3.3l-1.2,2.1c-0.7,1.2-1.5,1.9-2.5,2.2C110.5,31.1,109.4,30.9,108.4,30.3z M108.9,29.3
			c0.8,0.5,1.5,0.6,2.2,0.3c0.7-0.2,1.3-0.8,1.8-1.6l1.2-2.2c0.5-0.8,0.6-1.6,0.5-2.3c-0.2-0.7-0.6-1.3-1.4-1.8
			c-0.8-0.4-1.5-0.6-2.2-0.3c-0.7,0.2-1.3,0.8-1.8,1.6l-1.2,2.2c-0.5,0.8-0.6,1.6-0.5,2.3C107.7,28.3,108.1,28.9,108.9,29.3z
			M114.3,33.8l5.6-9.1l1,0.8l-5.2,8.3l0.2,0.1l7.8-6.1l1.7,1.5l-4.9,8.6l0.2,0.1l7.5-6.4l1,0.8l-8.2,6.8l-1.7-1.5l4.9-8.6l-0.2-0.1
			l-7.8,6.1L114.3,33.8z M123,41.7l8.3-6.5l2.6,3.3c0.4,0.5,0.7,1,0.8,1.6c0.1,0.5,0.1,1,0,1.5c-0.2,0.5-0.5,0.9-0.9,1.3l-0.1,0.1
			c-0.5,0.4-1.1,0.6-1.6,0.6c-0.5,0-1-0.2-1.4-0.4l-0.2,0.1c0.2,0.3,0.3,0.6,0.3,0.9c0,0.3-0.2,0.6-0.6,0.9l-2.8,2.2l-0.8-1l2.7-2.1
			c0.2-0.2,0.4-0.4,0.4-0.6s-0.1-0.5-0.3-0.7l-2.2-2.9l-3.4,2.7L123,41.7z M128,39.4l1.8,2.3c0.4,0.5,0.9,0.9,1.4,0.9s1-0.1,1.5-0.4
			l0.1-0.1c0.5-0.4,0.7-0.8,0.8-1.3s-0.2-1-0.6-1.6l-1.8-2.3L128,39.4z M128.5,49.2l9.1-5.2l3.2,5.6l-1,0.6l-2.6-4.5l-3.1,1.7l2.4,4.2
			l-1,0.6l-2.4-4.2l-3.1,1.8l2.6,4.6l-1,0.6L128.5,49.2z M132.5,56.5l9.8-3.8l2.3,6l-1.1,0.4l-1.9-4.9l-3.3,1.3l1.7,4.5l-1.1,0.4
			l-1.7-4.5l-3.3,1.3l1.9,4.9l-1.1,0.4L132.5,56.5z M135.3,64.3l10.2-2.4l0.3,1.2l-9.1,2.1l1.2,5.2l-1.1,0.3L135.3,64.3z M144.2,74.9
			l0.8,0l0,1.3l-0.1,1l0.2,0.1l0.6-0.9l0.9-0.9l0.6,0.6l-0.9,0.9l-0.8,0.7l0.1,0.2l1-0.2l1.3,0l0,0.8l-1.3,0l-1-0.1l-0.1,0.2l0.8,0.6
			l0.9,0.9l-0.5,0.6l-0.9-0.9l-0.7-0.8L145,79l0.2,1l0,1.3l-0.8,0l0-1.3l0.1-1l-0.2-0.1l-0.6,0.9l-0.9,0.9l-0.6-0.6l0.9-0.9l0.8-0.7
			l-0.1-0.2l-1,0.2l-1.3,0l0-0.8l1.3,0l1,0.1l0.1-0.2l-0.9-0.6l-0.9-0.9l0.6-0.6l0.9,0.9l0.7,0.8l0.1-0.1l-0.1-1L144.2,74.9z
			M136.2,90.5c0.1-0.7,0.4-1.4,0.8-1.9c0.4-0.5,0.9-0.9,1.5-1.2c0.6-0.2,1.3-0.3,2.1-0.1l0.3,0.1l-0.2,1.2l-0.3-0.1
			c-0.9-0.2-1.5,0-2,0.4c-0.5,0.4-0.8,1-1,1.8c-0.1,0.8-0.1,1.5,0.2,1.9c0.3,0.5,0.7,0.8,1.3,0.9c0.4,0.1,0.7,0,1-0.1s0.5-0.4,0.7-0.7
			s0.4-0.7,0.6-1.1l0.3-0.7c0.3-0.6,0.6-1.1,0.9-1.5s0.7-0.7,1.1-0.9c0.4-0.2,0.9-0.2,1.5-0.1c0.6,0.1,1.1,0.3,1.4,0.7
			s0.6,0.8,0.7,1.4c0.1,0.6,0.1,1.2,0,1.9c-0.1,0.7-0.4,1.3-0.7,1.8c-0.3,0.5-0.8,0.9-1.3,1.1s-1.1,0.3-1.9,0.2l-0.6-0.1l0.2-1.2
			l0.6,0.1c0.5,0.1,0.9,0.1,1.3-0.1s0.6-0.4,0.8-0.7c0.2-0.3,0.4-0.7,0.5-1.2c0.1-0.7,0.1-1.3-0.1-1.7c-0.2-0.5-0.6-0.8-1.2-0.9
			c-0.4-0.1-0.7,0-0.9,0.1c-0.3,0.1-0.5,0.4-0.7,0.7c-0.2,0.3-0.4,0.7-0.6,1.1l-0.3,0.7c-0.2,0.6-0.5,1.1-0.8,1.5
			c-0.3,0.4-0.7,0.8-1.1,1c-0.4,0.2-1,0.3-1.6,0.2s-1.1-0.4-1.5-0.8c-0.4-0.4-0.7-0.9-0.8-1.5C136.1,92,136.1,91.3,136.2,90.5z
			M135.3,96l9.9,3.6l-0.4,1.2l-4.4-1.6l-1.7,4.6l4.4,1.6l-0.4,1.2l-9.9-3.6l0.4-1.2l4.4,1.6l1.7-4.6l-4.4-1.6L135.3,96z M129.8,108.1
			c0.6-1.1,1.4-1.8,2.4-2.1s2.1-0.1,3.3,0.6l2.1,1.2c1.2,0.7,1.9,1.5,2.2,2.5s0.1,2.1-0.5,3.1c-0.6,1.1-1.4,1.8-2.4,2.1
			s-2.1,0.1-3.3-0.6l-2.1-1.2c-1.2-0.7-1.9-1.5-2.2-2.5S129.2,109.2,129.8,108.1z M130.8,108.7c-0.4,0.8-0.6,1.5-0.3,2.2
			c0.2,0.7,0.8,1.3,1.6,1.8l2.2,1.2c0.8,0.5,1.6,0.6,2.3,0.5c0.7-0.2,1.3-0.6,1.8-1.4c0.4-0.8,0.6-1.5,0.3-2.2
			c-0.2-0.7-0.8-1.3-1.6-1.8l-2.2-1.2c-0.8-0.5-1.6-0.6-2.3-0.5S131.2,107.9,130.8,108.7z M126.4,114.1l9.1,5.5l-0.8,1l-8.3-5.2
			l-0.1,0.2l6.1,7.8l-1.5,1.7l-8.6-4.9l-0.1,0.2l6.4,7.4l-0.8,1l-6.9-8.1l1.5-1.7l8.7,4.9l0.1-0.2l-6.1-7.8L126.4,114.1z M118.4,122.8
			l6.5,8.2l-3.3,2.6c-0.5,0.4-1,0.7-1.6,0.8c-0.5,0.1-1,0.1-1.5,0c-0.5-0.2-0.9-0.5-1.3-0.9l-0.1-0.1c-0.4-0.5-0.6-1.1-0.6-1.6
			s0.1-1,0.4-1.4l-0.1-0.2c-0.3,0.2-0.6,0.3-0.9,0.3c-0.3,0-0.6-0.2-0.9-0.6l-2.2-2.8l1-0.8l2.1,2.6c0.2,0.2,0.4,0.4,0.6,0.4
			s0.5-0.1,0.7-0.3l2.8-2.3l-2.7-3.4L118.4,122.8z M120.8,127.9l-2.2,1.8c-0.5,0.4-0.9,0.9-0.9,1.4c-0.1,0.5,0.1,1,0.4,1.4l0.1,0.1
			c0.4,0.5,0.8,0.7,1.3,0.8c0.5,0,1-0.2,1.6-0.6l2.2-1.8L120.8,127.9z M111,128.4l5.2,9.1l-5.6,3.2l-0.6-1l4.5-2.6l-1.7-3l-4.2,2.4
			l-0.6-1l4.2-2.4l-1.8-3.1l-4.6,2.6l-0.6-1L111,128.4z M103.7,132.4l3.8,9.8l-6,2.4l-0.4-1.1l4.8-1.9l-1.3-3.3l-4.5,1.7l-0.4-1.1
			l4.5-1.7l-1.3-3.3l-4.9,1.9l-0.4-1.1L103.7,132.4z M96,135.2l2.4,10.2l-1.2,0.3l-2.1-9.1l-5.2,1.2l-0.3-1.1L96,135.2z M85.3,144.2
			l0,0.8l-1.3,0l-1-0.1l-0.1,0.2l0.9,0.6l0.9,0.9l-0.6,0.6l-0.9-0.9l-0.7-0.8l-0.2,0.1l0.2,1l0,1.3l-0.8,0l0-1.3l0.1-1l-0.2-0.1
			l-0.6,0.8l-0.9,0.9l-0.6-0.5l0.9-0.9l0.8-0.7l-0.1-0.2l-1,0.2l-1.3,0l0-0.8l1.3,0l1,0.1l0.1-0.2l-0.9-0.6l-0.9-0.9l0.6-0.6l0.9,0.9
			l0.7,0.8l0.2-0.1l-0.2-1l0-1.3l0.8,0l0,1.3l-0.1,1l0.2,0.1l0.6-0.9l0.9-0.9l0.6,0.6l-0.9,0.9l-0.8,0.7l0.1,0.1l1-0.2L85.3,144.2z
			M69.7,136.3c0.7,0.1,1.4,0.4,1.9,0.8s0.9,0.9,1.2,1.5s0.3,1.3,0.1,2.1l-0.1,0.3l-1.2-0.2l0.1-0.3c0.2-0.9,0-1.5-0.4-2
			c-0.4-0.5-1-0.8-1.8-1c-0.8-0.1-1.5-0.1-1.9,0.2c-0.5,0.3-0.8,0.7-0.9,1.3c-0.1,0.4,0,0.7,0.1,1c0.2,0.3,0.4,0.5,0.7,0.7
			c0.3,0.2,0.7,0.4,1.1,0.6l0.7,0.3c0.6,0.3,1.1,0.6,1.5,0.9c0.4,0.3,0.7,0.7,0.9,1.1s0.2,0.9,0.1,1.5c-0.1,0.6-0.3,1.1-0.7,1.4
			c-0.4,0.4-0.8,0.6-1.4,0.8c-0.6,0.1-1.2,0.1-1.9,0c-0.7-0.1-1.3-0.4-1.8-0.7c-0.5-0.3-0.9-0.8-1.1-1.3c-0.2-0.5-0.3-1.1-0.2-1.9
			l0.1-0.6l1.2,0.2l-0.1,0.6c-0.1,0.5-0.1,0.9,0.1,1.3c0.2,0.3,0.4,0.6,0.7,0.8c0.3,0.2,0.7,0.4,1.2,0.4c0.7,0.1,1.3,0.1,1.7-0.2
			s0.8-0.6,0.9-1.2c0.1-0.4,0-0.7-0.1-0.9c-0.1-0.3-0.4-0.5-0.7-0.7c-0.3-0.2-0.7-0.4-1.1-0.6l-0.7-0.3c-0.6-0.2-1.1-0.5-1.5-0.8
			s-0.8-0.7-1-1.1c-0.2-0.4-0.3-1-0.2-1.6c0.1-0.6,0.4-1.1,0.7-1.5c0.4-0.4,0.9-0.7,1.5-0.8S68.9,136.1,69.7,136.3z M64.3,135.4
			l-3.5,9.9l-1.2-0.4l1.6-4.4l-4.6-1.6l-1.6,4.4l-1.2-0.4l3.5-9.9l1.2,0.4l-1.6,4.4l4.6,1.6l1.6-4.4L64.3,135.4z M52.1,129.9
			c1.1,0.6,1.8,1.4,2.1,2.4c0.3,1,0.1,2.1-0.6,3.3l-1.2,2.1c-0.7,1.2-1.5,2-2.5,2.2c-1,0.3-2.1,0.1-3.1-0.5c-1.1-0.6-1.8-1.4-2.1-2.4
			c-0.3-1-0.1-2.1,0.6-3.3l1.2-2.1c0.7-1.2,1.5-2,2.5-2.2C49.9,129.1,51,129.3,52.1,129.9z M51.5,130.9c-0.8-0.4-1.5-0.6-2.2-0.3
			c-0.7,0.2-1.3,0.8-1.8,1.6l-1.2,2.2c-0.5,0.8-0.6,1.6-0.5,2.3s0.7,1.3,1.4,1.7c0.8,0.4,1.5,0.5,2.2,0.3c0.7-0.2,1.3-0.8,1.8-1.6
			l1.2-2.2c0.5-0.8,0.6-1.6,0.5-2.3C52.8,131.9,52.3,131.4,51.5,130.9z M46.1,126.5l-5.5,9.1l-1-0.8l5.2-8.3l-0.2-0.1l-7.8,6.1
			l-1.7-1.5l4.8-8.6l-0.2-0.1l-7.4,6.4l-1-0.8l8.1-6.9l1.7,1.5l-4.9,8.7l0.2,0.1l7.8-6.2L46.1,126.5z M37.3,118.6l-8.2,6.6l-2.7-3.3
			c-0.4-0.5-0.7-1-0.8-1.6s-0.1-1,0-1.5c0.1-0.5,0.5-0.9,0.9-1.3l0.1-0.1c0.5-0.4,1.1-0.6,1.6-0.6c0.5,0,1,0.1,1.4,0.4l0.2-0.1
			c-0.2-0.3-0.3-0.6-0.3-0.9c0-0.3,0.2-0.6,0.6-0.9l2.8-2.2l0.8,1l-2.6,2.1c-0.2,0.2-0.4,0.4-0.4,0.6c0,0.2,0.1,0.5,0.3,0.7l2.3,2.8
			l3.4-2.7L37.3,118.6z M32.3,121l-1.8-2.2c-0.4-0.5-0.9-0.9-1.4-0.9c-0.5-0.1-1,0.1-1.4,0.4l-0.1,0.1c-0.5,0.4-0.7,0.8-0.7,1.3
			c0,0.5,0.2,1,0.6,1.6l1.8,2.2L32.3,121z M31.7,111.2l-9.1,5.2l-3.2-5.6l1-0.6l2.6,4.5l3-1.8l-2.4-4.1l1-0.6l2.4,4.1l3.1-1.8
			l-2.6-4.6l1-0.6L31.7,111.2z M27.7,103.9l-9.8,3.9l-2.4-6l1.1-0.4l1.9,4.8l3.3-1.3l-1.8-4.4l1.1-0.4l1.8,4.4l3.3-1.3l-1.9-4.9
			l1.1-0.4L27.7,103.9z M24.8,96.2l-10.2,2.4l-0.3-1.2l9.1-2.2L22.2,90l1.1-0.3L24.8,96.2z M15.8,85.6l-0.8,0l0-1.3l0.1-1l-0.2-0.1
			l-0.6,0.9L13.4,85l-0.6-0.5l0.9-0.9l0.8-0.7l-0.1-0.2l-1,0.2l-1.3,0l0-0.8l1.3,0l1,0.1l0.1-0.2l-0.8-0.6l-0.9-0.9l0.5-0.6l0.9,0.9
			l0.7,0.8l0.2-0.1l-0.2-1l0-1.3l0.8,0l0,1.3l-0.1,1l0.2,0.1l0.6-0.9l0.9-0.9l0.6,0.5l-0.9,0.9l-0.8,0.7l0.1,0.2l1-0.2l1.3,0l0,0.8
			l-1.3,0l-1-0.1l-0.1,0.2l0.9,0.6l0.9,0.9l-0.5,0.6L16.5,84l-0.7-0.8l-0.1,0.1l0.2,1L15.8,85.6z M23.7,69.9c-0.1,0.7-0.4,1.4-0.8,1.9
			s-0.9,0.9-1.4,1.2c-0.6,0.2-1.3,0.3-2.1,0.2l-0.3-0.1l0.2-1.2l0.3,0.1c0.9,0.2,1.5,0,2-0.4c0.5-0.4,0.8-1,1-1.8
			c0.1-0.8,0.1-1.5-0.2-1.9c-0.3-0.5-0.7-0.8-1.3-0.9c-0.4-0.1-0.7,0-1,0.1c-0.3,0.2-0.5,0.4-0.7,0.7c-0.2,0.3-0.4,0.7-0.6,1.1
			l-0.3,0.7c-0.3,0.6-0.5,1.1-0.9,1.5c-0.3,0.4-0.7,0.7-1.1,0.9c-0.4,0.2-0.9,0.2-1.5,0.1c-0.6-0.1-1.1-0.3-1.4-0.7
			c-0.4-0.4-0.6-0.8-0.8-1.4s-0.1-1.2,0-1.9c0.1-0.7,0.4-1.3,0.7-1.8s0.8-0.9,1.3-1.1c0.5-0.2,1.1-0.3,1.8-0.2l0.6,0.1l-0.2,1.2
			l-0.6-0.1c-0.5-0.1-0.9-0.1-1.3,0.1c-0.3,0.2-0.6,0.4-0.8,0.8s-0.4,0.8-0.4,1.2c-0.1,0.7-0.1,1.3,0.2,1.7c0.2,0.5,0.6,0.7,1.2,0.8
			c0.4,0.1,0.7,0,0.9-0.1c0.3-0.1,0.5-0.4,0.7-0.7c0.2-0.3,0.4-0.7,0.6-1.1l0.3-0.7c0.2-0.6,0.5-1.1,0.8-1.5s0.7-0.8,1.1-1
			c0.4-0.2,0.9-0.3,1.6-0.2c0.6,0.1,1.1,0.4,1.5,0.7c0.4,0.4,0.7,0.9,0.8,1.5C23.8,68.5,23.8,69.2,23.7,69.9z M24.6,64.5L14.7,61
			l0.4-1.2l4.4,1.5l1.6-4.6l-4.4-1.5l0.4-1.2l9.9,3.5l-0.4,1.2l-4.4-1.6l-1.6,4.6l4.4,1.6L24.6,64.5z M30,52.2
			c-0.6,1.1-1.4,1.8-2.4,2.1c-1,0.3-2.1,0.1-3.3-0.6l-2.1-1.2c-1.2-0.7-2-1.5-2.2-2.5s-0.1-2.1,0.5-3.1c0.6-1.1,1.4-1.8,2.4-2.1
			c1-0.3,2.1-0.1,3.3,0.6l2.1,1.2c1.2,0.7,2,1.5,2.2,2.5C30.7,50.1,30.6,51.1,30,52.2z M29,51.7c0.4-0.8,0.5-1.5,0.3-2.2
			c-0.2-0.7-0.8-1.3-1.6-1.8l-2.2-1.2c-0.8-0.5-1.6-0.6-2.4-0.4c-0.7,0.2-1.3,0.7-1.7,1.5c-0.4,0.8-0.5,1.5-0.3,2.2
			c0.2,0.7,0.8,1.3,1.6,1.8l2.2,1.2c0.8,0.5,1.6,0.6,2.4,0.4C28,53,28.5,52.5,29,51.7z M33.4,46.2l-9.1-5.5l0.8-1l8.4,5.1l0.1-0.2
			L27.4,37l1.5-1.7l8.6,4.8l0.1-0.2l-6.4-7.4l0.8-1l6.9,8.1l-1.5,1.7l-8.7-4.8l-0.1,0.2l6.2,7.8L33.4,46.2z M41.2,37.5l-6.6-8.2
			l3.3-2.7c0.5-0.4,1-0.7,1.5-0.8c0.5-0.1,1-0.1,1.5,0s0.9,0.4,1.3,0.9l0.1,0.1c0.4,0.5,0.6,1.1,0.6,1.6c0,0.5-0.1,1-0.4,1.4l0.1,0.2
			c0.3-0.2,0.6-0.3,0.9-0.3s0.6,0.2,0.9,0.6l2.2,2.7l-1,0.8l-2.1-2.6c-0.2-0.2-0.4-0.4-0.6-0.4c-0.2,0-0.5,0.1-0.7,0.3l-2.8,2.3
			l2.7,3.4L41.2,37.5z M38.8,32.5l2.2-1.8c0.5-0.4,0.8-0.9,0.9-1.4s-0.1-1-0.4-1.4l-0.1-0.1c-0.4-0.5-0.8-0.7-1.3-0.7
			c-0.5,0-1,0.2-1.6,0.6l-2.2,1.8L38.8,32.5z M48.6,31.8l-5.3-9.1l5.6-3.2l0.6,1L45,23.1l1.8,3l4.1-2.4l0.6,1l-4.1,2.4l1.8,3.1
			l4.6-2.7l0.6,1L48.6,31.8z M55.8,27.8l-3.9-9.7l6-2.4l0.4,1.1l-4.8,1.9l1.3,3.3l4.4-1.8l0.4,1.1L55.3,23l1.3,3.3l4.9-2l0.4,1.1
			L55.8,27.8z M63.6,24.9l-2.5-10.2l1.2-0.3l2.2,9.1l5.2-1.3l0.3,1.1L63.6,24.9z M74.2,15.9l0-0.8l1.3-0.1l1,0.1l0.1-0.2l-0.9-0.6
			l-0.9-0.9l0.5-0.6l0.9,0.9l0.7,0.8l0.2-0.1l-0.2-1l-0.1-1.3l0.8,0l0.1,1.3l-0.1,1l0.2,0.1l0.6-0.9l0.9-0.9l0.6,0.5l-0.9,1l-0.8,0.7
			l0.1,0.2l1-0.2l1.3-0.1l0,0.8l-1.3,0.1l-1-0.1l-0.1,0.2l0.9,0.6l0.9,0.9l-0.5,0.6l-0.9-0.9l-0.7-0.8l-0.2,0.1l0.2,1l0.1,1.3l-0.8,0
			L77,17.3l0.1-1l-0.2-0.1L76.3,17L75.5,18l-0.6-0.5l0.9-0.9l0.8-0.7l-0.1-0.1l-1,0.2L74.2,15.9z"/>
	</g>
</svg>
