<svg id="cv-object" xmlns="http://www.w3.org/2000/svg" xmlns:xlink="http://www.w3.org/1999/xlink" 
	shape-rendering="geometricPrecision" text-rendering="geometricPrecision" width="160px" height="160px" viewBox="0 0 160 160" 
	style="enable-background:new 0 0 160 160;" xml:space="preserve">

	<style type="text/css">
		#rotation-group {
				animation: rotateInfinite 9000ms linear infinite normal forwards
			}
			@keyframes rotateInfinite {
				0% {
					transform: translate(80px,80px) rotate(0deg);
					}
				100% {
					transform: translate(80px,80px) rotate(360deg);
					}
			}
	</style>

	<path fill="#FFFFFF" d="M80,0C35.8,0,0,35.9,0,80s35.8,80,80,80s80-35.8,80-80S124.2,0,80,0L80,0z"/>
	<path fill="#807DF2" d="M73.2,78.3h-7.4l-7.5-17.2c-0.4-0.9-0.4-1.8-0.1-2.6c0.4-0.8,0.9-1.4,1.8-1.8c0.9-0.4,1.8-0.4,2.6-0.1
		c0.8,0.4,1.4,0.9,1.8,1.8L73.2,78.3z M67.3,81.7h7.4h2.7c1.2,0,2.2,0.4,3,1.3c0.8,0.8,1.3,1.8,1.3,3c0,1.2-0.4,2.2-1.3,3
		c-0.8,0.8-1.8,1.3-3,1.3h-5.9c-1.1,0.1-1.6,0.6-1.7,1.7c0.1,1.1,0.6,1.6,1.7,1.7h5.9c2.2-0.1,4-0.8,5.4-2.2c1.4-1.4,2.1-3.2,2.2-5.4
		v-0.1c1,0.6,2.1,0.9,3.4,0.9c1.4,0,2.7-0.4,3.8-1.2c0.4,1.3,1.2,2.4,2.4,3.3c1.1,0.8,2.4,1.3,3.9,1.3c1.3,0,2.4-0.3,3.4-0.9v0.9
		c-0.1,4.8-1.8,8.8-5,11.9s-7.1,4.8-11.9,5h-6.5c-4.6-0.1-8.6-1.7-11.9-5l-1.2-1.2c-2.6-2.7-3.9-5.9-4-9.6v-2.8
		c0.1-1.8,0.6-3.3,1.7-4.5c1.1-1.2,2.5-1.9,4.2-2.1V81.7z M80.7,53.9c0.6,0.6,0.9,1.4,0.9,2.4v21.9h-6.8V56.4c0-1,0.3-1.8,0.9-2.4
		s1.4-0.9,2.4-0.9C79.3,53,80.1,53.3,80.7,53.9z M90.9,70.8c0.6,0.6,0.9,1.4,0.9,2.4V80c0,1-0.3,1.8-0.9,2.4s-1.4,0.9-2.4,0.9
		c-1,0-1.8-0.3-2.4-0.9S85.1,81,85.1,80v-6.8c0-1,0.3-1.8,0.9-2.4s1.4-0.9,2.4-0.9C89.4,69.9,90.2,70.2,90.9,70.8z M96.1,74.2
		c0.6-0.6,1.4-0.9,2.4-0.9c1,0,1.8,0.3,2.4,0.9s0.9,1.4,0.9,2.4v6.8c0,1-0.3,1.8-0.9,2.4s-1.4,0.9-2.4,0.9c-1,0-1.8-0.3-2.4-0.9
		s-0.9-1.4-0.9-2.4v-6.8C95.2,75.6,95.5,74.8,96.1,74.2z"/>

	<g id="rotation-group" transform="translate(80,80) rotate(360)">
		<path fill="#212121" transform="translate(-80,-80)" d="M86.4,22.7l0.2-1.2l1.5,0.3l1.6-8.4l-1.5-0.3l0.2-1.2l4.2,0.8c1.4,0.3,2.4,0.8,3.1,1.7c0.6,0.9,0.8,2,0.5,3.5
			l-0.4,2c-0.3,1.5-0.9,2.5-1.8,3.1s-2.1,0.7-3.5,0.5L86.4,22.7z M89.4,22.1l1.4,0.3c1,0.2,1.9,0.1,2.5-0.3c0.6-0.4,1-1.2,1.2-2.2
			l0.4-2.1c0.2-1.1,0.1-1.9-0.4-2.5c-0.4-0.6-1.2-1-2.2-1.2L91,13.7L89.4,22.1z M100.4,26.4c-1.2-0.5-2.1-1.2-2.5-2.2
			c-0.5-1-0.4-2.1,0.1-3.5l0.9-2.3c0.5-1.4,1.3-2.2,2.3-2.7s2.1-0.4,3.3,0c1.2,0.5,2.1,1.2,2.5,2.2c0.5,1,0.4,2.1-0.1,3.5l-0.9,2.3
			c-0.5,1.4-1.3,2.2-2.3,2.7C102.8,26.9,101.7,26.9,100.4,26.4z M100.9,25.4c0.9,0.3,1.7,0.3,2.4,0s1.2-1,1.6-1.9l0.9-2.4
			c0.4-0.9,0.4-1.8,0.1-2.5s-0.9-1.2-1.8-1.6c-0.9-0.3-1.7-0.3-2.3,0s-1.2,1-1.6,1.9l-0.9,2.4c-0.4,0.9-0.4,1.8-0.1,2.5
			S100,25,100.9,25.4z M107.1,29l4.4-10.2l1.1,0.7l-4.1,9.3l0.2,0.1l7.1-7.4l2,1.3l-3.7,9.6l0.2,0.1l6.7-7.7l1.1,0.7l-7.4,8.3l-2-1.3
			l3.7-9.6l-0.2-0.1l-7.1,7.5L107.1,29z M117.2,35.9l7.6-7.9l1.8,1.8l-4.3,9.9l0.1,0.1l7-7.3l0.9,0.9l-7.6,7.9l-1.8-1.8l4.3-9.9
			l-0.2-0.2l-7,7.3L117.2,35.9z M124.4,43.2l8.7-6.5l0.8,1l-7.8,5.8l3.3,4.4l-0.9,0.7L124.4,43.2z M130.8,53.3
			c-0.6-1.1-0.8-2.2-0.5-3.3c0.3-1,1.1-1.9,2.4-2.6l2.2-1.2c1.3-0.7,2.4-0.8,3.5-0.5c1,0.3,1.8,1.1,2.5,2.2c0.6,1.2,0.8,2.3,0.5,3.3
			c-0.3,1-1.1,1.9-2.4,2.6l-2.2,1.2c-1.3,0.7-2.4,0.8-3.5,0.5C132.2,55.2,131.4,54.4,130.8,53.3z M131.8,52.7c0.4,0.8,1,1.4,1.8,1.5
			s1.6,0.1,2.5-0.4l2.3-1.2c0.9-0.5,1.5-1.1,1.7-1.8c0.3-0.7,0.2-1.5-0.3-2.3c-0.4-0.8-1-1.3-1.8-1.5c-0.7-0.2-1.6-0.1-2.5,0.4
			l-2.3,1.2c-0.9,0.5-1.5,1.1-1.7,1.8C131.3,51.1,131.4,51.9,131.8,52.7z M133.4,57.8l11.4-0.2l0.7,2.2l-9.3,6.6l-0.4-1.3l2.4-1.7
			l-1.4-4.4l-2.9,0.1L133.4,57.8z M137.9,59l1.2,3.8l5.3-3.7l-0.1-0.2L137.9,59z M136.4,67.3l1.2-0.2l0.2,1.5l8.5-1.2l-0.2-1.5
			l1.2-0.2l0.6,4.2c0.2,1.4,0,2.6-0.6,3.5c-0.6,0.9-1.7,1.4-3.2,1.6l-2,0.3c-1.5,0.2-2.7,0-3.5-0.7c-0.8-0.7-1.3-1.7-1.5-3.1
			L136.4,67.3z M137.9,70l0.2,1.4c0.2,1,0.5,1.8,1.1,2.3s1.4,0.6,2.5,0.5l2.1-0.3c1.1-0.2,1.9-0.5,2.3-1.1c0.4-0.6,0.6-1.4,0.4-2.5
			l-0.2-1.4L137.9,70z M137.1,85.9c0.1-1.3,0.6-2.3,1.4-3c0.8-0.7,2-1,3.4-0.8l2.5,0.2c1.4,0.1,2.5,0.6,3.2,1.5
			c0.7,0.8,0.9,1.9,0.8,3.2c-0.1,1.3-0.6,2.2-1.4,2.9c-0.8,0.6-1.8,0.9-3,0.7l-0.1,0l0.1-1.3l0.1,0c0.8,0.1,1.5-0.1,2.1-0.5
			c0.6-0.4,0.9-1,1-2c0.1-0.9-0.1-1.7-0.6-2.2c-0.5-0.6-1.3-0.9-2.3-1l-2.5-0.3c-1-0.1-1.8,0.1-2.4,0.5s-1,1.2-1.1,2.1
			c-0.1,0.9,0.1,1.6,0.6,2.1c0.5,0.5,1.1,0.8,1.9,0.9l0.2,0l-0.1,1.3l-0.2,0c-1.2-0.1-2.2-0.6-2.8-1.3
			C137.2,88.2,136.9,87.1,137.1,85.9z M135.9,93.9l11.4-0.3l-0.4,1.3l-10.6,0.2l-0.1,0.2l9,5.5l-0.4,1.3l-9.7-6L135.9,93.9z
			M138.9,107.1l0.7,0.4l-0.6,1.2l-0.6,0.9l0.1,0.1l1-0.5l1.3-0.4l0.2,0.8l-1.3,0.4l-1.1,0.2l0,0.2l1,0.4l1.2,0.6l-0.4,0.7l-1.2-0.6
			l-0.9-0.6l-0.1,0.1l0.4,1l0.4,1.3l-0.8,0.3l-0.4-1.3l-0.2-1.1l-0.2,0l-0.4,1l-0.6,1.2l-0.7-0.4l0.6-1.2l0.6-0.9l-0.1-0.1l-1,0.5
			l-1.3,0.4l-0.2-0.8l1.3-0.4l1.1-0.2l0-0.2l-1-0.4l-1.2-0.6l0.4-0.7l1.2,0.6l0.9,0.6l0.1-0.1l-0.5-1l-0.4-1.3l0.8-0.2l0.4,1.3
			l0.2,1.1l0.2,0l0.4-1L138.9,107.1z M126.5,114.1l0.9,0.8l-1,1.2l6.5,5.6l1-1.2l0.9,0.8l-2.8,3.2c-0.9,1.1-1.9,1.7-3,1.8
			c-1.1,0.1-2.2-0.3-3.3-1.3l-1.5-1.3c-1.1-1-1.7-2-1.8-3.1c0-1.1,0.4-2.1,1.4-3.2L126.5,114.1z M125.5,117.1l-0.9,1.1
			c-0.7,0.8-1,1.6-1,2.3c0,0.7,0.5,1.5,1.3,2.2l1.6,1.4c0.8,0.7,1.6,1.1,2.4,1c0.7-0.1,1.5-0.5,2.2-1.3l0.9-1.1L125.5,117.1z
			M116.2,124.4c1-0.8,2.1-1.2,3.1-1.1c1.1,0.1,2.1,0.7,3,1.8l1.6,1.9c0.9,1.1,1.3,2.2,1.2,3.3c-0.1,1.1-0.7,2-1.7,2.8
			c-1,0.8-2.1,1.2-3.1,1.1c-1.1-0.1-2.1-0.7-3-1.8l-1.6-1.9c-0.9-1.1-1.3-2.2-1.2-3.3C114.6,126.1,115.2,125.2,116.2,124.4z
			M116.9,125.3c-0.7,0.6-1.1,1.3-1.2,2c0,0.8,0.2,1.5,0.9,2.3l1.6,2c0.6,0.8,1.3,1.2,2.1,1.3c0.8,0.1,1.5-0.1,2.2-0.7
			c0.7-0.6,1.1-1.3,1.2-2c0-0.8-0.2-1.5-0.9-2.3l-1.6-2c-0.6-0.8-1.3-1.2-2.1-1.3C118.4,124.4,117.7,124.7,116.9,125.3z M110.6,128.9
			l6.6,8.9l-1.2,0.6l-6-8.2l-0.2,0.1l2.9,9.9l-2.1,1.1l-6.4-8l-0.2,0.1l3.3,9.7l-1.2,0.6l-3.5-10.5l2.1-1.1l6.5,8.1l0.2-0.1l-2.9-9.9
			L110.6,128.9z M99.6,134.1l3,10.5l-2.4,0.7l-6.4-8.7l-0.2,0.1l2.7,9.7l-1.2,0.4l-3-10.5l2.4-0.7l6.4,8.7l0.2-0.1l-2.7-9.7
			L99.6,134.1z M89.7,136.7l1.2,10.8l-1.3,0.1l-1.1-9.7l-5.5,0.6l-0.1-1.2L89.7,136.7z M77.8,137.1c1.3,0.1,2.3,0.5,3.1,1.3
			s1.1,1.9,1,3.3l-0.1,2.5c-0.1,1.4-0.5,2.5-1.3,3.2c-0.8,0.7-1.9,1.1-3.2,1c-1.3-0.1-2.3-0.5-3.1-1.3s-1.1-1.9-1-3.3l0.1-2.5
			c0.1-1.4,0.5-2.5,1.3-3.2C75.4,137.4,76.5,137,77.8,137.1z M77.7,138.3c-0.9,0-1.7,0.2-2.2,0.8s-0.8,1.3-0.9,2.3l-0.1,2.6
			c0,1,0.2,1.8,0.7,2.4s1.2,0.9,2.2,0.9c0.9,0,1.7-0.2,2.2-0.8s0.8-1.3,0.9-2.3l0.1-2.6c0-1-0.2-1.8-0.7-2.4S78.7,138.3,77.7,138.3z
			M72.5,137L67,147l-2.3-0.5l-1-11.4l1.3,0.3l0.2,2.9l4.5,1l1.4-2.5L72.5,137z M69.2,140.4l-3.9-0.8l0.5,6.4l0.2,0L69.2,140.4z
			M62.8,134.9l-0.4,1.1l-1.4-0.6l-3.2,8l1.4,0.6l-0.4,1.1l-3.9-1.6c-1.3-0.5-2.2-1.3-2.7-2.3s-0.4-2.2,0.2-3.6l0.8-1.9
			c0.6-1.4,1.4-2.3,2.3-2.7c1-0.4,2.2-0.3,3.5,0.2L62.8,134.9z M59.7,134.9l-1.3-0.5c-1-0.4-1.8-0.5-2.5-0.2c-0.7,0.3-1.2,0.9-1.7,1.9
			l-0.8,2c-0.4,1-0.5,1.9-0.2,2.6c0.3,0.7,1,1.2,1.9,1.6l1.3,0.5L59.7,134.9z M46.5,126.2c1.1,0.8,1.7,1.7,1.8,2.7
			c0.2,1.1-0.2,2.2-1,3.3l-1.5,2c-0.8,1.2-1.8,1.8-2.9,2c-1.1,0.2-2.1-0.1-3.2-0.9c-1-0.8-1.6-1.6-1.8-2.6c-0.1-1,0.2-2,0.9-3l0-0.1
			l1,0.8l-0.1,0.1c-0.5,0.7-0.7,1.3-0.6,2c0,0.7,0.4,1.3,1.2,1.8c0.8,0.5,1.5,0.7,2.3,0.6c0.8-0.2,1.4-0.6,2-1.5l1.5-2.1
			c0.6-0.8,0.9-1.6,0.8-2.4c-0.1-0.8-0.5-1.4-1.3-2c-0.8-0.5-1.5-0.7-2.1-0.6c-0.7,0.2-1.2,0.6-1.7,1.2l-0.1,0.2l-1-0.8l0.1-0.2
			c0.7-1,1.6-1.6,2.6-1.8C44.4,125.1,45.4,125.4,46.5,126.2z M40.1,121.1l-5.5,10l-1-1l5.1-9.2l-0.1-0.1l-9.3,5l-1-1l10.1-5.3
			L40.1,121.1z M27.2,117l-0.7,0.4l-0.7-1.1l-0.5-1l-0.2,0l-0.1,1.1l-0.3,1.3l-0.8-0.2l0.3-1.3l0.4-1l-0.2-0.1l-0.8,0.7l-1.1,0.7
			l-0.4-0.7l1.1-0.7l1-0.5l0-0.2l-1.1-0.1l-1.3-0.3l0.2-0.8l1.3,0.3l1,0.4l0.1-0.2l-0.7-0.8l-0.7-1.1l0.7-0.4l0.7,1.1l0.5,1l0.2,0
			l0.1-1.1l0.3-1.3l0.8,0.2l-0.3,1.3l-0.4,1l0.2,0.1l0.8-0.7l1.1-0.7l0.4,0.7l-1.1,0.7l-1,0.5l0,0.2l1.1,0.1l1.3,0.3l-0.2,0.8
			l-1.3-0.3l-1-0.4l-0.1,0.1l0.7,0.8L27.2,117z M27.3,102.8l-1.1,0.4l-0.5-1.4l-8.1,2.8l0.5,1.4l-1.1,0.4l-1.4-4
			c-0.5-1.4-0.5-2.5-0.1-3.5c0.4-1,1.4-1.7,2.8-2.2l1.9-0.7c1.4-0.5,2.6-0.5,3.6,0c0.9,0.5,1.6,1.4,2.1,2.8L27.3,102.8z M25.3,100.5
			l-0.5-1.3c-0.3-1-0.9-1.7-1.5-2c-0.7-0.3-1.5-0.3-2.6,0l-2,0.7c-1.1,0.4-1.7,0.9-2,1.6c-0.3,0.7-0.3,1.5,0.1,2.5l0.5,1.3L25.3,100.5
			z M23.6,88.8c0.2,1.3,0,2.4-0.6,3.2s-1.7,1.4-3.1,1.7L17.4,94c-1.4,0.2-2.6,0-3.4-0.6c-0.9-0.7-1.4-1.6-1.6-2.9
			c-0.2-1.3,0-2.4,0.6-3.3c0.6-0.9,1.7-1.4,3.1-1.7l2.5-0.4c1.4-0.2,2.6,0,3.4,0.6C22.9,86.5,23.4,87.5,23.6,88.8z M22.5,88.9
			c-0.1-0.9-0.5-1.6-1.2-2c-0.6-0.4-1.5-0.6-2.5-0.4l-2.6,0.4c-1,0.2-1.7,0.5-2.2,1.1c-0.5,0.6-0.6,1.4-0.5,2.3c0.1,0.9,0.5,1.6,1.2,2
			c0.6,0.4,1.5,0.6,2.5,0.4l2.6-0.4c1-0.2,1.7-0.5,2.2-1.1C22.5,90.6,22.6,89.9,22.5,88.9z M22.6,81.7l-11,1.3l0.1-1.3l10.1-1.1l0-0.2
			l-10-2.5l0.1-2.3L22.1,74l0-0.2l-10-2l0.1-1.3L23,72.7l-0.1,2.3l-10.2,1.5l0,0.2l10,2.5L22.6,81.7z M23.6,69.5L13,66.7l0.6-2.5
			l10.7-1.2l0.1-0.2l-9.8-2.5l0.3-1.3l10.6,2.7l-0.6,2.5l-10.7,1.2l-0.1,0.2l9.8,2.5L23.6,69.5z M26.3,59.7l-10-4.4l0.5-1.2l8.9,3.9
			l2.2-5.1l1.1,0.5L26.3,59.7z M31.9,49.2c-0.7,1.1-1.6,1.8-2.6,2c-1.1,0.2-2.2,0-3.4-0.8L23.8,49c-1.2-0.8-1.9-1.7-2.2-2.8
			c-0.2-1.1,0-2.1,0.7-3.2c0.7-1.1,1.6-1.8,2.6-2s2.2,0,3.4,0.8l2.1,1.3c1.2,0.8,1.9,1.7,2.2,2.8C32.9,47,32.7,48.1,31.9,49.2z
			M31,48.5c0.5-0.8,0.7-1.6,0.5-2.3s-0.7-1.4-1.6-1.9l-2.2-1.4c-0.8-0.5-1.7-0.7-2.4-0.6c-0.8,0.1-1.4,0.6-1.9,1.4
			c-0.5,0.8-0.7,1.6-0.5,2.3s0.7,1.4,1.6,1.9l2.2,1.4c0.9,0.5,1.7,0.7,2.4,0.6C29.8,49.8,30.5,49.3,31,48.5z M34.7,44.6l-5.8-9.8
			l1.6-1.7L40.8,38l-0.9,1l-2.6-1.2l-3.1,3.4l1.5,2.5L34.7,44.6z M33.4,40.1l2.7-2.9l-5.8-2.8l-0.1,0.2L33.4,40.1z M41.4,37.3
			l-0.7-0.9l1.2-0.9l-5.3-6.8l-1.2,0.9l-0.7-0.9l3.4-2.6c1.1-0.9,2.2-1.3,3.3-1.2c1.1,0.1,2.1,0.7,3,1.9l1.2,1.6
			c0.9,1.2,1.3,2.3,1.1,3.4s-0.8,2-2,2.9L41.4,37.3z M42.9,34.7l1.1-0.9c0.8-0.7,1.3-1.3,1.4-2.1s-0.2-1.5-0.8-2.4l-1.3-1.7
			c-0.7-0.9-1.4-1.4-2.1-1.4c-0.7-0.1-1.5,0.2-2.4,0.9l-1.1,0.9L42.9,34.7z M57.2,27.6c-1.2,0.5-2.3,0.6-3.3,0.2s-1.8-1.2-2.4-2.5
			l-1-2.3c-0.6-1.3-0.7-2.5-0.3-3.5c0.4-1,1.2-1.8,2.4-2.3c1.2-0.5,2.2-0.6,3.2-0.2c0.9,0.4,1.6,1.1,2.1,2.3l0,0.1l-1.2,0.5l-0.1-0.1
			c-0.3-0.8-0.8-1.3-1.4-1.6c-0.6-0.3-1.3-0.3-2.2,0.1c-0.8,0.4-1.4,0.9-1.6,1.7c-0.2,0.7-0.2,1.6,0.3,2.5l1,2.3
			c0.4,0.9,1,1.6,1.7,1.9c0.7,0.3,1.5,0.3,2.3-0.1c0.8-0.4,1.4-0.9,1.6-1.6c0.2-0.7,0.1-1.4-0.2-2.1l-0.1-0.2l1.2-0.5l0.1,0.2
			c0.5,1.1,0.6,2.2,0.2,3.1C59.1,26.3,58.3,27,57.2,27.6z M64.8,24.6l-5.9-9.8l1.3-0.3l5.4,9.1l0.2-0.1L66.2,13l1.3-0.3L67,24
			L64.8,24.6z M74.8,15.5l0-0.8l1.3,0l1.1,0.1l0.1-0.2l-0.9-0.6l-1-0.9l0.6-0.6l1,0.9l0.7,0.8l0.2-0.1L77.6,13l0-1.3l0.8,0l0,1.3
			L78.3,14l0.2,0.1l0.6-0.9l0.9-1l0.6,0.6l-0.9,1l-0.9,0.7l0.1,0.2l1.1-0.2l1.3,0l0,0.8l-1.3,0L79,15.2l-0.1,0.2l0.9,0.6l1,0.9
			l-0.6,0.6l-1-0.9l-0.7-0.9l-0.2,0.1l0.2,1.1l0,1.3l-0.8,0l0-1.3l0.1-1.1l-0.2-0.1L77,16.7l-0.9,1l-0.6-0.6l0.9-1l0.9-0.7l-0.1-0.2
			l-1.1,0.2L74.8,15.5z"/>
	</g>
</svg>
