<svg id="coming-soon-object" xmlns="http://www.w3.org/2000/svg" xmlns:xlink="http://www.w3.org/1999/xlink" 
	shape-rendering="geometricPrecision" text-rendering="geometricPrecision" width="210px" height="210px" viewBox="0 0 210 210" 
	style="enable-background:new 0 0 210 210;" xml:space="preserve">

	<style type="text/css">
		#rotation-group {
			animation: rotateInfinite 9000ms linear infinite normal forwards
		}
		@keyframes rotateInfinite {
			0% {
				transform: translate(105px,105px) rotate(0deg);
				}
			100% {
				transform: translate(105px,105px) rotate(360deg);
				}
		}
	</style>

	<path fill="#ffffff" d="M105,2c56.8,0,103,46.2,103,103s-46.2,103-103,103S2,161.8,2,105S48.2,2,105,2 M105,0C47,0,0,47,0,105
		s47,105,105,105s105-47,105-105S163,0,105,0L105,0z"/>
	<path fill="#ffffff" d="M96.5,102.9h-9.3l-9.4-21.6c-0.4-1.1-0.5-2.3-0.1-3.3c0.4-1.1,1.2-1.8,2.3-2.3c1.1-0.4,2.3-0.5,3.3-0.1
		c1.1,0.4,1.8,1.2,2.3,2.3L96.5,102.9z M89,107.1h9.3h3.5c1.5,0,2.7,0.5,3.7,1.6c1.1,1,1.6,2.2,1.6,3.7s-0.5,2.7-1.6,3.7
		c-1,1.1-2.2,1.6-3.7,1.6h-7.4c-1.3,0.1-2,0.8-2.1,2.1c0.1,1.3,0.8,2,2.1,2.1h7.4c2.7-0.1,5-1,6.8-2.8s2.7-4,2.8-6.8v-0.1
		c1.2,0.8,2.7,1.2,4.2,1.2c1.8,0,3.4-0.5,4.8-1.5c0.5,1.7,1.5,3.1,3.1,4.1c1.4,1.1,3.1,1.6,4.9,1.6c1.6,0,3-0.4,4.2-1.2v1.2
		c-0.2,6-2.3,11-6.2,15s-9,6.1-15,6.2h-8.2c-5.8-0.1-10.8-2.2-15-6.2l-1.5-1.5c-3.3-3.4-5-7.4-5-12.1v-3.6c0.1-2.2,0.8-4.1,2.1-5.7
		c1.4-1.5,3.2-2.4,5.3-2.7v0.1H89z M105.9,72.2c0.8,0.8,1.2,1.8,1.2,3.1v27.6h-8.5V75.2c0-1.2,0.4-2.3,1.2-3.1s1.8-1.2,3.1-1.2
		C104.1,71,105.1,71.4,105.9,72.2z M118.7,93.4c0.8,0.8,1.2,1.8,1.2,3.1v8.5c0,1.2-0.4,2.3-1.2,3.1s-1.8,1.2-3.1,1.2
		c-1.2,0-2.3-0.4-3.1-1.2s-1.2-1.8-1.2-3.1v-8.5c0-1.2,0.4-2.3,1.2-3.1s1.8-1.2,3.1-1.2C116.8,92.2,117.9,92.6,118.7,93.4z
		M125.3,97.7c0.8-0.8,1.8-1.2,3.1-1.2c1.2,0,2.3,0.4,3.1,1.2s1.2,1.8,1.2,3.1v8.5c0,1.2-0.4,2.3-1.2,3.1s-1.8,1.2-3.1,1.2
		c-1.2,0-2.3-0.4-3.1-1.2s-1.2-1.8-1.2-3.1v-8.5C124.1,99.5,124.5,98.5,125.3,97.7z"/>

	<g id="rotation-group" transform="translate(105,105) rotate(360)">
		<path fill="#ffffff" transform="translate(-105,-105)" d="M118.3,27.4c-1.3-0.2-2.4-0.8-3-1.7c-0.7-0.9-0.9-2.1-0.6-3.6l0.4-2.6c0.2-1.5,0.8-2.6,1.8-3.2
			c0.9-0.6,2.1-0.9,3.4-0.6c1.3,0.2,2.3,0.8,2.9,1.6c0.6,0.9,0.8,1.9,0.6,3.2l0,0.1l-1.3-0.2l0-0.1c0.1-0.9,0-1.6-0.3-2.2s-1-1-2-1.2
			c-1-0.2-1.8,0-2.4,0.5c-0.6,0.5-1,1.3-1.2,2.3l-0.4,2.7c-0.2,1.1,0,1.9,0.4,2.6c0.4,0.7,1.1,1.1,2.1,1.3c1,0.2,1.7,0,2.3-0.5
			c0.5-0.5,0.9-1.1,1-2l0-0.3l1.3,0.2l0,0.2c-0.2,1.3-0.7,2.3-1.6,2.9S119.6,27.6,118.3,27.4z M128.4,29.8c-1.3-0.4-2.2-1.1-2.8-2.1
			s-0.6-2.2-0.1-3.7l0.8-2.5c0.4-1.5,1.2-2.4,2.2-3c1-0.5,2.2-0.6,3.5-0.2c1.3,0.4,2.2,1.1,2.8,2.1s0.6,2.2,0.1,3.7l-0.8,2.5
			c-0.5,1.5-1.2,2.4-2.2,3C130.8,30.1,129.7,30.2,128.4,29.8z M128.7,28.6c1,0.3,1.8,0.2,2.5-0.2c0.7-0.4,1.2-1.1,1.5-2.1l0.8-2.6
			c0.3-1,0.3-1.9,0-2.6c-0.3-0.7-1-1.2-1.9-1.5c-0.9-0.3-1.8-0.2-2.5,0.2c-0.7,0.4-1.2,1.1-1.5,2.1l-0.8,2.6c-0.3,1-0.3,1.9,0,2.6
			C127.1,27.8,127.8,28.3,128.7,28.6z M134.7,31.5l5.1-10.3l2.4,1.2l-2,10.9l0.2,0.1l7.4-8.2l2.4,1.2l-5.1,10.3l-1.2-0.6l4.7-9.5
			l-0.2-0.1l-7.4,8.1l-2.1-1.1l2-10.8l-0.2-0.1l-4.7,9.5L134.7,31.5z M147.1,38.1l6.2-9.7l1.2,0.7l-6.2,9.7L147.1,38.1z M150.4,40.2
			l7.1-9l2.1,1.6l-3.4,10.8l0.2,0.1l6.5-8.4l1.1,0.8l-7.1,9l-2.1-1.6l3.4-10.8l-0.2-0.1l-6.6,8.4L150.4,40.2z M161.4,50
			c-0.6-0.6-1-1.3-1.2-2c-0.2-0.7-0.2-1.4,0.1-2.2c0.2-0.7,0.7-1.5,1.5-2.2l1.9-1.8c1.1-1.1,2.2-1.6,3.3-1.5s2.2,0.5,3.1,1.5
			c0.9,1,1.4,2,1.4,3c0,1-0.5,2-1.4,2.8l-0.1,0.1l-0.9-1l0.1-0.1c0.4-0.4,0.7-0.8,0.8-1.2s0.2-0.9,0.1-1.4c-0.1-0.5-0.4-0.9-0.8-1.4
			c-0.7-0.7-1.4-1-2.2-1s-1.6,0.4-2.4,1.2l-1.9,1.9c-0.8,0.7-1.2,1.5-1.2,2.3c0,0.8,0.3,1.6,1,2.3c0.7,0.7,1.4,1,2.1,1
			c0.7-0.1,1.4-0.4,2-1l0.2-0.2l-2.4-2.5l0.8-0.8l3.4,3.5l-3.9,3.8l-0.9-0.9l0.9-0.9l-0.2-0.2c-0.3,0.1-0.5,0.1-0.9,0.1
			c-0.3,0-0.7-0.1-1-0.2C162.2,50.7,161.8,50.4,161.4,50z M170.6,61.4c-0.5-0.7-0.8-1.4-0.9-2.1c-0.1-0.7,0-1.4,0.3-2
			c0.3-0.6,0.8-1.2,1.5-1.7l0.3-0.2l0.8,1.1l-0.3,0.2c-0.8,0.5-1.2,1.2-1.3,1.9c-0.1,0.7,0.1,1.4,0.6,2.2c0.5,0.7,1,1.2,1.6,1.4
			c0.6,0.2,1.2,0.1,1.7-0.3c0.4-0.2,0.6-0.5,0.7-0.8c0.1-0.3,0.1-0.7,0-1.1c-0.1-0.4-0.2-0.9-0.4-1.4l-0.3-0.8
			c-0.2-0.7-0.4-1.3-0.5-1.8c-0.1-0.6,0-1.1,0.2-1.6c0.2-0.5,0.5-0.9,1.1-1.2c0.5-0.4,1.1-0.5,1.7-0.5c0.6,0,1.1,0.2,1.7,0.5
			c0.5,0.3,1,0.8,1.4,1.5c0.4,0.6,0.7,1.3,0.8,2c0.1,0.7,0.1,1.3-0.2,1.9s-0.7,1.1-1.3,1.5l-0.6,0.4l-0.8-1.1l0.6-0.4
			c0.5-0.3,0.8-0.7,0.9-1c0.2-0.4,0.2-0.8,0.1-1.2c-0.1-0.4-0.3-0.9-0.6-1.3c-0.4-0.6-0.9-1-1.4-1.2c-0.5-0.2-1.1-0.1-1.6,0.2
			c-0.3,0.2-0.6,0.5-0.7,0.8c-0.1,0.3-0.1,0.6,0,1c0.1,0.4,0.2,0.8,0.4,1.3l0.3,0.8c0.3,0.6,0.4,1.2,0.5,1.8c0.1,0.6,0,1.1-0.1,1.6
			c-0.2,0.5-0.5,0.9-1.1,1.3c-0.6,0.4-1.1,0.6-1.8,0.6c-0.6,0-1.2-0.2-1.8-0.5C171.6,62.6,171.1,62.1,170.6,61.4z M175.7,70.2
			c-0.6-1.2-0.7-2.4-0.4-3.5c0.3-1.1,1.2-2,2.6-2.6l2.4-1.2c1.4-0.7,2.6-0.8,3.7-0.4c1.1,0.4,1.9,1.2,2.5,2.4c0.6,1.2,0.7,2.4,0.4,3.5
			s-1.2,2-2.6,2.6l-2.4,1.2c-1.4,0.7-2.6,0.8-3.7,0.4C177.1,72.3,176.3,71.5,175.7,70.2z M176.8,69.7c0.4,0.9,1,1.5,1.8,1.7
			c0.8,0.2,1.6,0.1,2.6-0.4l2.4-1.2c1-0.5,1.6-1.1,1.9-1.8c0.3-0.8,0.2-1.6-0.2-2.5c-0.4-0.9-1-1.4-1.8-1.7c-0.8-0.2-1.6-0.1-2.6,0.4
			l-2.4,1.2c-1,0.5-1.6,1.1-1.9,1.8S176.4,68.8,176.8,69.7z M179.8,80.2c-0.4-1.3-0.4-2.5,0.1-3.5s1.5-1.8,2.9-2.3l2.5-0.8
			c1.4-0.5,2.7-0.5,3.7,0.1c1,0.5,1.7,1.4,2.2,2.7c0.4,1.3,0.4,2.5-0.1,3.5s-1.5,1.8-2.9,2.3l-2.5,0.8c-1.4,0.5-2.7,0.5-3.7-0.1
			C180.9,82.4,180.2,81.5,179.8,80.2z M180.9,79.8c0.3,0.9,0.8,1.6,1.6,1.9c0.7,0.3,1.6,0.3,2.6,0l2.6-0.9c1-0.3,1.7-0.9,2.1-1.6
			c0.4-0.7,0.4-1.5,0.1-2.5c-0.3-0.9-0.8-1.6-1.6-1.9c-0.7-0.3-1.6-0.3-2.6,0l-2.6,0.9c-1,0.3-1.7,0.9-2.1,1.6
			C180.7,78.1,180.6,78.9,180.9,79.8z M181.9,86.4l11.3-2.1l0.5,2.6l-9.7,5.9l0,0.2l10.4-1.9l0.2,1.3l-11.3,2.1l-0.5-2.6l9.7-5.9
			l0-0.2l-10.4,1.9L181.9,86.4z M191.5,100.6l0.9,0l0,1.4l-0.1,1.1l0.2,0.1l0.7-0.9l1-1l0.6,0.6l-1,1l-0.9,0.7l0.1,0.2l1.1-0.2l1.4,0
			l0,0.9l-1.4,0l-1.1-0.1l-0.1,0.2l0.9,0.7l1,1l-0.6,0.6l-1-1l-0.7-0.9l-0.2,0.1l0.2,1.1l0,1.4l-0.9,0l0-1.4l0.1-1.1l-0.2-0.1
			l-0.7,0.9l-1,1l-0.6-0.6l1-1l0.9-0.7l-0.1-0.2l-1.1,0.2l-1.4,0l0-0.9l1.4,0l1.1,0.1l0.1-0.2l-0.9-0.7l-1-1l0.6-0.6l1,1l0.7,0.9
			l0.2-0.1l-0.1-1.1L191.5,100.6z M182.7,118c0.2-1.3,0.8-2.4,1.7-3c0.9-0.7,2.1-0.9,3.6-0.6l2.6,0.4c1.5,0.2,2.6,0.8,3.2,1.8
			c0.7,0.9,0.9,2.1,0.6,3.4c-0.2,1.3-0.8,2.3-1.6,2.9s-1.9,0.8-3.2,0.6l-0.1,0l0.2-1.3l0.1,0c0.9,0.1,1.6,0,2.2-0.3c0.6-0.4,1-1,1.2-2
			c0.2-1,0-1.8-0.5-2.4c-0.5-0.6-1.3-1-2.3-1.2l-2.7-0.4c-1.1-0.2-1.9,0-2.6,0.4s-1.1,1.1-1.2,2.1c-0.2,1,0,1.7,0.5,2.3
			c0.5,0.5,1.1,0.9,2,1l0.3,0l-0.2,1.3l-0.2,0c-1.3-0.2-2.3-0.7-2.9-1.6C182.7,120.4,182.5,119.3,182.7,118z M180.3,128.1
			c0.4-1.3,1.1-2.2,2.1-2.8c1-0.5,2.2-0.6,3.7-0.2l2.5,0.8c1.5,0.4,2.4,1.2,3,2.2s0.6,2.2,0.2,3.5c-0.4,1.3-1.1,2.2-2.1,2.8
			s-2.2,0.6-3.7,0.2l-2.5-0.8c-1.5-0.4-2.4-1.2-3-2.2C180,130.5,179.9,129.4,180.3,128.1z M181.5,128.4c-0.3,1-0.2,1.8,0.2,2.5
			s1.1,1.2,2.1,1.5l2.6,0.8c1,0.3,1.9,0.3,2.6-0.1c0.7-0.3,1.2-1,1.5-1.9c0.3-0.9,0.2-1.8-0.2-2.5s-1.1-1.2-2.1-1.5l-2.6-0.8
			c-1-0.3-1.9-0.3-2.6,0.1C182.3,126.8,181.8,127.5,181.5,128.4z M178.6,134.4l10.3,5l-1.2,2.4l-10.9-1.9l-0.1,0.2l8.2,7.4l-1.2,2.4
			l-10.3-5l0.6-1.2l9.5,4.6l0.1-0.2l-8.2-7.4l1-2.1l10.8,1.9l0.1-0.2l-9.5-4.6L178.6,134.4z M172,146.8l9.7,6.2l-0.7,1.2l-9.7-6.2
			L172,146.8z M169.9,150.2l9.1,7.1l-1.6,2.1l-10.8-3.4l-0.1,0.2l8.4,6.5l-0.8,1.1l-9.1-7l1.6-2.1l10.8,3.4l0.1-0.2l-8.4-6.5
			L169.9,150.2z M160.2,161.2c0.6-0.6,1.3-1,2-1.2c0.7-0.2,1.4-0.2,2.2,0.1c0.7,0.2,1.5,0.7,2.2,1.4l1.8,1.9c1.1,1.1,1.6,2.2,1.6,3.3
			s-0.5,2.2-1.5,3.1c-1,0.9-2,1.4-3,1.4c-1,0-2-0.5-2.9-1.4l-0.1-0.1l1-1l0.1,0.1c0.4,0.4,0.8,0.7,1.2,0.8c0.4,0.2,0.9,0.2,1.4,0.1
			s0.9-0.4,1.4-0.9c0.7-0.7,1-1.4,1-2.2c0-0.8-0.4-1.6-1.2-2.4l-1.9-1.9c-0.8-0.8-1.5-1.2-2.3-1.2c-0.8,0-1.6,0.3-2.3,1
			c-0.7,0.7-1,1.4-0.9,2.1c0.1,0.7,0.4,1.4,1,2l0.2,0.2l2.5-2.4l0.8,0.8l-3.4,3.4l-3.8-3.9l0.9-0.9l0.9,0.9l0.2-0.2
			c-0.1-0.3-0.1-0.5-0.1-0.9c0-0.3,0.1-0.7,0.2-1S159.8,161.6,160.2,161.2z M148.8,170.4c0.7-0.5,1.4-0.8,2.1-0.9s1.4,0,2,0.2
			c0.6,0.3,1.2,0.8,1.7,1.5l0.2,0.3l-1.1,0.8l-0.2-0.3c-0.5-0.8-1.2-1.2-1.9-1.3s-1.4,0.1-2.2,0.6c-0.7,0.5-1.2,1-1.4,1.6
			c-0.2,0.6-0.1,1.2,0.3,1.7c0.2,0.4,0.5,0.6,0.8,0.7c0.3,0.1,0.7,0.1,1.1,0s0.9-0.2,1.3-0.4l0.8-0.3c0.7-0.2,1.3-0.4,1.8-0.5
			c0.6-0.1,1.1,0,1.6,0.2s0.9,0.5,1.2,1.1s0.5,1.1,0.5,1.7c0,0.6-0.2,1.1-0.5,1.7c-0.3,0.5-0.8,1-1.5,1.4c-0.6,0.4-1.3,0.7-2,0.8
			c-0.7,0.1-1.3,0.1-1.9-0.2c-0.6-0.2-1.1-0.7-1.5-1.3l-0.4-0.6l1.1-0.8l0.4,0.6c0.3,0.5,0.7,0.8,1,0.9c0.4,0.1,0.8,0.2,1.2,0.1
			c0.4-0.1,0.9-0.3,1.3-0.6c0.6-0.4,1-0.9,1.2-1.4c0.2-0.5,0.1-1.1-0.2-1.6c-0.2-0.3-0.5-0.6-0.8-0.7c-0.3-0.1-0.7-0.1-1,0
			c-0.4,0.1-0.8,0.2-1.3,0.4l-0.8,0.3c-0.6,0.3-1.2,0.4-1.8,0.5c-0.6,0.1-1.1,0.1-1.6-0.1s-0.9-0.5-1.3-1.1c-0.4-0.6-0.6-1.1-0.6-1.8
			c0-0.6,0.2-1.2,0.5-1.8C147.6,171.4,148.1,170.9,148.8,170.4z M140,175.6c1.2-0.6,2.4-0.7,3.5-0.4c1.1,0.3,2,1.2,2.6,2.6l1.2,2.3
			c0.7,1.4,0.8,2.6,0.4,3.7s-1.2,1.9-2.4,2.5c-1.2,0.6-2.4,0.7-3.5,0.4s-2-1.2-2.6-2.6l-1.2-2.3c-0.7-1.4-0.8-2.6-0.4-3.7
			C138,177,138.8,176.2,140,175.6z M140.6,176.7c-0.9,0.4-1.4,1.1-1.7,1.8c-0.2,0.8-0.1,1.6,0.4,2.6l1.2,2.4c0.5,0.9,1.1,1.6,1.8,1.9
			c0.8,0.3,1.6,0.2,2.5-0.2c0.9-0.4,1.4-1,1.7-1.8c0.2-0.8,0.1-1.6-0.4-2.6l-1.2-2.4c-0.5-0.9-1.1-1.6-1.8-1.9
			C142.3,176.2,141.4,176.2,140.6,176.7z M130.1,179.7c1.3-0.4,2.5-0.4,3.5,0.1c1,0.5,1.8,1.5,2.3,2.9l0.8,2.5
			c0.5,1.4,0.5,2.7-0.1,3.7c-0.5,1-1.4,1.7-2.7,2.2c-1.3,0.4-2.5,0.4-3.5-0.1c-1-0.5-1.8-1.5-2.3-2.9l-0.8-2.5
			c-0.5-1.4-0.5-2.7,0.1-3.7C127.9,180.8,128.8,180.1,130.1,179.7z M130.5,180.8c-0.9,0.3-1.6,0.8-1.9,1.6c-0.3,0.7-0.3,1.6,0,2.6
			l0.9,2.6c0.3,1,0.9,1.7,1.6,2.1c0.7,0.4,1.5,0.4,2.5,0.1c0.9-0.3,1.6-0.8,1.9-1.6c0.3-0.7,0.3-1.6,0-2.6l-0.9-2.6
			c-0.3-1-0.9-1.7-1.6-2.1C132.2,180.6,131.4,180.5,130.5,180.8z M123.8,181.8l2.1,11.3l-2.6,0.5l-5.9-9.7l-0.2,0l2,10.4l-1.3,0.3
			l-2.1-11.3l2.6-0.5l5.9,9.7l0.2,0l-2-10.4L123.8,181.8z M109.6,191.5l0,0.9l-1.4,0l-1.1-0.1l-0.1,0.2l0.9,0.7l1,1l-0.6,0.6l-1-1
			l-0.7-0.9l-0.2,0.1l0.2,1.1l0,1.4l-0.9,0l0-1.4l0.1-1.1l-0.2-0.1l-0.7,0.9l-1,1l-0.6-0.6l1-1l0.9-0.7l-0.1-0.2l-1.1,0.2l-1.4,0
			l0-0.9l1.4,0l1.1,0.1l0.1-0.2l-0.9-0.7l-1-1l0.6-0.6l1,1l0.7,0.9l0.2-0.1l-0.2-1.1l0-1.4l0.9,0l0,1.4l-0.1,1.1l0.2,0.1l0.7-0.9l1-1
			l0.6,0.6l-1,1l-0.9,0.7l0.1,0.2l1.1-0.1L109.6,191.5z M92.3,182.7c1.3,0.2,2.4,0.8,3,1.7c0.7,0.9,0.9,2.1,0.7,3.6l-0.4,2.6
			c-0.2,1.5-0.8,2.6-1.7,3.2c-0.9,0.7-2.1,0.9-3.4,0.7c-1.3-0.2-2.3-0.8-2.9-1.6c-0.6-0.9-0.8-1.9-0.6-3.2l0-0.1l1.3,0.2l0,0.1
			c-0.1,0.9,0,1.6,0.4,2.2c0.4,0.6,1,1,2,1.2c1,0.2,1.8,0,2.4-0.5s1-1.3,1.2-2.3l0.4-2.7c0.2-1.1,0-1.9-0.4-2.6
			c-0.4-0.7-1.1-1.1-2.1-1.2s-1.7,0-2.3,0.5c-0.5,0.5-0.9,1.1-1,2l0,0.3l-1.3-0.2l0-0.2c0.2-1.3,0.7-2.3,1.6-2.9
			C89.8,182.7,90.9,182.5,92.3,182.7z M82.2,180.4c1.3,0.4,2.2,1.1,2.8,2.1c0.5,1,0.6,2.2,0.2,3.7l-0.8,2.5c-0.4,1.5-1.2,2.4-2.2,3
			c-1,0.5-2.2,0.6-3.5,0.2c-1.3-0.4-2.3-1.1-2.8-2.1c-0.6-1-0.6-2.2-0.2-3.7l0.8-2.5c0.4-1.5,1.2-2.4,2.2-3
			C79.7,180.1,80.9,180,82.2,180.4z M81.8,181.6c-1-0.3-1.8-0.2-2.5,0.2c-0.7,0.4-1.2,1.1-1.5,2.1l-0.8,2.6c-0.3,1-0.3,1.9,0.1,2.6
			c0.4,0.7,1,1.2,2,1.5c0.9,0.3,1.8,0.2,2.5-0.2c0.7-0.4,1.2-1.1,1.5-2.1l0.8-2.6c0.3-1,0.3-1.9-0.1-2.6
			C83.4,182.4,82.8,181.9,81.8,181.6z M75.9,178.7l-5,10.3l-2.4-1.1l1.9-10.9l-0.2-0.1l-7.4,8.2l-2.4-1.1l5-10.3l1.2,0.6l-4.6,9.5
			l0.2,0.1l7.3-8.2l2.1,1l-1.9,10.8l0.2,0.1l4.6-9.5L75.9,178.7z M63.4,172.2l-6.1,9.7l-1.2-0.7l6.1-9.7L63.4,172.2z M60,170.1l-7,9.1
			l-2.1-1.6l3.3-10.8l-0.2-0.1l-6.5,8.4l-1.1-0.8l7-9.1l2.1,1.6l-3.3,10.8l0.2,0.1l6.5-8.4L60,170.1z M49,160.4c0.6,0.6,1,1.3,1.2,2
			s0.2,1.4,0,2.2c-0.2,0.7-0.7,1.5-1.4,2.2l-1.9,1.8c-1.1,1.1-2.2,1.6-3.3,1.6s-2.2-0.5-3.1-1.5c-1-1-1.4-2-1.4-3c0-1,0.5-2,1.4-2.9
			l0.1-0.1l1,1l-0.1,0.1c-0.4,0.4-0.7,0.8-0.8,1.2s-0.2,0.9-0.1,1.4c0.1,0.5,0.4,0.9,0.9,1.4c0.7,0.7,1.4,1,2.2,1
			c0.8,0,1.6-0.4,2.4-1.2l1.9-1.9c0.8-0.8,1.2-1.5,1.2-2.3c0-0.8-0.3-1.6-1-2.3c-0.7-0.7-1.4-1-2.1-0.9s-1.4,0.4-2,1l-0.2,0.2l2.4,2.5
			l-0.8,0.8l-3.4-3.4l3.9-3.8l0.9,0.9l-0.9,0.9l0.2,0.2c0.3-0.1,0.5-0.1,0.9-0.1s0.7,0.1,1,0.2C48.2,159.7,48.6,160,49,160.4z
			M39.7,149c0.5,0.7,0.8,1.4,0.9,2.1c0.1,0.7,0,1.4-0.2,2c-0.3,0.6-0.8,1.2-1.5,1.7l-0.3,0.2l-0.8-1.1l0.3-0.2
			c0.8-0.5,1.2-1.2,1.3-1.9c0.1-0.7-0.1-1.4-0.6-2.2c-0.5-0.7-1.1-1.2-1.7-1.4s-1.2-0.1-1.7,0.3c-0.4,0.2-0.6,0.5-0.7,0.8
			c-0.1,0.3-0.1,0.7,0,1.1c0.1,0.4,0.2,0.9,0.4,1.3l0.3,0.8c0.2,0.7,0.4,1.3,0.5,1.8c0.1,0.6,0,1.1-0.1,1.6c-0.2,0.5-0.5,0.9-1.1,1.2
			c-0.5,0.4-1.1,0.5-1.7,0.5c-0.6,0-1.1-0.2-1.7-0.5c-0.5-0.3-1-0.8-1.4-1.5c-0.4-0.6-0.7-1.3-0.8-2c-0.1-0.7-0.1-1.3,0.2-1.9
			s0.7-1.1,1.3-1.5l0.6-0.4l0.8,1.1l-0.6,0.4c-0.5,0.3-0.8,0.7-0.9,1s-0.2,0.8-0.1,1.2c0.1,0.4,0.3,0.9,0.6,1.3c0.4,0.6,0.9,1,1.4,1.2
			c0.5,0.2,1.1,0.1,1.6-0.2c0.3-0.2,0.6-0.5,0.6-0.8c0.1-0.3,0.1-0.7,0-1c-0.1-0.4-0.2-0.8-0.4-1.3l-0.3-0.8c-0.3-0.6-0.4-1.2-0.5-1.8
			c-0.1-0.6-0.1-1.1,0.1-1.6c0.2-0.5,0.5-0.9,1.1-1.3c0.6-0.4,1.1-0.6,1.8-0.6s1.2,0.2,1.8,0.5C38.7,147.8,39.2,148.4,39.7,149z
			M34.6,140.2c0.6,1.2,0.7,2.4,0.4,3.5c-0.3,1.1-1.2,2-2.6,2.6l-2.3,1.2c-1.4,0.7-2.6,0.8-3.6,0.5s-1.9-1.2-2.5-2.4
			c-0.6-1.2-0.8-2.4-0.4-3.5s1.2-2,2.6-2.6l2.3-1.2c1.4-0.7,2.6-0.8,3.6-0.5C33.1,138.2,33.9,139,34.6,140.2z M33.5,140.8
			c-0.4-0.9-1.1-1.4-1.8-1.7c-0.8-0.2-1.6-0.1-2.6,0.4l-2.4,1.2c-0.9,0.5-1.6,1.1-1.9,1.8c-0.3,0.8-0.2,1.6,0.2,2.5
			c0.4,0.9,1.1,1.4,1.8,1.7c0.8,0.2,1.6,0.1,2.6-0.4l2.4-1.2c0.9-0.5,1.6-1.1,1.9-1.8C34,142.5,33.9,141.7,33.5,140.8z M30.4,130.4
			c0.4,1.3,0.4,2.5-0.1,3.5c-0.5,1-1.5,1.8-2.9,2.3L25,137c-1.4,0.5-2.7,0.5-3.7,0s-1.7-1.4-2.2-2.7c-0.4-1.3-0.4-2.5,0.1-3.5
			c0.5-1,1.5-1.8,2.9-2.3l2.5-0.8c1.4-0.5,2.7-0.5,3.7,0C29.2,128.1,30,129.1,30.4,130.4z M29.2,130.8c-0.3-0.9-0.8-1.6-1.6-1.9
			s-1.6-0.3-2.6,0l-2.6,0.9c-1,0.3-1.7,0.9-2.1,1.6s-0.4,1.5-0.1,2.5c0.3,0.9,0.8,1.6,1.6,1.9s1.6,0.3,2.6,0l2.6-0.9
			c1-0.3,1.7-0.9,2.1-1.6C29.5,132.5,29.6,131.7,29.2,130.8z M28.2,124.1L17,126.3l-0.5-2.6l9.7-5.9l0-0.2l-10.4,2l-0.3-1.3l11.3-2.2
			l0.5,2.6l-9.7,5.9l0,0.2l10.4-2L28.2,124.1z M18.5,109.9l-0.9,0l0-1.4l0.1-1.1l-0.2-0.1l-0.7,0.9l-1,1l-0.6-0.6l1-1l0.9-0.7
			l-0.1-0.2l-1.1,0.2l-1.4,0l0-0.9l1.4,0l1.1,0.1l0.1-0.2l-0.9-0.7l-1-1l0.6-0.6l1,1l0.7,0.9l0.2-0.1l-0.2-1.1l0-1.4l0.9,0l0,1.4
			l-0.1,1.1l0.2,0.1l0.7-0.9l1-1l0.6,0.6l-1,1l-0.9,0.7l0.1,0.2l1.1-0.2l1.4,0l0,0.9l-1.4,0l-1.1-0.1l-0.1,0.2l0.9,0.7l1,1l-0.6,0.6
			l-1-1l-0.7-0.9l-0.2,0.1l0.1,1.1L18.5,109.9z M27.2,92.5c-0.2,1.4-0.8,2.4-1.7,3s-2.1,0.9-3.6,0.7l-2.6-0.4
			c-1.5-0.2-2.6-0.8-3.2-1.7s-0.9-2.1-0.7-3.4c0.2-1.3,0.7-2.3,1.6-2.9s1.9-0.8,3.2-0.6l0.1,0l-0.2,1.3l-0.1,0c-0.9-0.1-1.6,0-2.2,0.4
			c-0.6,0.4-1,1-1.2,2c-0.2,1,0,1.8,0.5,2.4c0.5,0.6,1.3,1,2.3,1.2l2.7,0.4c1.1,0.2,1.9,0,2.6-0.4c0.7-0.4,1.1-1.2,1.2-2.1
			c0.2-1,0-1.7-0.5-2.3c-0.5-0.5-1.1-0.9-2-1l-0.3,0l0.2-1.3l0.2,0c1.3,0.2,2.3,0.7,2.9,1.6C27.2,90.1,27.4,91.2,27.2,92.5z
			M29.5,82.5c-0.4,1.3-1.1,2.2-2.1,2.8c-1,0.6-2.2,0.6-3.7,0.2l-2.5-0.8c-1.5-0.4-2.4-1.2-3-2.2c-0.5-1-0.6-2.2-0.2-3.5
			c0.4-1.3,1.1-2.3,2.1-2.8c1-0.6,2.2-0.6,3.7-0.2l2.5,0.8c1.5,0.4,2.4,1.2,3,2.2C29.8,80,29.9,81.1,29.5,82.5z M28.3,82.1
			c0.3-1,0.2-1.8-0.2-2.5c-0.4-0.7-1.1-1.2-2.1-1.5l-2.6-0.8c-1-0.3-1.9-0.3-2.6,0.1s-1.2,1-1.5,2c-0.3,0.9-0.2,1.8,0.2,2.5
			s1.1,1.2,2.1,1.5l2.6,0.8c1,0.3,1.9,0.3,2.6-0.1C27.6,83.7,28.1,83,28.3,82.1z M31.2,76.1l-10.4-5l1.1-2.4l10.9,1.8l0.1-0.2
			l-8.2-7.3l1.1-2.4l10.4,5l-0.6,1.2l-9.5-4.6L26,62.5l8.2,7.3l-1,2.1l-10.8-1.8l-0.1,0.2l9.5,4.6L31.2,76.1z M37.7,63.6L28,57.5
			l0.7-1.2l9.7,6.1L37.7,63.6z M39.8,60.3l-9.1-7l1.6-2.1l10.9,3.3l0.1-0.2l-8.4-6.5l0.8-1.1l9.1,7l-1.6,2.1l-10.9-3.3l-0.1,0.2
			l8.4,6.5L39.8,60.3z M49.4,49.2c-0.6,0.6-1.3,1-2,1.2c-0.7,0.2-1.4,0.2-2.2,0c-0.7-0.2-1.5-0.7-2.2-1.4l-1.8-1.9
			c-1.1-1.1-1.6-2.2-1.6-3.3c0-1.1,0.5-2.2,1.5-3.1c1-1,2-1.4,3-1.4s2,0.5,2.9,1.4l0.1,0.1l-1,1L46,41.5c-0.4-0.4-0.8-0.7-1.2-0.8
			c-0.4-0.2-0.9-0.2-1.4-0.1c-0.5,0.1-0.9,0.4-1.4,0.9c-0.7,0.7-1,1.4-1,2.2c0,0.8,0.4,1.6,1.2,2.4l1.9,1.9c0.8,0.8,1.5,1.2,2.3,1.2
			s1.6-0.3,2.3-1c0.7-0.7,1-1.4,0.9-2.1c-0.1-0.7-0.4-1.4-1.1-2l-0.2-0.2l-2.5,2.5L45,45.5l3.4-3.4l3.8,3.9l-0.9,0.9L50.5,46l-0.2,0.2
			c0.1,0.3,0.1,0.5,0.1,0.9c0,0.3-0.1,0.7-0.2,1C50.1,48.4,49.8,48.8,49.4,49.2z M60.7,39.9c-0.7,0.5-1.4,0.8-2.1,0.9
			c-0.7,0.1-1.4,0-2-0.2s-1.2-0.8-1.7-1.5l-0.2-0.3l1.1-0.8l0.2,0.3c0.5,0.8,1.2,1.2,1.9,1.3c0.7,0.1,1.4-0.1,2.2-0.6
			c0.7-0.5,1.2-1.1,1.4-1.7c0.2-0.6,0.1-1.2-0.3-1.7c-0.2-0.4-0.5-0.6-0.8-0.7c-0.3-0.1-0.7-0.1-1.1,0s-0.9,0.2-1.3,0.4L57,35.6
			c-0.6,0.2-1.3,0.4-1.8,0.5s-1.1,0-1.6-0.1c-0.5-0.2-0.9-0.5-1.3-1.1c-0.4-0.5-0.5-1.1-0.5-1.7c0-0.6,0.2-1.1,0.5-1.7
			c0.3-0.5,0.8-1,1.5-1.5c0.6-0.4,1.3-0.7,2-0.8s1.3-0.1,1.9,0.2c0.6,0.2,1.1,0.7,1.5,1.3l0.4,0.6l-1.1,0.8l-0.4-0.6
			c-0.3-0.5-0.7-0.8-1-0.9c-0.4-0.1-0.8-0.2-1.2-0.1c-0.4,0.1-0.9,0.3-1.3,0.6c-0.6,0.4-1,0.9-1.2,1.4c-0.2,0.5-0.1,1.1,0.2,1.6
			c0.2,0.3,0.5,0.5,0.8,0.6c0.3,0.1,0.7,0.1,1,0c0.4-0.1,0.8-0.2,1.3-0.4l0.8-0.3c0.6-0.3,1.2-0.4,1.8-0.5c0.6-0.1,1.1-0.1,1.6,0.1
			c0.5,0.2,0.9,0.5,1.3,1.1c0.4,0.6,0.6,1.1,0.6,1.7c0,0.6-0.2,1.2-0.5,1.8C61.9,38.9,61.4,39.4,60.7,39.9z M69.5,34.7
			c-1.2,0.6-2.4,0.8-3.5,0.4s-2-1.2-2.7-2.5l-1.2-2.3c-0.7-1.4-0.8-2.6-0.5-3.6c0.4-1.1,1.2-1.9,2.4-2.5c1.2-0.6,2.4-0.8,3.5-0.4
			c1.1,0.3,2,1.2,2.7,2.5l1.2,2.3c0.7,1.4,0.8,2.6,0.5,3.6C71.5,33.2,70.7,34.1,69.5,34.7z M68.9,33.6c0.9-0.4,1.4-1.1,1.7-1.8
			s0.1-1.6-0.4-2.6L69,26.7c-0.5-0.9-1.1-1.6-1.9-1.8c-0.8-0.3-1.6-0.2-2.5,0.2c-0.9,0.4-1.4,1.1-1.6,1.8s-0.1,1.6,0.4,2.6l1.2,2.4
			c0.5,0.9,1.1,1.6,1.9,1.8C67.2,34.1,68.1,34,68.9,33.6z M79.4,30.5c-1.3,0.4-2.5,0.4-3.5-0.1c-1-0.5-1.8-1.4-2.3-2.9l-0.9-2.5
			c-0.5-1.4-0.5-2.7,0-3.7c0.5-1,1.4-1.7,2.7-2.2c1.3-0.4,2.5-0.4,3.5,0.1c1,0.5,1.8,1.4,2.3,2.9l0.9,2.5c0.5,1.4,0.5,2.7,0,3.7
			C81.6,29.3,80.7,30.1,79.4,30.5z M79,29.3c0.9-0.3,1.6-0.9,1.9-1.6s0.3-1.6,0-2.6L80,22.5c-0.3-1-0.9-1.7-1.6-2.1
			c-0.7-0.4-1.5-0.4-2.5-0.1C75,20.7,74.4,21.2,74,22c-0.3,0.7-0.3,1.6,0,2.6l0.9,2.6c0.3,1,0.9,1.7,1.6,2.1S78.1,29.7,79,29.3z
			M85.6,28.3L83.4,17l2.6-0.5l6,9.6l0.2,0l-2-10.4l1.3-0.3l2.2,11.3l-2.6,0.5l-6-9.7l-0.2,0L87,28L85.6,28.3z M99.8,18.6l0-0.9l1.4,0
			l1.1,0.1l0.1-0.2l-0.9-0.7l-1-1l0.6-0.6l1,1l0.7,0.9l0.2-0.1l-0.2-1.1l0-1.4l0.9,0l0,1.4l-0.1,1.1l0.2,0.1l0.7-0.9l1-1l0.6,0.6l-1,1
			l-0.9,0.7l0.1,0.2l1.1-0.2l1.4,0l0,0.9l-1.4,0l-1.1-0.1l-0.1,0.2l0.9,0.7l1,1l-0.6,0.6l-1-1l-0.7-0.9l-0.2,0.1l0.2,1.1l0,1.4l-0.9,0
			l0-1.4L103,19l-0.2-0.1l-0.7,0.9l-1,1l-0.6-0.6l1-1l0.9-0.7l-0.1-0.2l-1.1,0.2L99.8,18.6z"/>
	</g>
</svg>
