<svg id="showreel-object" xmlns="http://www.w3.org/2000/svg" xmlns:xlink="http://www.w3.org/1999/xlink" 
	shape-rendering="geometricPrecision" text-rendering="geometricPrecision" width="210px" height="210px" viewBox="0 0 210 210" 
	style="enable-background:new 0 0 210 210;" xml:space="preserve">

	<style type="text/css">
		#rotation-group {
			animation: rotateInfinite 9000ms linear infinite normal forwards
		}
		@keyframes rotateInfinite {
			0% {
				transform: translate(105px,105px) rotate(0deg);
				}
			100% {
				transform: translate(105px,105px) rotate(360deg);
				}
		}
	</style>

	<path fill="#ffffff" d="M105,2c56.8,0,103,46.2,103,103s-46.2,103-103,103S2,161.8,2,105S48.2,2,105,2 M105,0C47,0,0,47,0,105
		s47,105,105,105s105-47,105-105S163,0,105,0L105,0z"/>
	<path fill="#ffffff" d="M87.3,81.1c0.4-2.2,1.7-3.4,3.9-3.6h21.5c0.9,0,1.7,0.3,2.4,1c0.7,0.7,1,1.5,1,2.4c0,0.4-0.1,0.8-0.3,1.3
		L110,97.8h17.6c1.4,0,2.5,0.5,3.3,1.4c0.9,0.8,1.4,1.9,1.4,3.3c0,0.9-0.3,1.8-0.8,2.5l-24.5,35.7c-0.8,1.2-1.8,1.8-3.2,1.8h-0.4
		c-1,0-1.9-0.3-2.7-1c-0.7-0.7-1-1.5-1-2.5c0-0.3,0-0.6,0.1-0.9l6-24H87.7c-1.2,0-2.2-0.4-2.9-1.1c-0.8-0.8-1.1-1.7-1.1-2.9
		L87.3,81.1z"/>
	
	<g id="rotation-group" transform="translate(105,105) rotate(360)">
		<path fill="#ffffff" transform="translate(-105,-105)" d="M118.2,27.2c-0.8-0.1-1.5-0.4-2.1-0.8c-0.6-0.4-1-0.9-1.3-1.6s-0.3-1.4-0.2-2.3l0.1-0.3l1.3,0.2l-0.1,0.3
			c-0.2,0.9,0,1.7,0.5,2.2c0.5,0.5,1.1,0.9,2,1c0.9,0.1,1.6,0.1,2.1-0.3c0.5-0.3,0.8-0.8,0.9-1.4c0.1-0.4,0-0.8-0.1-1.1
			s-0.4-0.5-0.8-0.8c-0.4-0.2-0.8-0.4-1.3-0.6l-0.8-0.4c-0.6-0.3-1.2-0.6-1.6-0.9c-0.5-0.3-0.8-0.7-1-1.2c-0.2-0.5-0.3-1-0.2-1.6
			c0.1-0.6,0.4-1.2,0.8-1.6s0.9-0.7,1.5-0.8c0.6-0.2,1.3-0.2,2.1,0c0.8,0.1,1.4,0.4,2,0.7s1,0.8,1.2,1.4c0.3,0.6,0.3,1.2,0.2,2
			l-0.1,0.7l-1.3-0.2l0.1-0.7c0.1-0.5,0.1-1-0.1-1.4c-0.2-0.4-0.5-0.7-0.8-0.9c-0.4-0.2-0.8-0.4-1.3-0.5c-0.7-0.1-1.4-0.1-1.9,0.2
			c-0.5,0.3-0.8,0.7-0.9,1.3c-0.1,0.4,0,0.7,0.1,1c0.2,0.3,0.4,0.5,0.7,0.7c0.3,0.2,0.7,0.4,1.2,0.6l0.8,0.3c0.6,0.2,1.2,0.5,1.7,0.9
			s0.8,0.7,1.1,1.2s0.3,1,0.2,1.7c-0.1,0.7-0.4,1.2-0.8,1.7c-0.4,0.4-1,0.7-1.6,0.9C119.8,27.4,119,27.4,118.2,27.2z M124.2,28.2
			l3.3-10.9l1.3,0.4l-1.5,4.9l5.1,1.6l1.5-4.9l1.3,0.4L132,30.5l-1.3-0.4l1.5-4.9l-5.1-1.6l-1.5,4.9L124.2,28.2z M138,33.3
			c-1.2-0.6-2.1-1.4-2.5-2.4c-0.4-1.1-0.3-2.3,0.3-3.6l1.1-2.4c0.6-1.4,1.5-2.2,2.6-2.6c1.1-0.4,2.2-0.3,3.5,0.3
			c1.2,0.6,2.1,1.4,2.5,2.4c0.4,1.1,0.3,2.3-0.3,3.6L144,31c-0.6,1.4-1.5,2.2-2.6,2.6C140.4,34,139.2,33.9,138,33.3z M138.5,32.2
			c0.9,0.4,1.7,0.5,2.5,0.2c0.7-0.3,1.3-0.9,1.8-1.9l1.1-2.5c0.4-1,0.5-1.8,0.3-2.6c-0.2-0.8-0.8-1.4-1.7-1.8
			c-0.9-0.4-1.7-0.5-2.5-0.2s-1.3,0.9-1.8,1.9l-1.1,2.5c-0.4,1-0.5,1.8-0.3,2.6C137,31.2,137.6,31.8,138.5,32.2z M144.9,36.5l4.8-10.5
			l1.1,0.8l-4.5,9.7l0.2,0.1l7.6-7.6l2,1.4l-4.1,9.9l0.2,0.1l7.2-7.9l1.1,0.8l-7.9,8.5l-2-1.4l4.1-10l-0.2-0.1l-7.6,7.7L144.9,36.5z
			M155.5,44l7.7-8.4l3.4,3.1c0.5,0.5,0.9,1,1.1,1.5s0.3,1.1,0.2,1.6c-0.1,0.5-0.3,1-0.8,1.5l-0.1,0.1c-0.5,0.6-1,0.9-1.6,1
			c-0.6,0.1-1.1,0-1.5-0.2l-0.2,0.2c0.3,0.3,0.4,0.6,0.5,0.9s-0.1,0.7-0.5,1.1l-2.6,2.8l-1-0.9l2.5-2.7c0.2-0.2,0.3-0.5,0.3-0.7
			c0-0.2-0.2-0.5-0.4-0.7l-2.9-2.7l-3.2,3.5L155.5,44z M160.5,40.6l2.3,2.1c0.6,0.5,1.1,0.8,1.7,0.8c0.5,0,1-0.2,1.5-0.7l0.1-0.1
			c0.4-0.5,0.6-1,0.6-1.5s-0.4-1.1-0.9-1.6l-2.3-2.1L160.5,40.6z M162.9,51l8.7-7.4l4.6,5.3l-0.9,0.8l-3.7-4.3l-2.9,2.5l3.4,4
			l-0.9,0.8l-3.4-4l-3,2.5l3.7,4.4l-0.9,0.8L162.9,51z M168.7,58l9.5-6.4l3.9,5.8l-1,0.7l-3.2-4.7l-3.2,2.1l2.9,4.3l-1,0.7l-2.9-4.3
			l-3.2,2.2l3.2,4.8l-1,0.7L168.7,58z M173.7,65.7l10.1-5.3l0.6,1.2l-9,4.7l2.7,5.1L177,72L173.7,65.7z M186,74.3l0.8-0.3l0.4,1.3
			l0.2,1.1l0.2,0l0.4-1.1l0.6-1.2l0.8,0.4l-0.6,1.2l-0.6,0.9l0.1,0.1l1-0.5l1.3-0.4l0.3,0.8l-1.3,0.4l-1.1,0.2l0,0.2l1.1,0.4l1.2,0.6
			l-0.4,0.8l-1.3-0.6l-0.9-0.7l-0.1,0.1l0.5,1l0.4,1.3l-0.8,0.3l-0.4-1.3l-0.2-1.1l-0.2,0l-0.4,1.1l-0.6,1.2l-0.8-0.4l0.6-1.2l0.6-1
			l-0.1-0.1l-1,0.5l-1.3,0.4l-0.3-0.8l1.3-0.4l1.1-0.2l0-0.2l-1.1-0.4l-1.2-0.6l0.4-0.8l1.2,0.6l1,0.6l0.1-0.1l-0.5-1L186,74.3z
			M182.9,93.2c-0.1-0.8-0.1-1.6,0.1-2.3s0.6-1.3,1.1-1.7s1.2-0.8,2.1-0.9l0.3-0.1l0.2,1.3l-0.3,0.1c-0.9,0.1-1.6,0.5-2,1.1
			s-0.5,1.4-0.4,2.2c0.1,0.9,0.4,1.5,0.9,1.9c0.5,0.4,1,0.6,1.6,0.5c0.4-0.1,0.7-0.2,1-0.5c0.2-0.2,0.4-0.6,0.5-1
			c0.1-0.4,0.2-0.9,0.2-1.4l0.1-0.9c0.1-0.7,0.2-1.3,0.4-1.8c0.2-0.5,0.4-1,0.8-1.3c0.4-0.3,0.9-0.6,1.5-0.7s1.2,0,1.7,0.2
			c0.5,0.2,0.9,0.6,1.3,1.2c0.3,0.5,0.6,1.2,0.7,1.9c0.1,0.8,0.1,1.5-0.1,2.1c-0.2,0.6-0.5,1.2-0.9,1.6c-0.5,0.4-1.1,0.7-1.9,0.8
			l-0.7,0.1l-0.2-1.3l0.7-0.1c0.5-0.1,1-0.3,1.3-0.5c0.3-0.3,0.5-0.6,0.6-1.1c0.1-0.4,0.1-0.9,0-1.4c-0.1-0.7-0.4-1.3-0.8-1.7
			c-0.4-0.4-0.9-0.6-1.5-0.5c-0.4,0.1-0.7,0.2-0.9,0.4s-0.4,0.5-0.5,0.9s-0.2,0.8-0.2,1.3l-0.1,0.9c0,0.7-0.1,1.3-0.3,1.9
			c-0.2,0.6-0.4,1-0.8,1.4c-0.4,0.4-0.9,0.6-1.6,0.7s-1.3,0-1.8-0.2c-0.5-0.3-1-0.7-1.4-1.2C183.3,94.7,183,94,182.9,93.2z
			M183.9,99.1l11.4-0.2l0,1.4l-5.1,0.1l0.1,5.4l5.1-0.1l0,1.4l-11.4,0.2l0-1.4l5.1-0.1l-0.1-5.4l-5.1,0.1L183.9,99.1z M183.3,113.8
			c0.2-1.4,0.7-2.4,1.5-3.1c0.9-0.7,2.1-1,3.6-0.8l2.6,0.3c1.5,0.2,2.6,0.7,3.3,1.6c0.7,0.9,1,2,0.8,3.4c-0.2,1.4-0.7,2.4-1.5,3.1
			s-2.1,1-3.6,0.8l-2.6-0.3c-1.5-0.2-2.6-0.7-3.3-1.6C183.4,116.3,183.1,115.2,183.3,113.8z M184.5,114c-0.1,1,0.1,1.8,0.6,2.4
			c0.5,0.6,1.3,1,2.4,1.1l2.7,0.3c1,0.1,1.9-0.1,2.6-0.5s1-1.2,1.1-2.2c0.1-1-0.1-1.8-0.6-2.4c-0.5-0.6-1.3-1-2.4-1.1l-2.7-0.3
			c-1-0.1-1.9,0.1-2.6,0.5C185,112.3,184.6,113,184.5,114z M182.4,121.4l11.5,1.2l-0.4,1.3l-10.6-1.2l-0.1,0.2l9.6,4.8l-0.7,2.4
			l-10.7-0.8l-0.1,0.2l9.7,4.4l-0.4,1.3l-10.5-4.8l0.7-2.4l10.8,0.8l0.1-0.2l-9.7-4.9L182.4,121.4z M178.6,133.8l10.4,4.7l-1.9,4.2
			c-0.3,0.6-0.7,1.2-1.1,1.6c-0.4,0.4-0.9,0.6-1.5,0.7s-1.1,0-1.7-0.2l-0.2-0.1c-0.7-0.3-1.2-0.7-1.4-1.2c-0.2-0.5-0.3-1-0.3-1.5
			l-0.2-0.1c-0.2,0.4-0.4,0.6-0.7,0.7c-0.3,0.1-0.7,0.1-1.2-0.1l-3.5-1.6l0.6-1.2l3.4,1.5c0.3,0.1,0.6,0.2,0.8,0.1
			c0.2-0.1,0.4-0.3,0.6-0.6l1.6-3.6l-4.3-1.9L178.6,133.8z M183.5,137.5l-1.3,2.8c-0.3,0.7-0.4,1.3-0.2,1.8s0.5,0.9,1.1,1.2l0.1,0
			c0.6,0.3,1.1,0.3,1.6,0.1s0.9-0.7,1.2-1.4l1.3-2.8L183.5,137.5z M174.3,143l9.8,5.9l-3.7,6l-1.1-0.6l2.9-4.8l-3.3-2l-2.7,4.5
			l-1.1-0.6l2.7-4.5l-3.3-2l-3,4.9l-1.1-0.6L174.3,143z M169.4,150.7l9,7l-4.3,5.6l-1-0.8l3.5-4.5l-3-2.3l-3.2,4.1l-1-0.8l3.2-4.1
			l-3.1-2.4l-3.5,4.5l-1-0.8L169.4,150.7z M163.7,157.8l8.2,8l-1,1l-7.3-7.1l-4,4.1l-0.9-0.9L163.7,157.8z M159.4,172.2l0.5,0.7
			l-1.1,0.8l-1,0.6l0,0.2l1.1,0l1.4,0.2l-0.1,0.9l-1.4-0.2l-1.1-0.3l-0.1,0.2l0.8,0.8l0.8,1.1l-0.7,0.5l-0.8-1.1l-0.6-1l-0.2,0l0,1.1
			l-0.2,1.4l-0.9-0.1l0.2-1.4l0.3-1.1l-0.2-0.1l-0.8,0.8l-1.1,0.8l-0.5-0.7l1.1-0.8l1-0.6l0-0.2l-1.2,0l-1.4-0.2l0.1-0.9l1.4,0.2
			l1.1,0.3l0.1-0.2l-0.8-0.8l-0.8-1.1l0.7-0.5l0.8,1.1l0.6,1l0.2,0l0-1.2l0.2-1.4l0.9,0.1l-0.2,1.4l-0.3,1.1l0.2,0.1l0.8-0.8
			L159.4,172.2z M140.5,175.2c0.7-0.4,1.5-0.6,2.2-0.6s1.4,0.1,2,0.5c0.6,0.4,1.1,0.9,1.5,1.7l0.2,0.3l-1.2,0.6l-0.2-0.3
			c-0.4-0.8-1-1.3-1.7-1.5s-1.4,0-2.2,0.4c-0.8,0.4-1.3,0.9-1.5,1.5c-0.2,0.6-0.2,1.1,0.1,1.7c0.2,0.4,0.4,0.6,0.7,0.8
			s0.7,0.2,1.1,0.1c0.4,0,0.9-0.1,1.4-0.2l0.9-0.2c0.7-0.1,1.3-0.2,1.9-0.2c0.6,0,1.1,0.1,1.5,0.3c0.4,0.2,0.8,0.6,1.1,1.2
			s0.4,1.1,0.3,1.7c-0.1,0.6-0.3,1.1-0.7,1.6c-0.4,0.5-0.9,0.9-1.6,1.2c-0.7,0.4-1.4,0.5-2,0.6c-0.7,0-1.3-0.1-1.8-0.4s-1-0.8-1.4-1.5
			l-0.3-0.6l1.2-0.6l0.3,0.6c0.3,0.5,0.6,0.8,0.9,1c0.4,0.2,0.8,0.3,1.2,0.2c0.4,0,0.9-0.2,1.4-0.4c0.7-0.3,1.1-0.8,1.4-1.3
			c0.3-0.5,0.2-1,0-1.6c-0.2-0.4-0.4-0.6-0.7-0.7s-0.6-0.2-1-0.2c-0.4,0-0.8,0.1-1.3,0.2l-0.9,0.2c-0.7,0.2-1.3,0.3-1.9,0.3
			s-1.1-0.1-1.6-0.3s-0.9-0.6-1.2-1.2c-0.3-0.6-0.4-1.2-0.3-1.8c0.1-0.6,0.3-1.2,0.7-1.7S139.8,175.6,140.5,175.2z M135.1,178
			l3.8,10.8l-1.3,0.5l-1.7-4.8l-5.1,1.8l1.7,4.8l-1.3,0.5l-3.8-10.8l1.3-0.5l1.7,4.8l5.1-1.8l-1.7-4.8L135.1,178z M121,182
			c1.3-0.3,2.5-0.1,3.4,0.5s1.6,1.7,1.9,3.1l0.5,2.6c0.3,1.5,0.1,2.7-0.5,3.6c-0.6,0.9-1.6,1.5-3,1.8c-1.3,0.3-2.5,0.1-3.4-0.5
			c-1-0.6-1.6-1.7-1.9-3.1l-0.5-2.6c-0.3-1.5-0.1-2.7,0.5-3.6C118.7,182.9,119.6,182.3,121,182z M121.2,183.2c-1,0.2-1.7,0.6-2.1,1.3
			c-0.4,0.7-0.5,1.6-0.3,2.6l0.5,2.7c0.2,1,0.6,1.8,1.3,2.3c0.7,0.5,1.5,0.6,2.4,0.4c1-0.2,1.6-0.6,2.1-1.3c0.4-0.7,0.5-1.6,0.3-2.6
			l-0.5-2.7c-0.2-1-0.6-1.8-1.3-2.3C123,183.2,122.2,183,121.2,183.2z M113.5,183.6l2.4,11.3l-1.4,0.1l-2.1-10.5l-0.2,0l-1.6,10.6
			l-2.4,0.1l-2.6-10.4l-0.2,0l-1.1,10.6l-1.4,0.1l1.3-11.5l2.4-0.1l2.6,10.5l0.2,0l1.6-10.7L113.5,183.6z M100.6,183.8l-1.2,11.4
			l-4.6-0.5c-0.7-0.1-1.3-0.3-1.8-0.6c-0.5-0.3-0.9-0.7-1.2-1.2s-0.4-1-0.3-1.7l0-0.2c0.1-0.7,0.3-1.3,0.7-1.7
			c0.4-0.4,0.9-0.6,1.4-0.7l0-0.2c-0.4-0.1-0.7-0.2-0.9-0.5c-0.2-0.3-0.3-0.6-0.3-1.1l0.4-3.8l1.3,0.1l-0.4,3.7c0,0.3,0,0.6,0.2,0.8
			c0.2,0.2,0.4,0.3,0.8,0.3l3.9,0.4l0.5-4.7L100.6,183.8z M98.6,189.6l-3.1-0.3c-0.7-0.1-1.3,0-1.8,0.4c-0.4,0.3-0.7,0.8-0.8,1.5
			l0,0.1c-0.1,0.6,0.1,1.2,0.4,1.6c0.4,0.4,0.9,0.6,1.7,0.7l3.1,0.3L98.6,189.6z M90.5,182.6l-2.6,11.1l-6.9-1.6l0.3-1.2l5.5,1.3
			l0.9-3.7l-5.1-1.2l0.3-1.2l5.1,1.2l0.9-3.8l-5.6-1.3l0.3-1.2L90.5,182.6z M81.6,180.4l-3.8,10.8l-6.6-2.4l0.4-1.2l5.3,1.9l1.3-3.6
			l-4.9-1.7l0.4-1.2l4.9,1.7l1.3-3.7l-5.4-1.9l0.4-1.2L81.6,180.4z M73.1,177.2l-5,10.3l-1.2-0.6l4.5-9.2l-5.2-2.5l0.5-1.1L73.1,177.2
			z M58.1,177.6l-0.5,0.7l-1.1-0.8l-0.8-0.8l-0.2,0.1l0.4,1.1l0.2,1.4l-0.9,0.1l-0.2-1.4l-0.1-1.1l-0.2,0l-0.5,1l-0.8,1.1l-0.7-0.5
			l0.8-1.1l0.8-0.8l-0.1-0.2l-1.1,0.3l-1.4,0.2l-0.2-0.9l1.4-0.2l1.1,0l0-0.2l-1-0.5l-1.1-0.8l0.5-0.7l1.1,0.8l0.8,0.8l0.2-0.1
			l-0.3-1.1l-0.2-1.4l0.9-0.2l0.2,1.4l0,1.2l0.2,0l0.5-1l0.8-1.1l0.7,0.5l-0.8,1.1l-0.8,0.8l0.1,0.2l1.1-0.3l1.4-0.2l0.1,0.9l-1.4,0.2
			l-1.2,0l0,0.2l1,0.5L58.1,177.6z M49.4,160.6c0.6,0.6,1,1.2,1.3,1.9c0.3,0.7,0.3,1.3,0.2,2c-0.2,0.7-0.5,1.3-1.2,2l-0.2,0.2l-1-1
			l0.2-0.2c0.7-0.7,1-1.4,0.9-2.1c-0.1-0.7-0.4-1.4-1-2c-0.6-0.6-1.3-1-1.9-1s-1.1,0.1-1.6,0.6c-0.3,0.3-0.5,0.6-0.5,0.9
			c0,0.3,0,0.7,0.2,1.1c0.2,0.4,0.4,0.8,0.7,1.2l0.5,0.8c0.3,0.6,0.6,1.2,0.8,1.7c0.2,0.5,0.2,1.1,0.2,1.5c-0.1,0.5-0.4,1-0.8,1.4
			c-0.5,0.5-1,0.7-1.5,0.8c-0.6,0.1-1.1,0-1.7-0.2c-0.6-0.2-1.2-0.6-1.7-1.2c-0.5-0.5-0.9-1.1-1.2-1.8c-0.2-0.6-0.3-1.2-0.2-1.9
			c0.1-0.6,0.4-1.2,1-1.8l0.5-0.5l1,1l-0.5,0.5c-0.4,0.4-0.6,0.8-0.7,1.2c-0.1,0.4,0,0.8,0.2,1.2c0.2,0.4,0.4,0.8,0.8,1.2
			c0.5,0.5,1.1,0.8,1.6,0.9c0.6,0.1,1.1-0.1,1.5-0.5c0.3-0.3,0.4-0.6,0.5-0.9c0-0.3,0-0.7-0.2-1c-0.1-0.4-0.3-0.8-0.6-1.2l-0.5-0.8
			c-0.4-0.6-0.7-1.1-0.9-1.7c-0.2-0.5-0.3-1.1-0.2-1.6c0.1-0.5,0.3-1,0.8-1.5s1-0.8,1.6-0.9c0.6-0.1,1.2-0.1,1.8,0.2
			C48.2,159.6,48.8,160,49.4,160.6z M45,156.4l-9,7l-0.8-1.1l4-3.1l-3.3-4.2l-4,3.1L31,157l9-7l0.8,1.1l-4,3.1l3.3,4.2l4-3.1L45,156.4
			z M36.7,144.2c0.7,1.2,0.9,2.3,0.6,3.4s-1.1,2-2.4,2.8l-2.3,1.3c-1.3,0.8-2.5,1-3.6,0.7c-1.1-0.3-2-1.1-2.7-2.2
			c-0.7-1.2-0.9-2.3-0.6-3.4c0.3-1.1,1.1-2,2.4-2.8l2.3-1.3c1.3-0.8,2.5-1,3.6-0.7C35.2,142.3,36.1,143,36.7,144.2z M35.7,144.8
			c-0.5-0.9-1.1-1.4-1.9-1.5c-0.8-0.2-1.6,0-2.6,0.5l-2.3,1.4c-0.9,0.5-1.5,1.2-1.7,1.9c-0.2,0.8-0.1,1.6,0.4,2.4
			c0.5,0.8,1.1,1.4,1.9,1.5c0.8,0.2,1.6,0,2.6-0.5l2.3-1.4c0.9-0.5,1.5-1.2,1.7-1.9C36.3,146.5,36.2,145.7,35.7,144.8z M32.9,137.6
			l-10,5.8l-0.5-1.3l9.3-5.3l-0.1-0.2L21,138.5l-0.9-2.3l9.1-5.7l-0.1-0.2l-10.4,2.3l-0.5-1.3l11.3-2.4l0.9,2.3l-9.2,5.8l0.1,0.2
			l10.7-1.8L32.9,137.6z M28.6,125.4l-11.2,2.4l-1-4.5c-0.2-0.7-0.2-1.3,0-1.9c0.1-0.6,0.4-1.1,0.8-1.5c0.4-0.4,0.9-0.7,1.5-0.8l0.2,0
			c0.7-0.2,1.4-0.1,1.9,0.2c0.5,0.3,0.9,0.6,1.1,1.1l0.2,0c-0.1-0.4,0-0.7,0.2-1c0.2-0.3,0.5-0.5,1-0.6l3.8-0.8l0.3,1.3l-3.6,0.8
			c-0.3,0.1-0.5,0.2-0.7,0.4c-0.1,0.2-0.2,0.5-0.1,0.8l0.8,3.9l4.6-1L28.6,125.4z M22.5,125.4l-0.7-3c-0.2-0.7-0.5-1.3-0.9-1.6
			c-0.4-0.3-1-0.4-1.6-0.3l-0.1,0c-0.6,0.1-1.1,0.4-1.4,0.9c-0.3,0.5-0.3,1.1-0.2,1.8l0.7,3L22.5,125.4z M26.6,115.4l-11.4,1l-0.6-7
			l1.2-0.1l0.5,5.6l3.8-0.3l-0.5-5.2l1.2-0.1l0.5,5.2l3.9-0.4l-0.5-5.7l1.2-0.1L26.6,115.4z M26,106.3l-11.4-0.3l0.2-7l1.2,0l-0.1,5.7
			l3.8,0.1l0.1-5.2l1.2,0l-0.1,5.2l3.9,0.1l0.1-5.8l1.2,0L26,106.3z M26.3,97.2L15,95.7l0.2-1.4l10.1,1.4L26,90l1.2,0.2L26.3,97.2z
			M21.2,83.1l-0.8-0.3l0.4-1.3l0.5-1l-0.1-0.1L20.2,81l-1.2,0.6l-0.4-0.8l1.2-0.7l1.1-0.4l0-0.2l-1.1-0.2L18.3,79l0.3-0.8l1.3,0.4
			l1,0.5l0.1-0.1L20.4,78l-0.7-1.2l0.8-0.4l0.7,1.2l0.4,1.1l0.2,0l0.2-1.1l0.4-1.3l0.8,0.3l-0.4,1.3l-0.5,1l0.1,0.1l0.9-0.7l1.2-0.7
			l0.4,0.8L23.8,79l-1.1,0.4l0,0.2l1.1,0.2l1.3,0.4L25,81l-1.3-0.4l-1-0.5l-0.1,0.1l0.7,0.9l0.7,1.2L23,82.9l-0.7-1.2L22,80.6l-0.2,0
			l-0.2,1.1L21.2,83.1z M34.6,69.5c-0.4,0.7-0.8,1.3-1.4,1.8c-0.6,0.5-1.2,0.7-1.9,0.8c-0.7,0.1-1.4-0.1-2.2-0.5l-0.3-0.2l0.6-1.2
			l0.3,0.2c0.8,0.4,1.6,0.5,2.3,0.2c0.7-0.3,1.2-0.8,1.6-1.6c0.4-0.8,0.5-1.5,0.4-2.1s-0.5-1-1-1.3c-0.4-0.2-0.7-0.2-1-0.2
			c-0.3,0.1-0.6,0.2-0.9,0.5c-0.3,0.3-0.6,0.6-1,1l-0.6,0.7c-0.5,0.5-0.9,0.9-1.4,1.3c-0.5,0.3-0.9,0.6-1.4,0.6c-0.5,0.1-1,0-1.6-0.3
			c-0.6-0.3-1-0.7-1.3-1.2c-0.3-0.5-0.4-1.1-0.4-1.7c0-0.6,0.2-1.3,0.6-2c0.3-0.7,0.8-1.3,1.3-1.7s1.1-0.7,1.7-0.8
			c0.6-0.1,1.3,0.1,2,0.4l0.6,0.3l-0.6,1.2l-0.6-0.3c-0.5-0.2-0.9-0.3-1.4-0.3c-0.4,0.1-0.8,0.2-1.1,0.5c-0.3,0.3-0.6,0.7-0.8,1.1
			c-0.3,0.7-0.5,1.3-0.4,1.8s0.4,1,1,1.2c0.4,0.2,0.7,0.2,1,0.2c0.3-0.1,0.6-0.2,0.9-0.5c0.3-0.2,0.6-0.6,1-1L29,66
			c0.4-0.5,0.9-1,1.3-1.3c0.5-0.4,0.9-0.6,1.5-0.7c0.5-0.1,1.1,0,1.7,0.3s1.1,0.7,1.3,1.2c0.3,0.5,0.4,1.1,0.4,1.8
			C35.2,68,35,68.7,34.6,69.5z M37.3,64l-9.5-6.4l0.8-1.1l4.2,2.8l3-4.4L31.6,52l0.8-1.1l9.5,6.4L41,58.4l-4.2-2.9l-3,4.4l4.2,2.9
			L37.3,64z M46.3,52.4c-0.9,1-1.9,1.6-3.1,1.6s-2.3-0.4-3.4-1.4l-1.9-1.7c-1.1-1-1.7-2.1-1.8-3.2c0-1.1,0.4-2.2,1.3-3.2
			c0.9-1,1.9-1.6,3.1-1.7s2.3,0.4,3.4,1.4l1.9,1.7c1.1,1,1.7,2.1,1.8,3.2C47.6,50.3,47.2,51.4,46.3,52.4z M45.4,51.6
			c0.7-0.7,1-1.5,0.9-2.3c-0.1-0.8-0.5-1.6-1.3-2.3l-2-1.8c-0.8-0.7-1.6-1.1-2.4-1s-1.5,0.4-2.2,1.1c-0.7,0.7-0.9,1.5-0.9,2.3
			s0.5,1.6,1.3,2.3l2,1.8c0.8,0.7,1.6,1.1,2.4,1C44,52.7,44.7,52.3,45.4,51.6z M51.4,46.7L42.7,39l1.1-0.9l7.9,7.1l0.2-0.1l-5.1-9.5
			l1.9-1.6L57,41l0.2-0.1l-5.4-9.2l1.1-0.9l5.8,10l-1.9,1.6l-8.4-6.9l-0.2,0.1l5.1,9.6L51.4,46.7z M61.6,38.8l-5.8-9.9l4-2.4
			c0.6-0.4,1.2-0.6,1.8-0.6c0.6-0.1,1.1,0,1.6,0.3s0.9,0.6,1.2,1.2l0.1,0.2c0.4,0.6,0.5,1.2,0.4,1.8c-0.1,0.6-0.3,1-0.6,1.4l0.1,0.2
			c0.3-0.2,0.7-0.2,1-0.2s0.6,0.3,0.9,0.8l2,3.3l-1.2,0.7l-1.9-3.2c-0.2-0.3-0.4-0.5-0.6-0.5s-0.5,0-0.8,0.2l-3.4,2l2.4,4L61.6,38.8z
			M59.8,33l2.7-1.6c0.6-0.4,1.1-0.8,1.2-1.4c0.2-0.5,0.1-1.1-0.2-1.6l-0.1-0.1c-0.3-0.6-0.8-0.9-1.3-1c-0.5-0.1-1.1,0-1.8,0.4
			l-2.7,1.6L59.8,33z M70.5,33.8l-4.6-10.5l6.5-2.8l0.5,1.1l-5.2,2.3l1.5,3.5l4.8-2.1l0.5,1.1l-4.8,2.1l1.6,3.6l5.3-2.3l0.5,1.1
			L70.5,33.8z M78.9,30.2l-3.3-10.9l6.7-2l0.4,1.2l-5.4,1.6l1.1,3.7l5-1.5l0.4,1.2l-5,1.5l1.1,3.7l5.5-1.7l0.4,1.2L78.9,30.2z
			M87.6,27.8l-2.1-11.3l1.3-0.2l1.8,10l5.7-1l0.2,1.2L87.6,27.8z M99.5,18.5l0-0.9l1.4,0l1.1,0.1l0.1-0.2l-0.9-0.7l-1-1l0.6-0.6l1,1
			l0.7,0.9l0.2-0.1l-0.2-1.1l0-1.4l0.9,0l0,1.4l-0.1,1.1l0.2,0.1l0.7-0.9l1-1l0.6,0.6l-1,1l-0.9,0.7l0.1,0.2l1.1-0.2l1.4,0l0,0.9
			l-1.4,0l-1.1-0.1l-0.1,0.2l0.9,0.7l1,1l-0.6,0.6l-1-1l-0.7-0.9l-0.2,0.1l0.2,1.1l0,1.4l-0.9,0l0-1.4l0.1-1.1l-0.2-0.1l-0.7,0.9l-1,1
			l-0.6-0.6l1-1l0.9-0.7l-0.1-0.2l-1.1,0.2L99.5,18.5z"/>
	</g>
</svg>
