<svg id="coming-soon-object" xmlns="http://www.w3.org/2000/svg" xmlns:xlink="http://www.w3.org/1999/xlink" 
	shape-rendering="geometricPrecision" text-rendering="geometricPrecision" width="50px" height="50px" viewBox="0 0 50 50" 
	style="enable-background:new 0 0 50 50;" xml:space="preserve">

	<style type="text/css">
		#rotation-group {
			animation: rotateInfinite 9000ms linear infinite normal forwards
		}
		@keyframes rotateInfinite {
			0% {
				transform: translate(25px,25px) rotate(0deg);
				}
			100% {
				transform: translate(25px,25px) rotate(360deg);
				}
		}
	</style>

	<path fill="#ffffff" d="M25,0C11.2,0,0,11.2,0,25s11.2,25,25,25s25-11.2,25-25S38.8,0,25,0L25,0z"/>
	<path fill="#807DF2" d="M23,24.5h-2.2l-2.2-5.1c-0.1-0.3-0.1-0.5,0-0.8c0.1-0.2,0.3-0.4,0.5-0.5c0.3-0.1,0.5-0.1,0.8,0
		c0.2,0.1,0.4,0.3,0.5,0.5L23,24.5z M21.2,25.5h2.2h0.8c0.4,0,0.6,0.1,0.9,0.4c0.2,0.2,0.4,0.5,0.4,0.9c0,0.4-0.1,0.6-0.4,0.9
		c-0.2,0.2-0.5,0.4-0.9,0.4h-1.8c-0.3,0-0.5,0.2-0.5,0.5c0,0.3,0.2,0.5,0.5,0.5h1.8c0.6,0,1.2-0.2,1.6-0.7c0.4-0.4,0.6-0.9,0.7-1.6v0
		c0.3,0.2,0.6,0.3,1,0.3c0.4,0,0.8-0.1,1.1-0.3c0.1,0.4,0.4,0.7,0.7,1c0.3,0.2,0.7,0.4,1.2,0.4c0.4,0,0.7-0.1,1-0.3V28
		c0,1.4-0.5,2.6-1.5,3.5S27.9,33,26.5,33h-1.9c-1.4,0-2.6-0.5-3.5-1.5l-0.3-0.3c-0.8-0.8-1.2-1.7-1.2-2.8v-0.8c0-0.5,0.2-1,0.5-1.3
		C20.3,25.8,20.7,25.6,21.2,25.5L21.2,25.5z M25.2,17.3c0.2,0.2,0.3,0.4,0.3,0.7v6.5h-2V18c0-0.3,0.1-0.5,0.3-0.7s0.4-0.3,0.7-0.3
		C24.8,17,25,17.1,25.2,17.3z M28.2,22.3c0.2,0.2,0.3,0.4,0.3,0.7v2c0,0.3-0.1,0.5-0.3,0.7S27.8,26,27.5,26c-0.3,0-0.5-0.1-0.7-0.3
		s-0.3-0.4-0.3-0.7v-2c0-0.3,0.1-0.5,0.3-0.7s0.4-0.3,0.7-0.3C27.8,22,28,22.1,28.2,22.3z M29.8,23.3c0.2-0.2,0.4-0.3,0.7-0.3
		c0.3,0,0.5,0.1,0.7,0.3s0.3,0.4,0.3,0.7v2c0,0.3-0.1,0.5-0.3,0.7S30.8,27,30.5,27c-0.3,0-0.5-0.1-0.7-0.3s-0.3-0.4-0.3-0.7v-2
		C29.5,23.7,29.6,23.5,29.8,23.3z"/>

	<g id="rotation-group" transform="translate(25,25) rotate(360)">
	<path fill="#212121" transform="translate(-25,-25)" d="M27.3,9.1l0.9-5.6l0.9,0.3l-0.9,4.9l0.1,0l2.2-4.5l1.6,0.5l-0.7,4.9l0.1,0l2-4.5l0.9,0.3l-2.4,5.1l-1.6-0.5
		l0.7-5l-0.1,0l-2.3,4.6L27.3,9.1z M33.1,11.2l3.3-4.5l2.9,2.1l-0.5,0.7L36.7,8l-0.9,1.2l1.9,1.4l-0.5,0.7l-1.9-1.4l-0.9,1.2l2.1,1.6
		L36,13.4L33.1,11.2z M40.4,13l0.5-0.3l0.3,0.5l0.2,0.5l0.1,0l0-0.6l0.1-0.6l0.5,0.1l-0.1,0.6l-0.2,0.5l0.1,0.1l0.4-0.4l0.5-0.3
		l0.3,0.5L42.7,14l-0.5,0.2l0,0.1l0.6,0l0.6,0.1L43.3,15l-0.6-0.1l-0.5-0.2l-0.1,0.1l0.4,0.4l0.3,0.5L42.3,16L42,15.5l-0.2-0.5
		l-0.1,0l0,0.6l-0.1,0.6L41,16.1l0.1-0.6l0.2-0.5l-0.1-0.1l-0.4,0.4l-0.5,0.3L40,15.1l0.5-0.3l0.5-0.2l0-0.1l-0.6,0l-0.6-0.1l0.1-0.5
		l0.6,0.1l0.5,0.2l0.1-0.1l-0.4-0.4L40.4,13z M40.2,19.6l5.8,0.4l0.3,1.6l-5.2,2.6l-0.2-1l1.2-0.6l-0.4-2l-1.3-0.1L40.2,19.6z
		M42.6,20.8l0.3,1.6l2.6-1.3l0-0.1L42.6,20.8z M41,24.6l5.6,0.5l-0.2,2.4c0,0.3-0.1,0.7-0.3,0.9c-0.1,0.2-0.3,0.4-0.6,0.6
		s-0.5,0.2-0.8,0.1l-0.1,0c-0.3,0-0.6-0.1-0.8-0.3c-0.2-0.2-0.3-0.4-0.4-0.6l-0.1,0c0,0.2-0.1,0.4-0.3,0.5s-0.3,0.1-0.6,0.1l-1.8-0.2
		l0.1-1l1.7,0.2c0.1,0,0.2,0,0.3-0.1c0.1-0.1,0.1-0.2,0.2-0.3l0.2-1.6l-2.2-0.2L41,24.6z M43.9,25.8l-0.1,1.3c0,0.3,0,0.5,0.2,0.7
		c0.1,0.2,0.3,0.3,0.6,0.3l0.1,0c0.2,0,0.5,0,0.6-0.2c0.2-0.1,0.3-0.4,0.3-0.6l0.1-1.3L43.9,25.8z M40.4,29.2l5.2,2l-1.3,3.3
		l-0.8-0.3l0.9-2.4l-1.4-0.5l-0.9,2.2l-0.8-0.3l0.9-2.2l-1.4-0.5l-1,2.5l-0.8-0.3L40.4,29.2z M40.6,36.7l0.4,0.4l-0.4,0.5l-0.5,0.4
		l0,0.1l0.6-0.1l0.6,0l0,0.5l-0.6,0l-0.6-0.1l0,0.1l0.5,0.3l0.5,0.4l-0.4,0.4l-0.5-0.4l-0.4-0.5l-0.1,0.1l0.1,0.6l0,0.6l-0.5,0l0-0.6
		l0.1-0.6l-0.1,0L39,39.3l-0.4,0.5l-0.4-0.4l0.4-0.5l0.5-0.4l0-0.1l-0.6,0.1l-0.6,0l0-0.6l0.6,0l0.6,0.1l0-0.1l-0.5-0.3l-0.5-0.4
		l0.4-0.4l0.5,0.4l0.4,0.5l0.1,0l-0.1-0.6l0-0.6l0.5,0l0,0.6l-0.1,0.6l0.1,0l0.3-0.5L40.6,36.7z M31.8,39.3c0.6-0.3,1.2-0.4,1.7-0.2
		s1,0.6,1.3,1.2l0.6,1.2c0.3,0.7,0.4,1.2,0.2,1.8c-0.2,0.5-0.6,0.9-1.2,1.2c-0.6,0.3-1.2,0.4-1.7,0.2s-0.9-0.6-1.2-1.1l0,0l0.8-0.4
		l0,0.1c0.2,0.3,0.4,0.5,0.6,0.7c0.3,0.1,0.6,0.1,1-0.1c0.4-0.2,0.6-0.4,0.7-0.7s0.1-0.7-0.1-1.1l-0.6-1.2c-0.2-0.4-0.4-0.6-0.7-0.8
		s-0.6-0.1-1,0.1c-0.4,0.2-0.6,0.4-0.7,0.7c-0.1,0.3,0,0.6,0.1,0.9l0.1,0.1l-0.8,0.4l0-0.1c-0.3-0.6-0.3-1.1-0.2-1.6
		C30.8,40,31.2,39.6,31.8,39.3z M27.3,40.6c0.7-0.1,1.3,0,1.7,0.3c0.5,0.3,0.8,0.8,0.9,1.6l0.2,1.3c0.1,0.7,0,1.3-0.4,1.7
		c-0.4,0.4-0.9,0.7-1.6,0.8c-0.7,0.1-1.3,0-1.7-0.3s-0.7-0.8-0.9-1.6l-0.2-1.3c-0.1-0.7,0-1.3,0.4-1.7C26.1,41,26.6,40.7,27.3,40.6z
		M27.5,41.5c-0.4,0.1-0.7,0.2-0.9,0.5c-0.2,0.3-0.3,0.6-0.2,1l0.2,1.4c0.1,0.4,0.2,0.7,0.5,0.9c0.3,0.2,0.6,0.3,1,0.2
		c0.4-0.1,0.7-0.2,0.9-0.5c0.2-0.3,0.3-0.6,0.2-1L29,42.6c-0.1-0.4-0.2-0.7-0.5-0.9C28.2,41.5,27.9,41.4,27.5,41.5z M24.6,41.2
		l-1.2,5.5l-1.8-0.4l0-5.1l-0.1,0l-2.1,4.6l-1.8-0.4l1.2-5.5l0.9,0.2l-1,4.8l0.1,0l2.1-4.6l1.6,0.3l0.1,5l0.1,0l1-4.8L24.6,41.2z
		M18.2,39.4l-2.5,5L14.8,44l2.5-5L18.2,39.4z M16.6,38.7L13.1,43l-1.4-1.2l2.1-4.7l-0.1-0.1L10.6,41l-0.7-0.6l3.5-4.4l1.4,1.2
		l-2.1,4.7l0.1,0.1l3.1-3.8L16.6,38.7z M11.9,33.8c0.2,0.3,0.3,0.7,0.4,1c0,0.4,0,0.7-0.2,1c-0.2,0.3-0.5,0.6-0.9,0.9l-1.1,0.7
		c-0.6,0.4-1.2,0.5-1.7,0.4c-0.5-0.1-1-0.5-1.4-1c-0.4-0.6-0.5-1.1-0.4-1.6C6.7,34.8,7,34.4,7.5,34l0,0L8,34.8l-0.1,0
		c-0.2,0.1-0.3,0.3-0.4,0.4c-0.1,0.2-0.1,0.3-0.1,0.5c0,0.2,0.1,0.4,0.2,0.6C7.9,36.8,8.2,37,8.5,37c0.3,0.1,0.7,0,1-0.3l1.1-0.8
		c0.4-0.2,0.6-0.5,0.7-0.8c0.1-0.3,0-0.7-0.2-1c-0.2-0.3-0.5-0.5-0.8-0.6c-0.3,0-0.6,0-0.9,0.2l-0.1,0.1l0.8,1.2l-0.7,0.5l-1.3-2
		l2.3-1.6l0.5,0.7L10.6,33l0.1,0.1c0.1,0,0.2,0,0.4,0c0.1,0,0.3,0.1,0.4,0.2S11.8,33.6,11.9,33.8z M6.3,30.5l-0.5,0.1L5.6,30l0-0.6
		l-0.1,0l-0.2,0.5l-0.4,0.5l-0.5-0.3l0.4-0.5l0.4-0.4l-0.1-0.1l-0.5,0.2L4,29.4l-0.1-0.5l0.6-0.1l0.6,0l0-0.1l-0.5-0.2L4,28.1
		l0.3-0.5L4.9,28l0.4,0.4l0.1-0.1l-0.2-0.5L5,27.1L5.6,27l0.1,0.6l0,0.6l0.1,0l0.2-0.5l0.4-0.5l0.5,0.3L6.5,28l-0.4,0.4l0.1,0.1
		l0.5-0.2l0.6-0.1l0.1,0.5l-0.6,0.1l-0.6,0l0,0.1l0.5,0.2l0.5,0.4L7,30l-0.5-0.4L6,29.3l-0.1,0.1l0.2,0.5L6.3,30.5z M9.5,22.1
		c-0.1,0.4-0.2,0.8-0.4,1.1c-0.2,0.3-0.5,0.5-0.8,0.6S7.6,24,7.2,23.9l-0.2,0l0.2-0.9l0.2,0C7.7,23,8,23,8.2,22.8s0.4-0.5,0.4-0.8
		c0.1-0.4,0-0.7-0.1-0.9S8.3,20.7,8,20.7c-0.2,0-0.3,0-0.4,0.1c-0.1,0.1-0.2,0.2-0.3,0.3c-0.1,0.2-0.2,0.4-0.3,0.6l-0.1,0.2
		c-0.1,0.3-0.3,0.6-0.5,0.9C6.2,23,6,23.2,5.8,23.3S5.3,23.4,5,23.3c-0.3-0.1-0.6-0.2-0.8-0.4c-0.2-0.2-0.3-0.5-0.4-0.8
		c-0.1-0.3-0.1-0.7,0-1s0.2-0.7,0.4-1s0.4-0.5,0.7-0.6c0.3-0.1,0.6-0.2,1-0.1l0.3,0L6,20.4l-0.3,0c-0.2,0-0.4,0-0.6,0
		c-0.2,0.1-0.3,0.2-0.4,0.3c-0.1,0.2-0.2,0.3-0.2,0.6c-0.1,0.3,0,0.6,0.1,0.8s0.3,0.3,0.5,0.4c0.1,0,0.3,0,0.4,0
		c0.1-0.1,0.2-0.2,0.3-0.3c0.1-0.1,0.2-0.3,0.3-0.5l0.1-0.2c0.2-0.4,0.3-0.7,0.5-0.9c0.2-0.3,0.4-0.5,0.6-0.6s0.5-0.2,0.9-0.1
		c0.3,0.1,0.6,0.2,0.8,0.4c0.2,0.2,0.4,0.5,0.5,0.8S9.6,21.7,9.5,22.1z M11,17.8c-0.3,0.6-0.7,1-1.3,1.2s-1.1,0.1-1.8-0.2l-1.2-0.6
		c-0.6-0.3-1-0.8-1.2-1.3c-0.2-0.5-0.1-1.1,0.2-1.7c0.3-0.6,0.7-1,1.3-1.2c0.5-0.2,1.1-0.1,1.8,0.2l1.2,0.6c0.6,0.3,1,0.8,1.2,1.3
		C11.4,16.6,11.3,17.1,11,17.8z M10.2,17.4c0.2-0.4,0.2-0.7,0.1-1s-0.3-0.6-0.7-0.8l-1.2-0.6c-0.4-0.2-0.7-0.2-1-0.1
		c-0.3,0.1-0.6,0.3-0.8,0.7c-0.2,0.4-0.2,0.7-0.1,1c0.1,0.3,0.3,0.6,0.7,0.8l1.2,0.6c0.4,0.2,0.7,0.2,1,0.1C9.7,18,10,17.7,10.2,17.4
		z M13.8,13.8c-0.5,0.5-1,0.7-1.6,0.8c-0.6,0-1.1-0.2-1.6-0.7l-0.9-0.9c-0.5-0.5-0.8-1.1-0.7-1.6c0-0.6,0.3-1.1,0.8-1.6
		c0.5-0.5,1-0.7,1.6-0.8c0.6,0,1.1,0.2,1.6,0.7l0.9,0.9c0.5,0.5,0.8,1.1,0.7,1.6C14.6,12.8,14.3,13.3,13.8,13.8z M13.2,13.2
		c0.3-0.3,0.4-0.6,0.4-0.9c0-0.3-0.2-0.7-0.5-0.9l-1-1c-0.3-0.3-0.6-0.4-0.9-0.5c-0.3,0-0.7,0.1-0.9,0.4c-0.3,0.3-0.4,0.6-0.4,0.9
		c0,0.3,0.2,0.7,0.5,0.9l1,1c0.3,0.3,0.6,0.4,0.9,0.5C12.6,13.7,12.9,13.5,13.2,13.2z M15.8,11.8l-2.6-5L14.9,6l3.4,3.8l0.1-0.1
		l-2.3-4.4L17,4.9l2.6,5L18,10.7l-3.4-3.8L14.4,7l2.3,4.4L15.8,11.8z M21.5,5.8l0-0.5l0.6-0.1l0.6,0l0-0.1l-0.5-0.3l-0.5-0.4L22.1,4
		l0.5,0.4L23,4.8l0.1,0l-0.1-0.6l-0.1-0.6l0.5,0l0.1,0.6l0,0.6l0.1,0l0.3-0.5l0.4-0.5l0.4,0.3l-0.4,0.5L23.8,5l0,0.1L24.4,5L25,4.9
		l0,0.6l-0.6,0.1l-0.6,0l0,0.1l0.5,0.3l0.5,0.4l-0.4,0.4L24,6.3l-0.4-0.4l-0.1,0l0.1,0.6l0.1,0.6l-0.5,0l-0.1-0.6l0-0.6l-0.1,0
		l-0.3,0.5l-0.4,0.5l-0.4-0.4L22.4,6l0.4-0.4l0-0.1l-0.6,0.1L21.5,5.8z"/>
	</g>
</svg>
