<svg id="coming-soon-object" xmlns="http://www.w3.org/2000/svg" xmlns:xlink="http://www.w3.org/1999/xlink" 
	shape-rendering="geometricPrecision" text-rendering="geometricPrecision" width="80px" height="80px" viewBox="0 0 80 80" 
	style="enable-background:new 0 0 80 80;" xml:space="preserve">

	<style type="text/css">
		#rotation-group {
			animation: rotateInfinite 9000ms linear infinite normal forwards
		}
		@keyframes rotateInfinite {
			0% {
				transform: translate(40px,40px) rotate(0deg);
				}
			100% {
				transform: translate(40px,40px) rotate(360deg);
				}
		}
	</style>

	<path fill="#ffffff" d="M40,0C17.9,0,0,17.9,0,40s17.9,40,40,40s40-17.9,40-40S62.1,0,40,0L40,0z"/>
	<path fill="#807DF2" d="M36.9,39.1H33l-3.9-8.9c-0.2-0.5-0.2-0.9-0.1-1.4c0.2-0.4,0.5-0.7,0.9-0.9c0.5-0.2,0.9-0.2,1.4-0.1
		c0.4,0.2,0.7,0.5,0.9,0.9L36.9,39.1z M33.8,40.9h3.8H39c0.6,0,1.1,0.2,1.5,0.7c0.4,0.4,0.7,0.9,0.7,1.5c0,0.6-0.2,1.1-0.7,1.5
		c-0.4,0.4-0.9,0.7-1.5,0.7H36c-0.5,0-0.8,0.3-0.9,0.9c0,0.5,0.3,0.8,0.9,0.9H39c1.1,0,2.1-0.4,2.8-1.1c0.7-0.7,1.1-1.7,1.1-2.8V43
		c0.5,0.3,1.1,0.5,1.8,0.5c0.7,0,1.4-0.2,2-0.6c0.2,0.7,0.6,1.3,1.3,1.7c0.6,0.4,1.3,0.7,2,0.7c0.7,0,1.2-0.2,1.8-0.5v0.5
		c-0.1,2.5-0.9,4.5-2.6,6.2S45.5,53.9,43,54h-3.4c-2.4,0-4.5-0.9-6.2-2.6l-0.6-0.6c-1.3-1.4-2-3-2.1-5v-1.5c0-0.9,0.3-1.7,0.9-2.4
		C32.2,41.4,32.9,41,33.8,40.9L33.8,40.9z M40.7,26.5c0.3,0.3,0.5,0.7,0.5,1.3v11.4h-3.5V27.8c0-0.5,0.2-0.9,0.5-1.3S39,26,39.5,26
		C40,26,40.4,26.2,40.7,26.5z M46,35.2c0.3,0.3,0.5,0.7,0.5,1.3V40c0,0.5-0.2,0.9-0.5,1.3s-0.7,0.5-1.3,0.5c-0.5,0-0.9-0.2-1.3-0.5
		S43,40.5,43,40v-3.5c0-0.5,0.2-0.9,0.5-1.3s0.7-0.5,1.3-0.5C45.2,34.8,45.7,34.9,46,35.2z M48.7,37c0.3-0.3,0.7-0.5,1.3-0.5
		c0.5,0,0.9,0.2,1.3,0.5s0.5,0.7,0.5,1.3v3.5c0,0.5-0.2,0.9-0.5,1.3s-0.7,0.5-1.3,0.5c-0.5,0-0.9-0.2-1.3-0.5s-0.5-0.7-0.5-1.3v-3.5
		C48.2,37.7,48.4,37.3,48.7,37z"/>
	
	<g id="rotation-group" transform="translate(40,40) rotate(360)">
		<path fill="#212121" transform="translate(-40,-40)" d="M45.6,13.7c-0.8-0.2-1.3-0.5-1.7-1c-0.4-0.5-0.5-1.2-0.3-2l0.3-1.5c0.2-0.8,0.5-1.4,1.1-1.8
			c0.5-0.3,1.2-0.4,2-0.3c0.8,0.2,1.3,0.5,1.6,1c0.3,0.5,0.4,1.1,0.3,1.9l0,0.1l-1-0.2l0-0.1c0.1-0.4,0-0.8-0.1-1.1
			c-0.2-0.3-0.5-0.5-1-0.6c-0.5-0.1-0.9,0-1.2,0.2c-0.3,0.2-0.6,0.6-0.7,1.1l-0.3,1.5c-0.1,0.5-0.1,0.9,0.2,1.3c0.2,0.4,0.6,0.6,1,0.7
			c0.5,0.1,0.9,0,1.1-0.2c0.3-0.2,0.5-0.6,0.6-1l0-0.2l1,0.2l0,0.1c-0.2,0.7-0.5,1.3-1,1.6C47,13.8,46.3,13.9,45.6,13.7z M50.9,15.5
			c-0.7-0.3-1.2-0.8-1.5-1.4c-0.2-0.6-0.2-1.3,0.1-2.1l0.6-1.4c0.3-0.8,0.8-1.3,1.4-1.5c0.6-0.2,1.3-0.2,2,0.2
			c0.7,0.3,1.2,0.8,1.5,1.4c0.2,0.6,0.2,1.3-0.1,2.1l-0.6,1.4c-0.3,0.8-0.8,1.3-1.4,1.5C52.3,15.8,51.6,15.8,50.9,15.5z M51.3,14.6
			c0.5,0.2,0.9,0.2,1.3,0.1c0.4-0.2,0.7-0.5,0.9-0.9l0.6-1.5c0.2-0.5,0.2-0.9,0.1-1.3s-0.4-0.7-0.9-0.9c-0.5-0.2-0.9-0.2-1.3-0.1
			c-0.4,0.2-0.7,0.5-0.9,0.9l-0.6,1.5c-0.2,0.5-0.2,0.9-0.1,1.3C50.5,14.1,50.8,14.4,51.3,14.6z M54.1,16.7l4-5.1l1.5,1.2l-2.5,5.4
			l0.1,0.1l4.7-3.7l1.5,1.2l-4,5.1l-0.8-0.6l3.6-4.5l-0.1-0.1l-4.7,3.7l-1.3-1l2.5-5.4l-0.1-0.1l-3.6,4.5L54.1,16.7z M60,21.9l4.9-4.3
			l0.7,0.8l-4.9,4.3L60,21.9z M61.4,23.4l5.4-3.5l1,1.6L64,26.1l0.1,0.1l4.9-3.1l0.5,0.8L64,27.4l-1-1.6l3.9-4.6l-0.1-0.1l-4.9,3.1
			L61.4,23.4z M65.1,30.5c-0.2-0.4-0.2-0.9-0.1-1.3c0.1-0.4,0.2-0.8,0.5-1.1c0.3-0.3,0.7-0.6,1.2-0.8l1.4-0.5c0.8-0.3,1.5-0.3,2.1,0
			c0.6,0.3,1,0.8,1.3,1.5c0.3,0.7,0.3,1.4,0,1.9s-0.7,0.9-1.4,1.2l0,0l-0.3-0.9l0.1,0c0.2-0.1,0.5-0.2,0.6-0.4
			c0.2-0.2,0.3-0.4,0.3-0.6s0-0.5-0.1-0.8c-0.2-0.5-0.4-0.8-0.8-0.9c-0.4-0.2-0.8-0.1-1.3,0l-1.5,0.5c-0.5,0.2-0.8,0.5-1,0.8
			c-0.2,0.4-0.2,0.8,0,1.3c0.2,0.5,0.4,0.8,0.8,0.9c0.3,0.1,0.7,0.1,1.1,0l0.1,0l-0.6-1.6l0.8-0.3l0.9,2.6l-3,1.1L65.8,32l0.6-0.2
			l-0.1-0.1c-0.1,0-0.3,0-0.4-0.1c-0.2-0.1-0.3-0.2-0.4-0.3C65.4,31.1,65.2,30.8,65.1,30.5z M66.8,38.2c0-0.5,0-0.9,0.2-1.3
			c0.1-0.4,0.4-0.7,0.7-0.9c0.3-0.2,0.7-0.4,1.2-0.4l0.2,0l0.1,1l-0.2,0c-0.5,0-0.8,0.2-1,0.5c-0.2,0.3-0.3,0.7-0.3,1.1
			c0,0.5,0.2,0.8,0.4,1c0.2,0.2,0.5,0.3,0.8,0.3c0.2,0,0.4-0.1,0.5-0.2c0.1-0.1,0.2-0.3,0.3-0.5c0.1-0.2,0.1-0.5,0.2-0.7l0.1-0.3
			c0.1-0.4,0.2-0.8,0.3-1.1s0.3-0.6,0.5-0.7c0.2-0.2,0.5-0.3,0.9-0.3c0.4,0,0.7,0,1,0.2c0.3,0.2,0.5,0.4,0.7,0.7
			c0.2,0.3,0.3,0.7,0.3,1.2c0,0.4,0,0.9-0.2,1.2c-0.1,0.4-0.3,0.7-0.6,0.9s-0.7,0.3-1.1,0.4l-0.3,0l-0.1-1l0.3,0
			c0.3,0,0.5-0.1,0.7-0.2c0.2-0.1,0.3-0.3,0.3-0.5c0.1-0.2,0.1-0.4,0.1-0.7c0-0.4-0.1-0.7-0.3-0.9c-0.2-0.2-0.4-0.3-0.7-0.3
			c-0.2,0-0.4,0.1-0.5,0.2c-0.1,0.1-0.2,0.3-0.3,0.4c-0.1,0.2-0.1,0.4-0.2,0.7l-0.1,0.3c-0.1,0.4-0.2,0.8-0.3,1.1
			c-0.1,0.3-0.3,0.6-0.5,0.8c-0.2,0.2-0.5,0.3-0.9,0.3c-0.4,0-0.7,0-1-0.2c-0.3-0.2-0.5-0.4-0.7-0.8C66.9,39.1,66.8,38.7,66.8,38.2z
			M66.6,43.8c0.1-0.8,0.4-1.4,0.9-1.8c0.5-0.4,1.2-0.5,2-0.4l1.5,0.2c0.8,0.1,1.4,0.4,1.8,1c0.4,0.5,0.5,1.2,0.4,2
			c-0.1,0.8-0.4,1.4-0.9,1.8c-0.5,0.4-1.2,0.5-2,0.4l-1.5-0.2c-0.8-0.1-1.4-0.4-1.8-1C66.6,45.2,66.5,44.5,66.6,43.8z M67.5,43.9
			c-0.1,0.5,0,0.9,0.3,1.2c0.3,0.3,0.6,0.5,1.2,0.6l1.6,0.2c0.5,0.1,0.9,0,1.3-0.2c0.3-0.2,0.5-0.6,0.6-1.1c0.1-0.5,0-0.9-0.3-1.2
			c-0.3-0.3-0.6-0.5-1.2-0.6l-1.6-0.2c-0.5-0.1-0.9,0-1.3,0.3C67.7,43,67.5,43.4,67.5,43.9z M65.1,49.4c0.3-0.7,0.7-1.3,1.3-1.5
			c0.6-0.3,1.3-0.3,2.1,0l1.4,0.5c0.8,0.3,1.3,0.7,1.6,1.3c0.3,0.6,0.2,1.3,0,2c-0.3,0.7-0.7,1.3-1.3,1.5c-0.6,0.3-1.3,0.3-2.1,0
			l-1.4-0.5c-0.8-0.3-1.3-0.7-1.6-1.3S64.9,50.1,65.1,49.4z M66,49.7c-0.2,0.5-0.2,0.9,0,1.3c0.2,0.4,0.5,0.6,1,0.8l1.5,0.6
			c0.5,0.2,0.9,0.2,1.3,0c0.4-0.2,0.7-0.5,0.8-0.9c0.2-0.5,0.2-0.9,0-1.3c-0.2-0.4-0.5-0.6-1-0.8l-1.5-0.6c-0.5-0.2-0.9-0.2-1.3,0
			C66.4,48.9,66.2,49.3,66,49.7z M63.9,52.7l5.4,3.5l-1,1.6l-5.8-1.7l-0.1,0.1l4.9,3.2l-0.5,0.8l-5.4-3.5l1-1.6l5.8,1.7l0.1-0.1
			l-4.9-3.2L63.9,52.7z M62,62.1l0.4,0.4L61.8,63l-0.6,0.3l0,0.1l0.7-0.1l0.8,0.1l0,0.6l-0.7,0l-0.6-0.1L61.2,64l0.5,0.4l0.5,0.6
			l-0.4,0.4l-0.5-0.6l-0.4-0.6l-0.1,0l0.1,0.7l-0.1,0.7l-0.6,0l0-0.7l0.1-0.6l-0.1-0.1l-0.4,0.5l-0.6,0.5l-0.4-0.4l0.6-0.5l0.6-0.3
			l0-0.1l-0.7,0.1l-0.7-0.1l0-0.6l0.8,0.1l0.6,0.1l0.1-0.1l-0.5-0.4l-0.5-0.6l0.4-0.4l0.5,0.6l0.4,0.6l0.1,0l-0.1-0.7l0.1-0.8l0.6,0
			L61,62.4L60.9,63l0.1,0.1l0.4-0.5L62,62.1z M51.5,64.3c0.5-0.2,0.9-0.3,1.3-0.3c0.4,0,0.8,0.1,1.1,0.4c0.3,0.2,0.6,0.6,0.8,1
			l1.8,3.8l-0.9,0.4l-1.8-3.9c-0.2-0.4-0.5-0.7-0.8-0.8c-0.3-0.1-0.7-0.1-1.1,0.1c-0.4,0.2-0.7,0.5-0.8,0.8c-0.1,0.3-0.1,0.7,0.1,1.1
			l1.8,3.9l-0.9,0.4l-1.8-3.8C50,67,49.9,66.6,50,66.2c0-0.4,0.2-0.8,0.4-1.1C50.6,64.8,51,64.5,51.5,64.3z M48.4,65.7l1.4,6.3
			l-1.9,0.4l-3-5.3l-0.1,0l1.3,5.7l-1,0.2l-1.4-6.3l1.9-0.4l3,5.3l0.1,0L47.4,66L48.4,65.7z M42.9,66.9l0,0.9l-0.9,0l0.1,4.7l0.9,0
			l0,0.9l-2.6,0c-0.9,0-1.5-0.2-2-0.6c-0.5-0.4-0.7-1.1-0.7-2l0-1.2c0-0.9,0.2-1.5,0.7-2c0.5-0.4,1.1-0.7,2-0.7L42.9,66.9z M41.1,67.8
			l-0.7,0c-0.6,0-1,0.2-1.2,0.4c-0.3,0.3-0.4,0.7-0.4,1.3l0,1.3c0,0.6,0.2,1,0.4,1.3c0.3,0.3,0.7,0.4,1.3,0.4l0.7,0L41.1,67.8z
			M36.8,66.8l-1.2,6.4l-4-0.8l0.2-0.9l3,0.6l0.3-1.8l-2.8-0.5l0.2-0.9l2.8,0.5l0.4-1.9l-3.1-0.6l0.2-0.9L36.8,66.8z M32,65.8l-2.4,6
			l-2.5-1c-0.4-0.2-0.7-0.3-0.9-0.6c-0.2-0.2-0.4-0.5-0.4-0.8c-0.1-0.3,0-0.6,0.1-1l0-0.1c0.2-0.4,0.4-0.6,0.6-0.8
			c0.3-0.2,0.6-0.2,0.8-0.2l0.1-0.1c-0.2-0.1-0.4-0.2-0.4-0.4c-0.1-0.2-0.1-0.4,0-0.7l0.8-2l0.9,0.4L28,66.4c-0.1,0.2-0.1,0.3,0,0.4
			c0,0.1,0.2,0.2,0.3,0.3l1.8,0.7l1-2.4L32,65.8z M29.8,68.7l-1.5-0.6c-0.3-0.1-0.6-0.2-0.9-0.1c-0.3,0.1-0.4,0.3-0.6,0.6l0,0.1
			c-0.1,0.3-0.1,0.6,0,0.8c0.1,0.2,0.3,0.4,0.7,0.6l1.5,0.6L29.8,68.7z M23.2,60.9c0.6,0.5,1,1.1,1.1,1.7c0.1,0.6-0.1,1.3-0.7,1.9
			l-0.9,1.2c-0.5,0.7-1.1,1-1.7,1.1c-0.6,0.1-1.3-0.2-1.9-0.6c-0.6-0.5-0.9-1-1-1.6c-0.1-0.6,0.1-1.2,0.6-1.8l0,0l0.8,0.6l-0.1,0.1
			c-0.3,0.3-0.4,0.7-0.4,1.1c0,0.4,0.2,0.7,0.6,1c0.4,0.3,0.8,0.4,1.2,0.4c0.4-0.1,0.8-0.3,1.1-0.7l1-1.2c0.3-0.4,0.5-0.8,0.4-1.2
			s-0.2-0.8-0.6-1.1c-0.4-0.3-0.8-0.4-1.1-0.3c-0.4,0.1-0.7,0.3-0.9,0.6L20.5,62l-0.8-0.6l0.1-0.1c0.5-0.6,1-0.9,1.6-1
			C22,60.2,22.6,60.4,23.2,60.9z M19.3,57c0.5,0.6,0.7,1.2,0.7,1.9c0,0.6-0.4,1.2-1.1,1.8l-1.2,1c-0.7,0.5-1.3,0.8-1.9,0.7
			c-0.6-0.1-1.2-0.4-1.7-1c-0.5-0.6-0.7-1.2-0.7-1.9c0-0.6,0.4-1.2,1-1.8l1.2-1c0.7-0.5,1.3-0.8,1.9-0.7C18.2,56,18.8,56.4,19.3,57z
			M18.6,57.6c-0.3-0.4-0.7-0.6-1.1-0.6c-0.4,0-0.8,0.1-1.2,0.5l-1.2,1c-0.4,0.3-0.6,0.7-0.7,1.1c-0.1,0.4,0.1,0.8,0.4,1.2
			c0.3,0.4,0.7,0.6,1.1,0.6c0.4,0,0.8-0.1,1.2-0.4l1.2-1c0.4-0.3,0.6-0.7,0.7-1.1C19,58.4,18.9,58,18.6,57.6z M17,54.3l-5.8,2.9
			l-0.9-1.7l4.4-4.2l-0.1-0.1l-5.2,2.6L9.1,53l5.8-2.9l0.9,1.7l-4.4,4.2l0.1,0.1l5.2-2.6L17,54.3z M14.1,46.9c0.1,0.5,0.2,0.9,0.1,1.3
			c-0.1,0.4-0.2,0.8-0.5,1c-0.3,0.3-0.6,0.5-1.1,0.6l-0.2,0.1l-0.3-1l0.2-0.1c0.4-0.1,0.7-0.3,0.9-0.7c0.1-0.3,0.2-0.7,0-1.1
			c-0.1-0.4-0.3-0.8-0.6-0.9c-0.2-0.2-0.5-0.2-0.8-0.1c-0.2,0.1-0.3,0.1-0.4,0.3c-0.1,0.1-0.2,0.3-0.2,0.5c0,0.2,0,0.5,0,0.8l0,0.4
			c0,0.4,0,0.8-0.1,1.1c-0.1,0.3-0.2,0.6-0.4,0.8c-0.2,0.2-0.5,0.4-0.8,0.5c-0.4,0.1-0.7,0.1-1,0c-0.3-0.1-0.6-0.3-0.8-0.6
			c-0.2-0.3-0.4-0.6-0.5-1.1c-0.1-0.4-0.1-0.8-0.1-1.2s0.2-0.7,0.4-1c0.2-0.3,0.6-0.5,1-0.6l0.3-0.1l0.3,1l-0.3,0.1
			C9,47,8.8,47.1,8.6,47.2c-0.1,0.2-0.2,0.3-0.2,0.6c0,0.2,0,0.5,0.1,0.7c0.1,0.4,0.3,0.7,0.5,0.8c0.2,0.2,0.5,0.2,0.7,0.1
			c0.2-0.1,0.3-0.1,0.4-0.3c0.1-0.1,0.2-0.3,0.2-0.5s0-0.4,0-0.7l0-0.4c0-0.4,0-0.8,0.1-1.2c0.1-0.3,0.2-0.6,0.4-0.9
			c0.2-0.2,0.5-0.4,0.8-0.5c0.4-0.1,0.7-0.1,1.1,0c0.3,0.1,0.6,0.3,0.9,0.6C13.8,46,14,46.4,14.1,46.9z M13.2,42.6L7.6,43l0.2,2
			L6.9,45l-0.4-5L7.4,40l0.2,2l5.5-0.4L13.2,42.6z M13,39l-6.4-0.8l0.3-2.7c0-0.4,0.2-0.7,0.3-1c0.2-0.3,0.4-0.5,0.7-0.6
			c0.3-0.1,0.6-0.2,0.9-0.1l0.1,0c0.4,0,0.7,0.2,0.9,0.4c0.2,0.2,0.4,0.5,0.4,0.8l0.1,0c0-0.2,0.1-0.4,0.3-0.5
			c0.2-0.1,0.4-0.2,0.6-0.1l2.1,0.3l-0.1,1l-2-0.2c-0.2,0-0.3,0-0.4,0.1c-0.1,0.1-0.2,0.2-0.2,0.4l-0.2,2l2.5,0.3L13,39z M9.7,37.5
			L9.9,36c0-0.4,0-0.6-0.2-0.9c-0.2-0.2-0.4-0.3-0.7-0.4l-0.1,0c-0.3,0-0.6,0-0.8,0.2c-0.2,0.2-0.3,0.4-0.4,0.8l-0.2,1.6L9.7,37.5z
			M14.7,31.2c-0.2,0.5-0.4,0.9-0.7,1.2s-0.6,0.5-1,0.5c-0.4,0.1-0.8,0-1.3-0.1l-4-1.4l0.3-1l4,1.4c0.4,0.1,0.8,0.1,1.1,0
			c0.3-0.2,0.5-0.5,0.7-0.9c0.2-0.4,0.2-0.8,0-1.1s-0.4-0.6-0.9-0.7l-4-1.4l0.3-0.9l4,1.4c0.5,0.2,0.8,0.4,1.1,0.7
			c0.3,0.3,0.4,0.7,0.5,1.1C14.9,30.3,14.8,30.7,14.7,31.2z M17.1,26c-0.4,0.7-0.9,1.1-1.5,1.3c-0.6,0.2-1.3,0-2-0.4L12.3,26
			c-0.7-0.4-1.2-1-1.3-1.6c-0.1-0.6,0-1.3,0.4-2c0.4-0.7,0.9-1.1,1.5-1.2c0.6-0.1,1.2,0,1.8,0.4l0,0l-0.5,0.8l-0.1,0
			c-0.4-0.2-0.7-0.3-1.1-0.3c-0.4,0.1-0.7,0.3-0.9,0.7c-0.3,0.4-0.3,0.8-0.2,1.2c0.1,0.4,0.4,0.7,0.8,1l1.3,0.8
			c0.4,0.3,0.9,0.4,1.3,0.3c0.4-0.1,0.7-0.3,1-0.8c0.3-0.4,0.3-0.8,0.2-1.1c-0.1-0.3-0.4-0.6-0.7-0.9l-0.1-0.1l0.5-0.8l0.1,0.1
			c0.6,0.4,1,0.9,1.2,1.5C17.7,24.7,17.5,25.3,17.1,26z M19.8,22.2l-4.1-3.7l-1.3,1.5l-0.7-0.6l3.3-3.7l0.7,0.6l-1.3,1.5l4.1,3.7
			L19.8,22.2z M22.4,19.6l-4.1-5L19,14l4.1,5L22.4,19.6z M26.1,17c-0.7,0.4-1.3,0.5-2,0.4c-0.6-0.1-1.2-0.6-1.6-1.3l-0.8-1.3
			c-0.4-0.7-0.6-1.4-0.4-2c0.2-0.6,0.6-1.1,1.3-1.6c0.7-0.4,1.3-0.6,2-0.4c0.6,0.1,1.2,0.6,1.6,1.3l0.8,1.3c0.4,0.7,0.6,1.4,0.4,2
			C27.2,16.1,26.8,16.6,26.1,17z M25.6,16.3c0.4-0.3,0.7-0.6,0.8-1c0.1-0.4,0-0.8-0.3-1.3l-0.8-1.4c-0.3-0.4-0.6-0.7-1-0.8
			c-0.4-0.1-0.8,0-1.2,0.2c-0.4,0.3-0.7,0.6-0.8,1c-0.1,0.4,0,0.8,0.3,1.3l0.8,1.4c0.3,0.4,0.6,0.7,1,0.8
			C24.8,16.6,25.2,16.5,25.6,16.3z M29.1,15.2L27,9.1l1.8-0.6l3.5,4.9l0.1,0l-1.9-5.5l0.9-0.3l2.1,6.1l-1.8,0.6l-3.5-4.9l-0.1,0
			l1.9,5.5L29.1,15.2z M36.4,9l0-0.6l0.8,0l0.7,0.1l0-0.1L37.3,8l-0.6-0.5l0.4-0.4l0.6,0.5l0.4,0.5L38.2,8L38,7.4l0-0.7l0.6,0l0,0.7
			L38.6,8l0.1,0L39,7.5l0.5-0.6L40,7.3l-0.5,0.6L39,8.3L39,8.4l0.6-0.1l0.8,0l0,0.6l-0.8,0L39,8.8l0,0.1l0.6,0.4l0.6,0.5l-0.4,0.4
			l-0.6-0.5l-0.4-0.5l-0.1,0.1l0.1,0.6l0,0.7l-0.6,0l0-0.7l0.1-0.7l-0.1,0l-0.4,0.6l-0.5,0.6l-0.4-0.4l0.5-0.6L37.8,9l-0.1-0.1L37.1,9
			L36.4,9z"/>
	</g>
</svg>
