<?xml version="1.0" encoding="utf-8"?>
<!-- Generator: Adobe Illustrator 27.0.1, SVG Export Plug-In . SVG Version: 6.00 Build 0)  -->
<svg version="1.1" id="Layer_1" xmlns="http://www.w3.org/2000/svg" xmlns:xlink="http://www.w3.org/1999/xlink" x="0px" y="0px"
	 width="40px" height="40px" viewBox="0 0 40 40" style="enable-background:new 0 0 40 40;" xml:space="preserve">
<style type="text/css">
	.st0{fill:#FFFFFF;}
</style>
<path class="st0" d="M27.5,1v4.5v1h1h4.7v4.9v1h1H39v15.2h-4.5h-1v1v4.8h-4.7h-1v1V39H1v-9.5h10.4h1v-1v-17v-1h-1H1V1H27.5
	 M16.2,29.5h1h11.6h1v-1v-4.7h4.4h1v-1v-5.9v-1h-1h-4.7v-4.5v-1h-1H17.2h-1v1v17V29.5 M28.5,0H0v11.5h11.4v17H0V40h28.8v-5.7h5.7
	v-5.8H40V11.3h-5.8V5.5h-5.7V0L28.5,0z M17.2,28.5v-17h11.3v5.5h5.7v5.9h-5.4v5.7H17.2L17.2,28.5z"/>
</svg>
